<svg width="40" height="41" viewBox="0 0 40 41" fill="none" xmlns="http://www.w3.org/2000/svg">
<g clip-path="url(#clip0_39856_170674)">
<path d="M29.0739 4.94446H10.9258C7.348 4.94877 4.44865 7.84812 4.44434 11.426V29.5741C4.44865 33.1519 7.348 36.0513 10.9258 36.0556H24.5564C24.7677 36.0556 24.9764 36.0387 25.1851 36.0245V29.5741C25.1851 27.4263 26.9262 25.6852 29.074 25.6852H35.5244C35.5387 25.4765 35.5555 25.2678 35.5555 25.0565V11.4259C35.5512 7.84812 32.6518 4.94877 29.0739 4.94446Z" fill="#C5C6C9"/>
<path d="M27.7778 29.574V35.4592C28.9769 35.0064 30.0662 34.3038 30.9732 33.3981L32.8969 31.4731C33.8037 30.5667 34.5068 29.4774 34.9593 28.2777H29.0742C28.3582 28.2778 27.7778 28.8581 27.7778 29.574Z" fill="#C5C6C9"/>
</g>
<path d="M14.7109 10.168H15.3125C15.5052 10.168 15.6641 10.1354 15.7891 10.0703C15.9141 10.0026 16.0065 9.90885 16.0664 9.78906C16.1289 9.66667 16.1602 9.52474 16.1602 9.36328C16.1602 9.21745 16.1315 9.08854 16.0742 8.97656C16.0195 8.86198 15.9349 8.77344 15.8203 8.71094C15.7057 8.64583 15.5612 8.61328 15.3867 8.61328C15.2487 8.61328 15.1211 8.64062 15.0039 8.69531C14.8867 8.75 14.793 8.82682 14.7227 8.92578C14.6523 9.02474 14.6172 9.14453 14.6172 9.28516H13.4883C13.4883 8.97266 13.5716 8.70052 13.7383 8.46875C13.9076 8.23698 14.1341 8.05599 14.418 7.92578C14.7018 7.79557 15.0143 7.73047 15.3555 7.73047C15.7409 7.73047 16.0781 7.79297 16.3672 7.91797C16.6562 8.04036 16.8815 8.22135 17.043 8.46094C17.2044 8.70052 17.2852 8.9974 17.2852 9.35156C17.2852 9.53125 17.2435 9.70573 17.1602 9.875C17.0768 10.0417 16.957 10.1927 16.8008 10.3281C16.6471 10.4609 16.4596 10.5677 16.2383 10.6484C16.0169 10.7266 15.7682 10.7656 15.4922 10.7656H14.7109V10.168ZM14.7109 11.0234V10.4414H15.4922C15.8021 10.4414 16.0742 10.4766 16.3086 10.5469C16.543 10.6172 16.7396 10.7188 16.8984 10.8516C17.0573 10.9818 17.1771 11.1367 17.2578 11.3164C17.3385 11.4935 17.3789 11.6901 17.3789 11.9062C17.3789 12.1719 17.3281 12.4089 17.2266 12.6172C17.125 12.8229 16.9818 12.9974 16.7969 13.1406C16.6146 13.2839 16.401 13.3932 16.1562 13.4688C15.9115 13.5417 15.6445 13.5781 15.3555 13.5781C15.1159 13.5781 14.8802 13.5456 14.6484 13.4805C14.4193 13.4128 14.2109 13.3125 14.0234 13.1797C13.8385 13.0443 13.6901 12.875 13.5781 12.6719C13.4688 12.4661 13.4141 12.2227 13.4141 11.9414H14.543C14.543 12.0872 14.5794 12.2174 14.6523 12.332C14.7253 12.4466 14.8255 12.5365 14.9531 12.6016C15.0833 12.6667 15.2279 12.6992 15.3867 12.6992C15.5664 12.6992 15.7201 12.6667 15.8477 12.6016C15.9779 12.5339 16.0768 12.4401 16.1445 12.3203C16.2148 12.1979 16.25 12.056 16.25 11.8945C16.25 11.6862 16.2122 11.5195 16.1367 11.3945C16.0612 11.2669 15.9531 11.1732 15.8125 11.1133C15.6719 11.0534 15.5052 11.0234 15.3125 11.0234H14.7109ZM20.875 9.27344H21.8945V13.3594C21.8945 13.7448 21.8086 14.0716 21.6367 14.3398C21.4674 14.6107 21.2305 14.8151 20.9258 14.9531C20.6211 15.0938 20.2669 15.1641 19.8633 15.1641C19.6862 15.1641 19.4987 15.1406 19.3008 15.0938C19.1055 15.0469 18.918 14.974 18.7383 14.875C18.5612 14.776 18.4128 14.651 18.293 14.5L18.7891 13.8359C18.9193 13.987 19.0703 14.1042 19.2422 14.1875C19.4141 14.2734 19.6042 14.3164 19.8125 14.3164C20.0156 14.3164 20.1875 14.2786 20.3281 14.2031C20.4688 14.1302 20.5768 14.0221 20.6523 13.8789C20.7279 13.7383 20.7656 13.5677 20.7656 13.3672V10.25L20.875 9.27344ZM18.0312 11.4375V11.3555C18.0312 11.0326 18.0703 10.7396 18.1484 10.4766C18.2292 10.2109 18.3424 9.98307 18.4883 9.79297C18.6367 9.60286 18.8164 9.45573 19.0273 9.35156C19.2383 9.2474 19.4766 9.19531 19.7422 9.19531C20.0234 9.19531 20.2591 9.2474 20.4492 9.35156C20.6393 9.45573 20.7956 9.60417 20.918 9.79688C21.0404 9.98698 21.1354 10.2122 21.2031 10.4727C21.2734 10.7305 21.3281 11.013 21.3672 11.3203V11.5C21.3281 11.7943 21.2695 12.0677 21.1914 12.3203C21.1133 12.5729 21.0104 12.7943 20.8828 12.9844C20.7552 13.1719 20.5964 13.3177 20.4062 13.4219C20.2188 13.526 19.9948 13.5781 19.7344 13.5781C19.474 13.5781 19.2383 13.5247 19.0273 13.418C18.819 13.3112 18.6406 13.1615 18.4922 12.9688C18.3438 12.776 18.2292 12.5495 18.1484 12.2891C18.0703 12.0286 18.0312 11.7448 18.0312 11.4375ZM19.1562 11.3555V11.4375C19.1562 11.612 19.1732 11.7747 19.207 11.9258C19.2409 12.0768 19.293 12.2109 19.3633 12.3281C19.4362 12.4427 19.526 12.5326 19.6328 12.5977C19.7422 12.6602 19.8711 12.6914 20.0195 12.6914C20.2253 12.6914 20.3932 12.6484 20.5234 12.5625C20.6536 12.474 20.7513 12.3529 20.8164 12.1992C20.8815 12.0456 20.9193 11.8685 20.9297 11.668V11.1562C20.9245 10.9922 20.9023 10.8451 20.8633 10.7148C20.8242 10.582 20.7695 10.4688 20.6992 10.375C20.6289 10.2812 20.5378 10.2083 20.4258 10.1562C20.3138 10.1042 20.181 10.0781 20.0273 10.0781C19.8789 10.0781 19.75 10.112 19.6406 10.1797C19.5339 10.2448 19.444 10.3346 19.3711 10.4492C19.3008 10.5638 19.2474 10.6992 19.2109 10.8555C19.1745 11.0091 19.1562 11.1758 19.1562 11.3555ZM23.8945 10.0859V15.125H22.7695V9.27344H23.8125L23.8945 10.0859ZM26.5703 11.3398V11.4219C26.5703 11.7292 26.5339 12.0143 26.4609 12.2773C26.3906 12.5404 26.2865 12.7695 26.1484 12.9648C26.0104 13.1576 25.8385 13.3086 25.6328 13.418C25.4297 13.5247 25.1953 13.5781 24.9297 13.5781C24.6719 13.5781 24.4479 13.526 24.2578 13.4219C24.0677 13.3177 23.9076 13.1719 23.7773 12.9844C23.6497 12.7943 23.5469 12.5742 23.4688 12.3242C23.3906 12.0742 23.3307 11.806 23.2891 11.5195V11.3047C23.3307 10.9974 23.3906 10.7161 23.4688 10.4609C23.5469 10.2031 23.6497 9.98047 23.7773 9.79297C23.9076 9.60286 24.0664 9.45573 24.2539 9.35156C24.444 9.2474 24.6667 9.19531 24.9219 9.19531C25.1901 9.19531 25.4258 9.24609 25.6289 9.34766C25.8346 9.44922 26.0065 9.59505 26.1445 9.78516C26.2852 9.97526 26.3906 10.2018 26.4609 10.4648C26.5339 10.7279 26.5703 11.0195 26.5703 11.3398ZM25.4414 11.4219V11.3398C25.4414 11.1602 25.4258 10.9948 25.3945 10.8438C25.3659 10.6901 25.319 10.556 25.2539 10.4414C25.1914 10.3268 25.1081 10.2383 25.0039 10.1758C24.9023 10.1107 24.7786 10.0781 24.6328 10.0781C24.4792 10.0781 24.3477 10.1029 24.2383 10.1523C24.1315 10.2018 24.0443 10.2734 23.9766 10.3672C23.9089 10.4609 23.8581 10.5729 23.8242 10.7031C23.7904 10.8333 23.7695 10.9805 23.7617 11.1445V11.6875C23.7747 11.8802 23.8112 12.0534 23.8711 12.207C23.931 12.3581 24.0234 12.4779 24.1484 12.5664C24.2734 12.6549 24.4375 12.6992 24.6406 12.6992C24.7891 12.6992 24.9141 12.6667 25.0156 12.6016C25.1172 12.5339 25.1992 12.4414 25.2617 12.3242C25.3268 12.207 25.3724 12.0716 25.3984 11.918C25.4271 11.7643 25.4414 11.599 25.4414 11.4219Z" fill="white"/>
<defs>
<clipPath id="clip0_39856_170674">
<rect width="31.1111" height="31.1111" fill="white" transform="translate(4.44434 4.94446)"/>
</clipPath>
</defs>
</svg>
