<svg width="40" height="41" viewBox="0 0 40 41" fill="none" xmlns="http://www.w3.org/2000/svg">
<g clip-path="url(#clip0_39856_170758)">
<path d="M29.0739 4.94446H10.9258C7.348 4.94877 4.44865 7.84812 4.44434 11.426V29.5741C4.44865 33.1519 7.348 36.0513 10.9258 36.0556H24.5564C24.7677 36.0556 24.9764 36.0387 25.1851 36.0245V29.5741C25.1851 27.4263 26.9262 25.6852 29.074 25.6852H35.5244C35.5387 25.4765 35.5555 25.2678 35.5555 25.0565V11.4259C35.5512 7.84812 32.6518 4.94877 29.0739 4.94446Z" fill="#C5C6C9"/>
<path d="M27.7778 29.574V35.4592C28.9769 35.0064 30.0662 34.3038 30.9732 33.3981L32.8969 31.4731C33.8037 30.5667 34.5068 29.4774 34.9593 28.2777H29.0742C28.3582 28.2778 27.7778 28.8581 27.7778 29.574Z" fill="#C5C6C9"/>
</g>
<path d="M16.1484 12.5469V10.6641C16.1484 10.5286 16.1263 10.4128 16.082 10.3164C16.0378 10.2174 15.9688 10.1406 15.875 10.0859C15.7839 10.0312 15.6654 10.0039 15.5195 10.0039C15.3945 10.0039 15.2865 10.026 15.1953 10.0703C15.1042 10.112 15.0339 10.1732 14.9844 10.2539C14.9349 10.332 14.9102 10.4245 14.9102 10.5312H13.7852C13.7852 10.3516 13.8268 10.181 13.9102 10.0195C13.9935 9.85807 14.1146 9.71615 14.2734 9.59375C14.4323 9.46875 14.6211 9.37109 14.8398 9.30078C15.0612 9.23047 15.3086 9.19531 15.582 9.19531C15.9102 9.19531 16.2018 9.25 16.457 9.35938C16.7122 9.46875 16.9128 9.63281 17.0586 9.85156C17.207 10.0703 17.2812 10.3438 17.2812 10.6719V12.4805C17.2812 12.7122 17.2956 12.9023 17.3242 13.0508C17.3529 13.1966 17.3945 13.3242 17.4492 13.4336V13.5H16.3125C16.2578 13.3854 16.2161 13.2422 16.1875 13.0703C16.1615 12.8958 16.1484 12.7214 16.1484 12.5469ZM16.2969 10.9258L16.3047 11.5625H15.6758C15.5273 11.5625 15.3984 11.5794 15.2891 11.6133C15.1797 11.6471 15.0898 11.6953 15.0195 11.7578C14.9492 11.8177 14.8971 11.888 14.8633 11.9688C14.832 12.0495 14.8164 12.138 14.8164 12.2344C14.8164 12.3307 14.8385 12.418 14.8828 12.4961C14.9271 12.5716 14.9909 12.6315 15.0742 12.6758C15.1576 12.7174 15.2552 12.7383 15.3672 12.7383C15.5365 12.7383 15.6836 12.7044 15.8086 12.6367C15.9336 12.569 16.0299 12.4857 16.0977 12.3867C16.168 12.2878 16.2044 12.194 16.207 12.1055L16.5039 12.582C16.4622 12.6888 16.4049 12.7995 16.332 12.9141C16.2617 13.0286 16.1719 13.1367 16.0625 13.2383C15.9531 13.3372 15.8216 13.4193 15.668 13.4844C15.5143 13.5469 15.332 13.5781 15.1211 13.5781C14.8529 13.5781 14.6094 13.5247 14.3906 13.418C14.1745 13.3086 14.0026 13.1589 13.875 12.9688C13.75 12.776 13.6875 12.5573 13.6875 12.3125C13.6875 12.0911 13.7292 11.8945 13.8125 11.7227C13.8958 11.5508 14.0182 11.4062 14.1797 11.2891C14.3438 11.1693 14.5482 11.0794 14.793 11.0195C15.0378 10.957 15.3216 10.9258 15.6445 10.9258H16.2969ZM19.2734 10.1484V13.5H18.1445V9.27344H19.2031L19.2734 10.1484ZM19.1172 11.2383H18.8047C18.8047 10.944 18.8398 10.6732 18.9102 10.4258C18.9831 10.1758 19.0885 9.95964 19.2266 9.77734C19.3672 9.59245 19.5404 9.44922 19.7461 9.34766C19.9518 9.24609 20.1901 9.19531 20.4609 9.19531C20.6484 9.19531 20.8203 9.22396 20.9766 9.28125C21.1328 9.33594 21.2669 9.42318 21.3789 9.54297C21.4935 9.66016 21.582 9.8138 21.6445 10.0039C21.707 10.1914 21.7383 10.4167 21.7383 10.6797V13.5H20.6133V10.8047C20.6133 10.612 20.5872 10.4635 20.5352 10.3594C20.4831 10.2552 20.4089 10.1823 20.3125 10.1406C20.2188 10.099 20.1055 10.0781 19.9727 10.0781C19.8268 10.0781 19.6992 10.1081 19.5898 10.168C19.4831 10.2279 19.3945 10.3112 19.3242 10.418C19.2539 10.5221 19.2018 10.6445 19.168 10.7852C19.1341 10.9258 19.1172 11.0768 19.1172 11.2383ZM21.6328 11.1094L21.2305 11.1602C21.2305 10.8841 21.2643 10.6276 21.332 10.3906C21.4023 10.1536 21.5052 9.94531 21.6406 9.76562C21.7786 9.58594 21.9492 9.44661 22.1523 9.34766C22.3555 9.24609 22.5898 9.19531 22.8555 9.19531C23.0586 9.19531 23.2435 9.22526 23.4102 9.28516C23.5768 9.34245 23.7188 9.4349 23.8359 9.5625C23.9557 9.6875 24.0469 9.85156 24.1094 10.0547C24.1745 10.2578 24.207 10.5065 24.207 10.8008V13.5H23.0781V10.8008C23.0781 10.6055 23.0521 10.457 23 10.3555C22.9505 10.2513 22.8776 10.1797 22.7812 10.1406C22.6875 10.099 22.5755 10.0781 22.4453 10.0781C22.3099 10.0781 22.1914 10.1055 22.0898 10.1602C21.9883 10.2122 21.9036 10.2852 21.8359 10.3789C21.7682 10.4727 21.7174 10.582 21.6836 10.707C21.6497 10.8294 21.6328 10.9635 21.6328 11.1094ZM26.2031 10.1953V13.5H25.0781V9.27344H26.1367L26.2031 10.1953ZM27.4766 9.24609L27.457 10.2891C27.4023 10.2812 27.3359 10.2747 27.2578 10.2695C27.1823 10.2617 27.1133 10.2578 27.0508 10.2578C26.8919 10.2578 26.7539 10.2786 26.6367 10.3203C26.5221 10.3594 26.4258 10.418 26.3477 10.4961C26.2721 10.5742 26.2148 10.6693 26.1758 10.7812C26.1393 10.8932 26.1185 11.0208 26.1133 11.1641L25.8867 11.0938C25.8867 10.8203 25.9141 10.569 25.9688 10.3398C26.0234 10.1081 26.1029 9.90625 26.207 9.73438C26.3138 9.5625 26.444 9.42969 26.5977 9.33594C26.7513 9.24219 26.9271 9.19531 27.125 9.19531C27.1875 9.19531 27.2513 9.20052 27.3164 9.21094C27.3815 9.21875 27.4349 9.23047 27.4766 9.24609Z" fill="white"/>
<defs>
<clipPath id="clip0_39856_170758">
<rect width="31.1111" height="31.1111" fill="white" transform="translate(4.44434 4.94446)"/>
</clipPath>
</defs>
</svg>
