<svg width="40" height="41" viewBox="0 0 40 41" fill="none" xmlns="http://www.w3.org/2000/svg">
<g clip-path="url(#clip0_39856_170687)">
<path d="M29.0739 4.94446H10.9258C7.348 4.94877 4.44865 7.84812 4.44434 11.426V29.5741C4.44865 33.1519 7.348 36.0513 10.9258 36.0556H24.5564C24.7677 36.0556 24.9764 36.0387 25.1851 36.0245V29.5741C25.1851 27.4263 26.9262 25.6852 29.074 25.6852H35.5244C35.5387 25.4765 35.5555 25.2678 35.5555 25.0565V11.4259C35.5512 7.84812 32.6518 4.94877 29.0739 4.94446Z" fill="#C5C6C9"/>
<path d="M27.7778 29.574V35.4592C28.9769 35.0064 30.0662 34.3038 30.9732 33.3981L32.8969 31.4731C33.8037 30.5667 34.5068 29.4774 34.9593 28.2777H29.0742C28.3582 28.2778 27.7778 28.8581 27.7778 29.574Z" fill="#C5C6C9"/>
</g>
<path d="M18.0234 12.5469V10.6641C18.0234 10.5286 18.0013 10.4128 17.957 10.3164C17.9128 10.2174 17.8438 10.1406 17.75 10.0859C17.6589 10.0312 17.5404 10.0039 17.3945 10.0039C17.2695 10.0039 17.1615 10.026 17.0703 10.0703C16.9792 10.112 16.9089 10.1732 16.8594 10.2539C16.8099 10.332 16.7852 10.4245 16.7852 10.5312H15.6602C15.6602 10.3516 15.7018 10.181 15.7852 10.0195C15.8685 9.85807 15.9896 9.71615 16.1484 9.59375C16.3073 9.46875 16.4961 9.37109 16.7148 9.30078C16.9362 9.23047 17.1836 9.19531 17.457 9.19531C17.7852 9.19531 18.0768 9.25 18.332 9.35938C18.5872 9.46875 18.7878 9.63281 18.9336 9.85156C19.082 10.0703 19.1562 10.3438 19.1562 10.6719V12.4805C19.1562 12.7122 19.1706 12.9023 19.1992 13.0508C19.2279 13.1966 19.2695 13.3242 19.3242 13.4336V13.5H18.1875C18.1328 13.3854 18.0911 13.2422 18.0625 13.0703C18.0365 12.8958 18.0234 12.7214 18.0234 12.5469ZM18.1719 10.9258L18.1797 11.5625H17.5508C17.4023 11.5625 17.2734 11.5794 17.1641 11.6133C17.0547 11.6471 16.9648 11.6953 16.8945 11.7578C16.8242 11.8177 16.7721 11.888 16.7383 11.9688C16.707 12.0495 16.6914 12.138 16.6914 12.2344C16.6914 12.3307 16.7135 12.418 16.7578 12.4961C16.8021 12.5716 16.8659 12.6315 16.9492 12.6758C17.0326 12.7174 17.1302 12.7383 17.2422 12.7383C17.4115 12.7383 17.5586 12.7044 17.6836 12.6367C17.8086 12.569 17.9049 12.4857 17.9727 12.3867C18.043 12.2878 18.0794 12.194 18.082 12.1055L18.3789 12.582C18.3372 12.6888 18.2799 12.7995 18.207 12.9141C18.1367 13.0286 18.0469 13.1367 17.9375 13.2383C17.8281 13.3372 17.6966 13.4193 17.543 13.4844C17.3893 13.5469 17.207 13.5781 16.9961 13.5781C16.7279 13.5781 16.4844 13.5247 16.2656 13.418C16.0495 13.3086 15.8776 13.1589 15.75 12.9688C15.625 12.776 15.5625 12.5573 15.5625 12.3125C15.5625 12.0911 15.6042 11.8945 15.6875 11.7227C15.7708 11.5508 15.8932 11.4062 16.0547 11.2891C16.2188 11.1693 16.4232 11.0794 16.668 11.0195C16.9128 10.957 17.1966 10.9258 17.5195 10.9258H18.1719ZM21.3984 12.6797L22.3359 9.27344H23.5117L22.0859 13.5H21.375L21.3984 12.6797ZM20.7539 9.27344L21.6953 12.6836L21.7148 13.5H21L19.5742 9.27344H20.7539ZM25.2031 9.27344V13.5H24.0742V9.27344H25.2031ZM24.0039 8.17188C24.0039 8.00781 24.0612 7.8724 24.1758 7.76562C24.2904 7.65885 24.444 7.60547 24.6367 7.60547C24.8268 7.60547 24.9792 7.65885 25.0938 7.76562C25.2109 7.8724 25.2695 8.00781 25.2695 8.17188C25.2695 8.33594 25.2109 8.47135 25.0938 8.57812C24.9792 8.6849 24.8268 8.73828 24.6367 8.73828C24.444 8.73828 24.2904 8.6849 24.1758 8.57812C24.0612 8.47135 24.0039 8.33594 24.0039 8.17188Z" fill="white"/>
<defs>
<clipPath id="clip0_39856_170687">
<rect width="31.1111" height="31.1111" fill="white" transform="translate(4.44434 4.94446)"/>
</clipPath>
</defs>
</svg>
