<svg width="40" height="41" viewBox="0 0 40 41" fill="none" xmlns="http://www.w3.org/2000/svg">
<g clip-path="url(#clip0_39856_170787)">
<path d="M29.0739 4.94446H10.9258C7.348 4.94877 4.44865 7.84812 4.44434 11.426V29.5741C4.44865 33.1519 7.348 36.0513 10.9258 36.0556H24.5564C24.7677 36.0556 24.9764 36.0387 25.1851 36.0245V29.5741C25.1851 27.4263 26.9262 25.6852 29.074 25.6852H35.5244C35.5387 25.4765 35.5555 25.2678 35.5555 25.0565V11.4259C35.5512 7.84812 32.6518 4.94877 29.0739 4.94446Z" fill="#C5C6C9"/>
<path d="M27.7778 29.574V35.4592C28.9769 35.0064 30.0662 34.3038 30.9732 33.3981L32.8969 31.4731C33.8037 30.5667 34.5068 29.4774 34.9593 28.2777H29.0742C28.3582 28.2778 27.7778 28.8581 27.7778 29.574Z" fill="#C5C6C9"/>
</g>
<path d="M14.3008 12.5781V7.5H15.4336V13.5H14.4141L14.3008 12.5781ZM11.6289 11.4375V11.3555C11.6289 11.0326 11.6654 10.7396 11.7383 10.4766C11.8112 10.2109 11.918 9.98307 12.0586 9.79297C12.1992 9.60286 12.3724 9.45573 12.5781 9.35156C12.7839 9.2474 13.0182 9.19531 13.2812 9.19531C13.5286 9.19531 13.7448 9.2474 13.9297 9.35156C14.1172 9.45573 14.276 9.60417 14.4062 9.79688C14.5391 9.98698 14.6458 10.2122 14.7266 10.4727C14.8073 10.7305 14.8659 11.013 14.9023 11.3203V11.5C14.8659 11.7943 14.8073 12.0677 14.7266 12.3203C14.6458 12.5729 14.5391 12.7943 14.4062 12.9844C14.276 13.1719 14.1172 13.3177 13.9297 13.4219C13.7422 13.526 13.5234 13.5781 13.2734 13.5781C13.0104 13.5781 12.776 13.5247 12.5703 13.418C12.3672 13.3112 12.1953 13.1615 12.0547 12.9688C11.9167 12.776 11.8112 12.5495 11.7383 12.2891C11.6654 12.0286 11.6289 11.7448 11.6289 11.4375ZM12.7539 11.3555V11.4375C12.7539 11.612 12.7669 11.7747 12.793 11.9258C12.8216 12.0768 12.8672 12.2109 12.9297 12.3281C12.9948 12.4427 13.0781 12.5326 13.1797 12.5977C13.2839 12.6602 13.4102 12.6914 13.5586 12.6914C13.7513 12.6914 13.9102 12.6484 14.0352 12.5625C14.1602 12.474 14.2552 12.3529 14.3203 12.1992C14.388 12.0456 14.4271 11.8685 14.4375 11.668V11.1562C14.4297 10.9922 14.4062 10.8451 14.3672 10.7148C14.3307 10.582 14.276 10.4688 14.2031 10.375C14.1328 10.2812 14.0443 10.2083 13.9375 10.1562C13.8333 10.1042 13.7096 10.0781 13.5664 10.0781C13.4206 10.0781 13.2956 10.112 13.1914 10.1797C13.0872 10.2448 13.0026 10.3346 12.9375 10.4492C12.875 10.5638 12.8281 10.6992 12.7969 10.8555C12.7682 11.0091 12.7539 11.1758 12.7539 11.3555ZM16.1328 11.4297V11.3477C16.1328 11.0378 16.1771 10.7526 16.2656 10.4922C16.3542 10.2292 16.4831 10.0013 16.6523 9.80859C16.8216 9.61589 17.0299 9.46615 17.2773 9.35938C17.5247 9.25 17.8086 9.19531 18.1289 9.19531C18.4492 9.19531 18.7344 9.25 18.9844 9.35938C19.2344 9.46615 19.444 9.61589 19.6133 9.80859C19.7852 10.0013 19.9154 10.2292 20.0039 10.4922C20.0924 10.7526 20.1367 11.0378 20.1367 11.3477V11.4297C20.1367 11.737 20.0924 12.0221 20.0039 12.2852C19.9154 12.5456 19.7852 12.7734 19.6133 12.9688C19.444 13.1615 19.2357 13.3112 18.9883 13.418C18.7409 13.5247 18.457 13.5781 18.1367 13.5781C17.8164 13.5781 17.5312 13.5247 17.2812 13.418C17.0339 13.3112 16.8242 13.1615 16.6523 12.9688C16.4831 12.7734 16.3542 12.5456 16.2656 12.2852C16.1771 12.0221 16.1328 11.737 16.1328 11.4297ZM17.2578 11.3477V11.4297C17.2578 11.6068 17.2734 11.7721 17.3047 11.9258C17.3359 12.0794 17.3854 12.2148 17.4531 12.332C17.5234 12.4466 17.6146 12.5365 17.7266 12.6016C17.8385 12.6667 17.9753 12.6992 18.1367 12.6992C18.293 12.6992 18.4271 12.6667 18.5391 12.6016C18.651 12.5365 18.7409 12.4466 18.8086 12.332C18.8763 12.2148 18.9258 12.0794 18.957 11.9258C18.9909 11.7721 19.0078 11.6068 19.0078 11.4297V11.3477C19.0078 11.1758 18.9909 11.0143 18.957 10.8633C18.9258 10.7096 18.875 10.5742 18.8047 10.457C18.737 10.3372 18.6471 10.2435 18.5352 10.1758C18.4232 10.1081 18.2878 10.0742 18.1289 10.0742C17.9701 10.0742 17.8346 10.1081 17.7227 10.1758C17.6133 10.2435 17.5234 10.3372 17.4531 10.457C17.3854 10.5742 17.3359 10.7096 17.3047 10.8633C17.2734 11.0143 17.2578 11.1758 17.2578 11.3477ZM22.5742 12.6992C22.7122 12.6992 22.8346 12.6732 22.9414 12.6211C23.0482 12.5664 23.1315 12.4909 23.1914 12.3945C23.2539 12.2956 23.2865 12.1797 23.2891 12.0469H24.3477C24.3451 12.3438 24.2656 12.6081 24.1094 12.8398C23.9531 13.069 23.7435 13.25 23.4805 13.3828C23.2174 13.513 22.9232 13.5781 22.5977 13.5781C22.2695 13.5781 21.9831 13.5234 21.7383 13.4141C21.4961 13.3047 21.2943 13.1536 21.1328 12.9609C20.9714 12.7656 20.8503 12.5391 20.7695 12.2812C20.6888 12.0208 20.6484 11.7422 20.6484 11.4453V11.332C20.6484 11.0326 20.6888 10.7539 20.7695 10.4961C20.8503 10.2357 20.9714 10.0091 21.1328 9.81641C21.2943 9.62109 21.4961 9.46875 21.7383 9.35938C21.9805 9.25 22.2643 9.19531 22.5898 9.19531C22.9362 9.19531 23.2396 9.26172 23.5 9.39453C23.763 9.52734 23.9688 9.71745 24.1172 9.96484C24.2682 10.2096 24.3451 10.5 24.3477 10.8359H23.2891C23.2865 10.6953 23.2565 10.5677 23.1992 10.4531C23.1445 10.3385 23.0638 10.2474 22.957 10.1797C22.8529 10.1094 22.724 10.0742 22.5703 10.0742C22.4062 10.0742 22.2721 10.1094 22.168 10.1797C22.0638 10.2474 21.9831 10.3411 21.9258 10.4609C21.8685 10.5781 21.8281 10.7122 21.8047 10.8633C21.7839 11.0117 21.7734 11.168 21.7734 11.332V11.4453C21.7734 11.6094 21.7839 11.7669 21.8047 11.918C21.8255 12.069 21.8646 12.2031 21.9219 12.3203C21.9818 12.4375 22.0638 12.5299 22.168 12.5977C22.2721 12.6654 22.4076 12.6992 22.5742 12.6992ZM25.9062 9.27344L26.6055 10.5586L27.3242 9.27344H28.5234L27.3281 11.3398L28.5781 13.5H27.375L26.6133 12.1406L25.8516 13.5H24.6484L25.8984 11.3398L24.7031 9.27344H25.9062Z" fill="white"/>
<defs>
<clipPath id="clip0_39856_170787">
<rect width="31.1111" height="31.1111" fill="white" transform="translate(4.44434 4.94446)"/>
</clipPath>
</defs>
</svg>
