<svg width="40" height="41" viewBox="0 0 40 41" fill="none" xmlns="http://www.w3.org/2000/svg">
<g clip-path="url(#clip0_39856_170619)">
<path d="M29.0739 4.94434H10.9258C7.348 4.94865 4.44865 7.848 4.44434 11.4258V29.574C4.44865 33.1518 7.348 36.0512 10.9258 36.0554H24.5564C24.7677 36.0554 24.9764 36.0386 25.1851 36.0243V29.5739C25.1851 27.4262 26.9262 25.6851 29.074 25.6851H35.5244C35.5387 25.4763 35.5555 25.2677 35.5555 25.0563V11.4258C35.5512 7.848 32.6518 4.94865 29.0739 4.94434Z" fill="#C5C6C9"/>
<path d="M27.7778 29.5739V35.4591C28.9769 35.0063 30.0662 34.3037 30.9732 33.398L32.8969 31.473C33.8037 30.5666 34.5068 29.4772 34.9593 28.2776H29.0742C28.3582 28.2776 27.7778 28.858 27.7778 29.5739Z" fill="#C5C6C9"/>
</g>
<path d="M18.3359 9.27344H19.3555V13.3594C19.3555 13.7448 19.2695 14.0716 19.0977 14.3398C18.9284 14.6107 18.6914 14.8151 18.3867 14.9531C18.082 15.0938 17.7279 15.1641 17.3242 15.1641C17.1471 15.1641 16.9596 15.1406 16.7617 15.0938C16.5664 15.0469 16.3789 14.974 16.1992 14.875C16.0221 14.776 15.8737 14.651 15.7539 14.5L16.25 13.8359C16.3802 13.987 16.5312 14.1042 16.7031 14.1875C16.875 14.2734 17.0651 14.3164 17.2734 14.3164C17.4766 14.3164 17.6484 14.2786 17.7891 14.2031C17.9297 14.1302 18.0378 14.0221 18.1133 13.8789C18.1888 13.7383 18.2266 13.5677 18.2266 13.3672V10.25L18.3359 9.27344ZM15.4922 11.4375V11.3555C15.4922 11.0326 15.5312 10.7396 15.6094 10.4766C15.6901 10.2109 15.8034 9.98307 15.9492 9.79297C16.0977 9.60286 16.2773 9.45573 16.4883 9.35156C16.6992 9.2474 16.9375 9.19531 17.2031 9.19531C17.4844 9.19531 17.7201 9.2474 17.9102 9.35156C18.1003 9.45573 18.2565 9.60417 18.3789 9.79688C18.5013 9.98698 18.5964 10.2122 18.6641 10.4727C18.7344 10.7305 18.7891 11.013 18.8281 11.3203V11.5C18.7891 11.7943 18.7305 12.0677 18.6523 12.3203C18.5742 12.5729 18.4714 12.7943 18.3438 12.9844C18.2161 13.1719 18.0573 13.3177 17.8672 13.4219C17.6797 13.526 17.4557 13.5781 17.1953 13.5781C16.9349 13.5781 16.6992 13.5247 16.4883 13.418C16.2799 13.3112 16.1016 13.1615 15.9531 12.9688C15.8047 12.776 15.6901 12.5495 15.6094 12.2891C15.5312 12.0286 15.4922 11.7448 15.4922 11.4375ZM16.6172 11.3555V11.4375C16.6172 11.612 16.6341 11.7747 16.668 11.9258C16.7018 12.0768 16.7539 12.2109 16.8242 12.3281C16.8971 12.4427 16.987 12.5326 17.0938 12.5977C17.2031 12.6602 17.332 12.6914 17.4805 12.6914C17.6862 12.6914 17.8542 12.6484 17.9844 12.5625C18.1146 12.474 18.2122 12.3529 18.2773 12.1992C18.3424 12.0456 18.3802 11.8685 18.3906 11.668V11.1562C18.3854 10.9922 18.3633 10.8451 18.3242 10.7148C18.2852 10.582 18.2305 10.4688 18.1602 10.375C18.0898 10.2812 17.9987 10.2083 17.8867 10.1562C17.7747 10.1042 17.6419 10.0781 17.4883 10.0781C17.3398 10.0781 17.2109 10.112 17.1016 10.1797C16.9948 10.2448 16.9049 10.3346 16.832 10.4492C16.7617 10.5638 16.7083 10.6992 16.6719 10.8555C16.6354 11.0091 16.6172 11.1758 16.6172 11.3555ZM21.418 9.27344V13.5H20.2891V9.27344H21.418ZM20.2188 8.17188C20.2188 8.00781 20.276 7.8724 20.3906 7.76562C20.5052 7.65885 20.6589 7.60547 20.8516 7.60547C21.0417 7.60547 21.194 7.65885 21.3086 7.76562C21.4258 7.8724 21.4844 8.00781 21.4844 8.17188C21.4844 8.33594 21.4258 8.47135 21.3086 8.57812C21.194 8.6849 21.0417 8.73828 20.8516 8.73828C20.6589 8.73828 20.5052 8.6849 20.3906 8.57812C20.276 8.47135 20.2188 8.33594 20.2188 8.17188ZM23.7812 13.5H22.6484V8.89844C22.6484 8.57812 22.7109 8.30859 22.8359 8.08984C22.9635 7.86849 23.1419 7.70182 23.3711 7.58984C23.6029 7.47526 23.8776 7.41797 24.1953 7.41797C24.2995 7.41797 24.3997 7.42578 24.4961 7.44141C24.5924 7.45443 24.6862 7.47135 24.7773 7.49219L24.7656 8.33984C24.7161 8.32682 24.6641 8.31771 24.6094 8.3125C24.5547 8.30729 24.4909 8.30469 24.418 8.30469C24.2826 8.30469 24.1667 8.32812 24.0703 8.375C23.9766 8.41927 23.9049 8.48568 23.8555 8.57422C23.806 8.66276 23.7812 8.77083 23.7812 8.89844V13.5ZM24.625 9.27344V10.0703H22.0195V9.27344H24.625Z" fill="white"/>
<defs>
<clipPath id="clip0_39856_170619">
<rect width="31.1111" height="31.1111" fill="white" transform="translate(4.44434 4.94434)"/>
</clipPath>
</defs>
</svg>
