<svg width="40" height="41" viewBox="0 0 40 41" fill="none" xmlns="http://www.w3.org/2000/svg">
<g clip-path="url(#clip0_39856_170590)">
<path d="M29.0739 4.94434H10.9258C7.348 4.94865 4.44865 7.848 4.44434 11.4258V29.574C4.44865 33.1518 7.348 36.0512 10.9258 36.0554H24.5564C24.7677 36.0554 24.9764 36.0386 25.1851 36.0243V29.5739C25.1851 27.4262 26.9262 25.6851 29.074 25.6851H35.5244C35.5387 25.4763 35.5555 25.2677 35.5555 25.0563V11.4258C35.5512 7.848 32.6518 4.94865 29.0739 4.94434Z" fill="#C5C6C9"/>
<path d="M27.7778 29.5739V35.4591C28.9769 35.0063 30.0662 34.3037 30.9732 33.398L32.8969 31.473C33.8037 30.5666 34.5068 29.4772 34.9593 28.2776H29.0742C28.3582 28.2776 27.7778 28.858 27.7778 29.5739Z" fill="#C5C6C9"/>
</g>
<path d="M12.7617 9.27344H13.8906V13.7539C13.8906 14.0664 13.8333 14.3307 13.7188 14.5469C13.6042 14.763 13.4388 14.9271 13.2227 15.0391C13.0065 15.151 12.7448 15.207 12.4375 15.207C12.3411 15.207 12.2474 15.2018 12.1562 15.1914C12.0625 15.181 11.9661 15.1641 11.8672 15.1406L11.8711 14.2773C11.9336 14.2878 11.9948 14.2956 12.0547 14.3008C12.112 14.3086 12.1706 14.3125 12.2305 14.3125C12.3477 14.3125 12.4453 14.293 12.5234 14.2539C12.6016 14.2148 12.6602 14.1536 12.6992 14.0703C12.7409 13.9896 12.7617 13.8841 12.7617 13.7539V9.27344ZM12.6719 8.17188C12.6719 8.00781 12.7292 7.8724 12.8438 7.76562C12.9609 7.65885 13.1146 7.60547 13.3047 7.60547C13.4974 7.60547 13.651 7.65885 13.7656 7.76562C13.8802 7.8724 13.9375 8.00781 13.9375 8.17188C13.9375 8.33594 13.8802 8.47135 13.7656 8.57812C13.651 8.6849 13.4974 8.73828 13.3047 8.73828C13.1146 8.73828 12.9609 8.6849 12.8438 8.57812C12.7292 8.47135 12.6719 8.33594 12.6719 8.17188ZM15.9102 10.0859V15.125H14.7852V9.27344H15.8281L15.9102 10.0859ZM18.5859 11.3398V11.4219C18.5859 11.7292 18.5495 12.0143 18.4766 12.2773C18.4062 12.5404 18.3021 12.7695 18.1641 12.9648C18.026 13.1576 17.8542 13.3086 17.6484 13.418C17.4453 13.5247 17.2109 13.5781 16.9453 13.5781C16.6875 13.5781 16.4635 13.526 16.2734 13.4219C16.0833 13.3177 15.9232 13.1719 15.793 12.9844C15.6654 12.7943 15.5625 12.5742 15.4844 12.3242C15.4062 12.0742 15.3464 11.806 15.3047 11.5195V11.3047C15.3464 10.9974 15.4062 10.7161 15.4844 10.4609C15.5625 10.2031 15.6654 9.98047 15.793 9.79297C15.9232 9.60286 16.082 9.45573 16.2695 9.35156C16.4596 9.2474 16.6823 9.19531 16.9375 9.19531C17.2057 9.19531 17.4414 9.24609 17.6445 9.34766C17.8503 9.44922 18.0221 9.59505 18.1602 9.78516C18.3008 9.97526 18.4062 10.2018 18.4766 10.4648C18.5495 10.7279 18.5859 11.0195 18.5859 11.3398ZM17.457 11.4219V11.3398C17.457 11.1602 17.4414 10.9948 17.4102 10.8438C17.3815 10.6901 17.3346 10.556 17.2695 10.4414C17.207 10.3268 17.1237 10.2383 17.0195 10.1758C16.918 10.1107 16.7943 10.0781 16.6484 10.0781C16.4948 10.0781 16.3633 10.1029 16.2539 10.1523C16.1471 10.2018 16.0599 10.2734 15.9922 10.3672C15.9245 10.4609 15.8737 10.5729 15.8398 10.7031C15.806 10.8333 15.7852 10.9805 15.7773 11.1445V11.6875C15.7904 11.8802 15.8268 12.0534 15.8867 12.207C15.9466 12.3581 16.0391 12.4779 16.1641 12.5664C16.2891 12.6549 16.4531 12.6992 16.6562 12.6992C16.8047 12.6992 16.9297 12.6667 17.0312 12.6016C17.1328 12.5339 17.2148 12.4414 17.2773 12.3242C17.3424 12.207 17.388 12.0716 17.4141 11.918C17.4427 11.7643 17.457 11.599 17.457 11.4219ZM21.2305 13.5781C20.9023 13.5781 20.6081 13.526 20.3477 13.4219C20.0872 13.3151 19.8659 13.168 19.6836 12.9805C19.5039 12.793 19.3659 12.5755 19.2695 12.3281C19.1732 12.0781 19.125 11.8125 19.125 11.5312V11.375C19.125 11.0547 19.1706 10.7617 19.2617 10.4961C19.3529 10.2305 19.4831 10 19.6523 9.80469C19.8242 9.60938 20.0326 9.45964 20.2773 9.35547C20.5221 9.2487 20.7982 9.19531 21.1055 9.19531C21.4049 9.19531 21.6706 9.24479 21.9023 9.34375C22.1341 9.44271 22.3281 9.58333 22.4844 9.76562C22.6432 9.94792 22.763 10.1667 22.8438 10.4219C22.9245 10.6745 22.9648 10.9557 22.9648 11.2656V11.7344H19.6055V10.9844H21.8594V10.8984C21.8594 10.7422 21.8307 10.6029 21.7734 10.4805C21.7188 10.3555 21.6354 10.2565 21.5234 10.1836C21.4115 10.1107 21.2682 10.0742 21.0938 10.0742C20.9453 10.0742 20.8177 10.1068 20.7109 10.1719C20.6042 10.237 20.5169 10.3281 20.4492 10.4453C20.3841 10.5625 20.3346 10.7005 20.3008 10.8594C20.2695 11.0156 20.2539 11.1875 20.2539 11.375V11.5312C20.2539 11.7005 20.2773 11.8568 20.3242 12C20.3737 12.1432 20.4427 12.2669 20.5312 12.3711C20.6224 12.4753 20.7318 12.556 20.8594 12.6133C20.9896 12.6706 21.1367 12.6992 21.3008 12.6992C21.5039 12.6992 21.6927 12.6602 21.8672 12.582C22.0443 12.5013 22.1966 12.3802 22.3242 12.2188L22.8711 12.8125C22.7826 12.9401 22.6615 13.0625 22.5078 13.1797C22.3568 13.2969 22.1745 13.3932 21.9609 13.4688C21.7474 13.5417 21.5039 13.5781 21.2305 13.5781ZM26.2812 9.27344H27.3008V13.3594C27.3008 13.7448 27.2148 14.0716 27.043 14.3398C26.8737 14.6107 26.6367 14.8151 26.332 14.9531C26.0273 15.0938 25.6732 15.1641 25.2695 15.1641C25.0924 15.1641 24.9049 15.1406 24.707 15.0938C24.5117 15.0469 24.3242 14.974 24.1445 14.875C23.9674 14.776 23.819 14.651 23.6992 14.5L24.1953 13.8359C24.3255 13.987 24.4766 14.1042 24.6484 14.1875C24.8203 14.2734 25.0104 14.3164 25.2188 14.3164C25.4219 14.3164 25.5938 14.2786 25.7344 14.2031C25.875 14.1302 25.9831 14.0221 26.0586 13.8789C26.1341 13.7383 26.1719 13.5677 26.1719 13.3672V10.25L26.2812 9.27344ZM23.4375 11.4375V11.3555C23.4375 11.0326 23.4766 10.7396 23.5547 10.4766C23.6354 10.2109 23.7487 9.98307 23.8945 9.79297C24.043 9.60286 24.2227 9.45573 24.4336 9.35156C24.6445 9.2474 24.8828 9.19531 25.1484 9.19531C25.4297 9.19531 25.6654 9.2474 25.8555 9.35156C26.0456 9.45573 26.2018 9.60417 26.3242 9.79688C26.4466 9.98698 26.5417 10.2122 26.6094 10.4727C26.6797 10.7305 26.7344 11.013 26.7734 11.3203V11.5C26.7344 11.7943 26.6758 12.0677 26.5977 12.3203C26.5195 12.5729 26.4167 12.7943 26.2891 12.9844C26.1615 13.1719 26.0026 13.3177 25.8125 13.4219C25.625 13.526 25.401 13.5781 25.1406 13.5781C24.8802 13.5781 24.6445 13.5247 24.4336 13.418C24.2253 13.3112 24.0469 13.1615 23.8984 12.9688C23.75 12.776 23.6354 12.5495 23.5547 12.2891C23.4766 12.0286 23.4375 11.7448 23.4375 11.4375ZM24.5625 11.3555V11.4375C24.5625 11.612 24.5794 11.7747 24.6133 11.9258C24.6471 12.0768 24.6992 12.2109 24.7695 12.3281C24.8424 12.4427 24.9323 12.5326 25.0391 12.5977C25.1484 12.6602 25.2773 12.6914 25.4258 12.6914C25.6315 12.6914 25.7995 12.6484 25.9297 12.5625C26.0599 12.474 26.1576 12.3529 26.2227 12.1992C26.2878 12.0456 26.3255 11.8685 26.3359 11.668V11.1562C26.3307 10.9922 26.3086 10.8451 26.2695 10.7148C26.2305 10.582 26.1758 10.4688 26.1055 10.375C26.0352 10.2812 25.944 10.2083 25.832 10.1562C25.7201 10.1042 25.5872 10.0781 25.4336 10.0781C25.2852 10.0781 25.1562 10.112 25.0469 10.1797C24.9401 10.2448 24.8503 10.3346 24.7773 10.4492C24.707 10.5638 24.6536 10.6992 24.6172 10.8555C24.5807 11.0091 24.5625 11.1758 24.5625 11.3555Z" fill="white"/>
<defs>
<clipPath id="clip0_39856_170590">
<rect width="31.1111" height="31.1111" fill="white" transform="translate(4.44434 4.94434)"/>
</clipPath>
</defs>
</svg>
