<svg width="40" height="41" viewBox="0 0 40 41" fill="none" xmlns="http://www.w3.org/2000/svg">
<g clip-path="url(#clip0_39856_170577)">
<path d="M29.0739 4.94434H10.9258C7.348 4.94865 4.44865 7.848 4.44434 11.4258V29.574C4.44865 33.1518 7.348 36.0512 10.9258 36.0554H24.5564C24.7677 36.0554 24.9764 36.0386 25.1851 36.0243V29.5739C25.1851 27.4262 26.9262 25.6851 29.074 25.6851H35.5244C35.5387 25.4763 35.5555 25.2677 35.5555 25.0563V11.4258C35.5512 7.848 32.6518 4.94865 29.0739 4.94434Z" fill="#C5C6C9"/>
<path d="M27.7778 29.5739V35.4591C28.9769 35.0063 30.0662 34.3037 30.9732 33.398L32.8969 31.473C33.8037 30.5666 34.5068 29.4772 34.9593 28.2776H29.0742C28.3582 28.2776 27.7778 28.858 27.7778 29.5739Z" fill="#C5C6C9"/>
</g>
<path d="M14.9219 9.27344H16.0508V13.7539C16.0508 14.0664 15.9935 14.3307 15.8789 14.5469C15.7643 14.763 15.599 14.9271 15.3828 15.0391C15.1667 15.151 14.9049 15.207 14.5977 15.207C14.5013 15.207 14.4076 15.2018 14.3164 15.1914C14.2227 15.181 14.1263 15.1641 14.0273 15.1406L14.0312 14.2773C14.0938 14.2878 14.1549 14.2956 14.2148 14.3008C14.2721 14.3086 14.3307 14.3125 14.3906 14.3125C14.5078 14.3125 14.6055 14.293 14.6836 14.2539C14.7617 14.2148 14.8203 14.1536 14.8594 14.0703C14.901 13.9896 14.9219 13.8841 14.9219 13.7539V9.27344ZM14.832 8.17188C14.832 8.00781 14.8893 7.8724 15.0039 7.76562C15.1211 7.65885 15.2747 7.60547 15.4648 7.60547C15.6576 7.60547 15.8112 7.65885 15.9258 7.76562C16.0404 7.8724 16.0977 8.00781 16.0977 8.17188C16.0977 8.33594 16.0404 8.47135 15.9258 8.57812C15.8112 8.6849 15.6576 8.73828 15.4648 8.73828C15.2747 8.73828 15.1211 8.6849 15.0039 8.57812C14.8893 8.47135 14.832 8.33594 14.832 8.17188ZM18.0703 10.0859V15.125H16.9453V9.27344H17.9883L18.0703 10.0859ZM20.7461 11.3398V11.4219C20.7461 11.7292 20.7096 12.0143 20.6367 12.2773C20.5664 12.5404 20.4622 12.7695 20.3242 12.9648C20.1862 13.1576 20.0143 13.3086 19.8086 13.418C19.6055 13.5247 19.3711 13.5781 19.1055 13.5781C18.8477 13.5781 18.6237 13.526 18.4336 13.4219C18.2435 13.3177 18.0833 13.1719 17.9531 12.9844C17.8255 12.7943 17.7227 12.5742 17.6445 12.3242C17.5664 12.0742 17.5065 11.806 17.4648 11.5195V11.3047C17.5065 10.9974 17.5664 10.7161 17.6445 10.4609C17.7227 10.2031 17.8255 9.98047 17.9531 9.79297C18.0833 9.60286 18.2422 9.45573 18.4297 9.35156C18.6198 9.2474 18.8424 9.19531 19.0977 9.19531C19.3659 9.19531 19.6016 9.24609 19.8047 9.34766C20.0104 9.44922 20.1823 9.59505 20.3203 9.78516C20.4609 9.97526 20.5664 10.2018 20.6367 10.4648C20.7096 10.7279 20.7461 11.0195 20.7461 11.3398ZM19.6172 11.4219V11.3398C19.6172 11.1602 19.6016 10.9948 19.5703 10.8438C19.5417 10.6901 19.4948 10.556 19.4297 10.4414C19.3672 10.3268 19.2839 10.2383 19.1797 10.1758C19.0781 10.1107 18.9544 10.0781 18.8086 10.0781C18.6549 10.0781 18.5234 10.1029 18.4141 10.1523C18.3073 10.2018 18.2201 10.2734 18.1523 10.3672C18.0846 10.4609 18.0339 10.5729 18 10.7031C17.9661 10.8333 17.9453 10.9805 17.9375 11.1445V11.6875C17.9505 11.8802 17.987 12.0534 18.0469 12.207C18.1068 12.3581 18.1992 12.4779 18.3242 12.5664C18.4492 12.6549 18.6133 12.6992 18.8164 12.6992C18.9648 12.6992 19.0898 12.6667 19.1914 12.6016C19.293 12.5339 19.375 12.4414 19.4375 12.3242C19.5026 12.207 19.5482 12.0716 19.5742 11.918C19.6029 11.7643 19.6172 11.599 19.6172 11.4219ZM24.1211 9.27344H25.1406V13.3594C25.1406 13.7448 25.0547 14.0716 24.8828 14.3398C24.7135 14.6107 24.4766 14.8151 24.1719 14.9531C23.8672 15.0938 23.513 15.1641 23.1094 15.1641C22.9323 15.1641 22.7448 15.1406 22.5469 15.0938C22.3516 15.0469 22.1641 14.974 21.9844 14.875C21.8073 14.776 21.6589 14.651 21.5391 14.5L22.0352 13.8359C22.1654 13.987 22.3164 14.1042 22.4883 14.1875C22.6602 14.2734 22.8503 14.3164 23.0586 14.3164C23.2617 14.3164 23.4336 14.2786 23.5742 14.2031C23.7148 14.1302 23.8229 14.0221 23.8984 13.8789C23.974 13.7383 24.0117 13.5677 24.0117 13.3672V10.25L24.1211 9.27344ZM21.2773 11.4375V11.3555C21.2773 11.0326 21.3164 10.7396 21.3945 10.4766C21.4753 10.2109 21.5885 9.98307 21.7344 9.79297C21.8828 9.60286 22.0625 9.45573 22.2734 9.35156C22.4844 9.2474 22.7227 9.19531 22.9883 9.19531C23.2695 9.19531 23.5052 9.2474 23.6953 9.35156C23.8854 9.45573 24.0417 9.60417 24.1641 9.79688C24.2865 9.98698 24.3815 10.2122 24.4492 10.4727C24.5195 10.7305 24.5742 11.013 24.6133 11.3203V11.5C24.5742 11.7943 24.5156 12.0677 24.4375 12.3203C24.3594 12.5729 24.2565 12.7943 24.1289 12.9844C24.0013 13.1719 23.8424 13.3177 23.6523 13.4219C23.4648 13.526 23.2409 13.5781 22.9805 13.5781C22.7201 13.5781 22.4844 13.5247 22.2734 13.418C22.0651 13.3112 21.8867 13.1615 21.7383 12.9688C21.5898 12.776 21.4753 12.5495 21.3945 12.2891C21.3164 12.0286 21.2773 11.7448 21.2773 11.4375ZM22.4023 11.3555V11.4375C22.4023 11.612 22.4193 11.7747 22.4531 11.9258C22.487 12.0768 22.5391 12.2109 22.6094 12.3281C22.6823 12.4427 22.7721 12.5326 22.8789 12.5977C22.9883 12.6602 23.1172 12.6914 23.2656 12.6914C23.4714 12.6914 23.6393 12.6484 23.7695 12.5625C23.8997 12.474 23.9974 12.3529 24.0625 12.1992C24.1276 12.0456 24.1654 11.8685 24.1758 11.668V11.1562C24.1706 10.9922 24.1484 10.8451 24.1094 10.7148C24.0703 10.582 24.0156 10.4688 23.9453 10.375C23.875 10.2812 23.7839 10.2083 23.6719 10.1562C23.5599 10.1042 23.4271 10.0781 23.2734 10.0781C23.125 10.0781 22.9961 10.112 22.8867 10.1797C22.7799 10.2448 22.6901 10.3346 22.6172 10.4492C22.5469 10.5638 22.4935 10.6992 22.457 10.8555C22.4206 11.0091 22.4023 11.1758 22.4023 11.3555Z" fill="white"/>
<defs>
<clipPath id="clip0_39856_170577">
<rect width="31.1111" height="31.1111" fill="white" transform="translate(4.44434 4.94434)"/>
</clipPath>
</defs>
</svg>
