<svg width="40" height="40" viewBox="0 0 40 40" fill="none" xmlns="http://www.w3.org/2000/svg">
<rect width="40" height="40" rx="8" fill="#C5C6C9"/>
<g clip-path="url(#clip0_39856_162735)">
<path d="M16.7605 23.743C16.5816 23.5641 16.4136 23.3681 16.2619 23.1612C16.0092 22.8143 16.0854 22.3274 16.4331 22.0746C16.7799 21.8219 17.2661 21.8981 17.5196 22.245C17.6199 22.3834 17.7327 22.5164 17.8595 22.6424C18.4841 23.267 19.3139 23.6108 20.1967 23.6108C21.0795 23.6108 21.9102 23.267 22.5339 22.6424L26.8117 18.3646C28.1005 17.0759 28.1005 14.9782 26.8117 13.6894C25.5229 12.4006 23.4253 12.4006 22.1365 13.6894L21.3136 14.5123C21.0095 14.8164 20.5179 14.8164 20.2138 14.5123C19.9097 14.2082 19.9097 13.7166 20.2138 13.4125L21.0367 12.5896C22.9322 10.6934 26.0161 10.6934 27.9115 12.5896C29.8069 14.4851 29.8069 17.569 27.9115 19.4644L23.6337 23.7422C22.7159 24.6608 21.4948 25.1663 20.1967 25.1663C18.8986 25.1663 17.6775 24.6608 16.7605 23.743ZM15.5301 29.833C16.8289 29.833 18.0493 29.3274 18.9671 28.4089L19.7899 27.586C20.0941 27.2826 20.0941 26.7903 19.7899 26.4862C19.4866 26.1821 18.9943 26.1829 18.6902 26.4862L17.8665 27.3091C17.2419 27.9336 16.4121 28.2774 15.5293 28.2774C14.6465 28.2774 13.8166 27.9336 13.1921 27.3091C12.5675 26.6845 12.2237 25.8546 12.2237 24.9719C12.2237 24.0891 12.5675 23.2584 13.1921 22.6346L17.4698 18.3569C18.0944 17.7323 18.9243 17.3885 19.8071 17.3885C20.6898 17.3885 21.5205 17.7323 22.1443 18.3569C22.2687 18.4821 22.3823 18.6151 22.4834 18.7535C22.7354 19.1012 23.2215 19.179 23.5699 18.9254C23.9176 18.6726 23.9946 18.1865 23.7418 17.8389C23.5941 17.6351 23.4268 17.4399 23.2448 17.2579C22.3263 16.3385 21.1052 15.833 19.8071 15.833C18.5089 15.833 17.2878 16.3385 16.3701 17.2571L12.0931 21.5349C11.1745 22.4526 10.6689 23.6738 10.6689 24.9719C10.6689 26.27 11.1745 27.4911 12.0931 28.4089C13.0108 29.3274 14.2312 29.833 15.5301 29.833Z" fill="white"/>
</g>
<defs>
<clipPath id="clip0_39856_162735">
<rect width="18.6667" height="18.6667" fill="white" transform="translate(10.6665 11.1665)"/>
</clipPath>
</defs>
</svg>
