<svg width="40" height="41" viewBox="0 0 40 41" fill="none" xmlns="http://www.w3.org/2000/svg">
<g clip-path="url(#clip0_39856_170703)">
<path d="M29.0739 4.94446H10.9258C7.348 4.94877 4.44865 7.84812 4.44434 11.426V29.5741C4.44865 33.1519 7.348 36.0513 10.9258 36.0556H24.5564C24.7677 36.0556 24.9764 36.0387 25.1851 36.0245V29.5741C25.1851 27.4263 26.9262 25.6852 29.074 25.6852H35.5244C35.5387 25.4765 35.5555 25.2678 35.5555 25.0565V11.4259C35.5512 7.84812 32.6518 4.94877 29.0739 4.94446Z" fill="#C5C6C9"/>
<path d="M27.7778 29.574V35.4592C28.9769 35.0064 30.0662 34.3038 30.9732 33.3981L32.8969 31.4731C33.8037 30.5667 34.5068 29.4774 34.9593 28.2777H29.0742C28.3582 28.2778 27.7778 28.8581 27.7778 29.574Z" fill="#C5C6C9"/>
</g>
<path d="M13.9336 10.1484V13.5H12.8047V9.27344H13.8633L13.9336 10.1484ZM13.7773 11.2383H13.4648C13.4648 10.944 13.5 10.6732 13.5703 10.4258C13.6432 10.1758 13.7487 9.95964 13.8867 9.77734C14.0273 9.59245 14.2005 9.44922 14.4062 9.34766C14.612 9.24609 14.8503 9.19531 15.1211 9.19531C15.3086 9.19531 15.4805 9.22396 15.6367 9.28125C15.793 9.33594 15.9271 9.42318 16.0391 9.54297C16.1536 9.66016 16.2422 9.8138 16.3047 10.0039C16.3672 10.1914 16.3984 10.4167 16.3984 10.6797V13.5H15.2734V10.8047C15.2734 10.612 15.2474 10.4635 15.1953 10.3594C15.1432 10.2552 15.069 10.1823 14.9727 10.1406C14.8789 10.099 14.7656 10.0781 14.6328 10.0781C14.487 10.0781 14.3594 10.1081 14.25 10.168C14.1432 10.2279 14.0547 10.3112 13.9844 10.418C13.9141 10.5221 13.862 10.6445 13.8281 10.7852C13.7943 10.9258 13.7773 11.0768 13.7773 11.2383ZM16.293 11.1094L15.8906 11.1602C15.8906 10.8841 15.9245 10.6276 15.9922 10.3906C16.0625 10.1536 16.1654 9.94531 16.3008 9.76562C16.4388 9.58594 16.6094 9.44661 16.8125 9.34766C17.0156 9.24609 17.25 9.19531 17.5156 9.19531C17.7188 9.19531 17.9036 9.22526 18.0703 9.28516C18.237 9.34245 18.3789 9.4349 18.4961 9.5625C18.6159 9.6875 18.707 9.85156 18.7695 10.0547C18.8346 10.2578 18.8672 10.5065 18.8672 10.8008V13.5H17.7383V10.8008C17.7383 10.6055 17.7122 10.457 17.6602 10.3555C17.6107 10.2513 17.5378 10.1797 17.4414 10.1406C17.3477 10.099 17.2357 10.0781 17.1055 10.0781C16.9701 10.0781 16.8516 10.1055 16.75 10.1602C16.6484 10.2122 16.5638 10.2852 16.4961 10.3789C16.4284 10.4727 16.3776 10.582 16.3438 10.707C16.3099 10.8294 16.293 10.9635 16.293 11.1094ZM20.8633 7.49609V13.5H19.7383V7.49609H20.8633ZM23.5273 9.27344L21.6914 11.3672L20.707 12.3633L20.2969 11.5508L21.0781 10.5586L22.1758 9.27344H23.5273ZM22.3594 13.5L21.1094 11.5469L21.8867 10.8672L23.6562 13.5H22.3594ZM25.4492 12.6797L26.3867 9.27344H27.5625L26.1367 13.5H25.4258L25.4492 12.6797ZM24.8047 9.27344L25.7461 12.6836L25.7656 13.5H25.0508L23.625 9.27344H24.8047Z" fill="white"/>
<defs>
<clipPath id="clip0_39856_170703">
<rect width="31.1111" height="31.1111" fill="white" transform="translate(4.44434 4.94446)"/>
</clipPath>
</defs>
</svg>
