<svg width="40" height="41" viewBox="0 0 40 41" fill="none" xmlns="http://www.w3.org/2000/svg">
<g clip-path="url(#clip0_39856_170661)">
<path d="M29.0739 4.94446H10.9258C7.348 4.94877 4.44865 7.84812 4.44434 11.426V29.5741C4.44865 33.1519 7.348 36.0513 10.9258 36.0556H24.5564C24.7677 36.0556 24.9764 36.0387 25.1851 36.0245V29.5741C25.1851 27.4263 26.9262 25.6852 29.074 25.6852H35.5244C35.5387 25.4765 35.5555 25.2678 35.5555 25.0565V11.4259C35.5512 7.84812 32.6518 4.94877 29.0739 4.94446Z" fill="#C5C6C9"/>
<path d="M27.7778 29.574V35.4592C28.9769 35.0064 30.0662 34.3038 30.9732 33.3981L32.8969 31.4731C33.8037 30.5667 34.5068 29.4774 34.9593 28.2777H29.0742C28.3582 28.2778 27.7778 28.8581 27.7778 29.574Z" fill="#C5C6C9"/>
</g>
<path d="M14.0508 10.1484V13.5H12.9219V9.27344H13.9805L14.0508 10.1484ZM13.8945 11.2383H13.582C13.582 10.944 13.6172 10.6732 13.6875 10.4258C13.7604 10.1758 13.8659 9.95964 14.0039 9.77734C14.1445 9.59245 14.3177 9.44922 14.5234 9.34766C14.7292 9.24609 14.9674 9.19531 15.2383 9.19531C15.4258 9.19531 15.5977 9.22396 15.7539 9.28125C15.9102 9.33594 16.0443 9.42318 16.1562 9.54297C16.2708 9.66016 16.3594 9.8138 16.4219 10.0039C16.4844 10.1914 16.5156 10.4167 16.5156 10.6797V13.5H15.3906V10.8047C15.3906 10.612 15.3646 10.4635 15.3125 10.3594C15.2604 10.2552 15.1862 10.1823 15.0898 10.1406C14.9961 10.099 14.8828 10.0781 14.75 10.0781C14.6042 10.0781 14.4766 10.1081 14.3672 10.168C14.2604 10.2279 14.1719 10.3112 14.1016 10.418C14.0312 10.5221 13.9792 10.6445 13.9453 10.7852C13.9115 10.9258 13.8945 11.0768 13.8945 11.2383ZM16.4102 11.1094L16.0078 11.1602C16.0078 10.8841 16.0417 10.6276 16.1094 10.3906C16.1797 10.1536 16.2826 9.94531 16.418 9.76562C16.556 9.58594 16.7266 9.44661 16.9297 9.34766C17.1328 9.24609 17.3672 9.19531 17.6328 9.19531C17.8359 9.19531 18.0208 9.22526 18.1875 9.28516C18.3542 9.34245 18.4961 9.4349 18.6133 9.5625C18.7331 9.6875 18.8242 9.85156 18.8867 10.0547C18.9518 10.2578 18.9844 10.5065 18.9844 10.8008V13.5H17.8555V10.8008C17.8555 10.6055 17.8294 10.457 17.7773 10.3555C17.7279 10.2513 17.6549 10.1797 17.5586 10.1406C17.4648 10.099 17.3529 10.0781 17.2227 10.0781C17.0872 10.0781 16.9688 10.1055 16.8672 10.1602C16.7656 10.2122 16.681 10.2852 16.6133 10.3789C16.5456 10.4727 16.4948 10.582 16.4609 10.707C16.4271 10.8294 16.4102 10.9635 16.4102 11.1094ZM20.9805 10.0859V15.125H19.8555V9.27344H20.8984L20.9805 10.0859ZM23.6562 11.3398V11.4219C23.6562 11.7292 23.6198 12.0143 23.5469 12.2773C23.4766 12.5404 23.3724 12.7695 23.2344 12.9648C23.0964 13.1576 22.9245 13.3086 22.7188 13.418C22.5156 13.5247 22.2812 13.5781 22.0156 13.5781C21.7578 13.5781 21.5339 13.526 21.3438 13.4219C21.1536 13.3177 20.9935 13.1719 20.8633 12.9844C20.7357 12.7943 20.6328 12.5742 20.5547 12.3242C20.4766 12.0742 20.4167 11.806 20.375 11.5195V11.3047C20.4167 10.9974 20.4766 10.7161 20.5547 10.4609C20.6328 10.2031 20.7357 9.98047 20.8633 9.79297C20.9935 9.60286 21.1523 9.45573 21.3398 9.35156C21.5299 9.2474 21.7526 9.19531 22.0078 9.19531C22.276 9.19531 22.5117 9.24609 22.7148 9.34766C22.9206 9.44922 23.0924 9.59505 23.2305 9.78516C23.3711 9.97526 23.4766 10.2018 23.5469 10.4648C23.6198 10.7279 23.6562 11.0195 23.6562 11.3398ZM22.5273 11.4219V11.3398C22.5273 11.1602 22.5117 10.9948 22.4805 10.8438C22.4518 10.6901 22.4049 10.556 22.3398 10.4414C22.2773 10.3268 22.194 10.2383 22.0898 10.1758C21.9883 10.1107 21.8646 10.0781 21.7188 10.0781C21.5651 10.0781 21.4336 10.1029 21.3242 10.1523C21.2174 10.2018 21.1302 10.2734 21.0625 10.3672C20.9948 10.4609 20.944 10.5729 20.9102 10.7031C20.8763 10.8333 20.8555 10.9805 20.8477 11.1445V11.6875C20.8607 11.8802 20.8971 12.0534 20.957 12.207C21.0169 12.3581 21.1094 12.4779 21.2344 12.5664C21.3594 12.6549 21.5234 12.6992 21.7266 12.6992C21.875 12.6992 22 12.6667 22.1016 12.6016C22.2031 12.5339 22.2852 12.4414 22.3477 12.3242C22.4128 12.207 22.4583 12.0716 22.4844 11.918C22.513 11.7643 22.5273 11.599 22.5273 11.4219ZM28.293 11.375V12.2578H24.1953L24.1406 11.5742L26.5117 7.8125H27.4062L26.4375 9.43359L25.2578 11.375H28.293ZM27.6484 7.8125V13.5H26.5234V7.8125H27.6484Z" fill="white"/>
<defs>
<clipPath id="clip0_39856_170661">
<rect width="31.1111" height="31.1111" fill="white" transform="translate(4.44434 4.94446)"/>
</clipPath>
</defs>
</svg>
