<svg width="40" height="41" viewBox="0 0 40 41" fill="none" xmlns="http://www.w3.org/2000/svg">
<g clip-path="url(#clip0_39856_170729)">
<path d="M29.0739 4.94446H10.9258C7.348 4.94877 4.44865 7.84812 4.44434 11.426V29.5741C4.44865 33.1519 7.348 36.0513 10.9258 36.0556H24.5564C24.7677 36.0556 24.9764 36.0387 25.1851 36.0245V29.5741C25.1851 27.4263 26.9262 25.6852 29.074 25.6852H35.5244C35.5387 25.4765 35.5555 25.2678 35.5555 25.0565V11.4259C35.5512 7.84812 32.6518 4.94877 29.0739 4.94446Z" fill="#C5C6C9"/>
<path d="M27.7778 29.574V35.4592C28.9769 35.0064 30.0662 34.3038 30.9732 33.3981L32.8969 31.4731C33.8037 30.5667 34.5068 29.4774 34.9593 28.2777H29.0742C28.3582 28.2778 27.7778 28.8581 27.7778 29.574Z" fill="#C5C6C9"/>
</g>
<path d="M13.4297 11.4297V11.3477C13.4297 11.0378 13.474 10.7526 13.5625 10.4922C13.651 10.2292 13.7799 10.0013 13.9492 9.80859C14.1185 9.61589 14.3268 9.46615 14.5742 9.35938C14.8216 9.25 15.1055 9.19531 15.4258 9.19531C15.7461 9.19531 16.0312 9.25 16.2812 9.35938C16.5312 9.46615 16.7409 9.61589 16.9102 9.80859C17.082 10.0013 17.2122 10.2292 17.3008 10.4922C17.3893 10.7526 17.4336 11.0378 17.4336 11.3477V11.4297C17.4336 11.737 17.3893 12.0221 17.3008 12.2852C17.2122 12.5456 17.082 12.7734 16.9102 12.9688C16.7409 13.1615 16.5326 13.3112 16.2852 13.418C16.0378 13.5247 15.7539 13.5781 15.4336 13.5781C15.1133 13.5781 14.8281 13.5247 14.5781 13.418C14.3307 13.3112 14.1211 13.1615 13.9492 12.9688C13.7799 12.7734 13.651 12.5456 13.5625 12.2852C13.474 12.0221 13.4297 11.737 13.4297 11.4297ZM14.5547 11.3477V11.4297C14.5547 11.6068 14.5703 11.7721 14.6016 11.9258C14.6328 12.0794 14.6823 12.2148 14.75 12.332C14.8203 12.4466 14.9115 12.5365 15.0234 12.6016C15.1354 12.6667 15.2721 12.6992 15.4336 12.6992C15.5898 12.6992 15.724 12.6667 15.8359 12.6016C15.9479 12.5365 16.0378 12.4466 16.1055 12.332C16.1732 12.2148 16.2227 12.0794 16.2539 11.9258C16.2878 11.7721 16.3047 11.6068 16.3047 11.4297V11.3477C16.3047 11.1758 16.2878 11.0143 16.2539 10.8633C16.2227 10.7096 16.1719 10.5742 16.1016 10.457C16.0339 10.3372 15.944 10.2435 15.832 10.1758C15.7201 10.1081 15.5846 10.0742 15.4258 10.0742C15.2669 10.0742 15.1315 10.1081 15.0195 10.1758C14.9102 10.2435 14.8203 10.3372 14.75 10.457C14.6823 10.5742 14.6328 10.7096 14.6016 10.8633C14.5703 11.0143 14.5547 11.1758 14.5547 11.3477ZM20.8008 9.27344H21.8203V13.3594C21.8203 13.7448 21.7344 14.0716 21.5625 14.3398C21.3932 14.6107 21.1562 14.8151 20.8516 14.9531C20.5469 15.0938 20.1927 15.1641 19.7891 15.1641C19.612 15.1641 19.4245 15.1406 19.2266 15.0938C19.0312 15.0469 18.8438 14.974 18.6641 14.875C18.487 14.776 18.3385 14.651 18.2188 14.5L18.7148 13.8359C18.8451 13.987 18.9961 14.1042 19.168 14.1875C19.3398 14.2734 19.5299 14.3164 19.7383 14.3164C19.9414 14.3164 20.1133 14.2786 20.2539 14.2031C20.3945 14.1302 20.5026 14.0221 20.5781 13.8789C20.6536 13.7383 20.6914 13.5677 20.6914 13.3672V10.25L20.8008 9.27344ZM17.957 11.4375V11.3555C17.957 11.0326 17.9961 10.7396 18.0742 10.4766C18.1549 10.2109 18.2682 9.98307 18.4141 9.79297C18.5625 9.60286 18.7422 9.45573 18.9531 9.35156C19.1641 9.2474 19.4023 9.19531 19.668 9.19531C19.9492 9.19531 20.1849 9.2474 20.375 9.35156C20.5651 9.45573 20.7214 9.60417 20.8438 9.79688C20.9661 9.98698 21.0612 10.2122 21.1289 10.4727C21.1992 10.7305 21.2539 11.013 21.293 11.3203V11.5C21.2539 11.7943 21.1953 12.0677 21.1172 12.3203C21.0391 12.5729 20.9362 12.7943 20.8086 12.9844C20.681 13.1719 20.5221 13.3177 20.332 13.4219C20.1445 13.526 19.9206 13.5781 19.6602 13.5781C19.3997 13.5781 19.1641 13.5247 18.9531 13.418C18.7448 13.3112 18.5664 13.1615 18.418 12.9688C18.2695 12.776 18.1549 12.5495 18.0742 12.2891C17.9961 12.0286 17.957 11.7448 17.957 11.4375ZM19.082 11.3555V11.4375C19.082 11.612 19.099 11.7747 19.1328 11.9258C19.1667 12.0768 19.2188 12.2109 19.2891 12.3281C19.362 12.4427 19.4518 12.5326 19.5586 12.5977C19.668 12.6602 19.7969 12.6914 19.9453 12.6914C20.151 12.6914 20.319 12.6484 20.4492 12.5625C20.5794 12.474 20.6771 12.3529 20.7422 12.1992C20.8073 12.0456 20.8451 11.8685 20.8555 11.668V11.1562C20.8503 10.9922 20.8281 10.8451 20.7891 10.7148C20.75 10.582 20.6953 10.4688 20.625 10.375C20.5547 10.2812 20.4635 10.2083 20.3516 10.1562C20.2396 10.1042 20.1068 10.0781 19.9531 10.0781C19.8047 10.0781 19.6758 10.112 19.5664 10.1797C19.4596 10.2448 19.3698 10.3346 19.2969 10.4492C19.2266 10.5638 19.1732 10.6992 19.1367 10.8555C19.1003 11.0091 19.082 11.1758 19.082 11.3555ZM25.3711 9.27344H26.3906V13.3594C26.3906 13.7448 26.3047 14.0716 26.1328 14.3398C25.9635 14.6107 25.7266 14.8151 25.4219 14.9531C25.1172 15.0938 24.763 15.1641 24.3594 15.1641C24.1823 15.1641 23.9948 15.1406 23.7969 15.0938C23.6016 15.0469 23.4141 14.974 23.2344 14.875C23.0573 14.776 22.9089 14.651 22.7891 14.5L23.2852 13.8359C23.4154 13.987 23.5664 14.1042 23.7383 14.1875C23.9102 14.2734 24.1003 14.3164 24.3086 14.3164C24.5117 14.3164 24.6836 14.2786 24.8242 14.2031C24.9648 14.1302 25.0729 14.0221 25.1484 13.8789C25.224 13.7383 25.2617 13.5677 25.2617 13.3672V10.25L25.3711 9.27344ZM22.5273 11.4375V11.3555C22.5273 11.0326 22.5664 10.7396 22.6445 10.4766C22.7253 10.2109 22.8385 9.98307 22.9844 9.79297C23.1328 9.60286 23.3125 9.45573 23.5234 9.35156C23.7344 9.2474 23.9727 9.19531 24.2383 9.19531C24.5195 9.19531 24.7552 9.2474 24.9453 9.35156C25.1354 9.45573 25.2917 9.60417 25.4141 9.79688C25.5365 9.98698 25.6315 10.2122 25.6992 10.4727C25.7695 10.7305 25.8242 11.013 25.8633 11.3203V11.5C25.8242 11.7943 25.7656 12.0677 25.6875 12.3203C25.6094 12.5729 25.5065 12.7943 25.3789 12.9844C25.2513 13.1719 25.0924 13.3177 24.9023 13.4219C24.7148 13.526 24.4909 13.5781 24.2305 13.5781C23.9701 13.5781 23.7344 13.5247 23.5234 13.418C23.3151 13.3112 23.1367 13.1615 22.9883 12.9688C22.8398 12.776 22.7253 12.5495 22.6445 12.2891C22.5664 12.0286 22.5273 11.7448 22.5273 11.4375ZM23.6523 11.3555V11.4375C23.6523 11.612 23.6693 11.7747 23.7031 11.9258C23.737 12.0768 23.7891 12.2109 23.8594 12.3281C23.9323 12.4427 24.0221 12.5326 24.1289 12.5977C24.2383 12.6602 24.3672 12.6914 24.5156 12.6914C24.7214 12.6914 24.8893 12.6484 25.0195 12.5625C25.1497 12.474 25.2474 12.3529 25.3125 12.1992C25.3776 12.0456 25.4154 11.8685 25.4258 11.668V11.1562C25.4206 10.9922 25.3984 10.8451 25.3594 10.7148C25.3203 10.582 25.2656 10.4688 25.1953 10.375C25.125 10.2812 25.0339 10.2083 24.9219 10.1562C24.8099 10.1042 24.6771 10.0781 24.5234 10.0781C24.375 10.0781 24.2461 10.112 24.1367 10.1797C24.0299 10.2448 23.9401 10.3346 23.8672 10.4492C23.7969 10.5638 23.7435 10.6992 23.707 10.8555C23.6706 11.0091 23.6523 11.1758 23.6523 11.3555Z" fill="white"/>
<defs>
<clipPath id="clip0_39856_170729">
<rect width="31.1111" height="31.1111" fill="white" transform="translate(4.44434 4.94446)"/>
</clipPath>
</defs>
</svg>
