<svg width="40" height="41" viewBox="0 0 40 41" fill="none" xmlns="http://www.w3.org/2000/svg">
<g clip-path="url(#clip0_39856_170855)">
<path d="M29.0739 4.94446H10.9258C7.348 4.94877 4.44865 7.84812 4.44434 11.426V29.5741C4.44865 33.1519 7.348 36.0513 10.9258 36.0556H24.5564C24.7677 36.0556 24.9764 36.0387 25.1851 36.0245V29.5741C25.1851 27.4263 26.9262 25.6852 29.074 25.6852H35.5244C35.5387 25.4765 35.5555 25.2678 35.5555 25.0565V11.4259C35.5512 7.84812 32.6518 4.94877 29.0739 4.94446Z" fill="#C5C6C9"/>
<path d="M27.7778 29.574V35.4592C28.9769 35.0064 30.0662 34.3038 30.9732 33.3981L32.8969 31.4731C33.8037 30.5667 34.5068 29.4774 34.9593 28.2777H29.0742C28.3582 28.2778 27.7778 28.8581 27.7778 29.574Z" fill="#C5C6C9"/>
</g>
<path d="M15.625 10.0859V15.125H14.5V9.27344H15.543L15.625 10.0859ZM18.3008 11.3398V11.4219C18.3008 11.7292 18.2643 12.0143 18.1914 12.2773C18.1211 12.5404 18.0169 12.7695 17.8789 12.9648C17.7409 13.1576 17.569 13.3086 17.3633 13.418C17.1602 13.5247 16.9258 13.5781 16.6602 13.5781C16.4023 13.5781 16.1784 13.526 15.9883 13.4219C15.7982 13.3177 15.638 13.1719 15.5078 12.9844C15.3802 12.7943 15.2773 12.5742 15.1992 12.3242C15.1211 12.0742 15.0612 11.806 15.0195 11.5195V11.3047C15.0612 10.9974 15.1211 10.7161 15.1992 10.4609C15.2773 10.2031 15.3802 9.98047 15.5078 9.79297C15.638 9.60286 15.7969 9.45573 15.9844 9.35156C16.1745 9.2474 16.3971 9.19531 16.6523 9.19531C16.9206 9.19531 17.1562 9.24609 17.3594 9.34766C17.5651 9.44922 17.737 9.59505 17.875 9.78516C18.0156 9.97526 18.1211 10.2018 18.1914 10.4648C18.2643 10.7279 18.3008 11.0195 18.3008 11.3398ZM17.1719 11.4219V11.3398C17.1719 11.1602 17.1562 10.9948 17.125 10.8438C17.0964 10.6901 17.0495 10.556 16.9844 10.4414C16.9219 10.3268 16.8385 10.2383 16.7344 10.1758C16.6328 10.1107 16.5091 10.0781 16.3633 10.0781C16.2096 10.0781 16.0781 10.1029 15.9688 10.1523C15.862 10.2018 15.7747 10.2734 15.707 10.3672C15.6393 10.4609 15.5885 10.5729 15.5547 10.7031C15.5208 10.8333 15.5 10.9805 15.4922 11.1445V11.6875C15.5052 11.8802 15.5417 12.0534 15.6016 12.207C15.6615 12.3581 15.7539 12.4779 15.8789 12.5664C16.0039 12.6549 16.168 12.6992 16.3711 12.6992C16.5195 12.6992 16.6445 12.6667 16.7461 12.6016C16.8477 12.5339 16.9297 12.4414 16.9922 12.3242C17.0573 12.207 17.1029 12.0716 17.1289 11.918C17.1576 11.7643 17.1719 11.599 17.1719 11.4219ZM21.4961 12.5781V7.5H22.6289V13.5H21.6094L21.4961 12.5781ZM18.8242 11.4375V11.3555C18.8242 11.0326 18.8607 10.7396 18.9336 10.4766C19.0065 10.2109 19.1133 9.98307 19.2539 9.79297C19.3945 9.60286 19.5677 9.45573 19.7734 9.35156C19.9792 9.2474 20.2135 9.19531 20.4766 9.19531C20.724 9.19531 20.9401 9.2474 21.125 9.35156C21.3125 9.45573 21.4714 9.60417 21.6016 9.79688C21.7344 9.98698 21.8411 10.2122 21.9219 10.4727C22.0026 10.7305 22.0612 11.013 22.0977 11.3203V11.5C22.0612 11.7943 22.0026 12.0677 21.9219 12.3203C21.8411 12.5729 21.7344 12.7943 21.6016 12.9844C21.4714 13.1719 21.3125 13.3177 21.125 13.4219C20.9375 13.526 20.7188 13.5781 20.4688 13.5781C20.2057 13.5781 19.9714 13.5247 19.7656 13.418C19.5625 13.3112 19.3906 13.1615 19.25 12.9688C19.112 12.776 19.0065 12.5495 18.9336 12.2891C18.8607 12.0286 18.8242 11.7448 18.8242 11.4375ZM19.9492 11.3555V11.4375C19.9492 11.612 19.9622 11.7747 19.9883 11.9258C20.0169 12.0768 20.0625 12.2109 20.125 12.3281C20.1901 12.4427 20.2734 12.5326 20.375 12.5977C20.4792 12.6602 20.6055 12.6914 20.7539 12.6914C20.9466 12.6914 21.1055 12.6484 21.2305 12.5625C21.3555 12.474 21.4505 12.3529 21.5156 12.1992C21.5833 12.0456 21.6224 11.8685 21.6328 11.668V11.1562C21.625 10.9922 21.6016 10.8451 21.5625 10.7148C21.526 10.582 21.4714 10.4688 21.3984 10.375C21.3281 10.2812 21.2396 10.2083 21.1328 10.1562C21.0286 10.1042 20.9049 10.0781 20.7617 10.0781C20.6159 10.0781 20.4909 10.112 20.3867 10.1797C20.2826 10.2448 20.1979 10.3346 20.1328 10.4492C20.0703 10.5638 20.0234 10.6992 19.9922 10.8555C19.9635 11.0091 19.9492 11.1758 19.9492 11.3555ZM24.9414 13.5H23.8086V8.89844C23.8086 8.57812 23.8711 8.30859 23.9961 8.08984C24.1237 7.86849 24.3021 7.70182 24.5312 7.58984C24.763 7.47526 25.0378 7.41797 25.3555 7.41797C25.4596 7.41797 25.5599 7.42578 25.6562 7.44141C25.7526 7.45443 25.8464 7.47135 25.9375 7.49219L25.9258 8.33984C25.8763 8.32682 25.8242 8.31771 25.7695 8.3125C25.7148 8.30729 25.651 8.30469 25.5781 8.30469C25.4427 8.30469 25.3268 8.32812 25.2305 8.375C25.1367 8.41927 25.0651 8.48568 25.0156 8.57422C24.9661 8.66276 24.9414 8.77083 24.9414 8.89844V13.5ZM25.7852 9.27344V10.0703H23.1797V9.27344H25.7852Z" fill="white"/>
<defs>
<clipPath id="clip0_39856_170855">
<rect width="31.1111" height="31.1111" fill="white" transform="translate(4.44434 4.94446)"/>
</clipPath>
</defs>
</svg>
