<svg width="40" height="41" viewBox="0 0 40 41" fill="none" xmlns="http://www.w3.org/2000/svg">
<g clip-path="url(#clip0_39856_170829)">
<path d="M29.0739 4.94446H10.9258C7.348 4.94877 4.44865 7.84812 4.44434 11.426V29.5741C4.44865 33.1519 7.348 36.0513 10.9258 36.0556H24.5564C24.7677 36.0556 24.9764 36.0387 25.1851 36.0245V29.5741C25.1851 27.4263 26.9262 25.6852 29.074 25.6852H35.5244C35.5387 25.4765 35.5555 25.2678 35.5555 25.0565V11.4259C35.5512 7.84812 32.6518 4.94877 29.0739 4.94446Z" fill="#C5C6C9"/>
<path d="M27.7778 29.574V35.4592C28.9769 35.0064 30.0662 34.3038 30.9732 33.3981L32.8969 31.4731C33.8037 30.5667 34.5068 29.4774 34.9593 28.2777H29.0742C28.3582 28.2778 27.7778 28.8581 27.7778 29.574Z" fill="#C5C6C9"/>
</g>
<path d="M15.707 10.0859V15.125H14.582V9.27344H15.625L15.707 10.0859ZM18.3828 11.3398V11.4219C18.3828 11.7292 18.3464 12.0143 18.2734 12.2773C18.2031 12.5404 18.099 12.7695 17.9609 12.9648C17.8229 13.1576 17.651 13.3086 17.4453 13.418C17.2422 13.5247 17.0078 13.5781 16.7422 13.5781C16.4844 13.5781 16.2604 13.526 16.0703 13.4219C15.8802 13.3177 15.7201 13.1719 15.5898 12.9844C15.4622 12.7943 15.3594 12.5742 15.2812 12.3242C15.2031 12.0742 15.1432 11.806 15.1016 11.5195V11.3047C15.1432 10.9974 15.2031 10.7161 15.2812 10.4609C15.3594 10.2031 15.4622 9.98047 15.5898 9.79297C15.7201 9.60286 15.8789 9.45573 16.0664 9.35156C16.2565 9.2474 16.4792 9.19531 16.7344 9.19531C17.0026 9.19531 17.2383 9.24609 17.4414 9.34766C17.6471 9.44922 17.819 9.59505 17.957 9.78516C18.0977 9.97526 18.2031 10.2018 18.2734 10.4648C18.3464 10.7279 18.3828 11.0195 18.3828 11.3398ZM17.2539 11.4219V11.3398C17.2539 11.1602 17.2383 10.9948 17.207 10.8438C17.1784 10.6901 17.1315 10.556 17.0664 10.4414C17.0039 10.3268 16.9206 10.2383 16.8164 10.1758C16.7148 10.1107 16.5911 10.0781 16.4453 10.0781C16.2917 10.0781 16.1602 10.1029 16.0508 10.1523C15.944 10.2018 15.8568 10.2734 15.7891 10.3672C15.7214 10.4609 15.6706 10.5729 15.6367 10.7031C15.6029 10.8333 15.582 10.9805 15.5742 11.1445V11.6875C15.5872 11.8802 15.6237 12.0534 15.6836 12.207C15.7435 12.3581 15.8359 12.4779 15.9609 12.5664C16.0859 12.6549 16.25 12.6992 16.4531 12.6992C16.6016 12.6992 16.7266 12.6667 16.8281 12.6016C16.9297 12.5339 17.0117 12.4414 17.0742 12.3242C17.1393 12.207 17.1849 12.0716 17.2109 11.918C17.2396 11.7643 17.2539 11.599 17.2539 11.4219ZM20.207 10.0859V15.125H19.082V9.27344H20.125L20.207 10.0859ZM22.8828 11.3398V11.4219C22.8828 11.7292 22.8464 12.0143 22.7734 12.2773C22.7031 12.5404 22.599 12.7695 22.4609 12.9648C22.3229 13.1576 22.151 13.3086 21.9453 13.418C21.7422 13.5247 21.5078 13.5781 21.2422 13.5781C20.9844 13.5781 20.7604 13.526 20.5703 13.4219C20.3802 13.3177 20.2201 13.1719 20.0898 12.9844C19.9622 12.7943 19.8594 12.5742 19.7812 12.3242C19.7031 12.0742 19.6432 11.806 19.6016 11.5195V11.3047C19.6432 10.9974 19.7031 10.7161 19.7812 10.4609C19.8594 10.2031 19.9622 9.98047 20.0898 9.79297C20.2201 9.60286 20.3789 9.45573 20.5664 9.35156C20.7565 9.2474 20.9792 9.19531 21.2344 9.19531C21.5026 9.19531 21.7383 9.24609 21.9414 9.34766C22.1471 9.44922 22.319 9.59505 22.457 9.78516C22.5977 9.97526 22.7031 10.2018 22.7734 10.4648C22.8464 10.7279 22.8828 11.0195 22.8828 11.3398ZM21.7539 11.4219V11.3398C21.7539 11.1602 21.7383 10.9948 21.707 10.8438C21.6784 10.6901 21.6315 10.556 21.5664 10.4414C21.5039 10.3268 21.4206 10.2383 21.3164 10.1758C21.2148 10.1107 21.0911 10.0781 20.9453 10.0781C20.7917 10.0781 20.6602 10.1029 20.5508 10.1523C20.444 10.2018 20.3568 10.2734 20.2891 10.3672C20.2214 10.4609 20.1706 10.5729 20.1367 10.7031C20.1029 10.8333 20.082 10.9805 20.0742 11.1445V11.6875C20.0872 11.8802 20.1237 12.0534 20.1836 12.207C20.2435 12.3581 20.3359 12.4779 20.4609 12.5664C20.5859 12.6549 20.75 12.6992 20.9531 12.6992C21.1016 12.6992 21.2266 12.6667 21.3281 12.6016C21.4297 12.5339 21.5117 12.4414 21.5742 12.3242C21.6393 12.207 21.6849 12.0716 21.7109 11.918C21.7396 11.7643 21.7539 11.599 21.7539 11.4219ZM25.6523 9.27344V10.0703H23.1914V9.27344H25.6523ZM23.8008 8.23047H24.9258V12.2266C24.9258 12.349 24.9414 12.4427 24.9727 12.5078C25.0065 12.5729 25.056 12.6185 25.1211 12.6445C25.1862 12.668 25.2682 12.6797 25.3672 12.6797C25.4375 12.6797 25.5 12.6771 25.5547 12.6719C25.612 12.6641 25.6602 12.6562 25.6992 12.6484L25.7031 13.4766C25.6068 13.5078 25.5026 13.5326 25.3906 13.5508C25.2786 13.569 25.1549 13.5781 25.0195 13.5781C24.7721 13.5781 24.556 13.5378 24.3711 13.457C24.1888 13.3737 24.0482 13.2409 23.9492 13.0586C23.8503 12.8763 23.8008 12.6367 23.8008 12.3398V8.23047Z" fill="white"/>
<defs>
<clipPath id="clip0_39856_170829">
<rect width="31.1111" height="31.1111" fill="white" transform="translate(4.44434 4.94446)"/>
</clipPath>
</defs>
</svg>
