<svg width="40" height="41" viewBox="0 0 40 41" fill="none" xmlns="http://www.w3.org/2000/svg">
<g clip-path="url(#clip0_39856_170603)">
<path d="M29.0739 4.94434H10.9258C7.348 4.94865 4.44865 7.848 4.44434 11.4258V29.574C4.44865 33.1518 7.348 36.0512 10.9258 36.0554H24.5564C24.7677 36.0554 24.9764 36.0386 25.1851 36.0243V29.5739C25.1851 27.4262 26.9262 25.6851 29.074 25.6851H35.5244C35.5387 25.4763 35.5555 25.2677 35.5555 25.0563V11.4258C35.5512 7.848 32.6518 4.94865 29.0739 4.94434Z" fill="#C5C6C9"/>
<path d="M27.7778 29.5739V35.4591C28.9769 35.0063 30.0662 34.3037 30.9732 33.398L32.8969 31.473C33.8037 30.5666 34.5068 29.4772 34.9593 28.2776H29.0742C28.3582 28.2776 27.7778 28.858 27.7778 29.5739Z" fill="#C5C6C9"/>
</g>
<path d="M14.7852 10.0859V15.125H13.6602V9.27344H14.7031L14.7852 10.0859ZM17.4609 11.3398V11.4219C17.4609 11.7292 17.4245 12.0143 17.3516 12.2773C17.2812 12.5404 17.1771 12.7695 17.0391 12.9648C16.901 13.1576 16.7292 13.3086 16.5234 13.418C16.3203 13.5247 16.0859 13.5781 15.8203 13.5781C15.5625 13.5781 15.3385 13.526 15.1484 13.4219C14.9583 13.3177 14.7982 13.1719 14.668 12.9844C14.5404 12.7943 14.4375 12.5742 14.3594 12.3242C14.2812 12.0742 14.2214 11.806 14.1797 11.5195V11.3047C14.2214 10.9974 14.2812 10.7161 14.3594 10.4609C14.4375 10.2031 14.5404 9.98047 14.668 9.79297C14.7982 9.60286 14.957 9.45573 15.1445 9.35156C15.3346 9.2474 15.5573 9.19531 15.8125 9.19531C16.0807 9.19531 16.3164 9.24609 16.5195 9.34766C16.7253 9.44922 16.8971 9.59505 17.0352 9.78516C17.1758 9.97526 17.2812 10.2018 17.3516 10.4648C17.4245 10.7279 17.4609 11.0195 17.4609 11.3398ZM16.332 11.4219V11.3398C16.332 11.1602 16.3164 10.9948 16.2852 10.8438C16.2565 10.6901 16.2096 10.556 16.1445 10.4414C16.082 10.3268 15.9987 10.2383 15.8945 10.1758C15.793 10.1107 15.6693 10.0781 15.5234 10.0781C15.3698 10.0781 15.2383 10.1029 15.1289 10.1523C15.0221 10.2018 14.9349 10.2734 14.8672 10.3672C14.7995 10.4609 14.7487 10.5729 14.7148 10.7031C14.681 10.8333 14.6602 10.9805 14.6523 11.1445V11.6875C14.6654 11.8802 14.7018 12.0534 14.7617 12.207C14.8216 12.3581 14.9141 12.4779 15.0391 12.5664C15.1641 12.6549 15.3281 12.6992 15.5312 12.6992C15.6797 12.6992 15.8047 12.6667 15.9062 12.6016C16.0078 12.5339 16.0898 12.4414 16.1523 12.3242C16.2174 12.207 16.263 12.0716 16.2891 11.918C16.3177 11.7643 16.332 11.599 16.332 11.4219ZM19.2617 10.1758V13.5H18.1367V9.27344H19.1914L19.2617 10.1758ZM19.0977 11.2383H18.793C18.793 10.9258 18.8333 10.6445 18.9141 10.3945C18.9948 10.1419 19.1081 9.92708 19.2539 9.75C19.3997 9.57031 19.5729 9.43359 19.7734 9.33984C19.9766 9.24349 20.2031 9.19531 20.4531 9.19531C20.651 9.19531 20.832 9.22396 20.9961 9.28125C21.1602 9.33854 21.3008 9.42969 21.418 9.55469C21.5378 9.67969 21.6289 9.84505 21.6914 10.0508C21.7565 10.2565 21.7891 10.5078 21.7891 10.8047V13.5H20.6562V10.8008C20.6562 10.6133 20.6302 10.4674 20.5781 10.3633C20.526 10.2591 20.4492 10.1862 20.3477 10.1445C20.2487 10.1003 20.1263 10.0781 19.9805 10.0781C19.8294 10.0781 19.6979 10.1081 19.5859 10.168C19.4766 10.2279 19.3854 10.3112 19.3125 10.418C19.2422 10.5221 19.1888 10.6445 19.1523 10.7852C19.1159 10.9258 19.0977 11.0768 19.0977 11.2383ZM25.3203 9.27344H26.3398V13.3594C26.3398 13.7448 26.2539 14.0716 26.082 14.3398C25.9128 14.6107 25.6758 14.8151 25.3711 14.9531C25.0664 15.0938 24.7122 15.1641 24.3086 15.1641C24.1315 15.1641 23.944 15.1406 23.7461 15.0938C23.5508 15.0469 23.3633 14.974 23.1836 14.875C23.0065 14.776 22.8581 14.651 22.7383 14.5L23.2344 13.8359C23.3646 13.987 23.5156 14.1042 23.6875 14.1875C23.8594 14.2734 24.0495 14.3164 24.2578 14.3164C24.4609 14.3164 24.6328 14.2786 24.7734 14.2031C24.9141 14.1302 25.0221 14.0221 25.0977 13.8789C25.1732 13.7383 25.2109 13.5677 25.2109 13.3672V10.25L25.3203 9.27344ZM22.4766 11.4375V11.3555C22.4766 11.0326 22.5156 10.7396 22.5938 10.4766C22.6745 10.2109 22.7878 9.98307 22.9336 9.79297C23.082 9.60286 23.2617 9.45573 23.4727 9.35156C23.6836 9.2474 23.9219 9.19531 24.1875 9.19531C24.4688 9.19531 24.7044 9.2474 24.8945 9.35156C25.0846 9.45573 25.2409 9.60417 25.3633 9.79688C25.4857 9.98698 25.5807 10.2122 25.6484 10.4727C25.7188 10.7305 25.7734 11.013 25.8125 11.3203V11.5C25.7734 11.7943 25.7148 12.0677 25.6367 12.3203C25.5586 12.5729 25.4557 12.7943 25.3281 12.9844C25.2005 13.1719 25.0417 13.3177 24.8516 13.4219C24.6641 13.526 24.4401 13.5781 24.1797 13.5781C23.9193 13.5781 23.6836 13.5247 23.4727 13.418C23.2643 13.3112 23.0859 13.1615 22.9375 12.9688C22.7891 12.776 22.6745 12.5495 22.5938 12.2891C22.5156 12.0286 22.4766 11.7448 22.4766 11.4375ZM23.6016 11.3555V11.4375C23.6016 11.612 23.6185 11.7747 23.6523 11.9258C23.6862 12.0768 23.7383 12.2109 23.8086 12.3281C23.8815 12.4427 23.9714 12.5326 24.0781 12.5977C24.1875 12.6602 24.3164 12.6914 24.4648 12.6914C24.6706 12.6914 24.8385 12.6484 24.9688 12.5625C25.099 12.474 25.1966 12.3529 25.2617 12.1992C25.3268 12.0456 25.3646 11.8685 25.375 11.668V11.1562C25.3698 10.9922 25.3477 10.8451 25.3086 10.7148C25.2695 10.582 25.2148 10.4688 25.1445 10.375C25.0742 10.2812 24.9831 10.2083 24.8711 10.1562C24.7591 10.1042 24.6263 10.0781 24.4727 10.0781C24.3242 10.0781 24.1953 10.112 24.0859 10.1797C23.9792 10.2448 23.8893 10.3346 23.8164 10.4492C23.7461 10.5638 23.6927 10.6992 23.6562 10.8555C23.6198 11.0091 23.6016 11.1758 23.6016 11.3555Z" fill="white"/>
<defs>
<clipPath id="clip0_39856_170603">
<rect width="31.1111" height="31.1111" fill="white" transform="translate(4.44434 4.94434)"/>
</clipPath>
</defs>
</svg>
