<svg width="40" height="41" viewBox="0 0 40 41" fill="none" xmlns="http://www.w3.org/2000/svg">
<g clip-path="url(#clip0_39856_170842)">
<path d="M29.0739 4.94446H10.9258C7.348 4.94877 4.44865 7.84812 4.44434 11.426V29.5741C4.44865 33.1519 7.348 36.0513 10.9258 36.0556H24.5564C24.7677 36.0556 24.9764 36.0387 25.1851 36.0245V29.5741C25.1851 27.4263 26.9262 25.6852 29.074 25.6852H35.5244C35.5387 25.4765 35.5555 25.2678 35.5555 25.0565V11.4259C35.5512 7.84812 32.6518 4.94877 29.0739 4.94446Z" fill="#C5C6C9"/>
<path d="M27.7778 29.574V35.4592C28.9769 35.0064 30.0662 34.3038 30.9732 33.3981L32.8969 31.4731C33.8037 30.5667 34.5068 29.4774 34.9593 28.2777H29.0742C28.3582 28.2778 27.7778 28.8581 27.7778 29.574Z" fill="#C5C6C9"/>
</g>
<path d="M13.6719 10.0859V15.125H12.5469V9.27344H13.5898L13.6719 10.0859ZM16.3477 11.3398V11.4219C16.3477 11.7292 16.3112 12.0143 16.2383 12.2773C16.168 12.5404 16.0638 12.7695 15.9258 12.9648C15.7878 13.1576 15.6159 13.3086 15.4102 13.418C15.207 13.5247 14.9727 13.5781 14.707 13.5781C14.4492 13.5781 14.2253 13.526 14.0352 13.4219C13.8451 13.3177 13.6849 13.1719 13.5547 12.9844C13.4271 12.7943 13.3242 12.5742 13.2461 12.3242C13.168 12.0742 13.1081 11.806 13.0664 11.5195V11.3047C13.1081 10.9974 13.168 10.7161 13.2461 10.4609C13.3242 10.2031 13.4271 9.98047 13.5547 9.79297C13.6849 9.60286 13.8438 9.45573 14.0312 9.35156C14.2214 9.2474 14.444 9.19531 14.6992 9.19531C14.9674 9.19531 15.2031 9.24609 15.4062 9.34766C15.612 9.44922 15.7839 9.59505 15.9219 9.78516C16.0625 9.97526 16.168 10.2018 16.2383 10.4648C16.3112 10.7279 16.3477 11.0195 16.3477 11.3398ZM15.2188 11.4219V11.3398C15.2188 11.1602 15.2031 10.9948 15.1719 10.8438C15.1432 10.6901 15.0964 10.556 15.0312 10.4414C14.9688 10.3268 14.8854 10.2383 14.7812 10.1758C14.6797 10.1107 14.556 10.0781 14.4102 10.0781C14.2565 10.0781 14.125 10.1029 14.0156 10.1523C13.9089 10.2018 13.8216 10.2734 13.7539 10.3672C13.6862 10.4609 13.6354 10.5729 13.6016 10.7031C13.5677 10.8333 13.5469 10.9805 13.5391 11.1445V11.6875C13.5521 11.8802 13.5885 12.0534 13.6484 12.207C13.7083 12.3581 13.8008 12.4779 13.9258 12.5664C14.0508 12.6549 14.2148 12.6992 14.418 12.6992C14.5664 12.6992 14.6914 12.6667 14.793 12.6016C14.8945 12.5339 14.9766 12.4414 15.0391 12.3242C15.1042 12.207 15.1497 12.0716 15.1758 11.918C15.2044 11.7643 15.2188 11.599 15.2188 11.4219ZM18.1719 10.0859V15.125H17.0469V9.27344H18.0898L18.1719 10.0859ZM20.8477 11.3398V11.4219C20.8477 11.7292 20.8112 12.0143 20.7383 12.2773C20.668 12.5404 20.5638 12.7695 20.4258 12.9648C20.2878 13.1576 20.1159 13.3086 19.9102 13.418C19.707 13.5247 19.4727 13.5781 19.207 13.5781C18.9492 13.5781 18.7253 13.526 18.5352 13.4219C18.3451 13.3177 18.1849 13.1719 18.0547 12.9844C17.9271 12.7943 17.8242 12.5742 17.7461 12.3242C17.668 12.0742 17.6081 11.806 17.5664 11.5195V11.3047C17.6081 10.9974 17.668 10.7161 17.7461 10.4609C17.8242 10.2031 17.9271 9.98047 18.0547 9.79297C18.1849 9.60286 18.3438 9.45573 18.5312 9.35156C18.7214 9.2474 18.944 9.19531 19.1992 9.19531C19.4674 9.19531 19.7031 9.24609 19.9062 9.34766C20.112 9.44922 20.2839 9.59505 20.4219 9.78516C20.5625 9.97526 20.668 10.2018 20.7383 10.4648C20.8112 10.7279 20.8477 11.0195 20.8477 11.3398ZM19.7188 11.4219V11.3398C19.7188 11.1602 19.7031 10.9948 19.6719 10.8438C19.6432 10.6901 19.5964 10.556 19.5312 10.4414C19.4688 10.3268 19.3854 10.2383 19.2812 10.1758C19.1797 10.1107 19.056 10.0781 18.9102 10.0781C18.7565 10.0781 18.625 10.1029 18.5156 10.1523C18.4089 10.2018 18.3216 10.2734 18.2539 10.3672C18.1862 10.4609 18.1354 10.5729 18.1016 10.7031C18.0677 10.8333 18.0469 10.9805 18.0391 11.1445V11.6875C18.0521 11.8802 18.0885 12.0534 18.1484 12.207C18.2083 12.3581 18.3008 12.4779 18.4258 12.5664C18.5508 12.6549 18.7148 12.6992 18.918 12.6992C19.0664 12.6992 19.1914 12.6667 19.293 12.6016C19.3945 12.5339 19.4766 12.4414 19.5391 12.3242C19.6042 12.207 19.6497 12.0716 19.6758 11.918C19.7044 11.7643 19.7188 11.599 19.7188 11.4219ZM23.6172 9.27344V10.0703H21.1562V9.27344H23.6172ZM21.7656 8.23047H22.8906V12.2266C22.8906 12.349 22.9062 12.4427 22.9375 12.5078C22.9714 12.5729 23.0208 12.6185 23.0859 12.6445C23.151 12.668 23.2331 12.6797 23.332 12.6797C23.4023 12.6797 23.4648 12.6771 23.5195 12.6719C23.5768 12.6641 23.625 12.6562 23.6641 12.6484L23.668 13.4766C23.5716 13.5078 23.4674 13.5326 23.3555 13.5508C23.2435 13.569 23.1198 13.5781 22.9844 13.5781C22.737 13.5781 22.5208 13.5378 22.3359 13.457C22.1536 13.3737 22.013 13.2409 21.9141 13.0586C21.8151 12.8763 21.7656 12.6367 21.7656 12.3398V8.23047ZM25.1641 9.27344L25.8633 10.5586L26.582 9.27344H27.7812L26.5859 11.3398L27.8359 13.5H26.6328L25.8711 12.1406L25.1094 13.5H23.9062L25.1562 11.3398L23.9609 9.27344H25.1641Z" fill="white"/>
<defs>
<clipPath id="clip0_39856_170842">
<rect width="31.1111" height="31.1111" fill="white" transform="translate(4.44434 4.94446)"/>
</clipPath>
</defs>
</svg>
