<svg width="40" height="41" viewBox="0 0 40 41" fill="none" xmlns="http://www.w3.org/2000/svg">
<g clip-path="url(#clip0_39856_170897)">
<path d="M29.0739 4.94446H10.9258C7.348 4.94877 4.44865 7.84812 4.44434 11.426V29.5741C4.44865 33.1519 7.348 36.0513 10.9258 36.0556H24.5564C24.7677 36.0556 24.9764 36.0387 25.1851 36.0245V29.5741C25.1851 27.4263 26.9262 25.6852 29.074 25.6852H35.5244C35.5387 25.4765 35.5555 25.2678 35.5555 25.0565V11.4259C35.5512 7.84812 32.6518 4.94877 29.0739 4.94446Z" fill="#C5C6C9"/>
<path d="M27.7778 29.5741V35.4592C28.9769 35.0064 30.0662 34.3038 30.9732 33.3981L32.8969 31.4731C33.8037 30.5667 34.5068 29.4774 34.9593 28.2777H29.0742C28.3582 28.2778 27.7778 28.8582 27.7778 29.5741Z" fill="#C5C6C9"/>
</g>
<path d="M17.0586 10.1953V13.5H15.9336V9.27344H16.9922L17.0586 10.1953ZM18.332 9.24609L18.3125 10.2891C18.2578 10.2812 18.1914 10.2747 18.1133 10.2695C18.0378 10.2617 17.9688 10.2578 17.9062 10.2578C17.7474 10.2578 17.6094 10.2786 17.4922 10.3203C17.3776 10.3594 17.2812 10.418 17.2031 10.4961C17.1276 10.5742 17.0703 10.6693 17.0312 10.7812C16.9948 10.8932 16.974 11.0208 16.9688 11.1641L16.7422 11.0938C16.7422 10.8203 16.7695 10.569 16.8242 10.3398C16.8789 10.1081 16.9583 9.90625 17.0625 9.73438C17.1693 9.5625 17.2995 9.42969 17.4531 9.33594C17.6068 9.24219 17.7826 9.19531 17.9805 9.19531C18.043 9.19531 18.1068 9.20052 18.1719 9.21094C18.237 9.21875 18.2904 9.23047 18.332 9.24609ZM21.0117 12.5469V10.6641C21.0117 10.5286 20.9896 10.4128 20.9453 10.3164C20.901 10.2174 20.832 10.1406 20.7383 10.0859C20.6471 10.0312 20.5286 10.0039 20.3828 10.0039C20.2578 10.0039 20.1497 10.026 20.0586 10.0703C19.9674 10.112 19.8971 10.1732 19.8477 10.2539C19.7982 10.332 19.7734 10.4245 19.7734 10.5312H18.6484C18.6484 10.3516 18.6901 10.181 18.7734 10.0195C18.8568 9.85807 18.9779 9.71615 19.1367 9.59375C19.2956 9.46875 19.4844 9.37109 19.7031 9.30078C19.9245 9.23047 20.1719 9.19531 20.4453 9.19531C20.7734 9.19531 21.0651 9.25 21.3203 9.35938C21.5755 9.46875 21.776 9.63281 21.9219 9.85156C22.0703 10.0703 22.1445 10.3438 22.1445 10.6719V12.4805C22.1445 12.7122 22.1589 12.9023 22.1875 13.0508C22.2161 13.1966 22.2578 13.3242 22.3125 13.4336V13.5H21.1758C21.1211 13.3854 21.0794 13.2422 21.0508 13.0703C21.0247 12.8958 21.0117 12.7214 21.0117 12.5469ZM21.1602 10.9258L21.168 11.5625H20.5391C20.3906 11.5625 20.2617 11.5794 20.1523 11.6133C20.043 11.6471 19.9531 11.6953 19.8828 11.7578C19.8125 11.8177 19.7604 11.888 19.7266 11.9688C19.6953 12.0495 19.6797 12.138 19.6797 12.2344C19.6797 12.3307 19.7018 12.418 19.7461 12.4961C19.7904 12.5716 19.8542 12.6315 19.9375 12.6758C20.0208 12.7174 20.1185 12.7383 20.2305 12.7383C20.3997 12.7383 20.5469 12.7044 20.6719 12.6367C20.7969 12.569 20.8932 12.4857 20.9609 12.3867C21.0312 12.2878 21.0677 12.194 21.0703 12.1055L21.3672 12.582C21.3255 12.6888 21.2682 12.7995 21.1953 12.9141C21.125 13.0286 21.0352 13.1367 20.9258 13.2383C20.8164 13.3372 20.6849 13.4193 20.5312 13.4844C20.3776 13.5469 20.1953 13.5781 19.9844 13.5781C19.7161 13.5781 19.4727 13.5247 19.2539 13.418C19.0378 13.3086 18.8659 13.1589 18.7383 12.9688C18.6133 12.776 18.5508 12.5573 18.5508 12.3125C18.5508 12.0911 18.5924 11.8945 18.6758 11.7227C18.7591 11.5508 18.8815 11.4062 19.043 11.2891C19.207 11.1693 19.4115 11.0794 19.6562 11.0195C19.901 10.957 20.1849 10.9258 20.5078 10.9258H21.1602ZM24.1367 10.1953V13.5H23.0117V9.27344H24.0703L24.1367 10.1953ZM25.4102 9.24609L25.3906 10.2891C25.3359 10.2812 25.2695 10.2747 25.1914 10.2695C25.1159 10.2617 25.0469 10.2578 24.9844 10.2578C24.8255 10.2578 24.6875 10.2786 24.5703 10.3203C24.4557 10.3594 24.3594 10.418 24.2812 10.4961C24.2057 10.5742 24.1484 10.6693 24.1094 10.7812C24.0729 10.8932 24.0521 11.0208 24.0469 11.1641L23.8203 11.0938C23.8203 10.8203 23.8477 10.569 23.9023 10.3398C23.957 10.1081 24.0365 9.90625 24.1406 9.73438C24.2474 9.5625 24.3776 9.42969 24.5312 9.33594C24.6849 9.24219 24.8607 9.19531 25.0586 9.19531C25.1211 9.19531 25.1849 9.20052 25.25 9.21094C25.3151 9.21875 25.3685 9.23047 25.4102 9.24609Z" fill="white"/>
<defs>
<clipPath id="clip0_39856_170897">
<rect width="31.1111" height="31.1111" fill="white" transform="translate(4.44434 4.94446)"/>
</clipPath>
</defs>
</svg>
