<svg width="40" height="41" viewBox="0 0 40 41" fill="none" xmlns="http://www.w3.org/2000/svg">
<g clip-path="url(#clip0_39856_170871)">
<path d="M29.0739 4.94446H10.9258C7.348 4.94877 4.44865 7.84812 4.44434 11.426V29.5741C4.44865 33.1519 7.348 36.0513 10.9258 36.0556H24.5564C24.7677 36.0556 24.9764 36.0387 25.1851 36.0245V29.5741C25.1851 27.4263 26.9262 25.6852 29.074 25.6852H35.5244C35.5387 25.4765 35.5555 25.2678 35.5555 25.0565V11.4259C35.5512 7.84812 32.6518 4.94877 29.0739 4.94446Z" fill="#C5C6C9"/>
<path d="M27.7778 29.574V35.4592C28.9769 35.0064 30.0662 34.3038 30.9732 33.3981L32.8969 31.4731C33.8037 30.5667 34.5068 29.4774 34.9593 28.2777H29.0742C28.3582 28.2778 27.7778 28.8581 27.7778 29.574Z" fill="#C5C6C9"/>
</g>
<path d="M17.7617 9.27344V10.0703H15.3008V9.27344H17.7617ZM15.9102 8.23047H17.0352V12.2266C17.0352 12.349 17.0508 12.4427 17.082 12.5078C17.1159 12.5729 17.1654 12.6185 17.2305 12.6445C17.2956 12.668 17.3776 12.6797 17.4766 12.6797C17.5469 12.6797 17.6094 12.6771 17.6641 12.6719C17.7214 12.6641 17.7695 12.6562 17.8086 12.6484L17.8125 13.4766C17.7161 13.5078 17.612 13.5326 17.5 13.5508C17.388 13.569 17.2643 13.5781 17.1289 13.5781C16.8815 13.5781 16.6654 13.5378 16.4805 13.457C16.2982 13.3737 16.1576 13.2409 16.0586 13.0586C15.9596 12.8763 15.9102 12.6367 15.9102 12.3398V8.23047ZM19.3086 9.27344L20.0078 10.5586L20.7266 9.27344H21.9258L20.7305 11.3398L21.9805 13.5H20.7773L20.0156 12.1406L19.2539 13.5H18.0508L19.3008 11.3398L18.1055 9.27344H19.3086ZM24.543 9.27344V10.0703H22.082V9.27344H24.543ZM22.6914 8.23047H23.8164V12.2266C23.8164 12.349 23.832 12.4427 23.8633 12.5078C23.8971 12.5729 23.9466 12.6185 24.0117 12.6445C24.0768 12.668 24.1589 12.6797 24.2578 12.6797C24.3281 12.6797 24.3906 12.6771 24.4453 12.6719C24.5026 12.6641 24.5508 12.6562 24.5898 12.6484L24.5938 13.4766C24.4974 13.5078 24.3932 13.5326 24.2812 13.5508C24.1693 13.569 24.0456 13.5781 23.9102 13.5781C23.6628 13.5781 23.4466 13.5378 23.2617 13.457C23.0794 13.3737 22.9388 13.2409 22.8398 13.0586C22.7409 12.8763 22.6914 12.6367 22.6914 12.3398V8.23047Z" fill="white"/>
<defs>
<clipPath id="clip0_39856_170871">
<rect width="31.1111" height="31.1111" fill="white" transform="translate(4.44434 4.94446)"/>
</clipPath>
</defs>
</svg>
