<svg width="40" height="41" viewBox="0 0 40 41" fill="none" xmlns="http://www.w3.org/2000/svg">
<g clip-path="url(#clip0_39856_170632)">
<path d="M29.0739 4.94434H10.9258C7.348 4.94865 4.44865 7.848 4.44434 11.4258V29.574C4.44865 33.1518 7.348 36.0512 10.9258 36.0554H24.5564C24.7677 36.0554 24.9764 36.0386 25.1851 36.0243V29.5739C25.1851 27.4262 26.9262 25.6851 29.074 25.6851H35.5244C35.5387 25.4763 35.5555 25.2677 35.5555 25.0563V11.4258C35.5512 7.848 32.6518 4.94865 29.0739 4.94434Z" fill="#C5C6C9"/>
<path d="M27.7778 29.5739V35.4591C28.9769 35.0063 30.0662 34.3037 30.9732 33.398L32.8969 31.473C33.8037 30.5666 34.5068 29.4772 34.9593 28.2776H29.0742C28.3582 28.2776 27.7778 28.858 27.7778 29.5739Z" fill="#C5C6C9"/>
</g>
<path d="M9.79688 12.4062L10.6758 9.27344H11.3906L11.1602 10.5039L10.2812 13.5H9.68359L9.79688 12.4062ZM9.35156 9.27344L9.98047 12.4023L10.0391 13.5H9.33594L8.26562 9.27344H9.35156ZM12.1953 12.3516L12.8086 9.27344H13.8984L12.8281 13.5H12.1289L12.1953 12.3516ZM11.4883 9.27344L12.3633 12.3828L12.4844 13.5H11.8828L11.0039 10.5078L10.7812 9.27344H11.4883ZM16.4102 13.5781C16.082 13.5781 15.7878 13.526 15.5273 13.4219C15.2669 13.3151 15.0456 13.168 14.8633 12.9805C14.6836 12.793 14.5456 12.5755 14.4492 12.3281C14.3529 12.0781 14.3047 11.8125 14.3047 11.5312V11.375C14.3047 11.0547 14.3503 10.7617 14.4414 10.4961C14.5326 10.2305 14.6628 10 14.832 9.80469C15.0039 9.60938 15.2122 9.45964 15.457 9.35547C15.7018 9.2487 15.9779 9.19531 16.2852 9.19531C16.5846 9.19531 16.8503 9.24479 17.082 9.34375C17.3138 9.44271 17.5078 9.58333 17.6641 9.76562C17.8229 9.94792 17.9427 10.1667 18.0234 10.4219C18.1042 10.6745 18.1445 10.9557 18.1445 11.2656V11.7344H14.7852V10.9844H17.0391V10.8984C17.0391 10.7422 17.0104 10.6029 16.9531 10.4805C16.8984 10.3555 16.8151 10.2565 16.7031 10.1836C16.5911 10.1107 16.4479 10.0742 16.2734 10.0742C16.125 10.0742 15.9974 10.1068 15.8906 10.1719C15.7839 10.237 15.6966 10.3281 15.6289 10.4453C15.5638 10.5625 15.5143 10.7005 15.4805 10.8594C15.4492 11.0156 15.4336 11.1875 15.4336 11.375V11.5312C15.4336 11.7005 15.457 11.8568 15.5039 12C15.5534 12.1432 15.6224 12.2669 15.7109 12.3711C15.8021 12.4753 15.9115 12.556 16.0391 12.6133C16.1693 12.6706 16.3164 12.6992 16.4805 12.6992C16.6836 12.6992 16.8724 12.6602 17.0469 12.582C17.224 12.5013 17.3763 12.3802 17.5039 12.2188L18.0508 12.8125C17.9622 12.9401 17.8411 13.0625 17.6875 13.1797C17.5365 13.2969 17.3542 13.3932 17.1406 13.4688C16.9271 13.5417 16.6836 13.5781 16.4102 13.5781ZM18.7852 7.5H19.9102V12.5312L19.7969 13.5H18.7852V7.5ZM22.5859 11.3438V11.4258C22.5859 11.7409 22.5521 12.0299 22.4844 12.293C22.4193 12.556 22.3177 12.7839 22.1797 12.9766C22.0417 13.1667 21.8698 13.3151 21.6641 13.4219C21.4609 13.526 21.2214 13.5781 20.9453 13.5781C20.6875 13.5781 20.4635 13.526 20.2734 13.4219C20.0859 13.3177 19.9284 13.1706 19.8008 12.9805C19.6732 12.7904 19.5703 12.5677 19.4922 12.3125C19.4141 12.0573 19.3555 11.7786 19.3164 11.4766V11.2969C19.3555 10.9948 19.4141 10.7161 19.4922 10.4609C19.5703 10.2057 19.6732 9.98307 19.8008 9.79297C19.9284 9.60286 20.0859 9.45573 20.2734 9.35156C20.4609 9.2474 20.6823 9.19531 20.9375 9.19531C21.2161 9.19531 21.4583 9.2487 21.6641 9.35547C21.8724 9.45964 22.0443 9.60807 22.1797 9.80078C22.3177 9.99089 22.4193 10.2174 22.4844 10.4805C22.5521 10.7409 22.5859 11.0286 22.5859 11.3438ZM21.4609 11.4258V11.3438C21.4609 11.1719 21.4479 11.0104 21.4219 10.8594C21.3984 10.7057 21.3568 10.5716 21.2969 10.457C21.237 10.3398 21.1549 10.2474 21.0508 10.1797C20.9492 10.112 20.8177 10.0781 20.6562 10.0781C20.5026 10.0781 20.3724 10.1042 20.2656 10.1562C20.1589 10.2083 20.0703 10.2812 20 10.375C19.9323 10.4688 19.8815 10.5807 19.8477 10.7109C19.8138 10.8385 19.793 10.9792 19.7852 11.1328V11.6445C19.793 11.8503 19.8268 12.0326 19.8867 12.1914C19.9492 12.3477 20.043 12.4714 20.168 12.5625C20.2956 12.651 20.4609 12.6953 20.6641 12.6953C20.8229 12.6953 20.9544 12.6641 21.0586 12.6016C21.1628 12.5391 21.2435 12.4505 21.3008 12.3359C21.3607 12.2214 21.4023 12.0872 21.4258 11.9336C21.4492 11.7773 21.4609 11.6081 21.4609 11.4258ZM23.2852 7.5H24.4102V12.5312L24.2969 13.5H23.2852V7.5ZM27.0859 11.3438V11.4258C27.0859 11.7409 27.0521 12.0299 26.9844 12.293C26.9193 12.556 26.8177 12.7839 26.6797 12.9766C26.5417 13.1667 26.3698 13.3151 26.1641 13.4219C25.9609 13.526 25.7214 13.5781 25.4453 13.5781C25.1875 13.5781 24.9635 13.526 24.7734 13.4219C24.5859 13.3177 24.4284 13.1706 24.3008 12.9805C24.1732 12.7904 24.0703 12.5677 23.9922 12.3125C23.9141 12.0573 23.8555 11.7786 23.8164 11.4766V11.2969C23.8555 10.9948 23.9141 10.7161 23.9922 10.4609C24.0703 10.2057 24.1732 9.98307 24.3008 9.79297C24.4284 9.60286 24.5859 9.45573 24.7734 9.35156C24.9609 9.2474 25.1823 9.19531 25.4375 9.19531C25.7161 9.19531 25.9583 9.2487 26.1641 9.35547C26.3724 9.45964 26.5443 9.60807 26.6797 9.80078C26.8177 9.99089 26.9193 10.2174 26.9844 10.4805C27.0521 10.7409 27.0859 11.0286 27.0859 11.3438ZM25.9609 11.4258V11.3438C25.9609 11.1719 25.9479 11.0104 25.9219 10.8594C25.8984 10.7057 25.8568 10.5716 25.7969 10.457C25.737 10.3398 25.6549 10.2474 25.5508 10.1797C25.4492 10.112 25.3177 10.0781 25.1562 10.0781C25.0026 10.0781 24.8724 10.1042 24.7656 10.1562C24.6589 10.2083 24.5703 10.2812 24.5 10.375C24.4323 10.4688 24.3815 10.5807 24.3477 10.7109C24.3138 10.8385 24.293 10.9792 24.2852 11.1328V11.6445C24.293 11.8503 24.3268 12.0326 24.3867 12.1914C24.4492 12.3477 24.543 12.4714 24.668 12.5625C24.7956 12.651 24.9609 12.6953 25.1641 12.6953C25.3229 12.6953 25.4544 12.6641 25.5586 12.6016C25.6628 12.5391 25.7435 12.4505 25.8008 12.3359C25.8607 12.2214 25.9023 12.0872 25.9258 11.9336C25.9492 11.7773 25.9609 11.6081 25.9609 11.4258ZM28.9102 10.0859V15.125H27.7852V9.27344H28.8281L28.9102 10.0859ZM31.5859 11.3398V11.4219C31.5859 11.7292 31.5495 12.0143 31.4766 12.2773C31.4062 12.5404 31.3021 12.7695 31.1641 12.9648C31.026 13.1576 30.8542 13.3086 30.6484 13.418C30.4453 13.5247 30.2109 13.5781 29.9453 13.5781C29.6875 13.5781 29.4635 13.526 29.2734 13.4219C29.0833 13.3177 28.9232 13.1719 28.793 12.9844C28.6654 12.7943 28.5625 12.5742 28.4844 12.3242C28.4062 12.0742 28.3464 11.806 28.3047 11.5195V11.3047C28.3464 10.9974 28.4062 10.7161 28.4844 10.4609C28.5625 10.2031 28.6654 9.98047 28.793 9.79297C28.9232 9.60286 29.082 9.45573 29.2695 9.35156C29.4596 9.2474 29.6823 9.19531 29.9375 9.19531C30.2057 9.19531 30.4414 9.24609 30.6445 9.34766C30.8503 9.44922 31.0221 9.59505 31.1602 9.78516C31.3008 9.97526 31.4062 10.2018 31.4766 10.4648C31.5495 10.7279 31.5859 11.0195 31.5859 11.3398ZM30.457 11.4219V11.3398C30.457 11.1602 30.4414 10.9948 30.4102 10.8438C30.3815 10.6901 30.3346 10.556 30.2695 10.4414C30.207 10.3268 30.1237 10.2383 30.0195 10.1758C29.918 10.1107 29.7943 10.0781 29.6484 10.0781C29.4948 10.0781 29.3633 10.1029 29.2539 10.1523C29.1471 10.2018 29.0599 10.2734 28.9922 10.3672C28.9245 10.4609 28.8737 10.5729 28.8398 10.7031C28.806 10.8333 28.7852 10.9805 28.7773 11.1445V11.6875C28.7904 11.8802 28.8268 12.0534 28.8867 12.207C28.9466 12.3581 29.0391 12.4779 29.1641 12.5664C29.2891 12.6549 29.4531 12.6992 29.6562 12.6992C29.8047 12.6992 29.9297 12.6667 30.0312 12.6016C30.1328 12.5339 30.2148 12.4414 30.2773 12.3242C30.3424 12.207 30.388 12.0716 30.4141 11.918C30.4427 11.7643 30.457 11.599 30.457 11.4219Z" fill="white"/>
<defs>
<clipPath id="clip0_39856_170632">
<rect width="31.1111" height="31.1111" fill="white" transform="translate(4.44434 4.94434)"/>
</clipPath>
</defs>
</svg>
