<svg width="40" height="41" viewBox="0 0 40 41" fill="none" xmlns="http://www.w3.org/2000/svg">
<g clip-path="url(#clip0_39856_170716)">
<path d="M29.0739 4.94446H10.9258C7.348 4.94877 4.44865 7.84812 4.44434 11.426V29.5741C4.44865 33.1519 7.348 36.0513 10.9258 36.0556H24.5564C24.7677 36.0556 24.9764 36.0387 25.1851 36.0245V29.5741C25.1851 27.4263 26.9262 25.6852 29.074 25.6852H35.5244C35.5387 25.4765 35.5555 25.2678 35.5555 25.0565V11.4259C35.5512 7.84812 32.6518 4.94877 29.0739 4.94446Z" fill="#C5C6C9"/>
<path d="M27.7778 29.574V35.4592C28.9769 35.0064 30.0662 34.3038 30.9732 33.3981L32.8969 31.4731C33.8037 30.5667 34.5068 29.4774 34.9593 28.2777H29.0742C28.3582 28.2778 27.7778 28.8581 27.7778 29.574Z" fill="#C5C6C9"/>
</g>
<path d="M13.7148 12.4062L14.5938 9.27344H15.3086L15.0781 10.5039L14.1992 13.5H13.6016L13.7148 12.4062ZM13.2695 9.27344L13.8984 12.4023L13.957 13.5H13.2539L12.1836 9.27344H13.2695ZM16.1133 12.3516L16.7266 9.27344H17.8164L16.7461 13.5H16.0469L16.1133 12.3516ZM15.4062 9.27344L16.2812 12.3828L16.4023 13.5H15.8008L14.9219 10.5078L14.6992 9.27344H15.4062ZM19.5078 10.1484V13.5H18.3789V9.27344H19.4375L19.5078 10.1484ZM19.3516 11.2383H19.0391C19.0391 10.944 19.0742 10.6732 19.1445 10.4258C19.2174 10.1758 19.3229 9.95964 19.4609 9.77734C19.6016 9.59245 19.7747 9.44922 19.9805 9.34766C20.1862 9.24609 20.4245 9.19531 20.6953 9.19531C20.8828 9.19531 21.0547 9.22396 21.2109 9.28125C21.3672 9.33594 21.5013 9.42318 21.6133 9.54297C21.7279 9.66016 21.8164 9.8138 21.8789 10.0039C21.9414 10.1914 21.9727 10.4167 21.9727 10.6797V13.5H20.8477V10.8047C20.8477 10.612 20.8216 10.4635 20.7695 10.3594C20.7174 10.2552 20.6432 10.1823 20.5469 10.1406C20.4531 10.099 20.3398 10.0781 20.207 10.0781C20.0612 10.0781 19.9336 10.1081 19.8242 10.168C19.7174 10.2279 19.6289 10.3112 19.5586 10.418C19.4883 10.5221 19.4362 10.6445 19.4023 10.7852C19.3685 10.9258 19.3516 11.0768 19.3516 11.2383ZM21.8672 11.1094L21.4648 11.1602C21.4648 10.8841 21.4987 10.6276 21.5664 10.3906C21.6367 10.1536 21.7396 9.94531 21.875 9.76562C22.013 9.58594 22.1836 9.44661 22.3867 9.34766C22.5898 9.24609 22.8242 9.19531 23.0898 9.19531C23.293 9.19531 23.4779 9.22526 23.6445 9.28516C23.8112 9.34245 23.9531 9.4349 24.0703 9.5625C24.1901 9.6875 24.2812 9.85156 24.3438 10.0547C24.4089 10.2578 24.4414 10.5065 24.4414 10.8008V13.5H23.3125V10.8008C23.3125 10.6055 23.2865 10.457 23.2344 10.3555C23.1849 10.2513 23.112 10.1797 23.0156 10.1406C22.9219 10.099 22.8099 10.0781 22.6797 10.0781C22.5443 10.0781 22.4258 10.1055 22.3242 10.1602C22.2227 10.2122 22.138 10.2852 22.0703 10.3789C22.0026 10.4727 21.9518 10.582 21.918 10.707C21.8841 10.8294 21.8672 10.9635 21.8672 11.1094ZM26.75 12.6797L27.6875 9.27344H28.8633L27.4375 13.5H26.7266L26.75 12.6797ZM26.1055 9.27344L27.0469 12.6836L27.0664 13.5H26.3516L24.9258 9.27344H26.1055Z" fill="white"/>
<defs>
<clipPath id="clip0_39856_170716">
<rect width="31.1111" height="31.1111" fill="white" transform="translate(4.44434 4.94446)"/>
</clipPath>
</defs>
</svg>
