<svg width="40" height="41" viewBox="0 0 40 41" fill="none" xmlns="http://www.w3.org/2000/svg">
<g clip-path="url(#clip0_39856_170800)">
<path d="M29.0739 4.94446H10.9258C7.348 4.94877 4.44865 7.84812 4.44434 11.426V29.5741C4.44865 33.1519 7.348 36.0513 10.9258 36.0556H24.5564C24.7677 36.0556 24.9764 36.0387 25.1851 36.0245V29.5741C25.1851 27.4263 26.9262 25.6852 29.074 25.6852H35.5244C35.5387 25.4765 35.5555 25.2678 35.5555 25.0565V11.4259C35.5512 7.84812 32.6518 4.94877 29.0739 4.94446Z" fill="#C5C6C9"/>
<path d="M27.7778 29.574V35.4592C28.9769 35.0064 30.0662 34.3038 30.9732 33.3981L32.8969 31.4731C33.8037 30.5667 34.5068 29.4774 34.9593 28.2777H29.0742C28.3582 28.2778 27.7778 28.8581 27.7778 29.574Z" fill="#C5C6C9"/>
</g>
<path d="M16.6953 9.27344L17.3945 10.5586L18.1133 9.27344H19.3125L18.1172 11.3398L19.3672 13.5H18.1641L17.4023 12.1406L16.6406 13.5H15.4375L16.6875 11.3398L15.4922 9.27344H16.6953ZM21.0469 7.5V13.5H19.918V7.5H21.0469ZM24.2617 12.332C24.2617 12.2513 24.2383 12.1784 24.1914 12.1133C24.1445 12.0482 24.0573 11.9883 23.9297 11.9336C23.8047 11.8763 23.6237 11.8242 23.3867 11.7773C23.1732 11.7305 22.974 11.6719 22.7891 11.6016C22.6068 11.5286 22.4479 11.4414 22.3125 11.3398C22.1797 11.2383 22.0755 11.1185 22 10.9805C21.9245 10.8398 21.8867 10.6797 21.8867 10.5C21.8867 10.3229 21.9245 10.1562 22 10C22.0781 9.84375 22.1888 9.70573 22.332 9.58594C22.4779 9.46354 22.6549 9.36849 22.8633 9.30078C23.0742 9.23047 23.3112 9.19531 23.5742 9.19531C23.9414 9.19531 24.2565 9.25391 24.5195 9.37109C24.7852 9.48828 24.9883 9.64974 25.1289 9.85547C25.2721 10.0586 25.3438 10.2904 25.3438 10.5508H24.2188C24.2188 10.4414 24.1953 10.3438 24.1484 10.2578C24.1042 10.1693 24.0339 10.1003 23.9375 10.0508C23.8438 9.9987 23.7214 9.97266 23.5703 9.97266C23.4453 9.97266 23.3372 9.99479 23.2461 10.0391C23.1549 10.0807 23.0846 10.138 23.0352 10.2109C22.9883 10.2812 22.9648 10.3594 22.9648 10.4453C22.9648 10.5104 22.9779 10.569 23.0039 10.6211C23.0326 10.6706 23.0781 10.7161 23.1406 10.7578C23.2031 10.7995 23.2839 10.8385 23.3828 10.875C23.4844 10.9089 23.6094 10.9401 23.7578 10.9688C24.0625 11.0312 24.3346 11.1133 24.5742 11.2148C24.8138 11.3138 25.0039 11.4492 25.1445 11.6211C25.2852 11.7904 25.3555 12.013 25.3555 12.2891C25.3555 12.4766 25.3138 12.6484 25.2305 12.8047C25.1471 12.9609 25.0273 13.0977 24.8711 13.2148C24.7148 13.3294 24.5273 13.4193 24.3086 13.4844C24.0924 13.5469 23.849 13.5781 23.5781 13.5781C23.1849 13.5781 22.8516 13.5078 22.5781 13.3672C22.3073 13.2266 22.1016 13.0482 21.9609 12.832C21.8229 12.6133 21.7539 12.3893 21.7539 12.1602H22.8203C22.8255 12.3138 22.8646 12.4375 22.9375 12.5312C23.013 12.625 23.1081 12.6927 23.2227 12.7344C23.3398 12.776 23.4661 12.7969 23.6016 12.7969C23.7474 12.7969 23.8685 12.7773 23.9648 12.7383C24.0612 12.6966 24.1341 12.6419 24.1836 12.5742C24.2357 12.5039 24.2617 12.4232 24.2617 12.332Z" fill="white"/>
<defs>
<clipPath id="clip0_39856_170800">
<rect width="31.1111" height="31.1111" fill="white" transform="translate(4.44434 4.94446)"/>
</clipPath>
</defs>
</svg>
