<svg width="40" height="41" viewBox="0 0 40 41" fill="none" xmlns="http://www.w3.org/2000/svg">
<g clip-path="url(#clip0_39856_170813)">
<path d="M29.0739 4.94446H10.9258C7.348 4.94877 4.44865 7.84812 4.44434 11.426V29.5741C4.44865 33.1519 7.348 36.0513 10.9258 36.0556H24.5564C24.7677 36.0556 24.9764 36.0387 25.1851 36.0245V29.5741C25.1851 27.4263 26.9262 25.6852 29.074 25.6852H35.5244C35.5387 25.4765 35.5555 25.2678 35.5555 25.0565V11.4259C35.5512 7.84812 32.6518 4.94877 29.0739 4.94446Z" fill="#C5C6C9"/>
<path d="M27.7778 29.574V35.4592C28.9769 35.0064 30.0662 34.3038 30.9732 33.3981L32.8969 31.4731C33.8037 30.5667 34.5068 29.4774 34.9593 28.2777H29.0742C28.3582 28.2778 27.7778 28.8581 27.7778 29.574Z" fill="#C5C6C9"/>
</g>
<path d="M14.6602 9.27344L15.3594 10.5586L16.0781 9.27344H17.2773L16.082 11.3398L17.332 13.5H16.1289L15.3672 12.1406L14.6055 13.5H13.4023L14.6523 11.3398L13.457 9.27344H14.6602ZM19.0117 7.5V13.5H17.8828V7.5H19.0117ZM22.2266 12.332C22.2266 12.2513 22.2031 12.1784 22.1562 12.1133C22.1094 12.0482 22.0221 11.9883 21.8945 11.9336C21.7695 11.8763 21.5885 11.8242 21.3516 11.7773C21.138 11.7305 20.9388 11.6719 20.7539 11.6016C20.5716 11.5286 20.4128 11.4414 20.2773 11.3398C20.1445 11.2383 20.0404 11.1185 19.9648 10.9805C19.8893 10.8398 19.8516 10.6797 19.8516 10.5C19.8516 10.3229 19.8893 10.1562 19.9648 10C20.043 9.84375 20.1536 9.70573 20.2969 9.58594C20.4427 9.46354 20.6198 9.36849 20.8281 9.30078C21.0391 9.23047 21.276 9.19531 21.5391 9.19531C21.9062 9.19531 22.2214 9.25391 22.4844 9.37109C22.75 9.48828 22.9531 9.64974 23.0938 9.85547C23.237 10.0586 23.3086 10.2904 23.3086 10.5508H22.1836C22.1836 10.4414 22.1602 10.3438 22.1133 10.2578C22.069 10.1693 21.9987 10.1003 21.9023 10.0508C21.8086 9.9987 21.6862 9.97266 21.5352 9.97266C21.4102 9.97266 21.3021 9.99479 21.2109 10.0391C21.1198 10.0807 21.0495 10.138 21 10.2109C20.9531 10.2812 20.9297 10.3594 20.9297 10.4453C20.9297 10.5104 20.9427 10.569 20.9688 10.6211C20.9974 10.6706 21.043 10.7161 21.1055 10.7578C21.168 10.7995 21.2487 10.8385 21.3477 10.875C21.4492 10.9089 21.5742 10.9401 21.7227 10.9688C22.0273 11.0312 22.2995 11.1133 22.5391 11.2148C22.7786 11.3138 22.9688 11.4492 23.1094 11.6211C23.25 11.7904 23.3203 12.013 23.3203 12.2891C23.3203 12.4766 23.2786 12.6484 23.1953 12.8047C23.112 12.9609 22.9922 13.0977 22.8359 13.2148C22.6797 13.3294 22.4922 13.4193 22.2734 13.4844C22.0573 13.5469 21.8138 13.5781 21.543 13.5781C21.1497 13.5781 20.8164 13.5078 20.543 13.3672C20.2721 13.2266 20.0664 13.0482 19.9258 12.832C19.7878 12.6133 19.7188 12.3893 19.7188 12.1602H20.7852C20.7904 12.3138 20.8294 12.4375 20.9023 12.5312C20.9779 12.625 21.0729 12.6927 21.1875 12.7344C21.3047 12.776 21.431 12.7969 21.5664 12.7969C21.7122 12.7969 21.8333 12.7773 21.9297 12.7383C22.026 12.6966 22.099 12.6419 22.1484 12.5742C22.2005 12.5039 22.2266 12.4232 22.2266 12.332ZM24.957 9.27344L25.6562 10.5586L26.375 9.27344H27.5742L26.3789 11.3398L27.6289 13.5H26.4258L25.6641 12.1406L24.9023 13.5H23.6992L24.9492 11.3398L23.7539 9.27344H24.957Z" fill="white"/>
<defs>
<clipPath id="clip0_39856_170813">
<rect width="31.1111" height="31.1111" fill="white" transform="translate(4.44434 4.94446)"/>
</clipPath>
</defs>
</svg>
