<svg width="40" height="41" viewBox="0 0 40 41" fill="none" xmlns="http://www.w3.org/2000/svg">
<g clip-path="url(#clip0_39856_170884)">
<path d="M29.0739 4.94446H10.9258C7.348 4.94877 4.44865 7.84812 4.44434 11.426V29.5741C4.44865 33.1519 7.348 36.0513 10.9258 36.0556H24.5564C24.7677 36.0556 24.9764 36.0387 25.1851 36.0245V29.5741C25.1851 27.4263 26.9262 25.6852 29.074 25.6852H35.5244C35.5387 25.4765 35.5555 25.2678 35.5555 25.0565V11.4259C35.5512 7.84812 32.6518 4.94877 29.0739 4.94446Z" fill="#C5C6C9"/>
<path d="M27.7778 29.574V35.4592C28.9769 35.0064 30.0662 34.3038 30.9732 33.3981L32.8969 31.4731C33.8037 30.5667 34.5068 29.4774 34.9593 28.2777H29.0742C28.3582 28.2778 27.7778 28.8581 27.7778 29.574Z" fill="#C5C6C9"/>
</g>
<path d="M18.957 12.6211V13.5H15.7461V12.6211H18.957ZM18.8945 9.92188L16.1992 13.5H15.4453V12.832L18.1289 9.27344H18.8945V9.92188ZM18.4961 9.27344V10.1562H15.5078V9.27344H18.4961ZM20.8516 9.27344V13.5H19.7227V9.27344H20.8516ZM19.6523 8.17188C19.6523 8.00781 19.7096 7.8724 19.8242 7.76562C19.9388 7.65885 20.0924 7.60547 20.2852 7.60547C20.4753 7.60547 20.6276 7.65885 20.7422 7.76562C20.8594 7.8724 20.918 8.00781 20.918 8.17188C20.918 8.33594 20.8594 8.47135 20.7422 8.57812C20.6276 8.6849 20.4753 8.73828 20.2852 8.73828C20.0924 8.73828 19.9388 8.6849 19.8242 8.57812C19.7096 8.47135 19.6523 8.33594 19.6523 8.17188ZM22.9062 10.0859V15.125H21.7812V9.27344H22.8242L22.9062 10.0859ZM25.582 11.3398V11.4219C25.582 11.7292 25.5456 12.0143 25.4727 12.2773C25.4023 12.5404 25.2982 12.7695 25.1602 12.9648C25.0221 13.1576 24.8503 13.3086 24.6445 13.418C24.4414 13.5247 24.207 13.5781 23.9414 13.5781C23.6836 13.5781 23.4596 13.526 23.2695 13.4219C23.0794 13.3177 22.9193 13.1719 22.7891 12.9844C22.6615 12.7943 22.5586 12.5742 22.4805 12.3242C22.4023 12.0742 22.3424 11.806 22.3008 11.5195V11.3047C22.3424 10.9974 22.4023 10.7161 22.4805 10.4609C22.5586 10.2031 22.6615 9.98047 22.7891 9.79297C22.9193 9.60286 23.0781 9.45573 23.2656 9.35156C23.4557 9.2474 23.6784 9.19531 23.9336 9.19531C24.2018 9.19531 24.4375 9.24609 24.6406 9.34766C24.8464 9.44922 25.0182 9.59505 25.1562 9.78516C25.2969 9.97526 25.4023 10.2018 25.4727 10.4648C25.5456 10.7279 25.582 11.0195 25.582 11.3398ZM24.4531 11.4219V11.3398C24.4531 11.1602 24.4375 10.9948 24.4062 10.8438C24.3776 10.6901 24.3307 10.556 24.2656 10.4414C24.2031 10.3268 24.1198 10.2383 24.0156 10.1758C23.9141 10.1107 23.7904 10.0781 23.6445 10.0781C23.4909 10.0781 23.3594 10.1029 23.25 10.1523C23.1432 10.2018 23.056 10.2734 22.9883 10.3672C22.9206 10.4609 22.8698 10.5729 22.8359 10.7031C22.8021 10.8333 22.7812 10.9805 22.7734 11.1445V11.6875C22.7865 11.8802 22.8229 12.0534 22.8828 12.207C22.9427 12.3581 23.0352 12.4779 23.1602 12.5664C23.2852 12.6549 23.4492 12.6992 23.6523 12.6992C23.8008 12.6992 23.9258 12.6667 24.0273 12.6016C24.1289 12.5339 24.2109 12.4414 24.2734 12.3242C24.3385 12.207 24.3841 12.0716 24.4102 11.918C24.4388 11.7643 24.4531 11.599 24.4531 11.4219Z" fill="white"/>
<defs>
<clipPath id="clip0_39856_170884">
<rect width="31.1111" height="31.1111" fill="white" transform="translate(4.44434 4.94446)"/>
</clipPath>
</defs>
</svg>
