<svg width="20" height="21" viewBox="0 0 20 21" fill="#1462B0" stroke="#1462B0" xmlns="http://www.w3.org/2000/svg">
<path d="M1 1.45539C1.13563 1.11389 1.38847 0.991784 1.75177 1.00043C2.46371 1.01733 3.17678 0.998547 3.88909 1.01207C4.01119 1.01433 4.15959 1.07519 4.24788 1.15972C4.7175 1.60868 5.1766 2.06928 5.62706 2.53777C5.70408 2.61779 5.76193 2.75342 5.76306 2.86425C5.77283 4.02665 5.77057 5.18905 5.76832 6.35145C5.76757 6.74743 5.53539 6.97285 5.13452 6.97397C4.65438 6.97585 4.17425 6.97435 3.67344 6.97435C3.67344 7.31097 3.66142 7.63369 3.6787 7.95491C3.68697 8.10294 3.79968 8.19724 3.95747 8.21226C4.01345 8.21752 4.0698 8.21752 4.12616 8.21752C5.73864 8.2179 7.35112 8.2164 8.9636 8.22053C9.09547 8.2209 9.1661 8.18559 9.24387 8.06912C9.33667 7.92974 9.48883 7.83018 9.61243 7.70996C9.65263 7.67089 9.71049 7.62317 9.71311 7.57659C9.72439 7.38461 9.718 7.1915 9.718 6.97435C9.44449 6.97435 9.19015 6.97435 8.9358 6.97435C8.69836 6.97435 8.46092 6.9766 8.22348 6.9736C7.86319 6.96909 7.62838 6.74029 7.61411 6.37812C7.60772 6.21582 7.61261 6.05314 7.61261 5.89084C7.61261 4.5034 7.61223 3.11634 7.61261 1.7289C7.61261 1.21344 7.82299 1.00606 8.34333 1.00568C9.05565 1.00568 9.76834 1.00907 10.4807 1.00306C10.6422 1.00155 10.7658 1.04626 10.88 1.1631C11.3263 1.61807 11.7776 2.06853 12.2318 2.5156C12.3426 2.62455 12.3907 2.74327 12.3903 2.89806C12.3869 4.03529 12.3896 5.17289 12.3881 6.31012C12.3873 6.75269 12.1604 6.9736 11.7144 6.97435C11.2955 6.9751 10.877 6.98036 10.4581 6.97134C10.3154 6.96834 10.2624 7.01492 10.2812 7.1528C10.2853 7.18361 10.2845 7.21554 10.2812 7.24635C10.2545 7.4913 10.268 7.70508 10.5479 7.82192C10.6445 7.86212 10.7219 7.98572 10.7718 8.08866C10.8263 8.20024 10.8962 8.21978 11.0059 8.2194C12.6371 8.21677 14.2684 8.2179 15.8997 8.21715C16.2341 8.21715 16.3336 8.11533 16.3344 7.77984C16.3351 7.51911 16.3344 7.258 16.3344 6.97435C15.9925 6.97435 15.6694 6.97435 15.3463 6.97435C15.1836 6.97435 15.0213 6.97548 14.8586 6.97397C14.4626 6.97059 14.232 6.74217 14.2316 6.34393C14.2301 4.90051 14.2308 3.45672 14.2308 2.0133C14.2308 1.8634 14.2267 1.71312 14.2331 1.56359C14.2455 1.2589 14.4796 1.01245 14.7842 1.00944C15.5905 1.00155 16.3967 1.00306 17.203 1.01132C17.2852 1.01207 17.3844 1.06617 17.4457 1.12628C17.9281 1.59853 18.4067 2.07416 18.8759 2.55918C18.9454 2.63094 18.9932 2.75605 18.9939 2.85673C19.0018 4.02514 19.0007 5.19393 18.998 6.36272C18.9973 6.73278 18.7572 6.97134 18.3875 6.97397C17.901 6.97735 17.4141 6.97472 16.8968 6.97472C16.8968 7.21442 16.9005 7.44246 16.8953 7.67014C16.8919 7.81929 16.893 7.97219 16.8611 8.11646C16.7796 8.48352 16.464 8.75063 16.089 8.77205C15.8399 8.78632 15.5894 8.77994 15.3395 8.77994C13.9021 8.78031 12.4647 8.78144 11.0273 8.77806C10.9033 8.77768 10.8357 8.81075 10.7621 8.92308C10.67 9.06359 10.5182 9.16465 10.3995 9.28938C10.3507 9.34085 10.2872 9.4096 10.2868 9.47084C10.2797 10.4082 10.2815 11.3456 10.2827 12.2829C10.2827 12.325 10.2928 12.3671 10.2992 12.4185C12.0097 12.4185 13.712 12.4185 15.4143 12.4185C15.4218 12.1011 15.2174 11.8482 14.921 11.8032C14.835 11.79 14.7467 11.7896 14.6595 11.7896C13.5595 11.7889 12.4594 11.7893 11.3594 11.7885C11.2846 11.7885 11.208 11.7896 11.1359 11.7731C10.9954 11.7415 10.9251 11.6435 10.9281 11.5011C10.9311 11.3587 11.0051 11.2644 11.1475 11.2385C11.2204 11.2253 11.2967 11.2268 11.3714 11.2268C12.4715 11.2261 13.5715 11.2257 14.6715 11.2265C15.4507 11.2272 15.87 11.5879 15.9955 12.3626C15.9985 12.3802 16.0071 12.3971 16.0192 12.4298C16.1525 12.4298 16.2889 12.4298 16.4257 12.4298C16.8318 12.4298 17.2383 12.4264 17.6444 12.4309C18.1294 12.4362 18.3834 12.792 18.2297 13.2541C17.5546 15.284 16.8746 17.312 16.2021 19.3426C16.0455 19.8156 15.7152 20.0801 15.2501 20.2041C11.8253 20.2041 8.40006 20.2041 4.97523 20.2041C4.96058 20.1935 4.94705 20.1785 4.9309 20.1733C4.3095 19.9809 4.00556 19.5755 4.00518 18.9301C4.00443 16.3814 4.00406 13.8323 4.00556 11.2836C4.00593 10.5389 4.48382 10.0359 5.22356 10.025C6.07939 10.0122 6.93523 10.0212 7.79144 10.0224C8.15361 10.0227 8.45867 10.1546 8.71001 10.418C8.90424 10.6212 9.09998 10.8241 9.30849 11.0119C9.41256 11.1055 9.54781 11.1652 9.68005 11.2471C9.7041 11.1795 9.71537 11.1622 9.71537 11.1449C9.71725 10.5765 9.72063 10.0081 9.71424 9.43966C9.71349 9.38932 9.6515 9.33371 9.6083 9.29051C9.48657 9.16878 9.33479 9.06885 9.24237 8.92871C9.16498 8.81187 9.09359 8.77693 8.96173 8.77731C7.33722 8.78144 5.71309 8.78107 4.08859 8.77956C3.45479 8.77881 3.10539 8.42566 3.10427 7.79149C3.10389 7.52512 3.10427 7.25875 3.10427 6.97435C2.65118 6.97435 2.22063 6.95707 1.79234 6.97961C1.42979 6.99839 1.16117 6.89019 1.00113 6.55507C1 4.85505 1 3.15541 1 1.45539ZM17.7244 12.9919C17.6309 12.9919 17.5693 12.9919 17.508 12.9919C14.1583 12.9919 10.809 12.9915 7.45932 12.9922C7.02615 12.9922 6.85257 13.1181 6.71469 13.5302C6.08503 15.4177 5.45612 17.3052 4.8272 19.1927C4.73027 19.4835 4.80917 19.6022 5.124 19.6371C5.18599 19.6439 5.24873 19.6409 5.31147 19.6409C8.51728 19.6409 11.7231 19.6409 14.9289 19.6409C15.3778 19.6409 15.5525 19.5128 15.6964 19.0807C16.1443 17.7373 16.5925 16.3941 17.0399 15.0507C17.2646 14.377 17.4881 13.7027 17.7244 12.9919ZM4.56685 18.0784C4.57662 18.0806 4.58638 18.0829 4.59615 18.0855C4.62132 18.0187 4.64912 17.9522 4.67167 17.8845C5.17885 16.3637 5.68416 14.8425 6.19248 13.3225C6.39535 12.7157 6.78683 12.4328 7.42438 12.4306C8.03075 12.4283 8.63675 12.4302 9.24312 12.4302C9.75369 12.4302 9.7567 12.4298 9.71311 11.9132C9.70898 11.8629 9.63985 11.7859 9.59064 11.7769C9.31525 11.7265 9.08796 11.5984 8.89448 11.4004C8.71978 11.2216 8.53343 11.0536 8.36662 10.8677C8.18141 10.6614 7.96125 10.578 7.68587 10.581C6.89841 10.5893 6.11095 10.5833 5.3235 10.5844C4.79715 10.5852 4.56722 10.8143 4.56722 11.3365C4.56685 13.5238 4.56722 15.7111 4.56722 17.8984C4.56685 17.9578 4.56685 18.0179 4.56685 18.0784ZM8.18817 1.57561C8.18817 3.19411 8.18817 4.79532 8.18817 6.39803C9.40392 6.39803 10.6058 6.39803 11.811 6.39803C11.811 5.28297 11.811 4.18143 11.811 3.069C11.5345 3.069 11.2726 3.06938 11.0104 3.069C10.5404 3.06863 10.3232 2.85335 10.321 2.38448C10.3199 2.11737 10.3206 1.85025 10.3206 1.57561C9.60078 1.57561 8.90274 1.57561 8.18817 1.57561ZM1.57106 6.39954C2.78756 6.39954 3.98903 6.39954 5.19351 6.39954C5.19351 5.28598 5.19351 4.18481 5.19351 3.06938C5.00077 3.06938 4.82007 3.05886 4.64086 3.07126C3.83875 3.12648 3.65992 2.81766 3.70237 2.14179C3.71402 1.95694 3.70425 1.77098 3.70425 1.57975C2.98254 1.57975 2.28074 1.57975 1.57143 1.57975C1.57106 3.18772 1.57106 4.78442 1.57106 6.39954ZM14.8012 6.39653C16.0237 6.39653 17.2251 6.39653 18.4217 6.39653C18.4217 5.27959 18.4217 4.17805 18.4217 3.069C18.1317 3.069 17.8574 3.06975 17.5828 3.06863C17.1658 3.06712 16.9374 2.83757 16.9355 2.4183C16.9343 2.13953 16.9351 1.86077 16.9351 1.58087C16.2096 1.58087 15.5075 1.58087 14.8012 1.58087C14.8012 3.19148 14.8012 4.78856 14.8012 6.39653ZM9.99714 8.18183C9.82169 8.18334 9.68118 8.32986 9.68456 8.50718C9.68794 8.68602 9.83108 8.82014 10.0118 8.81413C10.1831 8.80849 10.3146 8.67324 10.3154 8.50155C10.3161 8.32497 10.1722 8.17995 9.99714 8.18183ZM4.27869 2.00992C4.27869 2.17673 4.27869 2.33377 4.27869 2.49531C4.44813 2.49531 4.60479 2.49531 4.7731 2.49531C4.60479 2.32963 4.44738 2.1756 4.27869 2.00992ZM17.9912 2.49682C17.8281 2.33264 17.6718 2.17485 17.508 2.00954C17.508 2.17485 17.508 2.33189 17.508 2.49682C17.6745 2.49682 17.8311 2.49682 17.9912 2.49682ZM10.892 2.49269C11.0637 2.49269 11.2197 2.49269 11.3226 2.49269C11.1885 2.35819 11.0348 2.20415 10.892 2.06101C10.892 2.18048 10.892 2.32776 10.892 2.49269Z"  stroke-width="0.18"/>
<path d="M14.0616 16.9381C14.393 16.9381 14.724 16.9366 15.0554 16.9384C15.2616 16.9396 15.3875 17.044 15.3916 17.2101C15.3957 17.381 15.262 17.4986 15.0493 17.4994C14.387 17.5016 13.7246 17.5016 13.0623 17.4994C12.8534 17.4986 12.7343 17.3942 12.7306 17.2232C12.7268 17.0429 12.8466 16.9396 13.0683 16.9384C13.3993 16.9369 13.7307 16.9381 14.0616 16.9381Z"  stroke-width="0.18"/>
<path d="M13.4585 18.1401C13.7899 18.1401 14.1209 18.1389 14.4522 18.1404C14.6585 18.1416 14.7847 18.2445 14.7904 18.4109C14.7964 18.5822 14.6626 18.701 14.4504 18.7013C13.788 18.7036 13.1257 18.7036 12.4633 18.7013C12.2462 18.7006 12.1244 18.589 12.1301 18.4091C12.1357 18.2362 12.251 18.1416 12.4652 18.1404C12.7962 18.1389 13.1275 18.1401 13.4585 18.1401Z"  stroke-width="0.18"/>
<path d="M9.85489 4.27016C9.61783 4.27016 9.38039 4.27241 9.14333 4.26941C8.9397 4.26715 8.8176 4.15783 8.81985 3.98726C8.82211 3.82571 8.94271 3.71113 9.13243 3.70925C9.61295 3.70512 10.0938 3.70474 10.5747 3.70962C10.7622 3.7115 10.8809 3.83172 10.8783 3.99515C10.876 4.16046 10.7592 4.2664 10.5665 4.26903C10.3294 4.27279 10.0923 4.27016 9.85489 4.27016Z"  stroke-width="0.18"/>
<path d="M9.85836 5.47143C9.61491 5.47143 9.37146 5.47443 9.12801 5.4703C8.93791 5.46729 8.81994 5.35684 8.82031 5.19228C8.82069 5.03036 8.94054 4.91277 9.12951 4.91089C9.61002 4.90601 10.0909 4.90601 10.5718 4.91089C10.7612 4.91277 10.8795 5.03074 10.8787 5.19379C10.8784 5.35909 10.7619 5.46729 10.5699 5.4703C10.3329 5.47406 10.0954 5.47143 9.85836 5.47143Z"  stroke-width="0.18"/>
<path d="M3.2124 4.2709C2.98134 4.2709 2.74992 4.27353 2.51886 4.27015C2.32951 4.26752 2.20628 4.15707 2.20365 3.99665C2.20103 3.83622 2.32313 3.71262 2.50909 3.71074C2.99637 3.70586 3.48365 3.70548 3.97092 3.71149C4.15764 3.71375 4.27148 3.83885 4.26397 4.00604C4.25683 4.16383 4.14374 4.26715 3.96191 4.27015C3.71245 4.27353 3.46261 4.2709 3.2124 4.2709Z"  stroke-width="0.18"/>
<path d="M3.23129 5.47198C2.99385 5.47198 2.75641 5.47461 2.51935 5.47123C2.33075 5.4686 2.20677 5.35777 2.20414 5.19848C2.20151 5.03843 2.32324 4.91407 2.50996 4.9122C2.99724 4.90694 3.48451 4.90656 3.97141 4.91295C4.15964 4.91558 4.27197 5.04031 4.26445 5.20787C4.25732 5.36604 4.14536 5.46822 3.9624 5.47123C3.71857 5.47499 3.47512 5.47198 3.23129 5.47198Z"  stroke-width="0.18"/>
<path d="M16.4615 4.27072C16.2241 4.27072 15.9867 4.27297 15.7492 4.26996C15.5546 4.26733 15.4389 4.16439 15.4351 3.99871C15.4314 3.82627 15.5505 3.71131 15.7534 3.7098C16.2282 3.70605 16.7031 3.70605 17.1776 3.71018C17.3741 3.71168 17.5026 3.83754 17.4955 4.00322C17.4883 4.16289 17.3655 4.26771 17.1735 4.26996C16.936 4.27259 16.6986 4.27072 16.4615 4.27072Z"  stroke-width="0.18"/>
<path d="M16.4666 5.47203C16.2292 5.47203 15.9918 5.47428 15.7547 5.47128C15.5556 5.46865 15.4421 5.37134 15.4354 5.20604C15.4282 5.03246 15.5462 4.91337 15.7483 4.91149C16.2232 4.90698 16.6977 4.90736 17.1726 4.91111C17.3717 4.91262 17.4994 5.03397 17.4957 5.19965C17.4919 5.36533 17.3657 5.4694 17.1602 5.47128C16.9288 5.47391 16.6977 5.47203 16.4666 5.47203Z"  stroke-width="0.18"/>
</svg>
