<svg width="21" height="21" viewBox="0 0 21 21" fill="#6B7280" stroke="#6B7280" xmlns="http://www.w3.org/2000/svg">
<path d="M10.6188 19.9633C10.5317 19.9344 10.4434 19.9095 10.3579 19.8766C9.87303 19.6906 9.55439 19.2299 9.55162 18.6955C9.54726 17.8662 9.55043 17.0366 9.55043 16.2069C9.55043 16.1349 9.55043 16.0629 9.55043 15.9877C8.96026 15.7308 8.51337 15.3306 8.22996 14.757C7.41258 13.1021 8.5961 11.1526 10.445 11.1174C11.0914 11.1052 11.7382 11.1281 12.3841 11.1095C13.5035 11.077 14.4891 10.7161 15.2551 9.86582C15.3734 9.73441 15.4759 9.58716 15.5701 9.43754C15.6628 9.29108 15.7724 9.18461 15.9549 9.23052C16.1441 9.27842 16.2023 9.4221 16.2015 9.60774C16.1983 10.4833 16.2003 11.3589 16.2003 12.2344C16.2003 12.2732 16.2003 12.3124 16.2003 12.3682C16.6321 12.4031 16.9923 12.5669 17.2409 12.9267C17.4115 13.1737 17.4863 13.4492 17.4626 13.7485C17.4119 14.3842 16.9393 14.8279 16.2003 14.9173C16.2003 14.9842 16.2003 15.0547 16.2003 15.1248C16.2003 15.9675 16.1979 16.8102 16.2023 17.6525C16.2031 17.8417 16.1615 18.0004 15.9616 18.0543C15.77 18.1057 15.6624 17.9889 15.565 17.8366C14.9918 16.9384 14.1479 16.4456 13.1176 16.2544C12.7891 16.1935 12.4514 16.182 12.0837 16.1444C12.0837 16.2465 12.0837 16.3154 12.0837 16.3847C12.0837 17.1221 12.0841 17.8591 12.0837 18.5965C12.0829 19.3063 11.7488 19.7456 11.0676 19.9368C11.049 19.9419 11.0328 19.9546 11.015 19.9637C10.8828 19.9633 10.7506 19.9633 10.6188 19.9633ZM15.5563 16.8086C15.5563 14.6862 15.5563 12.599 15.5563 10.4762C14.5655 11.3901 13.4121 11.799 12.0976 11.7472C12.0976 13.0229 12.0976 14.2757 12.0976 15.5423C12.7436 15.5123 13.3591 15.5954 13.9552 15.8135C14.5481 16.0304 15.0714 16.3613 15.5563 16.8086ZM11.4405 11.7507C11.07 11.7507 10.7142 11.7337 10.3603 11.7539C9.43168 11.8066 8.66299 12.5828 8.60441 13.5082C8.54464 14.4511 9.18152 15.327 10.0967 15.4857C10.5321 15.5613 10.9853 15.5364 11.4409 15.5574C11.4405 14.2706 11.4405 13.0225 11.4405 11.7507ZM10.1956 16.1717C10.1913 16.205 10.1841 16.2362 10.1841 16.2679C10.1834 17.0762 10.1834 17.8844 10.1845 18.6931C10.1845 18.745 10.1905 18.7984 10.2031 18.8487C10.2819 19.1566 10.5744 19.3613 10.884 19.3276C11.2018 19.2932 11.446 19.03 11.448 18.6963C11.4532 17.8943 11.45 17.0928 11.4492 16.2909C11.4492 16.254 11.4397 16.2168 11.4334 16.1713C11.0166 16.1717 10.6108 16.1717 10.1956 16.1717ZM16.209 14.2642C16.5791 14.2452 16.8396 13.9761 16.8324 13.6285C16.8257 13.2889 16.5526 13.0233 16.209 13.0265C16.209 13.4389 16.209 13.8514 16.209 14.2642Z"  stroke-width="0.4"/>
<path d="M1 7.91437C1.15477 7.44769 1.49518 7.19516 1.9666 7.12787C2.40082 7.06612 2.68542 6.87296 2.75984 6.41657C2.77923 6.29703 2.83702 6.17393 2.90906 6.07497C3.05829 5.86994 3.01317 5.69458 2.88531 5.5034C2.77963 5.34547 2.69374 5.17328 2.60507 5.00466C2.40043 4.61477 2.45584 4.18768 2.76142 3.87577C3.12993 3.49894 3.5032 3.12647 3.88081 2.75875C4.1951 2.45278 4.61982 2.39697 5.01169 2.60319C5.23889 2.72273 5.45818 2.85771 5.68855 2.97091C5.75267 3.00258 5.85282 3.00337 5.9209 2.97764C6.22845 2.86206 6.53363 2.73817 6.83288 2.6024C6.90373 2.57034 6.97617 2.49196 7.0015 2.41874C7.08344 2.18322 7.14004 1.939 7.21287 1.70031C7.34666 1.26293 7.69538 1.00485 8.15612 1.00208C8.66396 0.999307 9.1722 0.999307 9.68005 1.00208C10.1392 1.00485 10.4867 1.26411 10.6209 1.70308C10.6922 1.93543 10.7599 2.16937 10.82 2.40488C10.8489 2.51769 10.9067 2.57667 11.0183 2.61784C11.314 2.72748 11.601 2.86127 11.8975 2.96933C11.9766 2.99822 12.0902 2.99664 12.165 2.96102C12.3907 2.85375 12.6024 2.71798 12.8237 2.60161C13.2136 2.39657 13.6375 2.45278 13.9542 2.76033C14.3326 3.12766 14.7062 3.49973 15.0736 3.87775C15.3783 4.19124 15.4318 4.61873 15.226 5.00783C15.1092 5.2287 14.9758 5.44126 14.8665 5.66569C14.8325 5.73575 14.8278 5.84183 14.8551 5.91506C14.9691 6.22262 15.0953 6.52621 15.2295 6.82585C15.2592 6.89196 15.3305 6.96162 15.3977 6.98418C15.6471 7.06849 15.9044 7.12747 16.1553 7.20743C16.626 7.35784 16.9082 7.82016 16.829 8.30426C16.8013 8.47486 16.6953 8.57382 16.5203 8.58252C16.356 8.59084 16.2242 8.46576 16.2021 8.29278C16.1466 7.86094 16.1466 7.86133 15.7346 7.74417C15.4813 7.67213 15.2295 7.59454 14.9754 7.52607C14.8266 7.48609 14.7482 7.39228 14.6932 7.25216C14.5277 6.831 14.3579 6.41103 14.1739 5.99739C14.1046 5.84223 14.1058 5.7124 14.1889 5.56911C14.3437 5.30153 14.4933 5.03079 14.6421 4.75965C14.7565 4.55105 14.7407 4.43467 14.5724 4.26526C14.2384 3.92841 13.9023 3.59315 13.5651 3.25947C13.3873 3.08372 13.2789 3.07145 13.0537 3.19534C12.7881 3.3414 12.5221 3.48628 12.26 3.63788C12.1092 3.72535 11.9735 3.72021 11.8128 3.64738C11.4177 3.46886 11.0175 3.29945 10.611 3.15022C10.4297 3.08372 10.3252 2.98516 10.2773 2.80189C10.2013 2.50938 10.1139 2.21964 10.0288 1.9295C9.96029 1.69675 9.8744 1.63263 9.63057 1.63223C9.15558 1.63104 8.68059 1.63104 8.2056 1.63223C7.95979 1.63302 7.87509 1.69636 7.80661 1.9287C7.71953 2.22518 7.63047 2.52086 7.5509 2.81931C7.50618 2.98793 7.4096 3.08016 7.24335 3.1427C6.83169 3.29786 6.42518 3.46807 6.02302 3.64738C5.86311 3.71863 5.72813 3.72654 5.57574 3.63748C5.30895 3.48073 5.03662 3.33349 4.76469 3.18545C4.55728 3.07224 4.4413 3.08926 4.27031 3.25868C3.93306 3.59236 3.5974 3.92762 3.26293 4.26407C3.09352 4.43467 3.07729 4.54907 3.19168 4.75767C3.34328 5.03474 3.49607 5.31103 3.65361 5.58494C3.73357 5.72388 3.72486 5.84935 3.66074 5.99541C3.47866 6.40984 3.30647 6.82862 3.14181 7.25018C3.08362 7.39901 2.99694 7.48926 2.84138 7.53042C2.54253 7.60998 2.24645 7.70063 1.94958 7.78731C1.69863 7.86054 1.6357 7.93891 1.6349 8.19145C1.63372 8.66565 1.63332 9.13945 1.6349 9.61365C1.6357 9.85589 1.70061 9.94139 1.93454 10.0099C2.23141 10.097 2.52788 10.1864 2.82713 10.2652C2.99694 10.3099 3.08679 10.4089 3.14933 10.5739C3.30449 10.9848 3.4747 11.3909 3.65519 11.7919C3.72763 11.9526 3.73159 12.0876 3.64332 12.2384C3.48736 12.5052 3.3421 12.7787 3.18891 13.047C3.08679 13.2256 3.10183 13.3807 3.25145 13.528C3.59899 13.87 3.94375 14.2151 4.28733 14.5611C4.42864 14.7032 4.58024 14.7206 4.75282 14.624C5.02277 14.4724 5.29708 14.3283 5.56347 14.1712C5.72101 14.0786 5.86034 14.0805 6.02817 14.1561C6.42914 14.337 6.83723 14.5037 7.24849 14.6604C7.40524 14.7202 7.50301 14.8045 7.54655 14.968C7.62769 15.2728 7.72388 15.5736 7.80621 15.878C7.86044 16.0791 7.98156 16.1764 8.19135 16.1705C8.33622 16.1665 8.48228 16.1618 8.62636 16.1741C8.79063 16.1879 8.89315 16.2892 8.91254 16.4519C8.93075 16.6067 8.85831 16.7528 8.70949 16.7714C8.30574 16.8224 7.87667 16.8913 7.54338 16.5821C7.38822 16.4381 7.28016 16.2263 7.19664 16.0264C7.09571 15.7854 7.10837 15.4683 6.95202 15.2878C6.80359 15.116 6.48059 15.1085 6.26962 14.9735C5.92683 14.7546 5.63986 14.8033 5.32162 15.021C5.13123 15.1512 4.90204 15.2462 4.67682 15.2997C4.38549 15.3693 4.11316 15.2684 3.89704 15.0574C3.51072 14.6798 3.12558 14.3002 2.74994 13.9119C2.45901 13.6115 2.40439 13.1856 2.59676 12.8147C2.71788 12.5811 2.858 12.3575 2.97477 12.122C3.00644 12.0583 3.00723 11.9581 2.9815 11.89C2.86592 11.5829 2.74163 11.2785 2.60586 10.9796C2.5738 10.9084 2.49543 10.8395 2.4222 10.8098C2.27654 10.7509 2.12177 10.7097 1.967 10.68C1.49795 10.5913 1.15556 10.3558 1 9.88954C1 9.23128 1 8.57263 1 7.91437Z"  stroke-width="0.4"/>
<path d="M19.9998 11.5492C19.8909 11.6288 19.79 11.7234 19.6717 11.7855C19.3221 11.9696 18.9671 12.1434 18.6124 12.3171C18.3987 12.422 18.2265 12.3781 18.137 12.2047C18.0484 12.0325 18.1169 11.8607 18.3251 11.755C18.6892 11.5706 19.0554 11.3901 19.4207 11.208C19.7077 11.0655 19.79 11.0806 19.9994 11.3121C19.9998 11.3913 19.9998 11.4701 19.9998 11.5492Z"  stroke-width="0.4"/>
<path d="M19.9994 15.9736C19.7944 16.2056 19.7093 16.2214 19.4211 16.0781C19.0617 15.8992 18.7023 15.7207 18.3441 15.5394C18.1204 15.4262 18.0464 15.258 18.1378 15.0818C18.2297 14.9049 18.4023 14.8661 18.6303 14.9781C19.0083 15.1637 19.3867 15.3494 19.7599 15.5437C19.849 15.5901 19.9202 15.6716 19.9998 15.7369C19.9994 15.8153 19.9994 15.8944 19.9994 15.9736Z"  stroke-width="0.4"/>
<path d="M19.9995 13.7611C19.8874 13.9206 19.735 13.9693 19.5411 13.9621C19.186 13.9495 18.8302 13.9602 18.4743 13.9578C18.242 13.9562 18.1007 13.8339 18.1011 13.6423C18.1011 13.4503 18.242 13.3288 18.4747 13.3272C18.8302 13.3249 19.1864 13.3355 19.5415 13.3229C19.735 13.3161 19.8878 13.3636 19.9995 13.524C19.9995 13.6027 19.9995 13.6819 19.9995 13.7611Z"  stroke-width="0.4"/>
<path d="M8.91198 5.41645C7.3172 5.41091 5.9231 6.49705 5.52846 8.05225C5.13976 9.58369 5.86333 11.2117 7.26336 11.9551C7.31007 11.9796 7.35718 12.003 7.4027 12.0295C7.57884 12.132 7.64059 12.301 7.56182 12.4613C7.48107 12.6256 7.29701 12.6771 7.10306 12.5833C6.653 12.3659 6.25005 12.0798 5.91796 11.7077C4.84685 10.5087 4.51198 9.12256 5.0222 7.6014C5.53757 6.06402 6.65182 5.13422 8.24976 4.85121C11.2679 4.31645 13.7921 7.27287 12.8239 10.1838C12.7483 10.4114 12.6011 10.5107 12.4174 10.4577C12.2139 10.3991 12.1486 10.2348 12.225 9.97754C12.7277 8.28855 12.0437 6.60946 10.5265 5.81069C10.0219 5.5443 9.48276 5.41288 8.91198 5.41645Z"  stroke-width="0.4"/>
</svg>
