<svg width="24" height="24" viewBox="0 0 24 24" fill="#1462B0" xmlns="http://www.w3.org/2000/svg">
<path d="M14.6856 21C14.5683 21 14.4506 21 14.3334 21C14.0724 20.9088 13.8766 20.7302 13.6881 20.5358C13.3782 20.216 13.0545 19.9092 12.746 19.588C12.64 19.4778 12.5311 19.4345 12.3779 19.4348C10.0541 19.4394 7.73027 19.4366 5.40644 19.4401C5.21731 19.4404 5.07291 19.394 5 19.2069C5 14.4501 5 9.6929 5 4.9357C5.07713 4.76383 5.21062 4.70184 5.39588 4.71628C5.5357 4.7272 5.67728 4.71839 5.81817 4.71839C6.11542 4.71839 6.41268 4.71839 6.72579 4.71839C6.72579 4.26511 6.72544 3.83331 6.72579 3.40116C6.72614 3.08699 6.80856 3.00247 7.11779 3.00247C10.1038 3.00247 13.0897 3.00317 16.0761 3C16.2282 3 16.343 3.04438 16.4501 3.1525C16.9777 3.68574 17.5063 4.21792 18.0442 4.74129C18.1861 4.8797 18.2425 5.02411 18.2421 5.22099C18.2372 8.45315 18.241 11.685 18.2336 14.9171C18.2329 15.1517 18.2886 15.3218 18.4657 15.4803C18.7295 15.7163 19.0064 15.9519 19.0888 16.3249C19.0888 16.4069 19.0888 16.489 19.0888 16.5711C19.0208 16.856 18.8349 17.0592 18.6334 17.2593C17.5236 18.3602 16.4173 19.4648 15.3142 20.5721C15.1297 20.7566 14.9406 20.9239 14.6856 21ZM5.57726 5.28896C5.57726 9.82321 5.57726 14.337 5.57726 18.8621C7.71583 18.8621 9.84665 18.8621 12.0049 18.8621C11.9458 18.7998 11.9074 18.7572 11.8665 18.7167C10.5887 17.4406 9.31201 16.1639 8.03176 14.8903C7.83065 14.6903 7.69998 14.4645 7.71548 14.1757C7.76831 13.1818 7.80952 12.1865 7.88559 11.1943C7.94969 10.3564 8.47377 9.86865 9.31659 9.81864C10.2418 9.76369 11.1685 9.72636 12.0934 9.66437C12.448 9.64042 12.728 9.73904 12.9784 9.99227C13.9104 10.9341 14.8518 11.8667 15.7901 12.8025C15.8341 12.8462 15.8806 12.8874 15.9401 12.9434C15.9401 10.9651 15.9401 9.00927 15.9401 7.0461C15.4565 7.0461 14.9874 7.04716 14.5183 7.04575C14.2851 7.04504 14.1886 6.94854 14.1858 6.71432C14.183 6.4861 14.1851 6.25752 14.1851 6.02894C14.1851 5.78486 14.1851 5.54079 14.1851 5.28896C11.3058 5.28896 8.44982 5.28896 5.57726 5.28896ZM10.7849 10.299V10.2976C10.2929 10.3258 9.80087 10.3491 9.30919 10.3832C8.79251 10.4191 8.48715 10.696 8.45088 11.2074C8.38079 12.1942 8.32866 13.1822 8.28746 14.1704C8.28288 14.2828 8.37198 14.4244 8.45863 14.5114C10.3707 16.4291 12.2885 18.3409 14.2052 20.2537C14.4566 20.5048 14.5803 20.5037 14.8363 20.2484C15.9982 19.0893 17.1598 17.9299 18.3213 16.7704C18.5813 16.5108 18.582 16.3847 18.3245 16.128C16.4909 14.2976 14.657 12.4675 12.8235 10.6375C12.7199 10.534 12.6252 10.4181 12.5086 10.3318C12.4304 10.2737 12.3202 10.224 12.2258 10.2268C11.745 10.2409 11.265 10.273 10.7849 10.299ZM7.29565 4.71839C7.37877 4.71839 7.44781 4.71839 7.51684 4.71839C9.79382 4.71839 12.0708 4.7198 14.3478 4.71558C14.513 4.71522 14.6359 4.76312 14.7518 4.88111C15.2744 5.41153 15.801 5.93807 16.3332 6.45863C16.4645 6.58683 16.5223 6.72066 16.5216 6.90628C16.5163 9.04978 16.5195 11.1936 16.5149 13.3371C16.5145 13.4784 16.5558 13.5749 16.6568 13.6717C16.9615 13.9637 17.2559 14.2666 17.5553 14.5639C17.5852 14.5934 17.6219 14.6163 17.6599 14.6456C17.6599 11.5328 17.6599 8.43835 17.6599 5.33087C17.1823 5.33087 16.7195 5.33193 16.2567 5.33052C15.9908 5.32982 15.8989 5.23825 15.8975 4.96987C15.895 4.56589 15.8971 4.16156 15.8964 3.75759C15.8964 3.6963 15.8908 3.63502 15.8876 3.5755C13.0122 3.5755 10.1573 3.5755 7.29601 3.5755C7.29565 3.95376 7.29565 4.32146 7.29565 4.71839ZM17.182 4.75995C16.9456 4.52433 16.7012 4.28096 16.4751 4.0559C16.4751 4.26405 16.4751 4.50989 16.4751 4.75995C16.7329 4.75995 16.9756 4.75995 17.182 4.75995ZM15.4597 6.47412C15.2322 6.24695 14.9856 6.00041 14.7638 5.77852C14.7638 5.98069 14.7638 6.22829 14.7638 6.47412C15.0219 6.47412 15.2649 6.47412 15.4597 6.47412Z" />
<path d="M15.2773 14.0867C15.2181 14.1881 15.1885 14.2744 15.1304 14.3329C14.2245 15.2426 13.3159 16.1495 12.4058 17.055C12.2596 17.2005 12.0906 17.204 11.9726 17.0779C11.8616 16.9592 11.8725 16.7958 12.0106 16.6574C12.9182 15.7494 13.8276 14.8432 14.7363 13.9359C14.8314 13.8412 14.9466 13.7848 15.0674 13.8599C15.148 13.9102 15.2026 14.0036 15.2773 14.0867Z" />
<path d="M13.7399 18.7748C13.6462 18.7008 13.5409 18.6565 13.5067 18.58C13.4722 18.5032 13.4958 18.3916 13.518 18.3014C13.5303 18.2518 13.5902 18.2123 13.6318 18.1711C14.5024 17.3015 15.3734 16.4323 16.2444 15.5631C16.2818 15.5257 16.3166 15.4842 16.3603 15.456C16.4885 15.3725 16.6181 15.3739 16.7276 15.4856C16.8312 15.5912 16.834 15.7163 16.7544 15.8381C16.7231 15.8864 16.678 15.9265 16.6368 15.9681C15.7661 16.8377 14.8958 17.708 14.0224 18.5744C13.947 18.6487 13.8484 18.6987 13.7399 18.7748Z" />
<path d="M10.6074 15.6398C10.513 15.5694 10.407 15.5281 10.3708 15.4531C10.3341 15.3771 10.3556 15.2661 10.3729 15.1742C10.3813 15.1302 10.437 15.0935 10.4743 15.0562C11.3576 14.1739 12.2406 13.2917 13.1257 12.4119C13.1817 12.3562 13.2581 12.2815 13.3236 12.283C13.4226 12.2854 13.5582 12.3206 13.6075 12.3914C13.6572 12.4622 13.6307 12.5947 13.6167 12.6975C13.6107 12.7405 13.5518 12.7774 13.5149 12.8144C12.6358 13.6925 11.757 14.5709 10.8755 15.4461C10.8047 15.5165 10.712 15.5651 10.6074 15.6398Z" />
<path d="M9.83259 12.6067C9.36451 12.6035 9.00456 12.2334 9.0109 11.7621C9.01724 11.3071 9.39058 10.9439 9.84844 10.9478C10.3105 10.9517 10.6782 11.3303 10.6715 11.7956C10.6652 12.252 10.295 12.6099 9.83259 12.6067ZM9.8421 11.5106C9.69593 11.5099 9.57619 11.6297 9.57513 11.7776C9.57443 11.928 9.68854 12.0432 9.83963 12.0439C9.98932 12.0446 10.1073 11.9283 10.1077 11.7801C10.108 11.6328 9.98826 11.5113 9.8421 11.5106Z" />
<path d="M14.6856 21C14.5683 21 14.4506 21 14.3334 21C14.0724 20.9088 13.8766 20.7302 13.6881 20.5358C13.3782 20.216 13.0545 19.9092 12.746 19.588C12.64 19.4778 12.5311 19.4345 12.3779 19.4348C10.0541 19.4394 7.73027 19.4366 5.40644 19.4401C5.21731 19.4404 5.07291 19.394 5 19.2069C5 14.4501 5 9.6929 5 4.9357C5.07713 4.76383 5.21062 4.70184 5.39588 4.71628C5.5357 4.7272 5.67728 4.71839 5.81817 4.71839C6.11542 4.71839 6.41268 4.71839 6.72579 4.71839C6.72579 4.26511 6.72544 3.83331 6.72579 3.40116C6.72614 3.08699 6.80856 3.00247 7.11779 3.00247C10.1038 3.00247 13.0897 3.00317 16.0761 3C16.2282 3 16.343 3.04438 16.4501 3.1525C16.9777 3.68574 17.5063 4.21792 18.0442 4.74129C18.1861 4.8797 18.2425 5.02411 18.2421 5.22099C18.2372 8.45315 18.241 11.685 18.2336 14.9171C18.2329 15.1517 18.2886 15.3218 18.4657 15.4803C18.7295 15.7163 19.0064 15.9519 19.0888 16.3249C19.0888 16.4069 19.0888 16.489 19.0888 16.5711C19.0208 16.856 18.8349 17.0592 18.6334 17.2593C17.5236 18.3602 16.4173 19.4648 15.3142 20.5721C15.1297 20.7566 14.9406 20.9239 14.6856 21ZM5.57726 5.28896C5.57726 9.82321 5.57726 14.337 5.57726 18.8621C7.71583 18.8621 9.84665 18.8621 12.0049 18.8621C11.9458 18.7998 11.9074 18.7572 11.8665 18.7167C10.5887 17.4406 9.31201 16.1639 8.03176 14.8903C7.83065 14.6903 7.69998 14.4645 7.71548 14.1757C7.76831 13.1818 7.80952 12.1865 7.88559 11.1943C7.94969 10.3564 8.47377 9.86865 9.31659 9.81864C10.2418 9.76369 11.1685 9.72636 12.0934 9.66437C12.448 9.64042 12.728 9.73904 12.9784 9.99227C13.9104 10.9341 14.8518 11.8667 15.7901 12.8025C15.8341 12.8462 15.8806 12.8874 15.9401 12.9434C15.9401 10.9651 15.9401 9.00927 15.9401 7.0461C15.4565 7.0461 14.9874 7.04716 14.5183 7.04575C14.2851 7.04504 14.1886 6.94854 14.1858 6.71432C14.183 6.4861 14.1851 6.25752 14.1851 6.02894C14.1851 5.78486 14.1851 5.54079 14.1851 5.28896C11.3058 5.28896 8.44982 5.28896 5.57726 5.28896ZM10.7849 10.299V10.2976C10.2929 10.3258 9.80087 10.3491 9.30919 10.3832C8.79251 10.4191 8.48715 10.696 8.45088 11.2074C8.38079 12.1942 8.32866 13.1822 8.28746 14.1704C8.28288 14.2828 8.37198 14.4244 8.45863 14.5114C10.3707 16.4291 12.2885 18.3409 14.2052 20.2537C14.4566 20.5048 14.5803 20.5037 14.8363 20.2484C15.9982 19.0893 17.1598 17.9299 18.3213 16.7704C18.5813 16.5108 18.582 16.3847 18.3245 16.128C16.4909 14.2976 14.657 12.4675 12.8235 10.6375C12.7199 10.534 12.6252 10.4181 12.5086 10.3318C12.4304 10.2737 12.3202 10.224 12.2258 10.2268C11.745 10.2409 11.265 10.273 10.7849 10.299ZM7.29565 4.71839C7.37877 4.71839 7.44781 4.71839 7.51684 4.71839C9.79382 4.71839 12.0708 4.7198 14.3478 4.71558C14.513 4.71522 14.6359 4.76312 14.7518 4.88111C15.2744 5.41153 15.801 5.93807 16.3332 6.45863C16.4645 6.58683 16.5223 6.72066 16.5216 6.90628C16.5163 9.04978 16.5195 11.1936 16.5149 13.3371C16.5145 13.4784 16.5558 13.5749 16.6568 13.6717C16.9615 13.9637 17.2559 14.2666 17.5553 14.5639C17.5852 14.5934 17.6219 14.6163 17.6599 14.6456C17.6599 11.5328 17.6599 8.43835 17.6599 5.33087C17.1823 5.33087 16.7195 5.33193 16.2567 5.33052C15.9908 5.32982 15.8989 5.23825 15.8975 4.96987C15.895 4.56589 15.8971 4.16156 15.8964 3.75759C15.8964 3.6963 15.8908 3.63502 15.8876 3.5755C13.0122 3.5755 10.1573 3.5755 7.29601 3.5755C7.29565 3.95376 7.29565 4.32146 7.29565 4.71839ZM17.182 4.75995C16.9456 4.52433 16.7012 4.28096 16.4751 4.0559C16.4751 4.26405 16.4751 4.50989 16.4751 4.75995C16.7329 4.75995 16.9756 4.75995 17.182 4.75995ZM15.4597 6.47412C15.2322 6.24695 14.9856 6.00041 14.7638 5.77852C14.7638 5.98069 14.7638 6.22829 14.7638 6.47412C15.0219 6.47412 15.2649 6.47412 15.4597 6.47412Z"  stroke-width="0.2"/>
<path d="M15.2773 14.0867C15.2181 14.1881 15.1885 14.2744 15.1304 14.3329C14.2245 15.2426 13.3159 16.1495 12.4058 17.055C12.2596 17.2005 12.0906 17.204 11.9726 17.0779C11.8616 16.9592 11.8725 16.7958 12.0106 16.6574C12.9182 15.7494 13.8276 14.8432 14.7363 13.9359C14.8314 13.8412 14.9466 13.7848 15.0674 13.8599C15.148 13.9102 15.2026 14.0036 15.2773 14.0867Z"  stroke-width="0.2"/>
<path d="M13.7399 18.7748C13.6462 18.7008 13.5409 18.6565 13.5067 18.58C13.4722 18.5032 13.4958 18.3916 13.518 18.3014C13.5303 18.2518 13.5902 18.2123 13.6318 18.1711C14.5024 17.3015 15.3734 16.4323 16.2444 15.5631C16.2818 15.5257 16.3166 15.4842 16.3603 15.456C16.4885 15.3725 16.6181 15.3739 16.7276 15.4856C16.8312 15.5912 16.834 15.7163 16.7544 15.8381C16.7231 15.8864 16.678 15.9265 16.6368 15.9681C15.7661 16.8377 14.8958 17.708 14.0224 18.5744C13.947 18.6487 13.8484 18.6987 13.7399 18.7748Z"  stroke-width="0.2"/>
<path d="M10.6074 15.6398C10.513 15.5694 10.407 15.5281 10.3708 15.4531C10.3341 15.3771 10.3556 15.2661 10.3729 15.1742C10.3813 15.1302 10.437 15.0935 10.4743 15.0562C11.3576 14.1739 12.2406 13.2917 13.1257 12.4119C13.1817 12.3562 13.2581 12.2815 13.3236 12.283C13.4226 12.2854 13.5582 12.3206 13.6075 12.3914C13.6572 12.4622 13.6307 12.5947 13.6167 12.6975C13.6107 12.7405 13.5518 12.7774 13.5149 12.8144C12.6358 13.6925 11.757 14.5709 10.8755 15.4461C10.8047 15.5165 10.712 15.5651 10.6074 15.6398Z"  stroke-width="0.2"/>
<path d="M9.83259 12.6067C9.36451 12.6035 9.00456 12.2334 9.0109 11.7621C9.01724 11.3071 9.39058 10.9439 9.84844 10.9478C10.3105 10.9517 10.6782 11.3303 10.6715 11.7956C10.6652 12.252 10.295 12.6099 9.83259 12.6067ZM9.8421 11.5106C9.69593 11.5099 9.57619 11.6297 9.57513 11.7776C9.57443 11.928 9.68854 12.0432 9.83963 12.0439C9.98932 12.0446 10.1073 11.9283 10.1077 11.7801C10.108 11.6328 9.98826 11.5113 9.8421 11.5106Z"  stroke-width="0.2"/>
</svg>
