<svg width="20" height="20" viewBox="0 0 20 20" fill="#1462B0" stroke="#1462B0" xmlns="http://www.w3.org/2000/svg">
<path d="M13.6205 18.9998C13.4986 18.8941 13.4 18.7676 13.5028 18.6109C13.5486 18.5415 13.6606 18.4865 13.7473 18.4788C13.9565 18.4597 14.1686 18.4745 14.3793 18.4717C14.6861 18.4678 14.8608 18.3016 14.8615 17.993C14.8643 16.4586 14.8643 14.9241 14.8619 13.39C14.8611 13.06 14.6956 12.9036 14.355 12.9029C13.3887 12.9007 12.4225 12.9021 11.4562 12.9021C10.3963 12.9021 9.33631 12.8958 8.27636 12.9053C7.88782 12.9088 7.56867 12.7937 7.30976 12.4992C7.15935 12.328 6.98709 12.1758 6.82963 12.0106C6.71303 11.888 6.5753 11.8313 6.40727 11.833C6.14977 11.8359 5.89192 11.8313 5.63442 11.8344C5.31316 11.8383 5.13843 12.0025 5.13808 12.3185C5.13562 14.2101 5.13562 16.1017 5.13808 17.9934C5.13843 18.3146 5.31527 18.4721 5.6552 18.4721C7.94489 18.4728 10.2349 18.4724 12.5246 18.4724C12.5891 18.4724 12.6641 18.4552 12.7152 18.4819C12.792 18.5224 12.8786 18.5823 12.9132 18.6563C12.9808 18.8014 12.8779 18.9061 12.7775 18.9994C10.3166 18.9994 7.85541 18.9994 5.39453 18.9994C5.08313 18.8983 4.81365 18.7373 4.69353 18.4168C4.63964 18.2727 4.61286 18.11 4.61251 17.9553C4.60723 16.0866 4.60793 14.2182 4.60969 12.3495C4.6104 11.7052 5.00951 11.3085 5.65097 11.3064C5.90284 11.3054 6.1547 11.3078 6.40657 11.3057C6.71515 11.3032 6.97829 11.4047 7.19387 11.6298C7.36013 11.8031 7.53944 11.9644 7.69866 12.1434C7.85154 12.3156 8.03225 12.3773 8.2584 12.3766C9.84568 12.372 11.4333 12.3741 13.0206 12.3741C13.4715 12.3741 13.9227 12.372 14.3736 12.3748C14.9876 12.3783 15.3874 12.7711 15.3892 13.3858C15.3931 14.9206 15.3906 16.455 15.3906 17.9898C15.3906 18.5298 15.0933 18.8388 14.6054 18.9991C14.2768 18.9998 13.9488 18.9998 13.6205 18.9998Z"  stroke-width="0.3"/>
<path d="M18.9999 7.39853C18.903 7.7286 18.7226 7.98399 18.3908 8.12137C18.3482 8.13898 18.3221 8.24501 18.3218 8.31018C18.3179 9.86188 18.313 11.4132 18.3235 12.9649C18.3256 13.2869 18.2337 13.5342 17.997 13.7579C17.5415 14.188 17.1079 14.6403 16.664 15.0824C16.6147 15.1317 16.5636 15.1838 16.5038 15.2169C16.3875 15.2807 16.2748 15.2581 16.186 15.1599C16.1018 15.0665 16.0948 14.958 16.1624 14.8523C16.1934 14.8037 16.2378 14.7632 16.279 14.722C16.7465 14.2539 17.2171 13.7889 17.6789 13.3147C17.7402 13.2517 17.7863 13.1439 17.7867 13.0569C17.793 11.4643 17.7909 9.87175 17.7923 8.27918C17.7923 8.19112 17.78 8.13476 17.6849 8.08861C17.2657 7.88641 17.0575 7.4711 17.1484 7.0505C17.2357 6.64646 17.5838 6.33682 17.9811 6.30935C18.4377 6.27764 18.804 6.52599 18.9615 6.97336C18.9706 6.99907 18.9868 7.02267 18.9995 7.04733C18.9999 7.16428 18.9999 7.28158 18.9999 7.39853ZM18.0688 6.83492C17.8469 6.8328 17.6669 7.00576 17.6616 7.22698C17.656 7.45771 17.8332 7.643 18.0611 7.64512C18.2865 7.64723 18.4739 7.45947 18.4711 7.23473C18.4687 7.01492 18.2894 6.83703 18.0688 6.83492Z"  stroke-width="0.3"/>
<path d="M15.7292 2.84126C15.7292 3.07763 15.7292 3.31153 15.7292 3.54578C15.7292 5.02739 15.7267 6.50899 15.7316 7.99059C15.7323 8.22942 15.6562 8.41859 15.4854 8.58485C15.0993 8.96071 14.7242 9.3475 14.3388 9.72406C14.2483 9.81248 14.2067 9.90125 14.2088 10.0302C14.2162 10.5103 14.2123 10.9904 14.2109 11.4709C14.2106 11.5347 14.2092 11.6009 14.1922 11.6615C14.1563 11.7908 14.0591 11.858 13.9295 11.8485C13.7931 11.8387 13.6906 11.7587 13.6896 11.6146C13.685 11.0116 13.6776 10.4081 13.6994 9.80578C13.704 9.67756 13.8037 9.53173 13.8988 9.43133C14.2866 9.02447 14.6935 8.63593 15.0838 8.23118C15.1479 8.16461 15.1965 8.05153 15.1969 7.95959C15.2036 6.30221 15.2008 4.64483 15.2039 2.98745C15.2043 2.88177 15.181 2.82647 15.0754 2.77856C14.6671 2.59257 14.4543 2.15436 14.5519 1.73517C14.6526 1.30189 15.025 1.00106 15.4618 1C15.9011 0.998946 16.2709 1.2952 16.3745 1.73024C16.4749 2.15224 16.2635 2.58376 15.8609 2.78032C15.8193 2.8004 15.7771 2.81907 15.7292 2.84126ZM15.8704 1.93666C15.8715 1.71756 15.6946 1.53438 15.4762 1.52839C15.2501 1.52205 15.062 1.70487 15.0606 1.93208C15.0595 2.15471 15.2321 2.33295 15.4537 2.33824C15.6837 2.34317 15.869 2.16457 15.8704 1.93666Z"  stroke-width="0.3"/>
<path d="M4.26995 2.83794C3.92931 2.70655 3.69964 2.48251 3.62144 2.12532C3.6077 2.06297 3.60171 1.9978 3.60207 1.93404C3.60207 1.75263 3.69682 1.63885 3.849 1.6304C4.01139 1.62124 4.1146 1.72727 4.12869 1.9189C4.14631 2.15562 4.27629 2.31026 4.47919 2.33562C4.69477 2.36239 4.89415 2.22043 4.93361 2.01154C4.97376 1.80054 4.84519 1.59764 4.63313 1.54128C4.59403 1.53071 4.55211 1.53176 4.5116 1.52507C4.35837 1.49971 4.26361 1.39156 4.26995 1.25101C4.27664 1.10447 4.39042 1.00408 4.55352 1.0002C5.18054 0.986467 5.63777 1.66703 5.40528 2.26869C5.3144 2.504 5.15518 2.68119 4.9248 2.77841C4.81771 2.8235 4.79517 2.88127 4.79552 2.9873C4.79869 4.64468 4.79587 6.30241 4.80257 7.9598C4.80292 8.05174 4.85153 8.16446 4.91599 8.23104C5.29784 8.62733 5.6885 9.01552 6.08162 9.40089C6.24225 9.558 6.32609 9.73659 6.31693 9.96345C6.30883 10.1621 6.31799 10.3619 6.31411 10.5609C6.31059 10.7335 6.21548 10.8381 6.06788 10.8452C5.91148 10.8526 5.80404 10.7469 5.78924 10.5707C5.78678 10.5415 5.78396 10.5116 5.78889 10.483C5.86604 10.0328 5.70576 9.69503 5.35103 9.40582C5.04844 9.15924 4.79552 8.85242 4.51195 8.58118C4.33899 8.41562 4.26784 8.22434 4.26819 7.98622C4.27277 6.32285 4.27065 4.65948 4.27065 2.99611C4.26995 2.94397 4.26995 2.89184 4.26995 2.83794Z"  stroke-width="0.3"/>
<path d="M8.84299 10.1936C8.84299 9.7719 8.84828 9.34989 8.83841 8.92859C8.8363 8.84651 8.79438 8.74612 8.73696 8.68764C8.24556 8.18532 7.74887 7.68793 7.24831 7.19441C7.0831 7.03167 7.00701 6.84673 7.00983 6.61459C7.01653 6.04076 7.00948 5.46658 7.01406 4.89275C7.01512 4.78179 6.99187 4.7205 6.87879 4.66871C6.47792 4.48519 6.26903 4.05191 6.36238 3.63835C6.46242 3.19521 6.83546 2.89438 7.28319 2.8965C7.7214 2.89861 8.08986 3.19838 8.1899 3.63448C8.28466 4.04698 8.07577 4.48202 7.67701 4.66766C7.56887 4.71803 7.53505 4.77228 7.53646 4.88817C7.5428 5.45038 7.53435 6.01258 7.54456 6.57479C7.54632 6.66743 7.59212 6.78086 7.65658 6.84709C8.13847 7.34236 8.62741 7.83095 9.12092 8.3146C9.29564 8.4858 9.37596 8.67707 9.37349 8.92366C9.36539 9.76696 9.37032 10.6103 9.37032 11.4536C9.37032 11.4888 9.37138 11.524 9.36962 11.5589C9.36046 11.7273 9.26218 11.8301 9.11106 11.8312C8.9617 11.8323 8.84933 11.7294 8.84581 11.5635C8.83876 11.2355 8.84334 10.9076 8.84299 10.5796C8.84299 10.4514 8.84299 10.3225 8.84299 10.1936ZM7.68089 3.83034C7.68159 3.60841 7.50722 3.42982 7.286 3.42488C7.05844 3.41995 6.87104 3.60207 6.87069 3.82857C6.87034 4.04838 7.04682 4.22945 7.26663 4.23438C7.49489 4.23931 7.68018 4.05825 7.68089 3.83034Z"  stroke-width="0.3"/>
<path d="M12.7303 2.89748C13.1635 2.89994 13.5264 3.19056 13.6303 3.61961C13.7317 4.03739 13.5341 4.47067 13.1378 4.66018C13.0195 4.7169 12.9814 4.77819 12.9832 4.90853C12.9916 5.47637 12.9818 6.04492 12.9892 6.61276C12.9923 6.85194 12.9096 7.0397 12.7401 7.20631C12.2558 7.68257 11.7813 8.16939 11.2952 8.64353C11.1884 8.7478 11.1521 8.85242 11.1528 8.9972C11.1585 9.81726 11.156 10.637 11.1546 11.457C11.1546 11.5264 11.1521 11.5993 11.1303 11.6638C11.0873 11.7913 10.9788 11.8657 10.8576 11.8227C10.7692 11.7913 10.6995 11.6923 10.6357 11.6124C10.6125 11.5831 10.6283 11.5215 10.6283 11.4746C10.628 10.6137 10.6311 9.7528 10.6259 8.89188C10.6244 8.67207 10.6963 8.49735 10.852 8.34341C11.3522 7.84954 11.85 7.35356 12.3403 6.85018C12.4048 6.78396 12.452 6.67088 12.4537 6.57824C12.4639 6.01603 12.4558 5.45382 12.4615 4.89162C12.4625 4.77819 12.4344 4.72042 12.3237 4.66934C11.9172 4.48229 11.7098 4.04162 11.8123 3.62102C11.9187 3.18703 12.2889 2.89501 12.7303 2.89748ZM12.7236 3.42481C12.5023 3.4241 12.3227 3.59918 12.3181 3.81969C12.3132 4.04937 12.4925 4.23395 12.7211 4.23465C12.948 4.23536 13.1318 4.04866 13.128 3.82181C13.1237 3.60235 12.9441 3.42551 12.7236 3.42481Z"  stroke-width="0.3"/>
<path d="M1.66919 10.7103C1.66919 9.90789 1.66742 9.10545 1.6713 8.303C1.672 8.19239 1.64981 8.13004 1.53674 8.07791C1.12847 7.89015 0.924509 7.45687 1.02561 7.03064C1.12671 6.6037 1.49235 6.30886 1.92387 6.30569C2.3723 6.30252 2.74886 6.60335 2.84855 7.04332C2.94225 7.45687 2.73336 7.8905 2.3346 8.0765C2.22716 8.12687 2.1937 8.18112 2.1937 8.29736C2.19793 9.87866 2.1944 11.4599 2.2018 13.0416C2.20215 13.1385 2.25429 13.2579 2.32227 13.328C2.77458 13.7947 3.23815 14.2509 3.69785 14.7106C3.73519 14.7479 3.77499 14.7835 3.80599 14.8254C3.89018 14.9382 3.89335 15.0579 3.79789 15.1618C3.69714 15.271 3.56857 15.2848 3.45021 15.1953C3.35299 15.1217 3.27056 15.0283 3.18355 14.9417C2.75661 14.5154 2.33284 14.086 1.90273 13.6633C1.7421 13.5055 1.66637 13.3255 1.66742 13.1001C1.672 12.3036 1.66919 11.5068 1.66919 10.7103ZM2.33777 7.24129C2.33918 7.01866 2.16693 6.84007 1.945 6.83443C1.71674 6.82879 1.52863 7.0095 1.52758 7.23601C1.52617 7.46145 1.71392 7.64709 1.94007 7.64392C2.16094 7.64075 2.33636 7.46286 2.33777 7.24129Z"  stroke-width="0.3"/>
<path d="M9.08755 17.3078C9.72584 17.3078 10.3645 17.3071 11.0028 17.3082C11.2163 17.3086 11.3307 17.3973 11.3357 17.5604C11.341 17.7316 11.2201 17.8345 11.0031 17.8345C9.72056 17.8355 8.43763 17.8355 7.15505 17.8345C6.94722 17.8341 6.83238 17.7362 6.83203 17.5696C6.83168 17.4026 6.94405 17.3086 7.1547 17.3082C7.79898 17.3071 8.44327 17.3078 9.08755 17.3078Z"  stroke-width="0.3"/>
<path d="M12.5711 17.8355C12.4658 17.8355 12.3601 17.8401 12.2551 17.8345C12.0832 17.8257 11.9677 17.7098 11.9733 17.5608C11.979 17.417 12.0906 17.3135 12.2566 17.3099C12.4672 17.3057 12.6782 17.3054 12.8889 17.3099C13.0594 17.3135 13.1629 17.4121 13.1668 17.5622C13.171 17.7186 13.0643 17.8257 12.8875 17.8345C12.7821 17.8397 12.6765 17.8355 12.5711 17.8355Z"  stroke-width="0.3"/>
</svg>
