<svg width="20" height="21" viewBox="0 0 20 21" fill="#1462B0" stroke="#1462B0" xmlns="http://www.w3.org/2000/svg">
<path d="M1.002 15.4671C1.03831 15.3338 1.06784 15.1985 1.11174 15.068C1.38831 14.2467 2.18608 13.6536 3.08163 13.6002C3.12114 13.5978 3.16105 13.5962 3.23887 13.5926C3.18579 13.5199 3.14389 13.4673 3.10678 13.411C2.58796 12.6264 2.37246 11.7727 2.64743 10.8604C2.95951 9.82521 4.03505 9.23775 5.105 9.46324C6.14063 9.68154 6.85859 10.6769 6.75841 11.7448C6.69576 12.4117 6.503 13.0271 6.06241 13.5782C6.19251 13.5954 6.31144 13.593 6.4172 13.6289C6.71611 13.7307 7.00944 13.8476 7.30476 13.9589C7.36503 13.9817 7.42489 14.0276 7.48395 14.0256C7.74096 14.0168 7.99758 13.9941 8.27375 13.9749C8.23902 13.9318 8.20989 13.8935 8.17836 13.8572C7.24929 12.7908 6.89051 11.5469 7.14313 10.1684C7.39615 8.78878 8.72312 7.81182 10.1331 7.87927C11.557 7.94711 12.7639 9.02664 12.9063 10.427C13.0396 11.7372 12.6964 12.9193 11.7769 13.9015C11.7602 13.9194 11.7466 13.941 11.7211 13.9741C12.0036 13.9937 12.271 14.0132 12.5384 14.0288C12.5687 14.0304 12.605 14.0184 12.6306 14.0008C13.0181 13.739 13.4483 13.6081 13.8829 13.5906C13.7213 13.2478 13.5225 12.9165 13.4056 12.5586C13.1733 11.8462 13.1298 11.1286 13.5349 10.4478C14.0358 9.60611 15.0422 9.2186 15.9789 9.50594C16.908 9.79049 17.5258 10.6872 17.4639 11.6606C17.416 12.4121 17.3422 12.6224 16.7839 13.589C17.1969 13.6093 17.586 13.6999 17.936 13.9138C18.6213 14.3333 18.9932 14.9379 18.9976 15.7492C19.002 16.5111 18.9992 17.273 18.9984 18.0348C18.998 18.3497 18.8958 18.4543 18.5837 18.4546C17.5286 18.4558 16.4738 18.455 15.4186 18.455C15.3467 18.455 15.2749 18.455 15.1827 18.455C15.1791 18.5393 15.1735 18.6091 15.1731 18.6793C15.1723 19.2225 15.1664 19.766 15.1759 20.3092C15.1795 20.5071 15.1404 20.6716 14.9772 20.7937C11.6588 20.7937 8.34039 20.7937 5.02199 20.7937C4.85956 20.6712 4.82005 20.5068 4.82364 20.3088C4.83322 19.7656 4.82724 19.2225 4.82644 18.6793C4.82644 18.6095 4.82045 18.5393 4.81686 18.455C4.72467 18.455 4.65284 18.455 4.581 18.455C3.53939 18.455 2.49777 18.4515 1.45616 18.4582C1.2622 18.4594 1.10735 18.4163 1 18.2491C1.002 17.3224 1.002 16.3946 1.002 15.4671ZM12.279 20.148C12.279 20.067 12.279 19.9959 12.279 19.9245C12.279 19.3945 12.2786 18.8645 12.279 18.3341C12.2794 18.0296 12.3859 17.8832 12.6038 17.8852C12.8145 17.8871 12.9155 18.0268 12.9155 18.3222C12.9159 18.8589 12.9155 19.3957 12.9155 19.9321C12.9155 20.0023 12.9155 20.0729 12.9155 20.144C13.469 20.144 13.9958 20.144 14.5226 20.144C14.5286 20.1113 14.535 20.0925 14.535 20.0733C14.5354 18.9998 14.551 17.9263 14.5246 16.8535C14.5174 16.559 14.434 16.2433 14.3015 15.9795C13.8685 15.1167 13.1254 14.6645 12.176 14.641C10.7301 14.6051 9.28303 14.6306 7.83635 14.633C7.71782 14.6334 7.59849 14.6522 7.48116 14.6709C6.30106 14.8581 5.46617 15.8311 5.46538 17.0203C5.46458 17.9877 5.46538 18.9551 5.46538 19.9225C5.46538 19.9935 5.46538 20.065 5.46538 20.1468C6.01172 20.1468 6.53852 20.1468 7.07768 20.1468C7.08128 20.0737 7.08646 20.0091 7.08686 19.9444C7.08766 19.4276 7.08726 18.9108 7.08726 18.394C7.08726 18.3477 7.08646 18.3014 7.08766 18.2547C7.09285 18.0149 7.20659 17.8828 7.40613 17.8848C7.60408 17.8867 7.72141 18.02 7.7234 18.2611C7.727 18.7248 7.7246 19.1886 7.7246 19.6523C7.7246 19.8155 7.7246 19.9788 7.7246 20.1468C9.2531 20.148 10.7561 20.148 12.279 20.148ZM4.82883 17.8097C4.82883 17.5571 4.83083 17.3137 4.82843 17.0706C4.81686 15.8738 5.35483 14.9946 6.37729 14.3947C6.41759 14.3712 6.45431 14.3409 6.52655 14.2894C6.37888 14.2666 6.27552 14.2375 6.17256 14.2371C5.15768 14.2335 4.14201 14.2195 3.12753 14.2399C2.33015 14.2559 1.66288 14.9008 1.64572 15.6507C1.62976 16.3459 1.64173 17.0415 1.64253 17.7371C1.64253 17.7614 1.6553 17.7858 1.66168 17.8097C2.71527 17.8097 3.76088 17.8097 4.82883 17.8097ZM13.4623 14.2886C13.5341 14.3393 13.5537 14.356 13.576 14.3684C14.6623 14.9806 15.2067 15.9021 15.1751 17.1544C15.1696 17.3707 15.1743 17.587 15.1743 17.8049C16.2495 17.8049 17.2999 17.8049 18.363 17.8049C18.363 17.2414 18.3642 16.6923 18.3622 16.1435C18.3614 15.9316 18.3758 15.7165 18.3439 15.509C18.2337 14.7946 17.6024 14.2487 16.8521 14.2375C15.8572 14.2227 14.8615 14.2319 13.8665 14.2355C13.7504 14.2363 13.6351 14.265 13.4623 14.2886ZM12.2462 11.5405C12.2091 11.5181 12.1984 11.5066 12.1868 11.5054C11.1895 11.4024 10.2851 11.0596 9.47659 10.4645C9.43868 10.4366 9.34848 10.4406 9.30458 10.4665C8.81451 10.7559 8.32722 11.0504 7.84433 11.3513C7.79883 11.3797 7.75533 11.4667 7.76371 11.5181C7.86149 12.1483 8.0762 12.7337 8.47848 13.2374C9.28144 14.2423 10.6894 14.2483 11.5075 13.255C11.8029 12.8966 11.9984 12.4879 12.1241 12.0445C12.1724 11.8749 12.2075 11.7021 12.2462 11.5405ZM16.8262 11.7109C16.8876 10.8612 16.3169 10.1509 15.5559 10.0623C14.7338 9.96609 14.0082 10.5001 13.8989 11.3074C13.819 11.8973 13.9571 12.4548 14.2736 12.9564C14.8144 13.8141 15.8831 13.8137 16.4331 12.9624C16.6909 12.5633 16.8018 12.118 16.8262 11.7109ZM3.16863 11.5349C3.185 12.0457 3.29155 12.5322 3.57291 12.9668C4.11806 13.8085 5.17644 13.8105 5.72239 12.9696C6.01212 12.5238 6.13544 12.0234 6.12586 11.499C6.1111 10.6705 5.44502 10.0427 4.62051 10.0539C3.81236 10.0647 3.17542 10.7144 3.16863 11.5349ZM12.2937 10.8668C12.3508 10.0958 11.8907 9.2605 11.1675 8.84904C10.3602 8.3897 9.54124 8.40446 8.75624 8.89933C8.12209 9.29921 7.78087 9.89226 7.70465 10.6844C8.21348 10.3779 8.68241 10.0946 9.15213 9.81244C9.41433 9.6548 9.46741 9.66677 9.72283 9.84556C9.97705 10.024 10.2353 10.2004 10.5058 10.352C11.0566 10.6601 11.6548 10.8153 12.2937 10.8668Z"  stroke-width="0.1"/>
<path d="M10.002 1C10.1317 1.12651 10.2518 1.20194 10.3129 1.31049C10.5559 1.7427 10.7854 2.18289 11.0089 2.62548C11.0699 2.7468 11.1525 2.79669 11.2786 2.81744C11.7623 2.89606 12.2472 2.97109 12.7265 3.07126C12.8463 3.0964 12.9847 3.18739 13.0478 3.28956C13.1324 3.42604 13.041 3.56413 12.9309 3.67587C12.5912 4.01989 12.2596 4.37228 11.9144 4.7111C11.8074 4.81606 11.7743 4.91743 11.7967 5.0611C11.8729 5.54439 11.9363 6.03008 12.0126 6.51338C12.0361 6.66463 12.0229 6.81588 11.8849 6.87694C11.7799 6.92324 11.6207 6.92803 11.5169 6.88133C11.0583 6.6754 10.6094 6.44753 10.1608 6.21965C10.0491 6.16298 9.95926 6.16218 9.84672 6.21965C9.41052 6.44194 8.96833 6.65345 8.53014 6.87136C8.39325 6.9392 8.25676 6.98629 8.11868 6.88692C7.9758 6.78396 7.97181 6.64068 7.99815 6.47786C8.07398 6.00773 8.13384 5.53522 8.20648 5.06469C8.22843 4.92342 8.20209 4.82005 8.09274 4.7135C7.74673 4.37547 7.41708 4.02148 7.07666 3.67787C6.96612 3.56612 6.89308 3.4456 6.94776 3.28876C7.00243 3.13112 7.13852 3.08642 7.29177 3.06168C7.78185 2.98226 8.27233 2.90165 8.75961 2.80706C8.84023 2.7915 8.93481 2.71727 8.97512 2.64384C9.22175 2.19846 9.44843 1.7419 9.69746 1.29772C9.75533 1.19396 9.87226 1.12332 10.002 1ZM8.70214 6.07438C9.09045 5.88481 9.43646 5.72159 9.77648 5.54639C9.93332 5.46537 10.0746 5.46657 10.2294 5.54639C10.4944 5.68288 10.7642 5.81019 11.0316 5.94109C11.1098 5.9794 11.1884 6.01731 11.3014 6.07239C11.2423 5.65654 11.2004 5.28898 11.1346 4.92501C11.0991 4.72746 11.1453 4.5818 11.2878 4.44371C11.5213 4.21823 11.7428 3.97998 11.9683 3.74611C12.0062 3.707 12.0381 3.6623 12.0892 3.60005C11.7188 3.53579 11.382 3.46516 11.0416 3.42285C10.7878 3.39132 10.6198 3.28836 10.51 3.04731C10.3639 2.72645 10.1828 2.42115 9.99997 2.07833C9.814 2.42993 9.63521 2.73842 9.48555 3.06088C9.38139 3.28517 9.22494 3.38813 8.98549 3.42006C8.6343 3.46675 8.28629 3.53739 7.89758 3.60444C8.19211 3.90814 8.45391 4.1871 8.72609 4.45529C8.86297 4.59018 8.90129 4.73385 8.86856 4.92182C8.8063 5.28579 8.7624 5.65295 8.70214 6.07438Z"  stroke-width="0.1"/>
<path d="M18.6132 4.36044C18.5817 4.41232 18.5418 4.51129 18.4739 4.58433C18.2532 4.82218 18.0261 5.05405 17.7943 5.28113C17.7101 5.36374 17.6829 5.44117 17.7045 5.56049C17.7607 5.87258 17.7999 6.18786 17.8445 6.50194C17.8649 6.64441 17.8621 6.78289 17.7316 6.87947C17.5955 6.98004 17.4594 6.94692 17.3209 6.87708C17.0492 6.73979 16.7718 6.61328 16.504 6.47001C16.3811 6.40416 16.2817 6.39777 16.1552 6.46562C15.8755 6.61568 15.5853 6.74578 15.3016 6.88785C15.1663 6.9557 15.0154 6.98802 14.9177 6.8691C14.8446 6.7801 14.8011 6.63284 14.8099 6.5167C14.833 6.20741 14.8853 5.89972 14.9388 5.59402C14.9643 5.44715 14.9232 5.34618 14.8175 5.24481C14.6024 5.03889 14.4016 4.81819 14.1913 4.60668C14.0828 4.49733 14.0041 4.38279 14.0568 4.21996C14.1099 4.05554 14.2468 4.01204 14.3952 3.9865C14.7085 3.93222 15.0234 3.88672 15.3335 3.81928C15.4149 3.80172 15.5083 3.73268 15.5506 3.66044C15.7138 3.38068 15.8603 3.09135 16.0096 2.804C16.0782 2.67151 16.1748 2.55018 16.3276 2.5881C16.4402 2.61603 16.5679 2.70264 16.6277 2.80041C16.8005 3.08137 16.9362 3.38467 17.1011 3.67122C17.1398 3.73826 17.2292 3.80092 17.3054 3.81728C17.6354 3.88752 17.9691 3.9398 18.3015 3.99807C18.4775 4.0284 18.5904 4.12019 18.6132 4.36044ZM17.6342 4.53285C17.4091 4.49094 17.2176 4.44185 17.0228 4.4223C16.8213 4.40194 16.6972 4.30577 16.6138 4.12697C16.5296 3.94739 16.4298 3.77498 16.3232 3.57424C16.2063 3.79414 16.1053 3.97253 16.0159 4.15611C15.9393 4.31335 15.8232 4.39596 15.6488 4.41871C15.4448 4.44545 15.2437 4.49054 15.041 4.52766C15.0318 4.54841 15.0226 4.56916 15.0138 4.58952C15.1651 4.7272 15.3151 4.86648 15.4676 5.00257C15.5993 5.1199 15.6356 5.26118 15.6045 5.43239C15.5686 5.63113 15.5462 5.83227 15.5123 6.07252C15.7326 5.96556 15.9182 5.88295 16.0962 5.78598C16.2506 5.70217 16.3939 5.70217 16.5483 5.78318C16.7315 5.87936 16.9203 5.96477 17.1342 6.06773C17.0999 5.81391 17.052 5.5988 17.0488 5.3833C17.0472 5.26477 17.0935 5.12469 17.1653 5.03011C17.295 4.8589 17.4602 4.71363 17.6342 4.53285Z"  stroke-width="0.1"/>
<path d="M2.15204 6.55787C2.19673 6.24738 2.2538 5.90097 2.29132 5.55257C2.3001 5.46916 2.26697 5.35742 2.2115 5.29556C1.9948 5.05371 1.76333 4.82504 1.53385 4.59516C1.42769 4.48901 1.34109 4.35452 1.41812 4.22561C1.47997 4.12185 1.61407 4.02766 1.733 3.99813C2.04747 3.92031 2.37313 3.88798 2.69 3.81934C2.77142 3.80178 2.8648 3.73154 2.90711 3.65931C3.07033 3.37915 3.2168 3.08941 3.36566 2.80127C3.4347 2.66798 3.53367 2.54905 3.68572 2.58736C3.79827 2.6161 3.92358 2.70469 3.98464 2.80327C4.15186 3.07265 4.29074 3.35999 4.43481 3.64294C4.48948 3.7499 4.55134 3.81296 4.68424 3.82972C4.98635 3.86723 5.28566 3.92989 5.58577 3.98257C5.73942 4.00931 5.88788 4.04363 5.94615 4.21763C6.00402 4.39123 5.91103 4.50697 5.79928 4.61951C5.58937 4.83142 5.38823 5.05292 5.17232 5.25845C5.06856 5.35702 5.04142 5.45719 5.06377 5.59288C5.11445 5.89978 5.16873 6.20747 5.19187 6.51676C5.20065 6.6333 5.15715 6.78016 5.08372 6.86916C4.98555 6.98809 4.83429 6.95576 4.6994 6.88712C4.40967 6.74065 4.12153 6.5906 3.82421 6.46089C3.74199 6.42497 3.61748 6.42617 3.53527 6.46249C3.22598 6.59818 2.92946 6.7618 2.62216 6.90228C2.36714 7.02001 2.14605 6.87035 2.15204 6.55787ZM3.68014 3.5743C3.56879 3.78422 3.47022 3.95583 3.38601 4.13342C3.305 4.30383 3.18607 4.39961 2.99291 4.42156C2.79417 4.44431 2.59781 4.4906 2.40067 4.52692C2.3879 4.55007 2.37512 4.57321 2.36235 4.59636C2.51999 4.73684 2.69519 4.86215 2.82849 5.02298C2.90711 5.11757 2.953 5.26762 2.9526 5.39254C2.95141 5.60765 2.90272 5.82235 2.86879 6.07498C3.0863 5.96842 3.27666 5.88142 3.46144 5.78284C3.6091 5.70422 3.74798 5.70303 3.89564 5.77965C4.08042 5.87543 4.26959 5.96283 4.49068 6.07019C4.45596 5.82794 4.43082 5.6256 4.3965 5.42526C4.36856 5.26244 4.39969 5.12475 4.527 5.01261C4.68543 4.87333 4.84228 4.73205 4.99952 4.59157C4.98714 4.57002 4.97477 4.54847 4.962 4.52692C4.75009 4.48901 4.53258 4.46985 4.32905 4.4064C4.20893 4.36888 4.08082 4.28228 4.00858 4.18091C3.88407 4.00492 3.79946 3.80018 3.68014 3.5743Z"  stroke-width="0.1"/>
</svg>
