<svg width="16" height="18" viewBox="0 0 16 18" fill="#6B7280" stroke="#6B7280" xmlns="http://www.w3.org/2000/svg">
<path d="M8.79127 17C8.31246 17 7.83338 17 7.35458 17C7.30982 16.9925 7.26534 16.9826 7.2203 16.9779C6.51743 16.9022 5.81042 16.8525 5.11224 16.7455C4.21127 16.6074 3.33268 16.3684 2.51488 15.9534C1.82223 15.6014 1.1923 15.1804 1 14.3521C1 10.7847 1 7.21726 1 3.64986C1.14146 2.99617 1.58904 2.58616 2.13112 2.26207C2.39027 2.10708 2.66379 1.97114 2.94284 1.85593C3.9709 1.43211 5.05118 1.22351 6.15218 1.10582C7.8414 0.925125 9.52287 0.971265 11.1944 1.2796C12.0467 1.43681 12.8803 1.66281 13.6553 2.059C14.3394 2.40878 14.9566 2.8326 15.1461 3.64958C15.1461 7.21699 15.1461 10.7844 15.1461 14.3518C15.003 15.0038 14.5626 15.423 14.0147 15.7368C13.6661 15.9366 13.298 16.1112 12.9217 16.2526C11.8169 16.6679 10.6617 16.8511 9.49 16.9447C9.25709 16.9638 9.02418 16.9818 8.79127 17ZM7.99446 6.02343C9.19188 6.01763 10.2998 5.92811 11.3922 5.69051C12.1537 5.52474 12.8969 5.30371 13.5812 4.91967C13.8595 4.76357 14.1206 4.5837 14.3189 4.32814C14.4275 4.18834 14.5062 4.03721 14.5132 3.85265C14.5231 3.59211 14.3979 3.39402 14.2297 3.21719C13.8965 2.86659 13.4768 2.64694 13.0378 2.46349C11.844 1.96451 10.5849 1.75785 9.30461 1.67027C7.8483 1.57081 6.3978 1.62993 4.96222 1.91451C4.18005 2.0695 3.41585 2.2839 2.70386 2.65385C2.35076 2.8373 2.01618 3.04838 1.78217 3.38186C1.57578 3.67583 1.56556 3.97947 1.78548 4.26294C1.92141 4.4381 2.08912 4.59752 2.26898 4.72793C2.76188 5.08544 3.32633 5.29763 3.90515 5.47141C5.2653 5.87921 6.66248 6.01238 7.99446 6.02343ZM14.5173 8.49813C14.4828 8.5147 14.4695 8.51802 14.4598 8.52575C13.9772 8.92305 13.4204 9.18276 12.8358 9.38721C11.6851 9.78949 10.4935 9.97764 9.2814 10.0556C7.50626 10.1694 5.74936 10.0614 4.02312 9.60686C3.28185 9.4118 2.56737 9.1485 1.92998 8.70949C1.83411 8.64345 1.74183 8.57217 1.63794 8.49592C1.63325 8.53294 1.62883 8.55034 1.6291 8.56803C1.62938 9.26206 1.63601 9.95636 1.628 10.6504C1.62468 10.9347 1.74072 11.1552 1.92998 11.3497C2.20378 11.6309 2.5367 11.8254 2.88869 11.9893C3.87531 12.4485 4.92603 12.6725 5.99801 12.801C7.63004 12.9963 9.25985 12.9704 10.8819 12.6933C11.7138 12.551 12.5269 12.3396 13.2925 11.9741C13.6301 11.813 13.9506 11.624 14.2142 11.3524C14.4029 11.1579 14.5253 10.9383 14.5173 10.6534C14.5079 10.3183 14.517 9.98233 14.5173 9.64692C14.5176 9.26979 14.5173 8.89349 14.5173 8.49813ZM14.5173 11.9616C14.4922 11.9644 14.4814 11.9622 14.4761 11.9666C13.8285 12.4946 13.0679 12.7908 12.2774 13.0173C11.1262 13.3472 9.94587 13.4928 8.75121 13.5354C7.18466 13.5909 5.63415 13.474 4.11209 13.0817C3.22963 12.8541 2.38336 12.5416 1.66088 11.9622C1.65673 11.9589 1.64458 11.9655 1.62855 11.9691C1.62855 12.6336 1.64844 13.3005 1.62137 13.9656C1.60369 14.4001 1.77471 14.7226 2.10653 14.956C2.40491 15.1663 2.72154 15.3633 3.05502 15.5094C4.28394 16.0479 5.59132 16.2488 6.91888 16.3369C8.06049 16.4126 9.20045 16.3822 10.3354 16.2289C11.2035 16.1115 12.0564 15.9297 12.8737 15.6075C13.3632 15.4144 13.8343 15.1856 14.2123 14.8052C14.4151 14.601 14.5256 14.3648 14.5209 14.0664C14.5104 13.4141 14.5176 12.7615 14.5176 12.1089C14.5173 12.0595 14.5173 12.0114 14.5173 11.9616ZM1.63767 5.044C1.63325 5.0777 1.6291 5.09539 1.6291 5.11307C1.63021 5.82091 1.63491 6.52848 1.63076 7.23633C1.62938 7.45155 1.70287 7.63307 1.83798 7.79056C1.92722 7.89472 2.02585 7.99363 2.1325 8.07928C2.53587 8.40225 3.00059 8.61223 3.48381 8.78242C4.87022 9.2709 6.30911 9.43916 7.76956 9.46927C8.62218 9.48668 9.47231 9.44275 10.3175 9.32864C11.222 9.20652 12.1108 9.01644 12.959 8.66915C13.4166 8.48183 13.8564 8.26163 14.2092 7.90411C14.391 7.71983 14.5176 7.51123 14.5156 7.23522C14.5104 6.53207 14.5162 5.82893 14.517 5.12578C14.517 5.10202 14.5087 5.07798 14.5018 5.04013C14.0971 5.37913 13.6531 5.61646 13.1812 5.80461C11.8227 6.34586 10.3979 6.55307 8.94903 6.62463C7.5792 6.69232 6.21573 6.61993 4.86883 6.35055C3.717 6.12068 2.59887 5.79936 1.63767 5.044Z"  stroke-width="0.2"/>
<path d="M13.5715 10.7202C13.5739 10.8953 13.4328 11.0396 13.2595 11.039C13.0938 11.0385 12.9523 10.8978 12.9493 10.7309C12.9462 10.558 13.0904 10.4113 13.2623 10.4121C13.4297 10.4132 13.5693 10.5522 13.5715 10.7202Z"  stroke-width="0.2"/>
<path d="M11.0562 11.3602C11.0526 11.5271 10.9111 11.6655 10.7442 11.6655C10.5713 11.6655 10.4271 11.5186 10.4318 11.3467C10.4364 11.1743 10.5854 11.0353 10.7583 11.0422C10.926 11.0489 11.0598 11.192 11.0562 11.3602Z"  stroke-width="0.2"/>
<path d="M11.9994 11.3484C11.8286 11.3465 11.6938 11.2125 11.6924 11.0431C11.6907 10.8682 11.8308 10.7298 12.0074 10.7315C12.1784 10.7331 12.3129 10.8668 12.3149 11.037C12.3165 11.2122 12.1765 11.3503 11.9994 11.3484Z"  stroke-width="0.2"/>
<path d="M10.7413 14.4922C10.9134 14.4903 11.0577 14.635 11.0563 14.8086C11.0552 14.9746 10.9145 15.1155 10.7477 15.1177C10.5824 15.1199 10.4374 14.9812 10.4313 14.8152C10.4255 14.6453 10.5706 14.4941 10.7413 14.4922Z"  stroke-width="0.2"/>
<path d="M13.5714 14.1796C13.57 14.3503 13.4349 14.4873 13.2661 14.489C13.0915 14.4907 12.9481 14.3489 12.9492 14.1754C12.9501 14.0074 13.0882 13.8674 13.2559 13.8643C13.4283 13.861 13.5728 14.0055 13.5714 14.1796Z"  stroke-width="0.2"/>
<path d="M12.0093 14.7995C11.8322 14.8022 11.6918 14.6649 11.6924 14.4895C11.6927 14.3193 11.8264 14.1845 11.9974 14.1817C12.1756 14.1787 12.3154 14.3154 12.3149 14.4914C12.314 14.6624 12.1806 14.797 12.0093 14.7995Z"  stroke-width="0.2"/>
<path d="M13.5719 7.27655C13.5714 7.44398 13.434 7.58433 13.2669 7.5882C13.0959 7.59207 12.9489 7.44647 12.9497 7.27407C12.9505 7.10719 13.089 6.96656 13.2558 6.96297C13.4277 6.9591 13.5722 7.10249 13.5719 7.27655Z"  stroke-width="0.2"/>
<path d="M12.0052 7.89886C11.8309 7.90024 11.6916 7.76127 11.6919 7.58666C11.6922 7.41453 11.8364 7.27169 12.0074 7.27445C12.1746 7.27694 12.3119 7.41425 12.3149 7.58168C12.318 7.75547 12.1793 7.89776 12.0052 7.89886Z"  stroke-width="0.2"/>
<path d="M11.0569 7.89752C11.0597 8.06771 10.9279 8.20613 10.7572 8.21221C10.5801 8.21856 10.435 8.08318 10.4317 7.90829C10.4281 7.73727 10.5734 7.59222 10.7475 7.59278C10.9182 7.5936 11.0545 7.7276 11.0569 7.89752Z"  stroke-width="0.2"/>
</svg>
