<svg width="20" height="20" viewBox="0 0 20 20" fill="#6B7280" stroke="#6B7280" xmlns="http://www.w3.org/2000/svg">
<path d="M11.5816 18.9674C10.527 18.9674 9.47233 18.9674 8.41768 18.9674C7.91813 18.8028 7.68259 18.4615 7.71423 17.9345C7.72583 17.7447 7.61896 17.6339 7.44846 17.5671C7.14929 17.4504 6.84907 17.3351 6.55552 17.205C6.198 17.0468 6.16249 17.0468 5.8795 17.3182C5.50193 17.6803 4.99641 17.687 4.62447 17.3207C3.9625 16.6675 3.30229 16.0119 2.65298 15.3461C2.54049 15.2307 2.45365 15.068 2.41006 14.9119C2.31233 14.5614 2.45295 14.2717 2.7138 14.0351C2.85266 13.9089 2.91348 13.7648 2.83719 13.5813C2.68708 13.2206 2.53767 12.8596 2.38827 12.4985C2.32288 12.3407 2.20722 12.2623 2.03461 12.263C1.92949 12.2633 1.82262 12.2658 1.71962 12.2475C1.33081 12.1786 1.11847 11.9185 1 11.563C1 10.5105 1 9.45761 1 8.40508C1.16312 7.90412 1.50799 7.67315 2.03461 7.70303C2.23358 7.71428 2.33975 7.59757 2.4083 7.42074C2.53064 7.1054 2.65931 6.79217 2.79536 6.48246C2.91207 6.21739 2.90223 6.12423 2.70079 5.92033C2.26909 5.48371 2.26733 4.99857 2.69868 4.56722C3.31495 3.9506 3.93227 3.33539 4.54959 2.71948C5.00977 2.26036 5.47873 2.2579 5.94278 2.71175C6.13156 2.89631 6.22894 2.90685 6.47748 2.79858C6.777 2.66745 7.07898 2.54124 7.38377 2.42277C7.6615 2.31485 7.71458 2.24805 7.71599 1.94361C7.7188 1.35195 8.07386 1.00076 8.6722 1.00041C9.53877 0.999703 10.4057 1.00005 11.2723 1.00041C11.9472 1.00041 12.278 1.32524 12.284 1.99353C12.2861 2.23505 12.3512 2.31871 12.5807 2.40871C12.8746 2.52367 13.1689 2.63827 13.4564 2.76729C13.7907 2.9174 13.8488 2.91459 14.105 2.66429C14.4942 2.28426 15.0008 2.27618 15.385 2.6562C16.0428 3.30586 16.6991 3.95693 17.3442 4.61855C17.4571 4.73421 17.5446 4.89627 17.5885 5.05236C17.6866 5.4025 17.5467 5.69147 17.2883 5.93123C17.1832 6.02861 17.0957 6.13407 17.1579 6.32391C17.4989 6.32391 17.8434 6.32531 18.1879 6.32356C18.4551 6.32215 18.6653 6.43851 18.8186 6.64628C18.8963 6.75174 18.9406 6.88182 19 7.00099C19 8.59175 19 10.1825 19 11.7733C18.9888 11.7926 18.9743 11.8112 18.967 11.832C18.8284 12.2324 18.5535 12.4384 18.1299 12.4539C18.0072 12.4584 17.8838 12.4616 17.7615 12.4535C17.6571 12.4468 17.6072 12.4844 17.5703 12.5839C17.4648 12.868 17.353 13.1503 17.2307 13.4277C17.0777 13.7743 17.0798 13.8207 17.3403 14.0886C17.7116 14.4703 17.7193 14.9766 17.346 15.3534C16.6921 16.014 16.0361 16.6724 15.3692 17.32C15.2539 17.4321 15.0897 17.5169 14.9333 17.5601C14.5898 17.6547 14.303 17.5214 14.0692 17.2662C13.9395 17.1245 13.7943 17.0532 13.6016 17.1337C13.2409 17.2841 12.8792 17.4328 12.5178 17.5819C12.3596 17.6473 12.2823 17.7633 12.2833 17.9356C12.2837 18.0403 12.2861 18.1472 12.2675 18.2495C12.1975 18.6369 11.9381 18.8496 11.5816 18.9674ZM14.5406 6.30844C14.4879 6.242 14.4615 6.20649 14.433 6.17274C12.8743 4.3236 10.1983 3.6444 7.91426 4.52539C7.63689 4.63226 7.37252 4.77428 7.10429 4.90471C6.98758 4.96131 6.86278 4.97959 6.78333 4.87693C6.72778 4.80522 6.70036 4.68288 6.71759 4.59429C6.73095 4.52644 6.82481 4.46035 6.89758 4.41957C7.67872 3.98084 8.51787 3.70803 9.4101 3.64335C11.6583 3.48058 13.5218 4.26137 14.9611 5.99591C15.1607 6.23672 15.3464 6.33446 15.6459 6.31125C15.9584 6.28735 16.2741 6.30598 16.6007 6.30598C16.5887 5.99064 16.7086 5.75581 16.9174 5.55472C17.1547 5.32621 17.1512 5.16345 16.9188 4.93107C16.3145 4.32676 15.7092 3.7235 15.1045 3.11954C14.8187 2.83408 14.6893 2.83233 14.4039 3.11075C14.0945 3.41308 13.7342 3.47109 13.3408 3.29602C13.0367 3.16032 12.7298 3.02955 12.4183 2.91178C11.9567 2.73706 11.7591 2.46636 11.7567 1.97314C11.7549 1.64128 11.6435 1.52773 11.3162 1.52738C10.4489 1.52703 9.58201 1.52703 8.71474 1.52738C8.34596 1.52738 8.24507 1.62792 8.24331 1.99459C8.2412 2.46215 8.03765 2.73952 7.59435 2.9065C7.29905 3.01759 7.00621 3.13712 6.7197 3.2686C6.25565 3.48164 5.92203 3.43066 5.55642 3.07103C5.33038 2.84885 5.16866 2.8485 4.94332 3.07314C4.33374 3.68061 3.72485 4.28844 3.11597 4.89662C2.8393 5.17294 2.8379 5.30864 3.10894 5.58355C3.42182 5.90064 3.47807 6.25219 3.29526 6.65858C3.16132 6.9567 3.03301 7.25762 2.9177 7.56312C2.74017 8.03314 2.47158 8.22825 1.96465 8.23106C1.64404 8.23282 1.52803 8.34637 1.52803 8.66276C1.52732 9.52828 1.52767 10.3938 1.52803 11.2593C1.52803 11.6365 1.62751 11.7357 2.00613 11.7378C2.46104 11.7402 2.74298 11.9473 2.90715 12.3786C3.02105 12.6785 3.14374 12.9759 3.27733 13.2673C3.48545 13.7212 3.43307 14.058 3.08011 14.4145C2.8495 14.6472 2.84985 14.805 3.08363 15.0392C3.68794 15.6435 4.29331 16.2467 4.89797 16.8503C5.18273 17.1344 5.31385 17.1354 5.59861 16.8556C5.90657 16.5533 6.26515 16.496 6.66134 16.6732C6.95453 16.8043 7.25054 16.9315 7.55146 17.0433C8.04785 17.2282 8.2398 17.488 8.24366 18.0143C8.24577 18.3205 8.36389 18.4404 8.66833 18.4407C9.5356 18.4414 10.4025 18.4411 11.2698 18.4411C11.6607 18.4411 11.7549 18.3469 11.757 17.9542C11.7599 17.5172 11.9676 17.2265 12.374 17.0722C12.6633 16.9621 12.953 16.8503 13.2342 16.7213C13.7616 16.4794 14.053 16.5216 14.4696 16.9224C14.6654 17.1108 14.8384 17.1126 15.0331 16.9192C15.6726 16.2836 16.3103 15.6466 16.9473 15.0089C17.1414 14.8145 17.1407 14.6412 16.9529 14.4461C16.5504 14.0277 16.5058 13.7353 16.7508 13.2139C16.8636 12.9745 16.9607 12.7277 17.077 12.456C16.7142 12.456 16.3926 12.4648 16.0719 12.4521C15.9236 12.4461 15.86 12.5031 15.8013 12.6314C14.4745 15.5433 11.1475 17.0293 8.115 16.0688C3.92629 14.7421 2.27753 9.80565 4.84313 6.24516C5.11101 5.87322 5.45342 5.55367 5.77052 5.21864C5.89356 5.08857 6.05492 5.09525 6.16074 5.20282C6.27358 5.31778 6.26022 5.46859 6.12417 5.60358C6.07847 5.64893 6.02855 5.68971 5.9825 5.73506C4.54291 7.14688 3.9284 8.86033 4.21562 10.849C4.6206 13.6519 6.97 15.7465 9.807 15.8105C12.2436 15.8653 14.0425 14.7533 15.2194 12.6296C15.2455 12.5825 15.2613 12.5294 15.2919 12.4556C15.1811 12.4556 15.1003 12.4556 15.0194 12.4556C14.6619 12.4549 14.3047 12.4591 13.9472 12.4507C13.7756 12.4468 13.6797 12.3393 13.6832 12.186C13.6863 12.0408 13.7809 11.9462 13.9423 11.9318C14.0003 11.9265 14.0593 11.9294 14.118 11.9294C15.3249 11.9294 16.5318 11.9294 17.739 11.9294C17.8047 11.9294 17.8701 11.9294 17.9359 11.9294C17.9383 11.9146 17.9411 11.8998 17.9436 11.8851C17.1139 11.1679 16.2843 10.4511 15.4518 9.73182C15.269 9.88932 15.1013 10.0349 14.9326 10.1793C14.1799 10.8244 13.274 10.8223 12.5294 10.1744C12.3617 10.0285 12.193 9.88439 12.0158 9.73147C11.1801 10.4539 10.3487 11.1728 9.51732 11.8917C9.52435 11.904 9.53139 11.9167 9.53877 11.929C9.6024 11.929 9.66638 11.929 9.73001 11.929C10.6732 11.929 11.6164 11.929 12.56 11.9294C12.6243 11.9294 12.6897 11.9272 12.7526 11.9378C12.8939 11.9617 12.9713 12.0552 12.9699 12.1937C12.9688 12.3312 12.8932 12.4247 12.7498 12.4465C12.6981 12.4546 12.6447 12.4549 12.5923 12.4549C11.5377 12.4553 10.483 12.4567 9.42838 12.4546C8.80157 12.4535 8.46549 12.1143 8.46514 11.4857C8.46444 10.0823 8.46443 8.67858 8.46584 7.2752C8.46584 7.18802 8.47111 7.09943 8.48482 7.0133C8.54881 6.61464 8.8884 6.32707 9.29268 6.32531C10.9566 6.31899 12.6204 6.31336 14.2843 6.30774C14.3574 6.30809 14.4309 6.30844 14.5406 6.30844ZM17.9795 6.84772C15.133 6.84772 12.3287 6.84772 9.52435 6.84772C9.52892 6.89869 9.5574 6.91029 9.5792 6.92928C10.6996 7.89674 11.8168 8.86807 12.9404 9.83166C13.4248 10.2472 14.0558 10.2373 14.542 9.81901C15.314 9.15528 16.0832 8.48875 16.8534 7.82291C17.2205 7.50582 17.5864 7.18837 17.9795 6.84772ZM9.00547 11.6369C9.89207 10.8701 10.7474 10.1308 11.6129 9.38238C10.739 8.62761 9.88504 7.88971 9.00547 7.12966C9.00547 8.64518 9.00547 10.1189 9.00547 11.6369ZM15.8536 9.38309C16.7279 10.1382 17.585 10.8786 18.4547 11.6298C18.4547 10.1154 18.4547 8.63745 18.4547 7.13528C17.5801 7.89076 16.7269 8.62831 15.8536 9.38309Z"  stroke-width="0.3"/>
<path d="M6.53384 11.5888C6.17069 11.5888 5.80754 11.593 5.44474 11.5874C5.22784 11.5838 5.09671 11.4274 5.15331 11.2485C5.19585 11.1138 5.2992 11.0622 5.43771 11.0625C6.17561 11.0639 6.91351 11.0622 7.65141 11.0639C7.83281 11.0643 7.94777 11.1623 7.95515 11.311C7.96289 11.4643 7.84266 11.5846 7.65809 11.587C7.28369 11.5923 6.90894 11.5884 6.53384 11.5888Z"  stroke-width="0.3"/>
<path d="M6.95878 9.58317C7.18729 9.58317 7.41545 9.58036 7.64395 9.58387C7.8359 9.58704 7.95437 9.68934 7.95578 9.84296C7.95683 9.99659 7.83766 10.1059 7.64782 10.1073C7.18518 10.1112 6.72254 10.1112 6.2599 10.1073C6.05987 10.1056 5.95406 10.0092 5.95265 9.84683C5.95124 9.68231 6.05565 9.58774 6.25604 9.58422C6.49017 9.58001 6.72465 9.58317 6.95878 9.58317Z"  stroke-width="0.3"/>
<path d="M7.30736 8.62468C7.18467 8.62468 7.06128 8.63066 6.93894 8.62328C6.78953 8.61414 6.70094 8.52836 6.69426 8.3779C6.68723 8.22673 6.76985 8.12127 6.91679 8.11353C7.18467 8.09912 7.45431 8.09912 7.72254 8.11213C7.86949 8.11916 7.9507 8.22532 7.95421 8.37298C7.95773 8.51043 7.84664 8.61695 7.69301 8.62468C7.5647 8.63136 7.43568 8.62609 7.30701 8.62609C7.30736 8.62504 7.30736 8.62503 7.30736 8.62468Z"  stroke-width="0.3"/>
</svg>
