<svg width="24" height="24" viewBox="0 0 24 24" fill="#1462B0" stroke="#1462B0" xmlns="http://www.w3.org/2000/svg">
<path d="M13.1311 3C13.506 3.16751 13.6376 3.46265 13.6137 3.86149C13.5957 4.17059 13.6097 4.47968 13.6097 4.80274C14.2538 4.96627 14.858 5.20557 15.4244 5.53461C15.4583 5.55455 15.55 5.51866 15.5879 5.48077C15.8173 5.2634 16.0386 5.03606 16.2639 4.81271C16.585 4.49763 16.9559 4.49763 17.277 4.8167C17.6978 5.23548 18.1185 5.65426 18.5353 6.07503C18.8564 6.39809 18.8564 6.76303 18.5393 7.08808C18.294 7.33935 18.0468 7.58662 17.7995 7.8359C17.7915 7.84387 17.7875 7.85983 17.7775 7.88176C18.1046 8.42817 18.3598 9.01047 18.5273 9.63266C18.5413 9.68251 18.637 9.74034 18.6969 9.74234C19.0199 9.7543 19.343 9.74633 19.668 9.75031C20.0748 9.7543 20.348 10.0076 20.356 10.4124C20.366 11.0386 20.362 11.6667 20.358 12.2929C20.356 12.5282 20.2204 12.6718 20.025 12.6678C19.8295 12.6638 19.7139 12.5222 19.7139 12.2769C19.7119 11.7305 19.7139 11.1841 19.7139 10.6377C19.7139 10.5659 19.7139 10.4922 19.7139 10.3964C19.3629 10.3964 19.0359 10.3964 18.7068 10.3964C18.2123 10.3964 18.0527 10.2449 17.8912 9.78621C17.7137 9.27969 17.5043 8.78314 17.271 8.30054C17.0616 7.87179 17.0696 7.65243 17.4106 7.30943C17.6379 7.0801 17.8653 6.84878 18.0926 6.61944C18.1006 6.61147 18.1046 6.59551 18.1026 6.5995C17.6499 6.15081 17.2032 5.70611 16.7485 5.25343C16.5172 5.48276 16.2739 5.72406 16.0306 5.96535C15.7155 6.27844 15.4822 6.28841 15.0874 6.10096C14.5789 5.85966 14.0564 5.64429 13.5259 5.45285C13.1191 5.30528 12.9636 5.13777 12.9616 4.70503C12.9596 4.37399 12.9596 4.04495 12.9576 3.71392C12.9576 3.70195 12.9516 3.68799 12.9436 3.66008C12.3195 3.66008 11.6913 3.66008 11.0332 3.66008C11.0332 3.9931 11.0332 4.32214 11.0332 4.64919C11.0332 5.14574 10.8856 5.30528 10.425 5.46481C9.91845 5.6403 9.41991 5.8477 8.93931 6.08301C8.50857 6.2924 8.28721 6.28442 7.94621 5.94342C7.71289 5.7101 7.47957 5.47478 7.25622 5.24944C6.80553 5.70611 6.35883 6.15679 5.8922 6.62942C6.11754 6.84878 6.36881 7.09207 6.61608 7.33935C6.91521 7.63847 6.94911 7.89971 6.73574 8.26465C6.44857 8.75522 6.23121 9.2757 6.08763 9.82609C5.98193 10.2289 5.76457 10.3944 5.34579 10.3964C5.01475 10.3984 4.68571 10.3984 4.35468 10.4004C4.34072 10.4004 4.32875 10.4064 4.28289 10.4204C4.28289 10.4822 4.28289 10.552 4.28289 10.6238C4.28289 11.1762 4.28289 11.7285 4.28289 12.2829C4.28289 12.5342 4.17321 12.6698 3.97379 12.6718C3.77637 12.6718 3.63877 12.5302 3.63877 12.2969C3.63478 11.6707 3.63079 11.0425 3.63877 10.4164C3.64475 10.0116 3.91795 9.7563 4.32477 9.7543C4.68771 9.75031 5.05264 9.7543 5.38767 9.7543C5.65289 9.11218 5.91014 8.488 6.19531 7.79601C5.98393 7.59261 5.71671 7.34732 5.45946 7.09207C5.13441 6.76901 5.1364 6.40607 5.45746 6.08301C5.87624 5.66224 6.29502 5.24346 6.71579 4.82468C7.04483 4.49763 7.41376 4.49963 7.7428 4.82667C7.99606 5.07794 8.24932 5.3312 8.46868 5.54857C9.01908 5.32323 9.54155 5.09589 10.074 4.89248C10.3771 4.77682 10.3831 4.79477 10.3851 4.46174C10.3851 4.25235 10.3991 4.04296 10.3851 3.83556C10.3532 3.42077 10.5207 3.14558 10.9056 3C11.6474 3 12.3892 3 13.1311 3Z" />
<path d="M13.3225 15.2104C13.5299 15.3201 13.7453 15.4158 13.9427 15.5414C15.0615 16.2573 15.6557 17.2863 15.7136 18.6105C15.7395 19.2167 15.7235 19.8229 15.7196 20.4292C15.7176 20.834 15.4364 21.1211 15.0336 21.1211C13.0115 21.1251 10.9893 21.1231 8.96924 21.1211C8.59034 21.1211 8.28723 20.8539 8.28523 20.491C8.28125 19.7432 8.24136 18.9894 8.32512 18.2495C8.48266 16.8616 9.25441 15.8864 10.5167 15.2941C10.5706 15.2682 10.6244 15.2443 10.7002 15.2104C10.066 14.6879 9.74897 14.0378 9.81078 13.2262C9.85466 12.6498 10.0999 12.1653 10.5247 11.7764C11.3942 10.9787 12.7442 11.0166 13.5599 11.8382C14.2758 12.5661 14.6287 14.1674 13.3225 15.2104ZM15.0415 20.4591C15.0415 19.7152 15.1034 19.0013 15.0296 18.3034C14.872 16.8237 13.6556 15.7249 12.1639 15.6312C10.7221 15.5414 9.33418 16.5086 9.04302 17.9424C8.8795 18.7501 8.92936 19.5996 8.88149 20.4591C10.9774 20.4591 13.0134 20.4591 15.0415 20.4591ZM12.0044 11.8621C11.113 11.8602 10.431 12.5302 10.429 13.4136C10.427 14.2911 11.115 14.9731 12.0004 14.9711C12.8858 14.9691 13.5738 14.2811 13.5658 13.4076C13.5579 12.5302 12.8858 11.8641 12.0044 11.8621Z" />
<path d="M19.0778 15.677C19.5384 15.8784 19.9193 16.1496 20.2324 16.5106C20.6831 17.0311 20.9523 17.6333 20.9822 18.3233C21.0061 18.8558 21.0021 19.3882 20.9922 19.9207C20.9842 20.3195 20.705 20.5887 20.3062 20.5907C19.1196 20.5967 17.9331 20.5947 16.7466 20.5927C16.5132 20.5927 16.3657 20.4571 16.3697 20.2617C16.3736 20.0662 16.5152 19.9466 16.7585 19.9466C17.8633 19.9446 18.9701 19.9466 20.0748 19.9466C20.1546 19.9466 20.2344 19.9466 20.3022 19.9466C20.3221 19.9207 20.3381 19.9087 20.3381 19.8987C20.3261 19.2745 20.3939 18.6344 20.2842 18.0262C19.9711 16.3012 17.8015 15.5155 16.4195 16.5884C16.1662 16.7858 15.9868 16.7978 15.8552 16.6302C15.7215 16.4587 15.7834 16.2434 16.0227 16.0639C16.1244 15.9881 16.238 15.9263 16.3497 15.8645C16.4614 15.8027 16.577 15.7488 16.7146 15.681C16.1902 15.2084 15.9529 14.6341 16.0506 13.9421C16.1144 13.4934 16.3078 13.1065 16.6588 12.8094C17.3867 12.1952 18.5353 12.2251 19.2114 12.8832C19.6122 13.272 19.7797 13.7626 19.7598 14.311C19.7418 14.8574 19.4985 15.3061 19.0778 15.677ZM16.6887 14.2253C16.6887 14.8913 17.2291 15.4417 17.8872 15.4497C18.5433 15.4577 19.1097 14.8893 19.1077 14.2233C19.1057 13.5632 18.5573 13.0068 17.9032 13.0008C17.2411 12.9929 16.6867 13.5512 16.6887 14.2253Z" />
<path d="M4.90508 15.683C3.88406 14.6959 4.19316 13.4475 4.83928 12.8553C5.57114 12.1832 6.69387 12.1872 7.38585 12.8632C8.01003 13.4754 8.31913 14.7597 7.29412 15.681C7.43969 15.7568 7.58327 15.8226 7.71688 15.9044C7.8485 15.9841 7.98012 16.0699 8.0898 16.1756C8.23936 16.3172 8.24335 16.5166 8.12769 16.6482C8.00804 16.7838 7.82856 16.7938 7.65905 16.6522C7.32403 16.375 6.94713 16.1975 6.51838 16.1217C5.10251 15.8725 3.70259 16.9872 3.65074 18.419C3.63279 18.9156 3.64875 19.4141 3.64875 19.9426C3.73649 19.9426 3.80828 19.9426 3.88007 19.9426C4.96491 19.9426 6.05174 19.9426 7.13658 19.9426C7.20438 19.9426 7.27218 19.9386 7.33799 19.9466C7.50949 19.9685 7.60521 20.0762 7.61917 20.2417C7.63113 20.3993 7.55137 20.5149 7.39782 20.5648C7.33001 20.5867 7.25224 20.5887 7.17845 20.5887C6.04576 20.5907 4.91306 20.5907 3.78036 20.5887C3.25789 20.5887 2.99266 20.3314 3.00064 19.805C3.00861 19.2067 2.97272 18.5985 3.06246 18.0102C3.22399 16.9453 3.84817 16.1875 4.82332 15.7249C4.84526 15.7189 4.86919 15.7029 4.90508 15.683ZM7.30608 14.2253C7.30808 13.5512 6.75569 12.9929 6.09162 12.9988C5.43753 13.0048 4.88913 13.5612 4.88714 14.2213C4.88514 14.8873 5.4495 15.4557 6.10758 15.4497C6.76566 15.4417 7.30608 14.8913 7.30608 14.2253Z" />
<path d="M11.9486 7.13993C14.1222 7.19377 15.8831 8.73328 16.1503 10.881C16.2739 11.8781 16.0426 12.8094 15.4902 13.6549C15.3586 13.8563 15.1791 13.9122 15.0136 13.8125C14.8401 13.7068 14.8162 13.5173 14.9498 13.302C15.7854 11.9519 15.7116 10.3127 14.7584 9.14807C13.865 8.05526 12.3255 7.57666 10.9814 7.96951C9.63729 8.36436 8.64419 9.5509 8.48864 10.9787C8.39891 11.7963 8.57838 12.5581 9.0171 13.2581C9.05699 13.3199 9.10285 13.3837 9.1208 13.4515C9.16268 13.6131 9.11083 13.7467 8.95927 13.8264C8.8137 13.9042 8.6422 13.8543 8.5365 13.6988C8.24137 13.2661 8.03796 12.7914 7.9223 12.2789C7.4417 10.1631 8.67011 8.01139 10.7441 7.36926C11.1309 7.2516 11.5457 7.21571 11.9486 7.13993Z" />
<path d="M13.1311 3C13.506 3.16751 13.6376 3.46265 13.6137 3.86149C13.5957 4.17059 13.6097 4.47968 13.6097 4.80274C14.2538 4.96627 14.858 5.20557 15.4244 5.53461C15.4583 5.55455 15.55 5.51866 15.5879 5.48077C15.8173 5.2634 16.0386 5.03606 16.2639 4.81271C16.585 4.49763 16.9559 4.49763 17.277 4.8167C17.6978 5.23548 18.1185 5.65426 18.5353 6.07503C18.8564 6.39809 18.8564 6.76303 18.5393 7.08808C18.294 7.33935 18.0468 7.58662 17.7995 7.8359C17.7915 7.84387 17.7875 7.85983 17.7775 7.88176C18.1046 8.42817 18.3598 9.01047 18.5273 9.63266C18.5413 9.68251 18.637 9.74034 18.6969 9.74234C19.0199 9.7543 19.343 9.74633 19.668 9.75031C20.0748 9.7543 20.348 10.0076 20.356 10.4124C20.366 11.0386 20.362 11.6667 20.358 12.2929C20.356 12.5282 20.2204 12.6718 20.025 12.6678C19.8295 12.6638 19.7139 12.5222 19.7139 12.2769C19.7119 11.7305 19.7139 11.1841 19.7139 10.6377C19.7139 10.5659 19.7139 10.4922 19.7139 10.3964C19.3629 10.3964 19.0359 10.3964 18.7068 10.3964C18.2123 10.3964 18.0527 10.2449 17.8912 9.78621C17.7137 9.27969 17.5043 8.78314 17.271 8.30054C17.0616 7.87179 17.0696 7.65243 17.4106 7.30943C17.6379 7.0801 17.8653 6.84878 18.0926 6.61944C18.1006 6.61147 18.1046 6.59551 18.1026 6.5995C17.6499 6.15081 17.2032 5.70611 16.7485 5.25343C16.5172 5.48276 16.2739 5.72406 16.0306 5.96535C15.7155 6.27844 15.4822 6.28841 15.0874 6.10096C14.5789 5.85966 14.0564 5.64429 13.5259 5.45285C13.1191 5.30528 12.9636 5.13777 12.9616 4.70503C12.9596 4.37399 12.9596 4.04495 12.9576 3.71392C12.9576 3.70195 12.9516 3.68799 12.9436 3.66008C12.3195 3.66008 11.6913 3.66008 11.0332 3.66008C11.0332 3.9931 11.0332 4.32214 11.0332 4.64919C11.0332 5.14574 10.8856 5.30528 10.425 5.46481C9.91845 5.6403 9.41991 5.8477 8.93931 6.08301C8.50857 6.2924 8.28721 6.28442 7.94621 5.94342C7.71289 5.7101 7.47957 5.47478 7.25622 5.24944C6.80553 5.70611 6.35883 6.15679 5.8922 6.62942C6.11754 6.84878 6.36881 7.09207 6.61608 7.33935C6.91521 7.63847 6.94911 7.89971 6.73574 8.26465C6.44857 8.75522 6.23121 9.2757 6.08763 9.82609C5.98193 10.2289 5.76457 10.3944 5.34579 10.3964C5.01475 10.3984 4.68571 10.3984 4.35468 10.4004C4.34072 10.4004 4.32875 10.4064 4.28289 10.4204C4.28289 10.4822 4.28289 10.552 4.28289 10.6238C4.28289 11.1762 4.28289 11.7285 4.28289 12.2829C4.28289 12.5342 4.17321 12.6698 3.97379 12.6718C3.77637 12.6718 3.63877 12.5302 3.63877 12.2969C3.63478 11.6707 3.63079 11.0425 3.63877 10.4164C3.64475 10.0116 3.91795 9.7563 4.32477 9.7543C4.68771 9.75031 5.05264 9.7543 5.38767 9.7543C5.65289 9.11218 5.91014 8.488 6.19531 7.79601C5.98393 7.59261 5.71671 7.34732 5.45946 7.09207C5.13441 6.76901 5.1364 6.40607 5.45746 6.08301C5.87624 5.66224 6.29502 5.24346 6.71579 4.82468C7.04483 4.49763 7.41376 4.49963 7.7428 4.82667C7.99606 5.07794 8.24932 5.3312 8.46868 5.54857C9.01908 5.32323 9.54155 5.09589 10.074 4.89248C10.3771 4.77682 10.3831 4.79477 10.3851 4.46174C10.3851 4.25235 10.3991 4.04296 10.3851 3.83556C10.3532 3.42077 10.5207 3.14558 10.9056 3C11.6474 3 12.3892 3 13.1311 3Z"  stroke-width="0.2"/>
<path d="M13.3225 15.2104C13.5299 15.3201 13.7453 15.4158 13.9427 15.5414C15.0615 16.2573 15.6557 17.2863 15.7136 18.6105C15.7395 19.2167 15.7235 19.8229 15.7196 20.4292C15.7176 20.834 15.4364 21.1211 15.0336 21.1211C13.0115 21.1251 10.9893 21.1231 8.96924 21.1211C8.59034 21.1211 8.28723 20.8539 8.28523 20.491C8.28125 19.7432 8.24136 18.9894 8.32512 18.2495C8.48266 16.8616 9.25441 15.8864 10.5167 15.2941C10.5706 15.2682 10.6244 15.2443 10.7002 15.2104C10.066 14.6879 9.74897 14.0378 9.81078 13.2262C9.85466 12.6498 10.0999 12.1653 10.5247 11.7764C11.3942 10.9787 12.7442 11.0166 13.5599 11.8382C14.2758 12.5661 14.6287 14.1674 13.3225 15.2104ZM15.0415 20.4591C15.0415 19.7152 15.1034 19.0013 15.0296 18.3034C14.872 16.8237 13.6556 15.7249 12.1639 15.6312C10.7221 15.5414 9.33418 16.5086 9.04302 17.9424C8.8795 18.7501 8.92936 19.5996 8.88149 20.4591C10.9774 20.4591 13.0134 20.4591 15.0415 20.4591ZM12.0044 11.8621C11.113 11.8602 10.431 12.5302 10.429 13.4136C10.427 14.2911 11.115 14.9731 12.0004 14.9711C12.8858 14.9691 13.5738 14.2811 13.5658 13.4076C13.5579 12.5302 12.8858 11.8641 12.0044 11.8621Z"  stroke-width="0.2"/>
<path d="M19.0778 15.677C19.5384 15.8784 19.9193 16.1496 20.2324 16.5106C20.6831 17.0311 20.9523 17.6333 20.9822 18.3233C21.0061 18.8558 21.0021 19.3882 20.9922 19.9207C20.9842 20.3195 20.705 20.5887 20.3062 20.5907C19.1196 20.5967 17.9331 20.5947 16.7466 20.5927C16.5132 20.5927 16.3657 20.4571 16.3697 20.2617C16.3736 20.0662 16.5152 19.9466 16.7585 19.9466C17.8633 19.9446 18.9701 19.9466 20.0748 19.9466C20.1546 19.9466 20.2344 19.9466 20.3022 19.9466C20.3221 19.9207 20.3381 19.9087 20.3381 19.8987C20.3261 19.2745 20.3939 18.6344 20.2842 18.0262C19.9711 16.3012 17.8015 15.5155 16.4195 16.5884C16.1662 16.7858 15.9868 16.7978 15.8552 16.6302C15.7215 16.4587 15.7834 16.2434 16.0227 16.0639C16.1244 15.9881 16.238 15.9263 16.3497 15.8645C16.4614 15.8027 16.577 15.7488 16.7146 15.681C16.1902 15.2084 15.9529 14.6341 16.0506 13.9421C16.1144 13.4934 16.3078 13.1065 16.6588 12.8094C17.3867 12.1952 18.5353 12.2251 19.2114 12.8832C19.6122 13.272 19.7797 13.7626 19.7598 14.311C19.7418 14.8574 19.4985 15.3061 19.0778 15.677ZM16.6887 14.2253C16.6887 14.8913 17.2291 15.4417 17.8872 15.4497C18.5433 15.4577 19.1097 14.8893 19.1077 14.2233C19.1057 13.5632 18.5573 13.0068 17.9032 13.0008C17.2411 12.9929 16.6867 13.5512 16.6887 14.2253Z"  stroke-width="0.2"/>
<path d="M4.90508 15.683C3.88406 14.6959 4.19316 13.4475 4.83928 12.8553C5.57114 12.1832 6.69387 12.1872 7.38585 12.8632C8.01003 13.4754 8.31913 14.7597 7.29412 15.681C7.43969 15.7568 7.58327 15.8226 7.71688 15.9044C7.8485 15.9841 7.98012 16.0699 8.0898 16.1756C8.23936 16.3172 8.24335 16.5166 8.12769 16.6482C8.00804 16.7838 7.82856 16.7938 7.65905 16.6522C7.32403 16.375 6.94713 16.1975 6.51838 16.1217C5.10251 15.8725 3.70259 16.9872 3.65074 18.419C3.63279 18.9156 3.64875 19.4141 3.64875 19.9426C3.73649 19.9426 3.80828 19.9426 3.88007 19.9426C4.96491 19.9426 6.05174 19.9426 7.13658 19.9426C7.20438 19.9426 7.27218 19.9386 7.33799 19.9466C7.50949 19.9685 7.60521 20.0762 7.61917 20.2417C7.63113 20.3993 7.55137 20.5149 7.39782 20.5648C7.33001 20.5867 7.25224 20.5887 7.17845 20.5887C6.04576 20.5907 4.91306 20.5907 3.78036 20.5887C3.25789 20.5887 2.99266 20.3314 3.00064 19.805C3.00861 19.2067 2.97272 18.5985 3.06246 18.0102C3.22399 16.9453 3.84817 16.1875 4.82332 15.7249C4.84526 15.7189 4.86919 15.7029 4.90508 15.683ZM7.30608 14.2253C7.30808 13.5512 6.75569 12.9929 6.09162 12.9988C5.43753 13.0048 4.88913 13.5612 4.88714 14.2213C4.88514 14.8873 5.4495 15.4557 6.10758 15.4497C6.76566 15.4417 7.30608 14.8913 7.30608 14.2253Z"  stroke-width="0.2"/>
<path d="M11.9486 7.13993C14.1222 7.19377 15.8831 8.73328 16.1503 10.881C16.2739 11.8781 16.0426 12.8094 15.4902 13.6549C15.3586 13.8563 15.1791 13.9122 15.0136 13.8125C14.8401 13.7068 14.8162 13.5173 14.9498 13.302C15.7854 11.9519 15.7116 10.3127 14.7584 9.14807C13.865 8.05526 12.3255 7.57666 10.9814 7.96951C9.63729 8.36436 8.64419 9.5509 8.48864 10.9787C8.39891 11.7963 8.57838 12.5581 9.0171 13.2581C9.05699 13.3199 9.10285 13.3837 9.1208 13.4515C9.16268 13.6131 9.11083 13.7467 8.95927 13.8264C8.8137 13.9042 8.6422 13.8543 8.5365 13.6988C8.24137 13.2661 8.03796 12.7914 7.9223 12.2789C7.4417 10.1631 8.67011 8.01139 10.7441 7.36926C11.1309 7.2516 11.5457 7.21571 11.9486 7.13993Z"  stroke-width="0.2"/>
</svg>
