<svg width="20" height="20" viewBox="0 0 20 20" fill="#374151" stroke="#374151" xmlns="http://www.w3.org/2000/svg">
<path d="M9.40405 18.9999C9.07208 18.9522 8.73636 18.9229 8.4089 18.8538C4.87401 18.1091 2.48112 16.0322 1.40297 12.5869C-0.0180433 8.04527 2.43756 3.20722 6.90639 1.55484C11.7962 -0.253467 17.2301 2.51816 18.6568 7.5482C20.0936 12.6147 16.8794 17.8423 11.7106 18.8391C11.3448 18.9097 10.9727 18.9473 10.6039 18.9999C10.2036 18.9999 9.804 18.9999 9.40405 18.9999ZM4.87514 16.6356C4.88077 16.563 4.88791 16.5149 4.88791 16.4669C4.88866 15.7545 4.88303 15.0425 4.88978 14.3302C4.90931 12.2059 6.33671 10.5325 8.43368 10.221C8.96055 10.1429 9.50507 10.1692 10.041 10.1714C10.5832 10.1737 11.1315 10.1613 11.6666 10.233C13.5086 10.4795 15.0141 12.1315 15.0997 13.9935C15.1369 14.804 15.1144 15.6174 15.12 16.4293C15.1204 16.4924 15.1275 16.5551 15.1328 16.6352C17.7071 14.6867 19.1149 11.0957 18.0251 7.52077C16.9609 4.03228 13.6742 1.6033 10.0027 1.6033C6.33408 1.60293 3.0463 4.03303 1.98204 7.52227C0.894875 11.0859 2.2896 14.6781 4.87514 16.6356ZM8.75776 10.7823C8.64435 10.7962 8.53357 10.8075 8.42392 10.824C6.86546 11.0566 5.57926 12.44 5.50904 14.0123C5.46773 14.9415 5.50078 15.8736 5.48237 16.8042C5.47824 17.0161 5.55072 17.127 5.72609 17.2296C7.25977 18.1252 8.90835 18.5081 10.6794 18.371C12.017 18.2673 13.2544 17.8589 14.393 17.1525C14.4535 17.115 14.5139 17.0195 14.5139 16.9508C14.5169 15.9702 14.5406 14.9881 14.4981 14.0089C14.4268 12.3738 13.0246 10.9454 11.3955 10.7921C11.2832 10.7816 11.2291 10.815 11.1878 10.9198C11.0917 11.1633 10.9723 11.3981 10.8821 11.6435C10.8465 11.7408 10.8356 11.8636 10.86 11.9639C11.1991 13.3706 11.5446 14.7758 11.8935 16.1802C11.9359 16.3511 11.9047 16.4815 11.7774 16.6025C11.2704 17.0842 10.768 17.5711 10.2618 18.0539C10.0721 18.2346 9.93356 18.2338 9.74279 18.0512C9.24145 17.5726 8.74425 17.0894 8.24066 16.6126C8.10809 16.4871 8.06979 16.356 8.11448 16.1764C8.46598 14.7664 8.81147 13.3548 9.15508 11.9429C9.1731 11.8689 9.17911 11.7776 9.15245 11.7096C9.03078 11.4019 8.89521 11.1006 8.75776 10.7823ZM10.0042 17.47C10.4187 17.0721 10.8213 16.69 11.2156 16.2997C11.2551 16.2606 11.2659 16.164 11.2513 16.1032C11.0448 15.2424 10.8318 14.3832 10.62 13.5235C10.501 13.0404 10.3819 12.5576 10.2633 12.0774C10.0811 12.0774 9.91515 12.0774 9.75292 12.0774C9.74279 12.1056 9.73452 12.1225 9.73039 12.1405C9.40067 13.4721 9.07058 14.8032 8.74575 16.1359C8.73373 16.1847 8.75438 16.2636 8.78968 16.2982C9.1855 16.687 9.58769 17.0702 10.0042 17.47ZM10.59 10.7906C10.1848 10.7906 9.81151 10.7906 9.41682 10.7906C9.50958 11.0074 9.58919 11.2028 9.67857 11.3936C9.69472 11.4278 9.75142 11.4609 9.79085 11.4631C9.93393 11.4714 10.0778 11.4718 10.2208 11.4627C10.2599 11.4605 10.3143 11.4244 10.3305 11.3895C10.4195 11.1986 10.4991 11.0036 10.59 10.7906Z"  stroke-width="0.3"/>
<path d="M10.0158 3.88868C11.6888 3.89168 13.0452 5.2604 13.0389 6.93946C13.0325 8.60199 11.6648 9.96207 10.0008 9.96056C8.32931 9.95906 6.96575 8.58921 6.96875 6.91466C6.97176 5.24011 8.33569 3.88567 10.0158 3.88868ZM7.56848 6.90001C7.56097 8.24807 8.65001 9.35454 9.99028 9.36093C11.3253 9.36731 12.4309 8.27662 12.4391 6.94547C12.4474 5.60268 11.3655 4.49658 10.0357 4.48869C8.68043 4.48042 7.57599 5.55984 7.56848 6.90001Z"  stroke-width="0.3"/>
</svg>
