<svg width="24" height="24" viewBox="0 0 24 24" fill="#1462B0"  xmlns="http://www.w3.org/2000/svg">
<path d="M15.1638 20.9986C14.8594 20.9986 14.5543 20.9986 14.2498 20.9986C13.8477 20.9543 13.6367 20.704 13.5243 20.3377C13.4743 20.176 13.4104 20.0171 13.3337 19.8666C13.2993 19.7985 13.2276 19.7345 13.1573 19.7028C12.8592 19.5693 12.5568 19.4434 12.2517 19.3267C12.18 19.2993 12.0816 19.2929 12.0105 19.319C11.775 19.4054 11.5472 19.5137 11.3145 19.6093C11.0783 19.7071 10.842 19.6902 10.6564 19.5165C10.3668 19.2451 10.1017 18.9484 9.82259 18.6665C9.78744 18.6307 9.73119 18.5969 9.68338 18.5941C8.86571 18.5484 8.04593 18.5336 7.23108 18.4598C6.32552 18.3775 5.43825 18.1793 4.59597 17.8263C3.90274 17.536 3.24397 17.1908 3 16.3928C3 12.6665 3 8.94024 3 5.21397C3.12093 4.76822 3.40286 4.44481 3.78111 4.19803C3.93719 4.09609 4.09749 3.99766 4.26553 3.91751C5.37567 3.39161 6.56457 3.19124 7.77244 3.07101C8.03328 3.0457 8.29412 3.0239 8.55496 3C9.04711 3 9.53925 3 10.0314 3C10.281 3.0232 10.5306 3.04711 10.7809 3.0682C11.7286 3.14905 12.6623 3.30373 13.5664 3.60605C14.1296 3.79447 14.6717 4.02859 15.1188 4.43567C15.4387 4.72674 15.6067 5.07687 15.5997 5.52121C15.5871 6.35294 15.5955 7.18538 15.5962 8.01711C15.5962 8.29834 15.5758 8.56902 15.7628 8.82986C15.9084 9.03304 15.959 9.30302 16.0652 9.53715C16.094 9.60042 16.165 9.65948 16.2304 9.68901C16.5341 9.8247 16.8413 9.95407 17.1521 10.0736C17.2231 10.101 17.3208 10.1038 17.3911 10.0778C17.6161 9.99484 17.8334 9.8922 18.0541 9.79939C18.322 9.6869 18.5744 9.71572 18.7874 9.9168C19.0258 10.1418 19.2585 10.3731 19.4821 10.6128C19.6754 10.8202 19.7148 11.0649 19.6016 11.3293C19.5025 11.5606 19.3998 11.7905 19.3112 12.0253C19.288 12.0865 19.2929 12.173 19.3168 12.2355C19.4399 12.5512 19.5685 12.8641 19.7063 13.1734C19.7352 13.2381 19.7999 13.3042 19.8645 13.3337C20.0937 13.4371 20.3314 13.5207 20.5627 13.6199C20.8024 13.7225 20.9416 13.9053 20.9705 14.1683C20.9747 14.2076 20.9902 14.2456 21 14.2843C21 14.5535 21 14.8235 21 15.0928C20.9916 15.1202 20.9768 15.1469 20.9754 15.1751C20.9592 15.5196 20.7617 15.7143 20.453 15.8268C20.2498 15.9006 20.048 15.9801 19.8519 16.0708C19.7921 16.0982 19.7338 16.1608 19.7071 16.2219C19.5714 16.532 19.4413 16.8449 19.3204 17.1605C19.2951 17.2273 19.2929 17.3201 19.3176 17.3869C19.4033 17.6168 19.5046 17.8411 19.6016 18.0661C19.7155 18.3297 19.681 18.5758 19.4877 18.7832C19.2606 19.0272 19.0244 19.2634 18.7804 19.4898C18.5723 19.6831 18.3262 19.7162 18.0633 19.6023C17.8376 19.5053 17.614 19.4033 17.3841 19.3176C17.318 19.2929 17.2252 19.2972 17.1584 19.3232C16.9904 19.3886 16.8364 19.5109 16.6642 19.5446C16.2093 19.6346 15.9709 19.9074 15.8669 20.3419C15.7797 20.7068 15.5582 20.9508 15.1638 20.9986ZM12.161 18.6208C12.2236 18.644 12.284 18.6644 12.3424 18.689C12.741 18.8542 13.1369 19.0258 13.5383 19.1826C13.6677 19.2332 13.7612 19.2986 13.8118 19.43C13.9173 19.7028 14.0333 19.9714 14.1345 20.2456C14.1711 20.3433 14.2245 20.3862 14.3258 20.3855C14.5775 20.3834 14.8284 20.382 15.0801 20.3848C15.1856 20.3855 15.2327 20.3321 15.2679 20.2393C15.3691 19.9714 15.4823 19.7078 15.5828 19.4399C15.6349 19.3007 15.7319 19.2325 15.8669 19.1805C16.2585 19.0293 16.6473 18.8711 17.0298 18.6988C17.1697 18.6363 17.2906 18.6173 17.4305 18.6792C17.6977 18.798 17.9655 18.9154 18.2383 19.0202C18.2932 19.0412 18.3923 19.0286 18.4338 18.9913C18.6243 18.8184 18.7994 18.6292 18.985 18.4507C19.0623 18.3768 19.0581 18.3079 19.0173 18.2179C18.8999 17.9564 18.7938 17.6906 18.6771 17.4291C18.6145 17.2885 18.6356 17.1676 18.6981 17.0284C18.8683 16.6515 19.0265 16.2683 19.1727 15.8816C19.229 15.7333 19.3028 15.6314 19.4554 15.5758C19.7246 15.4774 19.9904 15.3712 20.2526 15.2545C20.3075 15.2299 20.3715 15.1519 20.3743 15.0949C20.3876 14.8327 20.3883 14.569 20.3764 14.3061C20.3736 14.2498 20.311 14.1711 20.2561 14.1465C19.989 14.0284 19.7169 13.9208 19.4434 13.8181C19.2979 13.7633 19.229 13.6607 19.1755 13.5193C19.0286 13.1326 18.8739 12.7481 18.7017 12.3719C18.6342 12.225 18.6201 12.0998 18.6841 11.955C18.8008 11.6935 18.9084 11.4277 19.0258 11.1662C19.0651 11.079 19.0588 11.0178 18.9878 10.9496C18.8064 10.7753 18.6285 10.5974 18.4535 10.416C18.3811 10.3408 18.3136 10.3358 18.2201 10.378C17.9592 10.4961 17.6921 10.6009 17.4312 10.719C17.2899 10.783 17.1711 10.7626 17.0312 10.7C16.6487 10.5271 16.2606 10.3661 15.8683 10.217C15.7312 10.165 15.6356 10.0975 15.5828 9.95969C15.4802 9.69182 15.3684 9.42817 15.2672 9.1603C15.2299 9.06046 15.1807 9.00703 15.0654 9.00984C14.82 9.01687 14.5739 9.01476 14.3279 9.01055C14.2238 9.00844 14.1718 9.05203 14.1352 9.14835C14.0354 9.41692 13.9222 9.68057 13.8195 9.94774C13.7647 10.0898 13.6691 10.1636 13.5243 10.2177C13.1312 10.3647 12.7445 10.5285 12.3621 10.7007C12.2292 10.7605 12.1132 10.783 11.9782 10.7225C11.7223 10.6079 11.4607 10.5046 11.2062 10.3872C11.0959 10.3358 11.0136 10.3358 10.9264 10.4286C10.7654 10.5988 10.5995 10.764 10.4307 10.9257C10.3464 11.0066 10.3351 11.0825 10.385 11.1894C10.5004 11.4389 10.5974 11.6963 10.7134 11.9452C10.7844 12.0977 10.7661 12.2257 10.6958 12.3775C10.525 12.7481 10.3668 13.1249 10.2262 13.5081C10.1685 13.6656 10.0891 13.7689 9.93368 13.8266C9.67073 13.925 9.4134 14.0375 9.15046 14.1345C9.05203 14.1711 9.01195 14.2259 9.01336 14.3279C9.01687 14.5739 9.01828 14.82 9.01266 15.0654C9.00984 15.18 9.06539 15.2292 9.16522 15.2665C9.42747 15.3656 9.68479 15.4788 9.94844 15.5758C10.101 15.6321 10.1706 15.7368 10.2262 15.8852C10.3717 16.2726 10.5327 16.6543 10.7035 17.0312C10.7668 17.1711 10.7844 17.2906 10.7211 17.4312C10.6016 17.6977 10.4856 17.9663 10.3808 18.2397C10.3597 18.2946 10.3738 18.3937 10.4118 18.4359C10.584 18.6264 10.7738 18.8015 10.9517 18.9878C11.0199 19.0588 11.0825 19.063 11.169 19.0244C11.4305 18.907 11.6942 18.7952 11.9585 18.6841C12.0218 18.6581 12.0907 18.6426 12.161 18.6208ZM9.2967 7.22826C9.97305 7.17764 10.6522 7.14741 11.3258 7.07078C12.2229 6.96953 13.1031 6.78041 13.9348 6.41059C14.2576 6.26717 14.5662 6.09913 14.8052 5.83126C15.0619 5.54371 15.0738 5.2435 14.8024 4.97281C14.6232 4.79423 14.4101 4.63604 14.1873 4.51582C13.4525 4.12069 12.6496 3.93086 11.832 3.8008C9.88024 3.49004 7.93625 3.52168 6.00492 3.95125C5.31802 4.10452 4.64589 4.31333 4.06374 4.72955C3.44715 5.17038 3.4359 5.64495 4.06656 6.06046C4.4188 6.29248 4.81322 6.47949 5.21256 6.61659C6.53293 7.07007 7.90743 7.18678 9.2967 7.22826ZM3.59972 6.48723C3.59972 7.28451 3.61097 8.05718 3.5948 8.82915C3.58777 9.15608 3.70166 9.412 3.95828 9.58284C4.25357 9.7783 4.56082 9.97235 4.88985 10.0989C6.4345 10.6937 8.05226 10.8174 9.68901 10.7907C9.73752 10.79 9.79588 10.7535 9.83103 10.7169C10.0377 10.5018 10.2402 10.2831 10.4413 10.0623C10.7556 9.71713 11.112 9.63768 11.5261 9.87602C11.5866 9.91048 11.659 9.92454 11.7181 9.96039C11.9831 10.1235 12.2426 10.1537 12.5041 9.95266C12.5491 9.91821 12.6089 9.90204 12.663 9.87884C12.8788 9.78533 13.146 9.74244 13.2965 9.58636C13.4504 9.42606 13.4982 9.15819 13.5777 8.9325C13.7028 8.57605 13.9524 8.41012 14.3236 8.41294C14.5444 8.41434 14.7645 8.41294 14.981 8.41294C14.981 7.76189 14.981 7.13546 14.981 6.50059C14.8017 6.60886 14.6414 6.71573 14.472 6.80572C13.6494 7.24092 12.7579 7.45676 11.8481 7.60019C10.3534 7.83642 8.85236 7.86595 7.34989 7.67893C6.03656 7.51652 4.75135 7.2606 3.59972 6.48723ZM3.59972 13.6522C3.59972 14.4432 3.62011 15.1926 3.59198 15.9407C3.57581 16.3766 3.74174 16.6895 4.09749 16.887C4.47856 17.0987 4.87228 17.304 5.28427 17.4404C6.63768 17.8868 8.04101 17.993 9.457 18.0049C9.73611 18.007 9.87321 17.9248 9.98289 17.6597C10.0933 17.3911 10.1488 17.1662 9.96461 16.9187C9.91048 16.8456 9.86759 16.752 9.85353 16.6628C9.779 16.1917 9.47457 15.9702 9.04007 15.8613C8.60839 15.753 8.39255 15.4661 8.41083 15.0148C8.41153 15.0049 8.40098 14.9951 8.38763 14.9719C8.29693 14.9663 8.1985 14.9592 8.10007 14.9529C7.18186 14.8924 6.27349 14.768 5.38692 14.5121C4.75627 14.3286 4.15444 14.0804 3.59972 13.6522ZM8.41645 14.3672C8.40942 13.963 8.57183 13.6965 8.94727 13.5742C9.09702 13.5257 9.23693 13.4455 9.38809 13.4026C9.5948 13.3443 9.71221 13.2283 9.75158 13.0124C9.77408 12.888 9.81626 12.7544 9.88938 12.6546C10.1748 12.2651 10.101 11.8945 9.87813 11.5114C9.8254 11.4207 9.779 11.389 9.67846 11.3918C8.48043 11.4221 7.29154 11.3307 6.11882 11.0811C5.23998 10.8941 4.38505 10.6382 3.6405 10.1052C3.63417 10.1003 3.6187 10.1073 3.59972 10.1101C3.59972 10.8702 3.61519 11.6316 3.59339 12.3916C3.58285 12.7565 3.72627 13.0117 4.00258 13.2128C4.13476 13.3091 4.27326 13.3977 4.41739 13.4743C5.00094 13.7851 5.63018 13.9623 6.27279 14.098C6.97094 14.247 7.67753 14.3342 8.41645 14.3672Z" />
<path d="M14.7061 10.8013C16.8667 10.809 18.611 12.5653 18.6018 14.7237C18.5927 16.8498 16.8315 18.6039 14.7103 18.599C12.5132 18.5941 10.7914 16.8406 10.8027 14.621C10.8139 12.5266 12.585 10.7935 14.7061 10.8013ZM17.9979 14.6098C17.8959 12.6967 16.3654 11.2976 14.4917 11.4052C12.682 11.5086 11.3047 13.0785 11.4066 14.9205C11.5036 16.6656 13.0792 18.0816 14.8109 18.0007C16.6698 17.9128 18.045 16.3801 17.9979 14.6098Z" />
<path d="M4.78299 8.91212C4.61777 8.83056 4.44059 8.76588 4.29084 8.66112C4.17483 8.58027 4.16921 8.43754 4.24303 8.31099C4.31685 8.18514 4.43708 8.13241 4.57347 8.17389C4.70635 8.21397 4.83712 8.27232 4.95805 8.34193C5.0846 8.41505 5.11835 8.54089 5.07546 8.6787C5.03398 8.81017 4.93626 8.87556 4.78299 8.91212Z" />
<path d="M6.05414 8.6583C6.14764 8.6794 6.28123 8.69978 6.40778 8.74197C6.55402 8.79048 6.62503 8.94586 6.58777 9.09702C6.55331 9.23482 6.41762 9.33606 6.27138 9.31567C6.14553 9.2981 6.01898 9.26997 5.89805 9.2299C5.74268 9.17858 5.67307 9.03937 5.70612 8.88329C5.73635 8.74127 5.85868 8.65198 6.05414 8.6583Z" />
<path d="M15.1638 20.9986C14.8594 20.9986 14.5543 20.9986 14.2498 20.9986C13.8477 20.9543 13.6367 20.704 13.5243 20.3377C13.4743 20.176 13.4104 20.0171 13.3337 19.8666C13.2993 19.7985 13.2276 19.7345 13.1573 19.7028C12.8592 19.5693 12.5568 19.4434 12.2517 19.3267C12.18 19.2993 12.0816 19.2929 12.0105 19.319C11.775 19.4054 11.5472 19.5137 11.3145 19.6093C11.0783 19.7071 10.842 19.6902 10.6564 19.5165C10.3668 19.2451 10.1017 18.9484 9.82259 18.6665C9.78744 18.6307 9.73119 18.5969 9.68338 18.5941C8.86571 18.5484 8.04593 18.5336 7.23108 18.4598C6.32552 18.3775 5.43825 18.1793 4.59597 17.8263C3.90274 17.536 3.24397 17.1908 3 16.3928C3 12.6665 3 8.94024 3 5.21397C3.12093 4.76822 3.40286 4.44481 3.78111 4.19803C3.93719 4.09609 4.09749 3.99766 4.26553 3.91751C5.37567 3.39161 6.56457 3.19124 7.77244 3.07101C8.03328 3.0457 8.29412 3.0239 8.55496 3C9.04711 3 9.53925 3 10.0314 3C10.281 3.0232 10.5306 3.04711 10.7809 3.0682C11.7286 3.14905 12.6623 3.30373 13.5664 3.60605C14.1296 3.79447 14.6717 4.02859 15.1188 4.43567C15.4387 4.72674 15.6067 5.07687 15.5997 5.52121C15.5871 6.35294 15.5955 7.18538 15.5962 8.01711C15.5962 8.29834 15.5758 8.56902 15.7628 8.82986C15.9084 9.03304 15.959 9.30302 16.0652 9.53715C16.094 9.60042 16.165 9.65948 16.2304 9.68901C16.5341 9.8247 16.8413 9.95407 17.1521 10.0736C17.2231 10.101 17.3208 10.1038 17.3911 10.0778C17.6161 9.99484 17.8334 9.8922 18.0541 9.79939C18.322 9.6869 18.5744 9.71572 18.7874 9.9168C19.0258 10.1418 19.2585 10.3731 19.4821 10.6128C19.6754 10.8202 19.7148 11.0649 19.6016 11.3293C19.5025 11.5606 19.3998 11.7905 19.3112 12.0253C19.288 12.0865 19.2929 12.173 19.3168 12.2355C19.4399 12.5512 19.5685 12.8641 19.7063 13.1734C19.7352 13.2381 19.7999 13.3042 19.8645 13.3337C20.0937 13.4371 20.3314 13.5207 20.5627 13.6199C20.8024 13.7225 20.9416 13.9053 20.9705 14.1683C20.9747 14.2076 20.9902 14.2456 21 14.2843C21 14.5535 21 14.8235 21 15.0928C20.9916 15.1202 20.9768 15.1469 20.9754 15.1751C20.9592 15.5196 20.7617 15.7143 20.453 15.8268C20.2498 15.9006 20.048 15.9801 19.8519 16.0708C19.7921 16.0982 19.7338 16.1608 19.7071 16.2219C19.5714 16.532 19.4413 16.8449 19.3204 17.1605C19.2951 17.2273 19.2929 17.3201 19.3176 17.3869C19.4033 17.6168 19.5046 17.8411 19.6016 18.0661C19.7155 18.3297 19.681 18.5758 19.4877 18.7832C19.2606 19.0272 19.0244 19.2634 18.7804 19.4898C18.5723 19.6831 18.3262 19.7162 18.0633 19.6023C17.8376 19.5053 17.614 19.4033 17.3841 19.3176C17.318 19.2929 17.2252 19.2972 17.1584 19.3232C16.9904 19.3886 16.8364 19.5109 16.6642 19.5446C16.2093 19.6346 15.9709 19.9074 15.8669 20.3419C15.7797 20.7068 15.5582 20.9508 15.1638 20.9986ZM12.161 18.6208C12.2236 18.644 12.284 18.6644 12.3424 18.689C12.741 18.8542 13.1369 19.0258 13.5383 19.1826C13.6677 19.2332 13.7612 19.2986 13.8118 19.43C13.9173 19.7028 14.0333 19.9714 14.1345 20.2456C14.1711 20.3433 14.2245 20.3862 14.3258 20.3855C14.5775 20.3834 14.8284 20.382 15.0801 20.3848C15.1856 20.3855 15.2327 20.3321 15.2679 20.2393C15.3691 19.9714 15.4823 19.7078 15.5828 19.4399C15.6349 19.3007 15.7319 19.2325 15.8669 19.1805C16.2585 19.0293 16.6473 18.8711 17.0298 18.6988C17.1697 18.6363 17.2906 18.6173 17.4305 18.6792C17.6977 18.798 17.9655 18.9154 18.2383 19.0202C18.2932 19.0412 18.3923 19.0286 18.4338 18.9913C18.6243 18.8184 18.7994 18.6292 18.985 18.4507C19.0623 18.3768 19.0581 18.3079 19.0173 18.2179C18.8999 17.9564 18.7938 17.6906 18.6771 17.4291C18.6145 17.2885 18.6356 17.1676 18.6981 17.0284C18.8683 16.6515 19.0265 16.2683 19.1727 15.8816C19.229 15.7333 19.3028 15.6314 19.4554 15.5758C19.7246 15.4774 19.9904 15.3712 20.2526 15.2545C20.3075 15.2299 20.3715 15.1519 20.3743 15.0949C20.3876 14.8327 20.3883 14.569 20.3764 14.3061C20.3736 14.2498 20.311 14.1711 20.2561 14.1465C19.989 14.0284 19.7169 13.9208 19.4434 13.8181C19.2979 13.7633 19.229 13.6607 19.1755 13.5193C19.0286 13.1326 18.8739 12.7481 18.7017 12.3719C18.6342 12.225 18.6201 12.0998 18.6841 11.955C18.8008 11.6935 18.9084 11.4277 19.0258 11.1662C19.0651 11.079 19.0588 11.0178 18.9878 10.9496C18.8064 10.7753 18.6285 10.5974 18.4535 10.416C18.3811 10.3408 18.3136 10.3358 18.2201 10.378C17.9592 10.4961 17.6921 10.6009 17.4312 10.719C17.2899 10.783 17.1711 10.7626 17.0312 10.7C16.6487 10.5271 16.2606 10.3661 15.8683 10.217C15.7312 10.165 15.6356 10.0975 15.5828 9.95969C15.4802 9.69182 15.3684 9.42817 15.2672 9.1603C15.2299 9.06046 15.1807 9.00703 15.0654 9.00984C14.82 9.01687 14.5739 9.01476 14.3279 9.01055C14.2238 9.00844 14.1718 9.05203 14.1352 9.14835C14.0354 9.41692 13.9222 9.68057 13.8195 9.94774C13.7647 10.0898 13.6691 10.1636 13.5243 10.2177C13.1312 10.3647 12.7445 10.5285 12.3621 10.7007C12.2292 10.7605 12.1132 10.783 11.9782 10.7225C11.7223 10.6079 11.4607 10.5046 11.2062 10.3872C11.0959 10.3358 11.0136 10.3358 10.9264 10.4286C10.7654 10.5988 10.5995 10.764 10.4307 10.9257C10.3464 11.0066 10.3351 11.0825 10.385 11.1894C10.5004 11.4389 10.5974 11.6963 10.7134 11.9452C10.7844 12.0977 10.7661 12.2257 10.6958 12.3775C10.525 12.7481 10.3668 13.1249 10.2262 13.5081C10.1685 13.6656 10.0891 13.7689 9.93368 13.8266C9.67073 13.925 9.4134 14.0375 9.15046 14.1345C9.05203 14.1711 9.01195 14.2259 9.01336 14.3279C9.01687 14.5739 9.01828 14.82 9.01266 15.0654C9.00984 15.18 9.06539 15.2292 9.16522 15.2665C9.42747 15.3656 9.68479 15.4788 9.94844 15.5758C10.101 15.6321 10.1706 15.7368 10.2262 15.8852C10.3717 16.2726 10.5327 16.6543 10.7035 17.0312C10.7668 17.1711 10.7844 17.2906 10.7211 17.4312C10.6016 17.6977 10.4856 17.9663 10.3808 18.2397C10.3597 18.2946 10.3738 18.3937 10.4118 18.4359C10.584 18.6264 10.7738 18.8015 10.9517 18.9878C11.0199 19.0588 11.0825 19.063 11.169 19.0244C11.4305 18.907 11.6942 18.7952 11.9585 18.6841C12.0218 18.6581 12.0907 18.6426 12.161 18.6208ZM9.2967 7.22826C9.97305 7.17764 10.6522 7.14741 11.3258 7.07078C12.2229 6.96953 13.1031 6.78041 13.9348 6.41059C14.2576 6.26717 14.5662 6.09913 14.8052 5.83126C15.0619 5.54371 15.0738 5.2435 14.8024 4.97281C14.6232 4.79423 14.4101 4.63604 14.1873 4.51582C13.4525 4.12069 12.6496 3.93086 11.832 3.8008C9.88024 3.49004 7.93625 3.52168 6.00492 3.95125C5.31802 4.10452 4.64589 4.31333 4.06374 4.72955C3.44715 5.17038 3.4359 5.64495 4.06656 6.06046C4.4188 6.29248 4.81322 6.47949 5.21256 6.61659C6.53293 7.07007 7.90743 7.18678 9.2967 7.22826ZM3.59972 6.48723C3.59972 7.28451 3.61097 8.05718 3.5948 8.82915C3.58777 9.15608 3.70166 9.412 3.95828 9.58284C4.25357 9.7783 4.56082 9.97235 4.88985 10.0989C6.4345 10.6937 8.05226 10.8174 9.68901 10.7907C9.73752 10.79 9.79588 10.7535 9.83103 10.7169C10.0377 10.5018 10.2402 10.2831 10.4413 10.0623C10.7556 9.71713 11.112 9.63768 11.5261 9.87602C11.5866 9.91048 11.659 9.92454 11.7181 9.96039C11.9831 10.1235 12.2426 10.1537 12.5041 9.95266C12.5491 9.91821 12.6089 9.90204 12.663 9.87884C12.8788 9.78533 13.146 9.74244 13.2965 9.58636C13.4504 9.42606 13.4982 9.15819 13.5777 8.9325C13.7028 8.57605 13.9524 8.41012 14.3236 8.41294C14.5444 8.41434 14.7645 8.41294 14.981 8.41294C14.981 7.76189 14.981 7.13546 14.981 6.50059C14.8017 6.60886 14.6414 6.71573 14.472 6.80572C13.6494 7.24092 12.7579 7.45676 11.8481 7.60019C10.3534 7.83642 8.85236 7.86595 7.34989 7.67893C6.03656 7.51652 4.75135 7.2606 3.59972 6.48723ZM3.59972 13.6522C3.59972 14.4432 3.62011 15.1926 3.59198 15.9407C3.57581 16.3766 3.74174 16.6895 4.09749 16.887C4.47856 17.0987 4.87228 17.304 5.28427 17.4404C6.63768 17.8868 8.04101 17.993 9.457 18.0049C9.73611 18.007 9.87321 17.9248 9.98289 17.6597C10.0933 17.3911 10.1488 17.1662 9.96461 16.9187C9.91048 16.8456 9.86759 16.752 9.85353 16.6628C9.779 16.1917 9.47457 15.9702 9.04007 15.8613C8.60839 15.753 8.39255 15.4661 8.41083 15.0148C8.41153 15.0049 8.40098 14.9951 8.38763 14.9719C8.29693 14.9663 8.1985 14.9592 8.10007 14.9529C7.18186 14.8924 6.27349 14.768 5.38692 14.5121C4.75627 14.3286 4.15444 14.0804 3.59972 13.6522ZM8.41645 14.3672C8.40942 13.963 8.57183 13.6965 8.94727 13.5742C9.09702 13.5257 9.23693 13.4455 9.38809 13.4026C9.5948 13.3443 9.71221 13.2283 9.75158 13.0124C9.77408 12.888 9.81626 12.7544 9.88938 12.6546C10.1748 12.2651 10.101 11.8945 9.87813 11.5114C9.8254 11.4207 9.779 11.389 9.67846 11.3918C8.48043 11.4221 7.29154 11.3307 6.11882 11.0811C5.23998 10.8941 4.38505 10.6382 3.6405 10.1052C3.63417 10.1003 3.6187 10.1073 3.59972 10.1101C3.59972 10.8702 3.61519 11.6316 3.59339 12.3916C3.58285 12.7565 3.72627 13.0117 4.00258 13.2128C4.13476 13.3091 4.27326 13.3977 4.41739 13.4743C5.00094 13.7851 5.63018 13.9623 6.27279 14.098C6.97094 14.247 7.67753 14.3342 8.41645 14.3672Z"  stroke-width="0.3"/>
<path d="M14.7061 10.8013C16.8667 10.809 18.611 12.5653 18.6018 14.7237C18.5927 16.8498 16.8315 18.6039 14.7103 18.599C12.5132 18.5941 10.7914 16.8406 10.8027 14.621C10.8139 12.5266 12.585 10.7935 14.7061 10.8013ZM17.9979 14.6098C17.8959 12.6967 16.3654 11.2976 14.4917 11.4052C12.682 11.5086 11.3047 13.0785 11.4066 14.9205C11.5036 16.6656 13.0792 18.0816 14.8109 18.0007C16.6698 17.9128 18.045 16.3801 17.9979 14.6098Z"  stroke-width="0.3"/>
<path d="M4.78299 8.91212C4.61777 8.83056 4.44059 8.76588 4.29084 8.66112C4.17483 8.58027 4.16921 8.43754 4.24303 8.31099C4.31685 8.18514 4.43708 8.13241 4.57347 8.17389C4.70635 8.21397 4.83712 8.27232 4.95805 8.34193C5.0846 8.41505 5.11835 8.54089 5.07546 8.6787C5.03398 8.81017 4.93626 8.87556 4.78299 8.91212Z"  stroke-width="0.3"/>
<path d="M6.05414 8.6583C6.14764 8.6794 6.28123 8.69978 6.40778 8.74197C6.55402 8.79048 6.62503 8.94586 6.58777 9.09702C6.55331 9.23482 6.41762 9.33606 6.27138 9.31567C6.14553 9.2981 6.01898 9.26997 5.89805 9.2299C5.74268 9.17858 5.67307 9.03937 5.70612 8.88329C5.73635 8.74127 5.85868 8.65198 6.05414 8.6583Z"  stroke-width="0.3"/>
</svg>
