<svg width="20" height="20" viewBox="0 0 20 20" fill="#6B7280" stroke="#6B7280" xmlns="http://www.w3.org/2000/svg">
<path d="M1 9.4221C1.05625 9.28851 1.09703 9.14543 1.17191 9.02308C1.39058 8.66555 1.7235 8.48661 2.13904 8.48556C4.13025 8.48134 6.12146 8.47852 8.11267 8.48661C8.78766 8.48942 9.25031 8.98336 9.25136 9.67487C9.25453 11.2062 9.25242 12.738 9.25242 14.2693C9.25242 15.3743 9.25242 16.4789 9.25242 17.5838C9.25242 18.3938 9.0573 18.6803 8.31201 18.9658C6.19107 18.9658 4.06978 18.9658 1.94885 18.9658C1.78186 18.8895 1.60327 18.8311 1.45069 18.7331C1.19476 18.5689 1.0798 18.3017 1 18.0187C1 15.1532 1 12.2876 1 9.4221ZM8.49692 13.7269C8.49692 12.3882 8.49728 11.0491 8.49657 9.71038C8.49622 9.35671 8.37669 9.23859 8.02021 9.23859C6.09299 9.23824 4.16576 9.23824 2.23853 9.23859C1.86799 9.23859 1.74706 9.36093 1.74706 9.73604C1.7467 12.3963 1.7467 15.0565 1.74706 17.7167C1.74706 18.0932 1.87608 18.2208 2.25505 18.2208C4.17068 18.2212 6.08596 18.2212 8.00158 18.2208C8.37423 18.2208 8.49622 18.0985 8.49657 17.7265C8.49728 16.3927 8.49692 15.0596 8.49692 13.7269Z"  stroke-width="0.2"/>
<path d="M18.9996 10.5448C18.9633 10.6425 18.9356 10.7445 18.8888 10.837C18.6768 11.2564 18.3277 11.4789 17.8612 11.4807C15.8704 11.4866 13.8795 11.4887 11.8886 11.4803C11.2136 11.4775 10.7492 10.9832 10.7478 10.2942C10.7447 8.72797 10.7468 7.16144 10.7468 5.59526C10.7468 4.47907 10.7464 3.36288 10.7468 2.24634C10.7471 1.46202 11.2066 1.00113 11.9874 1.00113C13.8672 1.00078 15.7466 1.00113 17.6264 1.00113C18.4402 1.00113 18.7127 1.18922 18.9996 1.94858C18.9996 4.81375 18.9996 7.67928 18.9996 10.5448ZM11.5026 6.24705C11.5026 7.58014 11.5023 8.91324 11.503 10.246C11.503 10.6116 11.6204 10.7287 11.9864 10.7287C13.9076 10.729 15.8292 10.729 17.7505 10.7287C18.1344 10.7287 18.2525 10.6099 18.2525 10.2238C18.2528 7.5696 18.2528 4.915 18.2525 2.26076C18.2525 1.87088 18.1277 1.74643 17.7368 1.74643C15.8271 1.74608 13.9175 1.74608 12.0078 1.74643C11.6207 1.74643 11.503 1.8635 11.5026 2.24775C11.5023 3.5812 11.5026 4.91395 11.5026 6.24705Z"  stroke-width="0.2"/>
<path d="M1 1.91335C1.0232 1.85534 1.04781 1.79768 1.06961 1.73897C1.22851 1.30902 1.63034 1.00528 2.08701 1.00422C4.11303 0.999301 6.13939 0.997543 8.16541 1.00528C8.75743 1.00739 9.23835 1.48761 9.24609 2.10213C9.26191 3.36422 9.26332 4.627 9.24574 5.88909C9.2366 6.5465 8.73774 6.98946 8.05924 6.99157C6.84707 6.99473 5.63491 6.99262 4.42275 6.99262C3.74354 6.99262 3.06433 6.99262 2.38478 6.99262C1.57304 6.99262 1.28406 6.7968 1 6.05397C1 4.67376 1 3.29355 1 1.91335ZM5.1125 6.23818C6.07892 6.23818 7.04535 6.23853 8.01178 6.23783C8.37845 6.23748 8.49622 6.12076 8.49657 5.75655C8.49728 4.58165 8.49728 3.4064 8.49657 2.2315C8.49622 1.87116 8.37212 1.74741 8.00932 1.74741C6.08806 1.74706 4.16681 1.74706 2.24556 1.74741C1.87854 1.74741 1.74706 1.87819 1.7467 2.24275C1.746 3.41203 1.746 4.5813 1.7467 5.75022C1.74706 6.11338 1.8701 6.23783 2.23009 6.23783C3.19125 6.23853 4.15205 6.23818 5.1125 6.23818Z"  stroke-width="0.2"/>
<path d="M11.6872 18.9664C11.5389 18.901 11.3782 18.8542 11.2446 18.766C10.9131 18.5473 10.7503 18.2235 10.7489 17.8298C10.7444 16.5906 10.7405 15.3513 10.75 14.1125C10.7553 13.4593 11.2334 12.9804 11.888 12.978C13.8792 12.9702 15.87 12.9717 17.8613 12.9776C18.4174 12.9794 18.8175 13.3091 18.9697 13.8519C18.9757 13.8737 18.9898 13.8931 18.9999 13.9135C18.9999 15.2821 18.9999 16.6503 18.9999 18.0189C18.9606 18.1265 18.9296 18.2383 18.8801 18.3413C18.7117 18.6901 18.4118 18.8697 18.0507 18.9664C15.9295 18.9664 13.8082 18.9664 11.6872 18.9664ZM14.879 13.7296C13.9186 13.7296 12.9578 13.7293 11.9973 13.7296C11.6166 13.7296 11.5034 13.8418 11.503 14.2186C11.5027 15.3879 11.5027 16.5572 11.503 17.7261C11.503 18.0987 11.6247 18.2204 11.9977 18.2204C13.9129 18.2207 15.8282 18.2207 17.7438 18.2204C18.1228 18.2204 18.2525 18.0921 18.2529 17.717C18.2532 16.5537 18.2532 15.3904 18.2529 14.2267C18.2529 13.8527 18.1309 13.7296 17.7611 13.7293C16.8003 13.7293 15.8395 13.7296 14.879 13.7296Z"  stroke-width="0.2"/>
</svg>
