<svg width="22" height="21" viewBox="0 0 22 21" fill="#1462B0" stroke="#1462B0" xmlns="http://www.w3.org/2000/svg">
<path d="M1 17.2044C1.03277 17.059 1.05734 16.9116 1.10034 16.7703C1.47919 15.4945 2.32085 14.7204 3.63145 14.4624C3.69493 14.4501 3.75842 14.4358 3.84033 14.4194C3.84033 14.3088 3.84033 14.2003 3.84033 14.0917C3.83623 12.5313 3.70722 12.6562 5.282 12.6583C7.03903 12.6603 8.79606 12.6583 10.5531 12.6583C10.6289 12.6583 10.7067 12.6583 10.7927 12.6583C10.7927 12.2548 10.7927 11.8739 10.7927 11.5012C10.4138 11.4255 10.035 11.3702 9.66843 11.2719C7.34211 10.6432 5.72228 8.38854 5.86972 5.9803C5.8902 5.63832 5.95573 5.29838 6.01716 4.96049C6.06222 4.72089 6.20556 4.6226 6.39192 4.66765C6.56598 4.71065 6.63765 4.8581 6.58236 5.0895C6.32024 6.17894 6.41649 7.23152 6.89773 8.24519C7.13323 8.74282 7.45064 9.1831 7.85201 9.56809C7.87044 9.54351 7.88887 9.53123 7.89092 9.51484C7.99536 8.89231 8.38854 8.51755 8.95374 8.30253C9.19538 8.21038 9.44931 8.14895 9.69505 8.06499C9.77287 8.03836 9.8384 7.97693 9.88755 7.94621C9.62952 7.66566 9.37354 7.42402 9.16057 7.14961C8.83701 6.73185 8.6609 6.25062 8.69572 5.71409C8.72643 5.25537 8.71824 4.78233 8.83087 4.34409C9.11347 3.25056 10.0944 2.55225 11.192 2.59525C12.2774 2.63826 13.205 3.42462 13.4016 4.53659C13.4897 5.03011 13.502 5.54821 13.4692 6.04993C13.4282 6.68885 13.0658 7.19057 12.6132 7.6247C12.5149 7.7189 12.4064 7.80082 12.2692 7.91754C12.3429 7.97079 12.4023 8.03427 12.476 8.06089C12.6398 8.12028 12.8139 8.15714 12.9798 8.21038C13.7805 8.47045 14.0221 8.7121 14.3231 9.56809C14.3682 9.52713 14.4132 9.49437 14.4501 9.45546C15.6726 8.10389 16.074 6.53936 15.5088 4.80895C14.9395 3.06625 13.7026 1.97476 11.8883 1.66964C9.91826 1.33789 8.34554 2.06077 7.19876 3.69698C7.0165 3.95501 6.86906 4.02668 6.69909 3.90791C6.53936 3.79528 6.53731 3.62736 6.70728 3.37752C7.6288 2.01777 8.90254 1.2314 10.5367 1.03481C10.5736 1.02867 10.6084 1.01229 10.6452 1C10.9442 1 11.2432 1 11.5442 1C11.9538 1.09215 12.3757 1.15154 12.7729 1.28055C15.0173 2.01777 16.5082 4.27037 16.3177 6.60489C16.1027 9.23634 14.1163 11.233 11.4848 11.4623C11.4603 11.4644 11.4357 11.4705 11.3988 11.4746C11.3988 11.8596 11.3988 12.2405 11.3988 12.6562C11.4767 12.6562 11.5586 12.6562 11.6384 12.6562C13.6105 12.6562 15.5825 12.6562 17.5546 12.6562C17.7266 12.6562 17.9109 12.6501 18.0174 12.8057C18.0891 12.9122 18.1423 13.0514 18.1485 13.1784C18.1648 13.588 18.1546 13.9975 18.1546 14.4214C19.2113 14.5648 20.0325 15.0665 20.5731 15.9839C20.9601 16.6433 21.083 17.358 20.9458 18.1096C20.6632 19.6475 19.2993 20.7328 17.7307 20.6755C16.2133 20.6202 14.919 19.412 14.7552 17.8966C14.5668 16.1375 15.8365 14.5996 17.5607 14.4153C17.5607 14.0344 17.5607 13.6535 17.5607 13.2583C15.5068 13.2583 13.461 13.2583 11.4029 13.2583C11.4029 13.6453 11.4029 14.0344 11.4029 14.3723C11.8043 14.5156 12.2077 14.6119 12.5661 14.7962C13.7518 15.4023 14.4173 16.7662 14.188 18.0481C13.9402 19.4365 12.8815 20.4748 11.5115 20.6448C10.3135 20.7922 9.3244 20.3785 8.60152 19.4222C7.88683 18.4761 7.78443 17.4256 8.21857 16.3218C8.23905 16.2686 8.26362 16.2133 8.29229 16.1641C8.3824 16.0126 8.52779 15.9634 8.67319 16.0331C8.81654 16.1027 8.86364 16.246 8.81654 16.4119C8.72438 16.7355 8.60971 17.057 8.56465 17.3867C8.48684 17.9457 8.70595 18.6154 9.07047 19.0679C9.23224 18.6236 9.49027 18.2611 9.87526 17.9826C9.62543 17.5833 9.53737 17.1635 9.66434 16.7109C9.75854 16.3791 9.94489 16.1129 10.2234 15.9122C10.7845 15.5068 11.5504 15.5395 12.0644 15.988C12.6357 16.4836 12.7299 17.1921 12.3204 17.9846C12.691 18.259 12.9593 18.6174 13.1231 19.0864C13.6555 18.3143 13.7907 17.5116 13.4733 16.6576C12.8999 15.1156 11.0528 14.5279 9.68072 15.4371C9.64795 15.4597 9.61724 15.4822 9.58242 15.5006C9.42474 15.5907 9.26091 15.56 9.17081 15.4249C9.08071 15.2877 9.10938 15.1259 9.26091 15.0153C9.64386 14.7347 10.0719 14.5525 10.5408 14.4706C10.6227 14.4562 10.7067 14.4419 10.7947 14.4276C10.7947 14.0364 10.7947 13.6555 10.7947 13.2583C8.67729 13.2583 6.56803 13.2583 4.44239 13.2583C4.44239 13.6453 4.44239 14.0303 4.44239 14.3948C4.75775 14.489 5.07107 14.5545 5.36186 14.6754C6.6397 15.2057 7.42607 16.586 7.23971 17.9375C7.04312 19.3669 5.94139 20.4727 4.54068 20.6468C2.82256 20.8618 1.30717 19.713 1.03277 17.9969C1.02867 17.9662 1.01229 17.9375 1 17.9089C1 17.6734 1 17.4399 1 17.2044ZM11.0978 10.8889C12.005 10.8889 12.8426 10.6432 13.6023 10.1497C13.6678 10.1067 13.7293 10.0022 13.7313 9.92236C13.7497 9.31621 13.5388 9.03565 12.9347 8.8063C12.7975 8.7551 12.6869 8.75305 12.5538 8.83497C12.2139 9.04999 11.8576 9.24044 11.5156 9.45136C11.2309 9.62543 10.9586 9.62543 10.6739 9.44931C10.3196 9.23224 9.95922 9.02337 9.59881 8.81858C9.54147 8.78582 9.45955 8.75101 9.40426 8.76739C8.82678 8.93531 8.44179 9.1831 8.45202 9.88755C8.45407 10.0207 8.49298 10.1005 8.60561 10.1681C9.3674 10.6411 10.1947 10.891 11.0978 10.8889ZM6.15027 19.0597C6.80558 18.3 6.9735 16.7498 5.87791 15.7034C4.88062 14.7491 3.27513 14.7798 2.30856 15.775C1.26417 16.8501 1.48943 18.3635 2.11197 19.0556C2.2676 18.6113 2.53791 18.2549 2.90652 17.9805C2.40481 17.186 2.68741 16.4119 3.12973 16.0146C3.63555 15.5621 4.39529 15.5027 4.95434 15.8795C5.24513 16.0761 5.44787 16.3402 5.55026 16.6761C5.68951 17.1368 5.6117 17.573 5.35162 17.9846C5.73456 18.2631 5.99259 18.6195 6.15027 19.0597ZM16.631 17.9887C16.2317 17.0938 16.3423 16.4119 16.9505 15.9409C17.4973 15.5191 18.2631 15.5252 18.7935 15.9552C19.0597 16.1723 19.2359 16.4467 19.3137 16.7805C19.414 17.2085 19.3198 17.6037 19.0986 17.9539C19.2645 18.13 19.4345 18.2836 19.5697 18.4638C19.7007 18.642 19.7929 18.8468 19.9034 19.0413C20.5936 18.1894 20.6632 16.6597 19.5758 15.6685C18.5437 14.7266 16.9628 14.7921 16.0085 15.8098C15.0051 16.8788 15.2385 18.3799 15.8488 19.0516C16.0003 18.6113 16.2686 18.2611 16.631 17.9887ZM9.27934 5.58917C9.28344 5.6977 9.26706 5.88406 9.30597 6.05812C9.46979 6.79943 9.9326 7.30729 10.6125 7.60218C10.8214 7.69228 11.0896 7.73529 11.3108 7.69228C12.2589 7.51412 13.0023 6.46768 12.9019 5.57074C12.6542 5.39258 12.4289 5.25333 12.2323 5.08131C12.1115 4.97482 12.007 4.94411 11.8657 4.99735C11.3517 5.18984 10.8377 5.19394 10.3237 4.9953C10.293 4.98301 10.2582 4.97073 10.2295 4.97482C10.1579 4.98916 10.0759 4.99735 10.0207 5.03626C9.78106 5.20827 9.55375 5.38439 9.27934 5.58917ZM11.0835 20.0959C11.5995 20.0898 12.0726 19.9505 12.5026 19.6679C12.5907 19.6106 12.6255 19.5553 12.603 19.4468C12.521 19.0311 12.3101 18.6993 11.962 18.4618C11.9169 18.4311 11.8248 18.4249 11.7715 18.4495C11.3169 18.6604 10.8705 18.6604 10.4159 18.4495C10.3606 18.4249 10.2623 18.4372 10.2111 18.472C9.8814 18.6993 9.68277 19.0188 9.59061 19.4079C9.56194 19.5307 9.59061 19.6086 9.70324 19.6802C10.1271 19.9464 10.5859 20.0857 11.0835 20.0959ZM4.12293 20.0939C4.64103 20.0837 5.10793 19.9464 5.53388 19.67C5.63013 19.6086 5.66699 19.541 5.64241 19.4304C5.55231 19.0331 5.35572 18.7055 5.01987 18.4741C4.96458 18.4372 4.8581 18.427 4.79666 18.4556C4.35433 18.6543 3.91815 18.6563 3.47582 18.4597C3.41029 18.4311 3.29356 18.4393 3.23622 18.4802C2.91676 18.7075 2.71812 19.0188 2.62802 19.4038C2.5973 19.5307 2.61983 19.6045 2.73451 19.6761C3.1625 19.9485 3.62736 20.0837 4.12293 20.0939ZM17.8659 20.0939C18.3696 20.0857 18.8427 19.9464 19.2748 19.6659C19.371 19.6024 19.3976 19.541 19.3731 19.4263C19.2891 19.0413 19.0925 18.7321 18.7833 18.4884C18.6932 18.4167 18.6154 18.4024 18.5027 18.4577C18.0788 18.6625 17.6467 18.6645 17.2249 18.4577C17.1102 18.4024 17.0365 18.4188 16.9443 18.4904C16.6392 18.728 16.4488 19.0352 16.3587 19.4079C16.3279 19.5348 16.3628 19.6106 16.4754 19.6802C16.8972 19.9464 17.358 20.0837 17.8659 20.0939ZM9.33259 4.83762C9.34487 4.83557 9.35921 4.83557 9.36945 4.82943C9.40221 4.8069 9.43703 4.78642 9.4616 4.75775C9.77901 4.35843 10.1763 4.30518 10.633 4.47515C10.9217 4.58369 11.2125 4.60212 11.5074 4.48949C11.5975 4.45468 11.6958 4.44034 11.79 4.41372C12.0992 4.32976 12.3675 4.39324 12.5927 4.62669C12.6705 4.70656 12.7586 4.77823 12.863 4.87243C12.7955 3.89767 11.9722 3.15021 11.0425 3.17888C10.1497 3.2055 9.39812 3.93248 9.33259 4.83762ZM11.0937 18.0235C11.5893 18.0235 12.005 17.6078 12.0009 17.1143C11.9989 16.6228 11.5995 16.2235 11.106 16.2174C10.6022 16.2112 10.1947 16.6105 10.1886 17.1123C10.1845 17.6058 10.5981 18.0235 11.0937 18.0235ZM5.03011 17.1164C5.03011 16.6105 4.63079 16.2133 4.12498 16.2153C3.63145 16.2174 3.23008 16.6146 3.22598 17.1061C3.22189 17.6058 3.62736 18.0174 4.12498 18.0194C4.62464 18.0256 5.03011 17.6181 5.03011 17.1164ZM16.9628 17.1143C16.9607 17.616 17.3662 18.0235 17.8638 18.0235C18.3614 18.0235 18.769 17.6099 18.7669 17.1123C18.7649 16.6208 18.3655 16.2215 17.872 16.2174C17.3662 16.2133 16.9648 16.6085 16.9628 17.1143ZM11.7531 8.17966C11.3128 8.35782 10.8685 8.34963 10.4343 8.18171C10.3524 8.29025 10.2807 8.38649 10.2029 8.49298C10.4835 8.65885 10.7497 8.81858 11.02 8.97012C11.0569 8.9906 11.1265 8.9947 11.1613 8.97422C11.4377 8.81858 11.7101 8.65681 11.9886 8.49298C11.9087 8.38854 11.8391 8.29639 11.7531 8.17966Z"  stroke-width="0.2"/>
</svg>