<svg width="24" height="24" viewBox="0 0 24 24" fill="#1462B0"  xmlns="http://www.w3.org/2000/svg">
<path d="M11.5001 21C11.2244 20.9525 10.9462 20.9152 10.673 20.8553C10.1951 20.7507 9.73809 20.5891 9.33527 20.3014C8.92259 20.007 8.70287 19.6292 8.71062 19.0989C8.72963 17.7877 8.72541 16.476 8.71238 15.1648C8.7078 14.7 8.89618 14.3531 9.24795 14.0774C9.69654 13.7257 10.2208 13.5447 10.7716 13.4348C11.8564 13.219 12.9286 13.2602 13.9783 13.6278C14.3459 13.7566 14.6871 13.938 14.9667 14.2169C15.2142 14.4633 15.3441 14.7542 15.3427 15.1116C15.3364 16.4521 15.3307 17.7929 15.3452 19.1334C15.3505 19.6201 15.1501 19.9789 14.7779 20.2585C14.2533 20.6528 13.6413 20.8254 13.005 20.9289C12.8557 20.9532 12.7064 20.9757 12.5571 20.999C12.2043 21 11.8522 21 11.5001 21ZM12.029 16.232C12.4684 16.1697 12.9117 16.1264 13.3462 16.0394C13.7853 15.9517 14.2015 15.788 14.5399 15.4781C14.8522 15.1922 14.8681 14.8781 14.5476 14.6066C14.342 14.4324 14.0994 14.2785 13.8473 14.1859C12.6913 13.7623 11.5198 13.7647 10.348 14.1295C10.0328 14.2278 9.73774 14.3718 9.49795 14.6063C9.20745 14.8905 9.20182 15.1788 9.499 15.4563C9.62964 15.5781 9.78422 15.6831 9.94408 15.7637C10.5965 16.0943 11.3011 16.1887 12.029 16.232ZM9.28069 16.0743C9.28069 16.3989 9.28773 16.738 9.27823 17.0767C9.27224 17.2873 9.33668 17.4732 9.50112 17.5859C9.75429 17.7595 10.0159 17.9412 10.3011 18.0444C11.2571 18.3905 12.2413 18.4039 13.2307 18.2021C13.6526 18.1162 14.0568 17.9778 14.4086 17.7197C14.5762 17.5968 14.7515 17.4549 14.7638 17.2391C14.7867 16.8458 14.7702 16.45 14.7702 16.0774C12.9381 17.0028 11.1223 16.9989 9.28069 16.0743ZM14.7716 18.2074C12.9385 19.1394 11.1173 19.1334 9.28034 18.2056C9.28034 18.4796 9.30288 18.7725 9.27471 19.0606C9.23668 19.4496 9.42647 19.6944 9.72577 19.8863C9.84337 19.9616 9.96732 20.032 10.0969 20.0842C11.1258 20.4983 12.1842 20.5289 13.2582 20.3081C13.6916 20.219 14.1138 20.0821 14.454 19.7887C14.5885 19.6729 14.7385 19.5007 14.7572 19.3398C14.8019 18.9606 14.7716 18.5729 14.7716 18.2074Z" />
<path d="M20.0565 9.0513C19.9329 9.38933 19.6882 9.51328 19.3332 9.5094C18.2656 9.49849 17.198 9.50553 16.1304 9.50518C15.6674 9.50518 15.4469 9.28792 15.4466 8.83087C15.4462 7.39635 15.4487 5.96183 15.4441 4.52767C15.4434 4.30231 15.5103 4.12062 15.6748 3.96393C15.929 3.72132 16.1758 3.47026 16.4213 3.2185C16.5646 3.07131 16.729 3.0023 16.9378 3.00406C17.7237 3.0104 18.5104 3.02026 19.2959 3.00054C19.6537 2.99138 19.9093 3.09737 20.0565 3.42836C20.0565 5.30267 20.0565 7.17699 20.0565 9.0513ZM19.4808 8.93264C19.4808 7.13544 19.4808 5.35866 19.4808 3.57836C18.7283 3.57836 17.9868 3.57836 17.2487 3.57836C17.241 3.59914 17.2336 3.6097 17.2336 3.61991C17.2318 3.8597 17.2301 4.09949 17.2294 4.33964C17.2283 4.71006 17.1621 4.77556 16.7853 4.77556C16.5297 4.77556 16.2744 4.77556 16.0205 4.77556C16.0205 6.17768 16.0205 7.55058 16.0205 8.93228C17.1776 8.93264 18.3241 8.93264 19.4808 8.93264ZM16.6544 3.80019C16.516 3.94632 16.3987 4.07027 16.2748 4.20055C16.398 4.20055 16.5209 4.20055 16.6544 4.20055C16.6544 4.07414 16.6544 3.95513 16.6544 3.80019Z" />
<path d="M4 4.30723C4.09824 4.17167 4.18451 4.02483 4.29789 3.903C4.52536 3.65899 4.76867 3.42941 5.00423 3.19278C5.13064 3.06602 5.27818 3.0044 5.46058 3.00546C6.31094 3.00898 7.1613 3.00616 8.01166 3.00757C8.36765 3.00792 8.6092 3.24278 8.60955 3.60124C8.61201 5.36886 8.61201 7.13648 8.60955 8.9041C8.6092 9.25939 8.3687 9.5027 8.01271 9.50411C6.87503 9.50798 5.73734 9.50657 4.59965 9.50517C4.28768 9.50446 4.1074 9.32418 4 9.05129C4 7.46994 4 5.88858 4 4.30723ZM5.78452 3.57483C5.78452 3.86145 5.78558 4.13012 5.78417 4.39913C5.78241 4.68857 5.69544 4.77449 5.40424 4.77554C5.12994 4.7766 4.85599 4.7759 4.57782 4.7759C4.57782 6.17521 4.57782 7.55268 4.57782 8.93298C5.73699 8.93298 6.88383 8.93298 8.0349 8.93298C8.0349 7.14106 8.0349 5.3597 8.0349 3.57518C7.28419 3.57483 6.54685 3.57483 5.78452 3.57483ZM5.20811 3.84666C5.08381 3.9604 4.95599 4.07695 4.8236 4.19843C4.95811 4.19843 5.08205 4.19843 5.20811 4.19843C5.20811 4.06462 5.20811 3.94631 5.20811 3.84666Z" />
<path d="M14.3304 6.25519C14.3304 7.11012 14.3311 7.96471 14.33 8.81965C14.3297 9.2943 14.1177 9.50522 13.6427 9.50557C12.5634 9.50592 11.4839 9.50592 10.4046 9.50557C9.94158 9.50522 9.7275 9.29183 9.7275 8.82845C9.72679 7.39393 9.72996 5.95976 9.72468 4.52524C9.72398 4.29179 9.79722 4.10974 9.96729 3.94953C10.2233 3.70868 10.4687 3.45657 10.7148 3.20516C10.85 3.06713 11.006 3.00375 11.2015 3.0048C12.0286 3.00973 12.8557 3.00656 13.6828 3.00692C14.1127 3.00692 14.3289 3.22136 14.33 3.65587C14.3314 4.52242 14.3304 5.38863 14.3304 6.25519ZM11.5025 3.57523C11.5025 3.86361 11.5032 4.13756 11.5022 4.41115C11.5011 4.68721 11.4131 4.77419 11.1314 4.77524C10.8571 4.7763 10.5831 4.77559 10.305 4.77559C10.305 6.17526 10.305 7.55238 10.305 8.93408C11.4606 8.93408 12.6018 8.93408 13.7536 8.93408C13.7536 7.14428 13.7536 5.36328 13.7536 3.57523C13.0043 3.57523 12.267 3.57523 11.5025 3.57523ZM10.9314 3.88333C10.8307 3.97418 10.7007 4.09143 10.5786 4.20165C10.6853 4.20165 10.805 4.20165 10.9314 4.20165C10.9314 4.0696 10.9314 3.94847 10.9314 3.88333Z" />
<path d="M16.3343 12.7034C16.4526 12.7474 16.541 12.7749 16.6248 12.8126C16.7698 12.8777 16.8202 12.9985 16.7801 13.1453C16.7389 13.2967 16.6184 13.3795 16.4712 13.3372C16.1339 13.2407 15.8001 13.1298 15.4726 13.0045C15.336 12.952 15.3054 12.8094 15.3483 12.6735C15.4413 12.3781 15.5403 12.084 15.6445 11.7925C15.704 11.6259 15.8427 11.5548 15.9881 11.5992C16.1455 11.6471 16.2195 11.7861 16.179 11.9615C16.1663 12.0168 16.148 12.071 16.1212 12.165C16.7818 11.734 17.2522 11.208 17.4498 10.4682C17.4649 10.4118 17.4741 10.3537 17.4896 10.2974C17.5371 10.1259 17.6723 10.0379 17.8318 10.0724C17.9846 10.1055 18.0924 10.2594 18.036 10.4238C17.917 10.7703 17.8054 11.1252 17.6329 11.4457C17.3607 11.9506 16.9265 12.3143 16.4501 12.6263C16.4209 12.645 16.3924 12.6643 16.3343 12.7034Z" />
<path d="M7.93383 12.164C7.90601 12.0577 7.88312 11.9918 7.87186 11.9242C7.8458 11.7651 7.92186 11.6379 8.06975 11.5985C8.22362 11.5577 8.34545 11.6196 8.39827 11.7608C8.51271 12.0675 8.61729 12.3781 8.71095 12.6915C8.75672 12.8446 8.69193 12.9735 8.53524 13.0288C8.23735 13.1348 7.93805 13.2366 7.63594 13.3302C7.47361 13.3806 7.32502 13.3013 7.27748 13.1605C7.22502 13.0056 7.2972 12.864 7.46481 12.7975C7.53946 12.7679 7.61587 12.7432 7.71939 12.7066C7.60812 12.6284 7.51974 12.5668 7.43171 12.5045C6.71797 11.9971 6.21445 11.345 6.02923 10.4738C5.98311 10.2573 6.05494 10.1076 6.22501 10.071C6.39966 10.0337 6.52677 10.1316 6.57537 10.3488C6.75248 11.139 7.23171 11.7045 7.93383 12.164Z" />
<path d="M12.3103 11.7552C12.4046 11.6658 12.4596 11.6038 12.524 11.5542C12.6472 11.4591 12.7751 11.4637 12.8916 11.5665C13.0032 11.6647 13.0205 11.8309 12.9134 11.9443C12.6846 12.1869 12.449 12.4242 12.2046 12.6513C12.093 12.7552 11.9504 12.7475 11.8384 12.6404C11.6057 12.4179 11.3768 12.1908 11.1539 11.9584C11.043 11.8425 11.0507 11.6869 11.1525 11.5785C11.2596 11.4647 11.4191 11.4559 11.5458 11.5675C11.6025 11.6172 11.6434 11.6844 11.6916 11.7436C11.7053 11.7366 11.7191 11.7299 11.7328 11.7228C11.7374 11.6816 11.7462 11.6404 11.7462 11.5992C11.7472 11.2013 11.7455 10.8034 11.7472 10.4056C11.7483 10.1837 11.8539 10.0629 12.037 10.0675C12.211 10.0721 12.3092 10.1904 12.3099 10.4045C12.311 10.8411 12.3103 11.2777 12.3103 11.7552Z" />
<path d="M17.7459 5.78751C17.4121 5.78751 17.0779 5.78892 16.7441 5.78681C16.5357 5.7854 16.4163 5.67871 16.4191 5.5037C16.4219 5.33645 16.5392 5.22729 16.7357 5.22624C17.4093 5.22342 18.0832 5.22342 18.7568 5.22589C18.9625 5.22659 19.085 5.33997 19.0825 5.51286C19.0801 5.68469 18.9593 5.78575 18.7473 5.78681C18.4139 5.78857 18.08 5.78751 17.7459 5.78751Z" />
<path d="M17.767 7.0809C18.0952 7.0809 18.4234 7.0795 18.7512 7.08126C18.9607 7.08267 19.0822 7.18689 19.0825 7.35943C19.0829 7.53232 18.9603 7.64147 18.7537 7.64218C18.0857 7.64394 17.4177 7.64394 16.7498 7.64218C16.541 7.64147 16.4198 7.53549 16.4191 7.36189C16.4184 7.18724 16.5374 7.08267 16.7473 7.08126C17.0874 7.07914 17.4272 7.0809 17.767 7.0809Z" />
<path d="M6.31236 5.78755C5.97257 5.78755 5.63278 5.78931 5.29299 5.78685C5.0951 5.78544 4.97643 5.68192 4.97291 5.51537C4.96904 5.34283 5.09228 5.22698 5.29651 5.22628C5.97046 5.22381 6.64405 5.22346 7.318 5.22628C7.52223 5.22698 7.64301 5.34424 7.63737 5.51889C7.63209 5.68509 7.51448 5.78509 7.31413 5.7865C6.98033 5.78896 6.64617 5.78755 6.31236 5.78755Z" />
<path d="M6.30426 7.08089C6.63842 7.08089 6.97222 7.07949 7.30638 7.0816C7.51765 7.08301 7.63702 7.18583 7.63702 7.36012C7.63702 7.53336 7.51519 7.64182 7.30814 7.64252C6.64018 7.64428 5.97222 7.64428 5.30425 7.64252C5.0965 7.64182 4.97361 7.53407 4.97326 7.36188C4.97256 7.18864 5.09404 7.08301 5.30249 7.0816C5.6363 7.07949 5.97045 7.08089 6.30426 7.08089Z" />
<path d="M12.0353 5.78755C11.6952 5.78755 11.3554 5.78931 11.0152 5.78685C10.8187 5.78544 10.6969 5.6798 10.6923 5.51572C10.6878 5.34811 10.8173 5.22698 11.0187 5.22628C11.693 5.22381 12.367 5.22346 13.0413 5.22628C13.2399 5.22698 13.3712 5.35234 13.3642 5.51924C13.3575 5.68262 13.2357 5.78544 13.0378 5.78685C12.7036 5.78896 12.3695 5.78755 12.0353 5.78755Z" />
<path d="M12.0335 7.08083C12.3677 7.08083 12.7018 7.07907 13.036 7.08153C13.2413 7.08294 13.3673 7.19562 13.3638 7.36604C13.3603 7.52872 13.2353 7.6414 13.0427 7.6421C12.3684 7.64456 11.6941 7.64421 11.0201 7.6421C10.8173 7.6414 10.6891 7.52449 10.6927 7.35477C10.6962 7.19069 10.8184 7.08294 11.0138 7.08153C11.3536 7.07907 11.6937 7.08083 12.0335 7.08083Z" />
<path d="M11.5001 21C11.2244 20.9525 10.9462 20.9152 10.673 20.8553C10.1951 20.7507 9.73809 20.5891 9.33527 20.3014C8.92259 20.007 8.70287 19.6292 8.71062 19.0989C8.72963 17.7877 8.72541 16.476 8.71238 15.1648C8.7078 14.7 8.89618 14.3531 9.24795 14.0774C9.69654 13.7257 10.2208 13.5447 10.7716 13.4348C11.8564 13.219 12.9286 13.2602 13.9783 13.6278C14.3459 13.7566 14.6871 13.938 14.9667 14.2169C15.2142 14.4633 15.3441 14.7542 15.3427 15.1116C15.3364 16.4521 15.3307 17.7929 15.3452 19.1334C15.3505 19.6201 15.1501 19.9789 14.7779 20.2585C14.2533 20.6528 13.6413 20.8254 13.005 20.9289C12.8557 20.9532 12.7064 20.9757 12.5571 20.999C12.2043 21 11.8522 21 11.5001 21ZM12.029 16.232C12.4684 16.1697 12.9117 16.1264 13.3462 16.0394C13.7853 15.9517 14.2015 15.788 14.5399 15.4781C14.8522 15.1922 14.8681 14.8781 14.5476 14.6066C14.342 14.4324 14.0994 14.2785 13.8473 14.1859C12.6913 13.7623 11.5198 13.7647 10.348 14.1295C10.0328 14.2278 9.73774 14.3718 9.49795 14.6063C9.20745 14.8905 9.20182 15.1788 9.499 15.4563C9.62964 15.5781 9.78422 15.6831 9.94408 15.7637C10.5965 16.0943 11.3011 16.1887 12.029 16.232ZM9.28069 16.0743C9.28069 16.3989 9.28773 16.738 9.27823 17.0767C9.27224 17.2873 9.33668 17.4732 9.50112 17.5859C9.75429 17.7595 10.0159 17.9412 10.3011 18.0444C11.2571 18.3905 12.2413 18.4039 13.2307 18.2021C13.6526 18.1162 14.0568 17.9778 14.4086 17.7197C14.5762 17.5968 14.7515 17.4549 14.7638 17.2391C14.7867 16.8458 14.7702 16.45 14.7702 16.0774C12.9381 17.0028 11.1223 16.9989 9.28069 16.0743ZM14.7716 18.2074C12.9385 19.1394 11.1173 19.1334 9.28034 18.2056C9.28034 18.4796 9.30288 18.7725 9.27471 19.0606C9.23668 19.4496 9.42647 19.6944 9.72577 19.8863C9.84337 19.9616 9.96732 20.032 10.0969 20.0842C11.1258 20.4983 12.1842 20.5289 13.2582 20.3081C13.6916 20.219 14.1138 20.0821 14.454 19.7887C14.5885 19.6729 14.7385 19.5007 14.7572 19.3398C14.8019 18.9606 14.7716 18.5729 14.7716 18.2074Z"  stroke-width="0.2"/>
<path d="M20.0565 9.0513C19.9329 9.38933 19.6882 9.51328 19.3332 9.5094C18.2656 9.49849 17.198 9.50553 16.1304 9.50518C15.6674 9.50518 15.4469 9.28792 15.4466 8.83087C15.4462 7.39635 15.4487 5.96183 15.4441 4.52767C15.4434 4.30231 15.5103 4.12062 15.6748 3.96393C15.929 3.72132 16.1758 3.47026 16.4213 3.2185C16.5646 3.07131 16.729 3.0023 16.9378 3.00406C17.7237 3.0104 18.5104 3.02026 19.2959 3.00054C19.6537 2.99138 19.9093 3.09737 20.0565 3.42836C20.0565 5.30267 20.0565 7.17699 20.0565 9.0513ZM19.4808 8.93264C19.4808 7.13544 19.4808 5.35866 19.4808 3.57836C18.7283 3.57836 17.9868 3.57836 17.2487 3.57836C17.241 3.59914 17.2336 3.6097 17.2336 3.61991C17.2318 3.8597 17.2301 4.09949 17.2294 4.33964C17.2283 4.71006 17.1621 4.77556 16.7853 4.77556C16.5297 4.77556 16.2744 4.77556 16.0205 4.77556C16.0205 6.17768 16.0205 7.55058 16.0205 8.93228C17.1776 8.93264 18.3241 8.93264 19.4808 8.93264ZM16.6544 3.80019C16.516 3.94632 16.3987 4.07027 16.2748 4.20055C16.398 4.20055 16.5209 4.20055 16.6544 4.20055C16.6544 4.07414 16.6544 3.95513 16.6544 3.80019Z"  stroke-width="0.2"/>
<path d="M4 4.30723C4.09824 4.17167 4.18451 4.02483 4.29789 3.903C4.52536 3.65899 4.76867 3.42941 5.00423 3.19278C5.13064 3.06602 5.27818 3.0044 5.46058 3.00546C6.31094 3.00898 7.1613 3.00616 8.01166 3.00757C8.36765 3.00792 8.6092 3.24278 8.60955 3.60124C8.61201 5.36886 8.61201 7.13648 8.60955 8.9041C8.6092 9.25939 8.3687 9.5027 8.01271 9.50411C6.87503 9.50798 5.73734 9.50657 4.59965 9.50517C4.28768 9.50446 4.1074 9.32418 4 9.05129C4 7.46994 4 5.88858 4 4.30723ZM5.78452 3.57483C5.78452 3.86145 5.78558 4.13012 5.78417 4.39913C5.78241 4.68857 5.69544 4.77449 5.40424 4.77554C5.12994 4.7766 4.85599 4.7759 4.57782 4.7759C4.57782 6.17521 4.57782 7.55268 4.57782 8.93298C5.73699 8.93298 6.88383 8.93298 8.0349 8.93298C8.0349 7.14106 8.0349 5.3597 8.0349 3.57518C7.28419 3.57483 6.54685 3.57483 5.78452 3.57483ZM5.20811 3.84666C5.08381 3.9604 4.95599 4.07695 4.8236 4.19843C4.95811 4.19843 5.08205 4.19843 5.20811 4.19843C5.20811 4.06462 5.20811 3.94631 5.20811 3.84666Z"  stroke-width="0.2"/>
<path d="M14.3304 6.25519C14.3304 7.11012 14.3311 7.96471 14.33 8.81965C14.3297 9.2943 14.1177 9.50522 13.6427 9.50557C12.5634 9.50592 11.4839 9.50592 10.4046 9.50557C9.94158 9.50522 9.7275 9.29183 9.7275 8.82845C9.72679 7.39393 9.72996 5.95976 9.72468 4.52524C9.72398 4.29179 9.79722 4.10974 9.96729 3.94953C10.2233 3.70868 10.4687 3.45657 10.7148 3.20516C10.85 3.06713 11.006 3.00375 11.2015 3.0048C12.0286 3.00973 12.8557 3.00656 13.6828 3.00692C14.1127 3.00692 14.3289 3.22136 14.33 3.65587C14.3314 4.52242 14.3304 5.38863 14.3304 6.25519ZM11.5025 3.57523C11.5025 3.86361 11.5032 4.13756 11.5022 4.41115C11.5011 4.68721 11.4131 4.77419 11.1314 4.77524C10.8571 4.7763 10.5831 4.77559 10.305 4.77559C10.305 6.17526 10.305 7.55238 10.305 8.93408C11.4606 8.93408 12.6018 8.93408 13.7536 8.93408C13.7536 7.14428 13.7536 5.36328 13.7536 3.57523C13.0043 3.57523 12.267 3.57523 11.5025 3.57523ZM10.9314 3.88333C10.8307 3.97418 10.7007 4.09143 10.5786 4.20165C10.6853 4.20165 10.805 4.20165 10.9314 4.20165C10.9314 4.0696 10.9314 3.94847 10.9314 3.88333Z"  stroke-width="0.2"/>
<path d="M16.3343 12.7034C16.4526 12.7474 16.541 12.7749 16.6248 12.8126C16.7698 12.8777 16.8202 12.9985 16.7801 13.1453C16.7389 13.2967 16.6184 13.3795 16.4712 13.3372C16.1339 13.2407 15.8001 13.1298 15.4726 13.0045C15.336 12.952 15.3054 12.8094 15.3483 12.6735C15.4413 12.3781 15.5403 12.084 15.6445 11.7925C15.704 11.6259 15.8427 11.5548 15.9881 11.5992C16.1455 11.6471 16.2195 11.7861 16.179 11.9615C16.1663 12.0168 16.148 12.071 16.1212 12.165C16.7818 11.734 17.2522 11.208 17.4498 10.4682C17.4649 10.4118 17.4741 10.3537 17.4896 10.2974C17.5371 10.1259 17.6723 10.0379 17.8318 10.0724C17.9846 10.1055 18.0924 10.2594 18.036 10.4238C17.917 10.7703 17.8054 11.1252 17.6329 11.4457C17.3607 11.9506 16.9265 12.3143 16.4501 12.6263C16.4209 12.645 16.3924 12.6643 16.3343 12.7034Z"  stroke-width="0.2"/>
<path d="M7.93383 12.164C7.90601 12.0577 7.88312 11.9918 7.87186 11.9242C7.8458 11.7651 7.92186 11.6379 8.06975 11.5985C8.22362 11.5577 8.34545 11.6196 8.39827 11.7608C8.51271 12.0675 8.61729 12.3781 8.71095 12.6915C8.75672 12.8446 8.69193 12.9735 8.53524 13.0288C8.23735 13.1348 7.93805 13.2366 7.63594 13.3302C7.47361 13.3806 7.32502 13.3013 7.27748 13.1605C7.22502 13.0056 7.2972 12.864 7.46481 12.7975C7.53946 12.7679 7.61587 12.7432 7.71939 12.7066C7.60812 12.6284 7.51974 12.5668 7.43171 12.5045C6.71797 11.9971 6.21445 11.345 6.02923 10.4738C5.98311 10.2573 6.05494 10.1076 6.22501 10.071C6.39966 10.0337 6.52677 10.1316 6.57537 10.3488C6.75248 11.139 7.23171 11.7045 7.93383 12.164Z"  stroke-width="0.2"/>
<path d="M12.3103 11.7552C12.4046 11.6658 12.4596 11.6038 12.524 11.5542C12.6472 11.4591 12.7751 11.4637 12.8916 11.5665C13.0032 11.6647 13.0205 11.8309 12.9134 11.9443C12.6846 12.1869 12.449 12.4242 12.2046 12.6513C12.093 12.7552 11.9504 12.7475 11.8384 12.6404C11.6057 12.4179 11.3768 12.1908 11.1539 11.9584C11.043 11.8425 11.0507 11.6869 11.1525 11.5785C11.2596 11.4647 11.4191 11.4559 11.5458 11.5675C11.6025 11.6172 11.6434 11.6844 11.6916 11.7436C11.7053 11.7366 11.7191 11.7299 11.7328 11.7228C11.7374 11.6816 11.7462 11.6404 11.7462 11.5992C11.7472 11.2013 11.7455 10.8034 11.7472 10.4056C11.7483 10.1837 11.8539 10.0629 12.037 10.0675C12.211 10.0721 12.3092 10.1904 12.3099 10.4045C12.311 10.8411 12.3103 11.2777 12.3103 11.7552Z"  stroke-width="0.2"/>
<path d="M17.7459 5.78751C17.4121 5.78751 17.0779 5.78892 16.7441 5.78681C16.5357 5.7854 16.4163 5.67871 16.4191 5.5037C16.4219 5.33645 16.5392 5.22729 16.7357 5.22624C17.4093 5.22342 18.0832 5.22342 18.7568 5.22589C18.9625 5.22659 19.085 5.33997 19.0825 5.51286C19.0801 5.68469 18.9593 5.78575 18.7473 5.78681C18.4139 5.78857 18.08 5.78751 17.7459 5.78751Z"  stroke-width="0.2"/>
<path d="M17.767 7.0809C18.0952 7.0809 18.4234 7.0795 18.7512 7.08126C18.9607 7.08267 19.0822 7.18689 19.0825 7.35943C19.0829 7.53232 18.9603 7.64147 18.7537 7.64218C18.0857 7.64394 17.4177 7.64394 16.7498 7.64218C16.541 7.64147 16.4198 7.53549 16.4191 7.36189C16.4184 7.18724 16.5374 7.08267 16.7473 7.08126C17.0874 7.07914 17.4272 7.0809 17.767 7.0809Z"  stroke-width="0.2"/>
<path d="M6.31236 5.78755C5.97257 5.78755 5.63278 5.78931 5.29299 5.78685C5.0951 5.78544 4.97643 5.68192 4.97291 5.51537C4.96904 5.34283 5.09228 5.22698 5.29651 5.22628C5.97046 5.22381 6.64405 5.22346 7.318 5.22628C7.52223 5.22698 7.64301 5.34424 7.63737 5.51889C7.63209 5.68509 7.51448 5.78509 7.31413 5.7865C6.98033 5.78896 6.64617 5.78755 6.31236 5.78755Z"  stroke-width="0.2"/>
<path d="M6.30426 7.08089C6.63842 7.08089 6.97222 7.07949 7.30638 7.0816C7.51765 7.08301 7.63702 7.18583 7.63702 7.36012C7.63702 7.53336 7.51519 7.64182 7.30814 7.64252C6.64018 7.64428 5.97222 7.64428 5.30425 7.64252C5.0965 7.64182 4.97361 7.53407 4.97326 7.36188C4.97256 7.18864 5.09404 7.08301 5.30249 7.0816C5.6363 7.07949 5.97045 7.08089 6.30426 7.08089Z"  stroke-width="0.2"/>
<path d="M12.0353 5.78755C11.6952 5.78755 11.3554 5.78931 11.0152 5.78685C10.8187 5.78544 10.6969 5.6798 10.6923 5.51572C10.6878 5.34811 10.8173 5.22698 11.0187 5.22628C11.693 5.22381 12.367 5.22346 13.0413 5.22628C13.2399 5.22698 13.3712 5.35234 13.3642 5.51924C13.3575 5.68262 13.2357 5.78544 13.0378 5.78685C12.7036 5.78896 12.3695 5.78755 12.0353 5.78755Z"  stroke-width="0.2"/>
<path d="M12.0335 7.08083C12.3677 7.08083 12.7018 7.07907 13.036 7.08153C13.2413 7.08294 13.3673 7.19562 13.3638 7.36604C13.3603 7.52872 13.2353 7.6414 13.0427 7.6421C12.3684 7.64456 11.6941 7.64421 11.0201 7.6421C10.8173 7.6414 10.6891 7.52449 10.6927 7.35477C10.6962 7.19069 10.8184 7.08294 11.0138 7.08153C11.3536 7.07907 11.6937 7.08083 12.0335 7.08083Z"  stroke-width="0.2"/>
</svg>
