<svg width="20" height="20" viewBox="0 0 20 20" fill="#1462B0" stroke="#1462B0" xmlns="http://www.w3.org/2000/svg">
<path d="M1 8.72902C1.06658 8.49056 1.24619 8.43173 1.46916 8.41469C1.9151 8.38063 2.35948 8.33108 2.80387 8.29392C2.92465 8.28463 2.98503 8.23973 3.01755 8.1174C3.17858 7.51353 3.42013 6.94063 3.74219 6.40334C3.80413 6.2996 3.79794 6.23457 3.71897 6.14321C3.41703 5.79018 3.12439 5.4294 2.8271 5.07173C2.62735 4.83018 2.63045 4.69547 2.84723 4.47715C3.39535 3.92747 3.94503 3.37934 4.49471 2.83121C4.71768 2.60824 4.84465 2.6036 5.08774 2.80334C5.45006 3.10218 5.81394 3.40102 6.17316 3.7045C6.24903 3.76798 6.30477 3.78966 6.40077 3.73237C6.952 3.40102 7.54194 3.15328 8.16439 2.98915C8.26658 2.96282 8.30374 2.91947 8.31148 2.81108C8.35174 2.32489 8.40129 1.84024 8.44929 1.35405C8.47252 1.11405 8.58555 1.00257 8.82555 1.00257C9.61213 0.999469 10.4003 0.999469 11.1899 1.00102C11.4253 1.00102 11.5337 1.10476 11.5569 1.33857C11.6065 1.82321 11.6529 2.3094 11.6963 2.7956C11.7055 2.89469 11.7288 2.95353 11.8387 2.9814C12.4674 3.14708 13.0619 3.39482 13.6178 3.73237C13.7076 3.78657 13.7603 3.76644 13.8315 3.7076C14.1954 3.40102 14.5639 3.09753 14.9308 2.79405C15.1631 2.60205 15.2963 2.60824 15.5099 2.82037C16.0643 3.37315 16.617 3.92592 17.1698 4.48024C17.3804 4.69237 17.385 4.82398 17.1915 5.05934C16.8895 5.42786 16.5861 5.79482 16.2795 6.15869C16.216 6.23302 16.2067 6.28876 16.2578 6.37392C16.5876 6.92669 16.8385 7.51353 17.001 8.13753C17.0274 8.23973 17.0785 8.27844 17.1806 8.28618C17.625 8.32489 18.0694 8.37134 18.5154 8.41005C18.9241 8.44566 19 8.52463 19 8.9365C19 9.68902 19 10.4415 19 11.1956C19 11.5006 18.9133 11.5966 18.6129 11.6276C18.1391 11.6756 17.6653 11.722 17.1915 11.7639C17.0908 11.7731 17.0366 11.8026 17.0072 11.9094C16.8415 12.538 16.5923 13.1326 16.2547 13.687C16.2005 13.7768 16.2253 13.831 16.2857 13.9006C16.5892 14.2599 16.888 14.6237 17.1868 14.986C17.3866 15.2291 17.3819 15.3608 17.1636 15.5791C16.6108 16.1334 16.0581 16.6862 15.5037 17.2374C15.2978 17.4418 15.1631 17.448 14.937 17.2637C14.5732 16.9649 14.2093 16.6676 13.8516 16.3626C13.7634 16.2867 13.6999 16.2697 13.5915 16.3331C13.0495 16.6568 12.472 16.903 11.8604 17.0624C11.7443 17.0919 11.704 17.1507 11.6947 17.2684C11.6575 17.7313 11.6018 18.1928 11.5662 18.6557C11.5523 18.8338 11.4919 18.97 11.3417 19.0645C10.4591 19.0645 9.57652 19.0645 8.69394 19.0645C8.54374 18.9933 8.46323 18.8787 8.44774 18.7084C8.40439 18.2222 8.35019 17.7375 8.31148 17.2513C8.30219 17.1352 8.25729 17.0903 8.15355 17.0624C7.53729 16.8983 6.9551 16.6506 6.40697 16.3254C6.31406 16.2712 6.25523 16.2805 6.17626 16.3471C5.81239 16.6552 5.44542 16.9571 5.0769 17.2591C4.85084 17.4449 4.71458 17.4418 4.51019 17.239C3.95123 16.6831 3.39535 16.1257 2.83794 15.5682C2.63355 15.3639 2.62735 15.223 2.80852 15.0015C3.11045 14.633 3.41239 14.2645 3.72052 13.9022C3.79484 13.8155 3.79639 13.752 3.7391 13.6575C3.41394 13.1156 3.16774 12.5396 3.01135 11.928C2.97884 11.7979 2.90916 11.7685 2.78994 11.7592C2.33316 11.7205 1.87794 11.6648 1.42116 11.6322C1.21213 11.6214 1.07123 11.5393 1 11.3396C1 10.4694 1 9.59921 1 8.72902ZM18.3559 9.04798C18.3001 9.03869 18.249 9.02476 18.1979 9.02011C17.783 8.97986 17.3665 8.93805 16.9515 8.90398C16.5907 8.87457 16.5257 8.83276 16.4405 8.48902C16.2686 7.79379 15.9915 7.14347 15.6152 6.5334C15.4372 6.2454 15.448 6.17263 15.6679 5.90786C15.9714 5.54244 16.2748 5.17547 16.5721 4.81779C16.1014 4.35173 15.6385 3.8934 15.1662 3.42579C14.7977 3.73082 14.4137 4.04824 14.0297 4.36721C13.8253 4.53598 13.7324 4.54837 13.5063 4.40592C12.8637 4.00179 12.1763 3.71069 11.4377 3.53573C11.1806 3.47534 11.1203 3.38398 11.0955 3.11766C11.0506 2.62837 11.001 2.13908 10.953 1.64669C10.3166 1.64669 9.69574 1.64669 9.064 1.64669C9.01445 2.14528 8.9649 2.63457 8.91535 3.1254C8.88594 3.4134 8.83948 3.47224 8.55148 3.54192C7.84852 3.71069 7.19045 3.98321 6.57729 4.36566C6.25987 4.56231 6.20723 4.55457 5.92387 4.31921C5.56 4.01573 5.19303 3.71379 4.84774 3.42734C4.37548 3.8996 3.91561 4.35947 3.448 4.82863C3.75458 5.19869 4.07355 5.58269 4.39097 5.96824C4.5551 6.16798 4.56284 6.25624 4.43587 6.47766C4.32748 6.66657 4.19587 6.84618 4.1169 7.04592C3.91561 7.55224 3.72826 8.06321 3.55484 8.58037C3.48981 8.77392 3.38761 8.88076 3.18632 8.89624C3.00981 8.91018 2.83484 8.92876 2.65987 8.94579C2.32697 8.97831 1.99561 9.01082 1.65806 9.04489C1.65806 9.71379 1.65806 10.3641 1.65806 11.0237C2.13961 11.0717 2.61342 11.1213 3.08723 11.1646C3.43252 11.1956 3.49135 11.2343 3.57032 11.5626C3.73755 12.2593 4.01316 12.9097 4.39097 13.5182C4.58142 13.8232 4.57213 13.8805 4.34297 14.1561C4.03948 14.5215 3.736 14.8885 3.44645 15.2384C3.91716 15.7076 4.37703 16.1675 4.84774 16.6366C5.20387 16.3424 5.57548 16.0359 5.9471 15.7293C6.19794 15.5218 6.27536 15.511 6.55871 15.6859C7.10684 16.0235 7.68748 16.2898 8.30994 16.4555C8.9169 16.6165 8.88748 16.5716 8.94632 17.2328C8.98194 17.6291 9.02374 18.0255 9.064 18.4281C9.69884 18.4281 10.3182 18.4281 10.953 18.4281C11.001 17.9264 11.0521 17.4294 11.097 16.9339C11.1187 16.6924 11.1837 16.5902 11.4005 16.5375C12.1623 16.3579 12.8715 16.0544 13.5342 15.641C13.7262 15.5218 13.8361 15.5373 14.0142 15.6828C14.3548 15.9631 14.6939 16.2449 15.0346 16.5251C15.0872 16.5685 15.1414 16.6088 15.1708 16.632C15.6446 16.1582 16.0999 15.7014 16.5675 15.2353C16.2655 14.8699 15.9512 14.4906 15.6369 14.1112C15.4588 13.8944 15.4465 13.7984 15.5982 13.5584C15.9977 12.9267 16.2795 12.2485 16.4575 11.5223C16.5241 11.2467 16.6062 11.1894 16.8818 11.1646C17.3726 11.1197 17.8619 11.0702 18.359 11.0222C18.3559 10.3564 18.3559 9.7045 18.3559 9.04798Z"  stroke-width="0.2"/>
<path d="M10.0039 4.86719C12.8482 4.86874 15.1631 7.18358 15.1677 10.0295C15.1724 12.8723 12.856 15.1872 10.0054 15.1903C7.15792 15.1918 4.84308 12.8785 4.84308 10.0311C4.84463 7.18048 7.15792 4.86564 10.0039 4.86719ZM10.0039 5.50048C7.50321 5.50203 5.47172 7.53661 5.47792 10.0342C5.48411 12.5317 7.49856 14.5493 9.99766 14.5554C12.4921 14.5616 14.5313 12.5286 14.536 10.0311C14.5391 7.53506 12.4999 5.49738 10.0039 5.50048Z"  stroke-width="0.2"/>
<path d="M10.0054 13.0367C9.25291 13.0367 8.5004 13.0367 7.74788 13.0367C7.41188 13.0367 7.31433 12.9407 7.31433 12.6109C7.31433 12.0876 7.31898 11.5642 7.31278 11.0424C7.30504 10.2388 7.93214 9.61017 8.67691 9.56371C8.85653 9.55288 8.98195 9.61481 9.09188 9.74023C9.30556 9.98642 9.57343 10.1242 9.90014 10.1536C10.247 10.1846 10.5536 10.084 10.8075 9.85326C11.1667 9.52655 11.4361 9.4832 11.8728 9.70771C12.4147 9.98642 12.6872 10.437 12.6965 11.0409C12.7043 11.5813 12.7012 12.1216 12.6981 12.662C12.6965 12.9237 12.5819 13.0337 12.3172 13.0352C11.5461 13.0383 10.775 13.0367 10.0054 13.0367ZM12.0508 12.3942C12.0508 11.8786 12.071 11.3784 12.0431 10.8798C12.0245 10.5531 11.8078 10.3364 11.4996 10.2295C11.4439 10.2094 11.3432 10.2311 11.2999 10.2713C10.5536 10.9697 9.42633 10.9604 8.73266 10.2791C8.65214 10.2001 8.57782 10.1939 8.47872 10.2357C8.19537 10.3534 7.98633 10.5593 7.96775 10.8582C7.93524 11.366 7.95846 11.877 7.95846 12.3942C9.32569 12.3942 10.6805 12.3942 12.0508 12.3942Z" stroke-width="0.2"/>
<path d="M10.0054 9.43484C9.14142 9.43484 8.42142 8.71484 8.42142 7.85394C8.42142 6.99148 9.14142 6.27303 10.0054 6.27148C10.8679 6.27148 11.5879 6.98994 11.5879 7.85239C11.5879 8.71794 10.871 9.43484 10.0054 9.43484ZM10.0116 8.8C10.5303 8.7969 10.9515 8.37419 10.953 7.85703C10.9546 7.33523 10.5164 6.89858 9.99922 6.90477C9.48361 6.91097 9.0578 7.33832 9.05471 7.85239C9.05161 8.37265 9.48671 8.8031 10.0116 8.8Z"  stroke-width="0.2"/>
</svg>