<svg width="18" height="19" viewBox="0 0 18 19" fill="#1462B0" xmlns="http://www.w3.org/2000/svg">
<path d="M0 16.1016C0.0317525 15.9378 0.0566565 15.7722 0.0958802 15.6097C0.275189 14.8669 0.658709 14.2487 1.27321 13.793C2.28743 13.0415 3.32903 12.3211 4.54123 11.9308C5.0113 11.7795 5.39544 11.5454 5.75156 11.2285C5.89663 11.0996 6.04979 10.9807 6.20046 10.8587C6.43642 10.6681 6.60888 10.6694 6.83551 10.8755C7.51476 11.4931 8.19091 12.1144 8.86829 12.7339C8.90627 12.7688 8.9455 12.8024 8.9953 12.8472C9.03951 12.8117 9.08434 12.7781 9.12543 12.7408C9.7997 12.1269 10.4727 11.5124 11.1476 10.8991C11.3967 10.6725 11.5648 10.6663 11.8269 10.8861C12.1481 11.1556 12.4619 11.4333 12.7813 11.7054C12.8093 11.729 12.8473 11.7452 12.8834 11.754C13.8746 11.9837 14.7494 12.4662 15.5955 13.006C15.9441 13.2283 16.2847 13.4636 16.6196 13.7058C17.5056 14.3483 17.9632 15.2243 17.9912 16.3157C18.0074 16.9489 17.9968 17.5833 17.9937 18.2165C17.9925 18.5291 17.8412 18.6797 17.5318 18.6903C17.4863 18.6922 17.4415 18.6909 17.396 18.6909C11.7901 18.6909 6.18427 18.6903 0.579017 18.6934C0.308186 18.6934 0.0933898 18.6343 0.000622599 18.3516C0 17.602 0 16.8518 0 16.1016ZM5.37863 12.5185C5.31388 12.5266 5.26781 12.5266 5.22547 12.5391C5.05861 12.5889 4.88989 12.6343 4.72739 12.6966C3.60671 13.1249 2.61367 13.7762 1.66856 14.5002C1.2122 14.8501 0.919578 15.3358 0.856073 15.9092C0.799416 16.4203 0.821207 16.9402 0.810001 17.4563C0.806888 17.5958 0.809378 17.7359 0.809378 17.8666C0.847357 17.8791 0.858563 17.8859 0.870393 17.8859C2.93182 17.8872 4.99324 17.889 7.05466 17.8847C7.10509 17.8847 7.18292 17.8268 7.20097 17.7782C7.41204 17.2166 7.61687 16.6526 7.81486 16.0866C7.83416 16.0318 7.82046 15.9428 7.78622 15.8961C7.63804 15.6931 7.47679 15.5001 7.31429 15.2965C7.23024 15.3619 7.15677 15.4242 7.0777 15.479C6.85668 15.6334 6.59768 15.5674 6.47565 15.3252C6.44639 15.2679 6.42522 15.2063 6.40156 15.1465C6.06286 14.2755 5.72355 13.4045 5.37863 12.5185ZM12.6356 12.4699C12.5205 12.7669 12.4289 13.001 12.338 13.2357C12.079 13.9038 11.8225 14.5718 11.5617 15.2393C11.4253 15.5892 11.1514 15.6614 10.8606 15.431C10.8064 15.3881 10.751 15.3457 10.6888 15.2972C10.5344 15.4914 10.3943 15.6763 10.2442 15.8531C10.1683 15.9422 10.1552 16.02 10.1975 16.1327C10.3961 16.6575 10.591 17.1843 10.7716 17.7153C10.8208 17.861 10.8911 17.8928 11.0337 17.8928C13.0179 17.8884 15.0021 17.8897 16.9864 17.889C17.0492 17.889 17.1121 17.8834 17.1912 17.8797C17.1912 17.3331 17.2018 16.7982 17.1887 16.2634C17.1706 15.5294 16.8699 14.9168 16.294 14.4685C15.5282 13.8727 14.7176 13.3397 13.8335 12.9338C13.4494 12.7582 13.0453 12.6275 12.6356 12.4699ZM6.49931 11.6444C6.38599 11.7365 6.2926 11.828 6.18427 11.8965C6.05228 11.9793 6.05477 12.0659 6.10831 12.1997C6.3916 12.9051 6.66367 13.6143 6.94011 14.3222C6.96252 14.3795 6.98929 14.4349 7.02229 14.5096C7.49048 14.1261 7.94187 13.7562 8.40446 13.3771C7.76194 12.7924 7.13747 12.2246 6.49931 11.6444ZM9.59736 13.3796C10.0705 13.7656 10.5213 14.1335 10.9876 14.5146C11.3076 13.6915 11.6164 12.9002 11.9196 12.107C11.9346 12.0671 11.919 11.9905 11.8885 11.9625C11.7665 11.8511 11.6333 11.7521 11.5013 11.6456C10.8656 12.2246 10.2411 12.7931 9.59736 13.3796ZM9.98835 17.8809C9.8657 17.5454 9.75114 17.2253 9.63222 16.9066C9.55813 16.708 9.53136 16.4353 9.38692 16.335C9.24123 16.2342 8.976 16.312 8.7637 16.2977C8.63295 16.289 8.57131 16.3307 8.52773 16.4589C8.38453 16.8804 8.22453 17.2963 8.07261 17.7147C8.05394 17.7658 8.0421 17.8193 8.02467 17.8803C8.68525 17.8809 9.32341 17.8809 9.98835 17.8809ZM7.94622 14.776C8.41255 15.5132 8.41255 15.5132 9.24932 15.5126C9.30723 15.5126 9.36637 15.5188 9.42303 15.5101C9.46412 15.5039 9.51393 15.4877 9.53883 15.4578C9.71752 15.2411 9.8906 15.0195 10.0749 14.7885C9.70756 14.4878 9.35579 14.1995 9.00091 13.9088C8.64167 14.2045 8.29862 14.4859 7.94622 14.776Z" />
<path d="M8.80669 0C9.15784 0.0491853 9.51272 0.07907 9.85889 0.151291C11.6196 0.519247 12.8424 1.81799 13.1145 3.59115C13.2483 4.46092 13.0927 5.30018 12.871 6.13695C12.8112 6.36296 12.7764 6.6039 12.7832 6.83675C12.8013 7.45686 12.7253 8.05954 12.546 8.6535C12.4022 9.12978 12.1314 9.52576 11.802 9.88686C11.2691 10.4715 10.6483 10.9391 9.93235 11.2777C9.35147 11.5529 8.76062 11.5803 8.17164 11.317C7.25082 10.9054 6.47506 10.3034 5.88546 9.48217C5.36497 8.75809 5.24979 7.91696 5.22987 7.05217C5.22613 6.89466 5.20247 6.73153 5.15578 6.58149C4.97585 6.00932 4.87249 5.42719 4.89179 4.82701C4.89553 4.70622 4.85382 4.64832 4.75109 4.58855C4.47279 4.42668 4.19697 4.25733 3.93486 4.06993C3.67835 3.88626 3.66714 3.6285 3.89626 3.41308C4.25923 3.07252 4.63902 2.75002 4.99639 2.40385C5.20372 2.20338 5.38552 1.9755 5.5698 1.75261C5.84063 1.42513 6.07411 1.06029 6.37669 0.766419C6.86294 0.294489 7.48554 0.0996158 8.15234 0.0367333C8.24137 0.0286395 8.33041 0.012452 8.41944 0C8.54832 0 8.67782 0 8.80669 0ZM12.0205 6.92828C12.0031 6.92828 11.9857 6.92828 11.9689 6.9289C12.0672 6.42771 11.8836 5.9813 11.7074 5.53739C11.5206 5.06733 11.3014 4.61408 10.8968 4.28161C10.8034 4.20503 10.7343 4.18262 10.6141 4.26418C9.52019 5.00445 8.29803 5.2815 6.99306 5.218C6.81811 5.20928 6.68675 5.23605 6.58589 5.36804C6.47693 5.51062 6.33996 5.6507 6.28891 5.81507C6.17684 6.17493 6.05979 6.54662 6.038 6.91894C5.99628 7.62808 6.07784 8.33846 6.48627 8.94612C6.98373 9.68577 7.6717 10.2168 8.48045 10.5885C8.83533 10.7517 9.19395 10.7423 9.54945 10.5842C10.1297 10.3264 10.6241 9.94726 11.0761 9.50646C11.5044 9.08869 11.8026 8.59995 11.8948 8.00288C11.9496 7.64675 11.9795 7.28689 12.0205 6.92828ZM5.6881 5.11402C5.87425 4.95028 6.06415 4.7772 6.26089 4.61221C6.44642 4.45656 6.65499 4.38932 6.90652 4.42045C7.4513 4.48769 7.99109 4.41858 8.52279 4.2978C9.16407 4.15211 9.77857 3.93794 10.2891 3.50212C10.5668 3.26491 10.6533 3.24623 10.9821 3.40375C11.5524 3.67644 11.9122 4.14837 12.1961 4.69128C12.2266 4.7498 12.2615 4.80584 12.2939 4.86312C12.335 4.4989 12.3648 4.14464 12.33 3.79661C12.2266 2.76496 11.7441 1.94749 10.8631 1.38715C10.1391 0.927049 9.32719 0.805642 8.48668 0.813736C7.59387 0.822453 6.88037 1.16924 6.4016 1.9369C6.08656 2.44245 5.70304 2.87952 5.23796 3.24996C5.06923 3.38382 4.91857 3.54009 4.73864 3.70508C4.96837 3.82089 5.16138 3.92424 5.35937 4.01763C5.64514 4.15273 5.70553 4.25795 5.68872 4.57921C5.68 4.77035 5.6881 4.96336 5.6881 5.11402Z"/>
</svg>
