<svg width="21" height="18" viewBox="0 0 21 18" fill="#1462B0" stroke="#1462B0" xmlns="http://www.w3.org/2000/svg">
<path d="M10.6991 1C10.9576 1.0856 11.0331 1.26686 11.0214 1.53036C11.0029 1.91974 11.018 2.3108 11.0164 2.70185C11.0164 2.77066 11.0147 2.84451 10.9962 2.90997C10.9492 3.07613 10.8301 3.15501 10.6622 3.13822C10.4759 3.11976 10.387 2.99389 10.3853 2.81766C10.3803 2.33261 10.3836 1.84925 10.3836 1.3642C10.3836 1.17455 10.5112 1.08224 10.6538 1C10.6673 1 10.684 1 10.6991 1Z" stroke-width="0.2"/>
<path d="M1 12.8579C1.10406 12.9855 1.03525 13.1348 1.04364 13.2741C1.05539 13.5125 1.04364 13.7508 1.04196 13.9908C1.02853 13.9874 1.01343 13.9874 1 13.9874C1 13.6115 1 13.2339 1 12.8579Z"  stroke-width="0.2"/>
<path d="M12.3305 3.59658C12.0703 3.58818 11.9126 3.34147 12.0317 3.11992C12.2667 2.68019 12.5184 2.24886 12.7786 1.82088C12.8709 1.66815 13.027 1.59094 13.1999 1.70171C13.3643 1.80745 13.4248 1.96018 13.319 2.1448C13.0723 2.57949 12.8222 3.01083 12.5755 3.44552C12.5151 3.55294 12.4278 3.60329 12.3305 3.59658Z"  stroke-width="0.2"/>
<path d="M9.40351 3.25588C9.39177 3.41868 9.32799 3.53113 9.18533 3.57812C9.05442 3.62176 8.92518 3.59323 8.85301 3.47406C8.58448 3.02594 8.3193 2.57614 8.0709 2.11795C7.99034 1.96858 8.03565 1.80242 8.19006 1.70843C8.34783 1.61109 8.51399 1.65808 8.60294 1.80242C8.87315 2.24047 9.12155 2.69027 9.37498 3.13671C9.39848 3.17699 9.39848 3.22902 9.40351 3.25588Z"  stroke-width="0.2"/>
<path d="M6.93802 9.87677C6.67955 9.70054 6.40598 9.55621 6.07702 9.43369C6.48151 9.14837 6.77186 8.79927 6.95313 8.36457C7.13942 7.91645 7.17467 7.4549 7.07397 6.98329C6.97494 6.51838 6.74837 6.12229 6.4043 5.79501C5.47953 4.92059 4.05796 4.92898 3.15836 5.81683C2.72199 6.24817 2.48199 6.77181 2.46017 7.38609C2.42996 8.25044 2.79081 8.92514 3.49907 9.43704C3.44704 9.46054 3.41851 9.47229 3.39166 9.48404C2.0859 10.0513 1.29539 11.0248 1.0621 12.4396C1.05203 12.5 1.09063 12.5856 1 12.6226C1 12.7014 1 12.7786 1 12.8575C1.04699 12.9381 1.02014 13.0237 1.0235 13.1076C1.03692 13.4013 1.00168 13.695 1.04196 13.9887C1.10909 14.1868 1.26015 14.2271 1.4498 14.2271C2.68171 14.2237 3.91362 14.2254 5.14386 14.2254C5.57016 14.2254 5.56009 14.2254 5.57016 13.7974C5.5752 13.6195 5.50806 13.5994 5.35533 13.601C4.68902 13.6094 4.02104 13.601 3.35473 13.6078C3.21207 13.6094 3.1634 13.5725 3.17011 13.4248C3.18186 13.1428 3.17683 12.8609 3.17179 12.5789C3.16843 12.3624 3.05431 12.2382 2.86969 12.2349C2.67836 12.2298 2.55919 12.3624 2.55248 12.589C2.54912 12.7065 2.55751 12.824 2.5508 12.9414C2.53905 13.158 2.64814 13.4533 2.50548 13.5675C2.37122 13.6766 2.0859 13.5926 1.86939 13.6061C1.73008 13.6161 1.67134 13.5792 1.68141 13.4282C1.69652 13.1697 1.68309 12.9112 1.70155 12.6528C1.85596 10.4592 4.36175 9.11312 6.27675 10.1906C6.4043 10.2628 6.5285 10.4357 6.64767 10.3987C6.77522 10.3585 6.8541 10.1772 6.96487 10.0681C7.05551 9.98083 7.02865 9.93887 6.93802 9.87677ZM4.7528 9.17018C3.8146 9.17522 3.06438 8.41828 3.0627 7.4633C3.06102 6.51167 3.82635 5.74802 4.77966 5.75137C5.71618 5.75473 6.47647 6.52006 6.47647 7.45994C6.47479 8.40485 5.71114 9.16347 4.7528 9.17018Z"  stroke-width="0.2"/>
<path d="M15.1755 13.4703C15.1285 11.9413 14.4672 10.7396 13.2303 9.84674C12.903 9.61009 12.5354 9.44561 12.1511 9.28952C13.7858 8.19356 13.7959 6.23995 12.8627 5.1121C11.8691 3.91207 10.0918 3.73585 8.91019 4.73279C8.33451 5.21783 7.98709 5.83883 7.92164 6.59073C7.81926 7.74544 8.3043 8.62993 9.25257 9.29288C9.18879 9.31973 9.15355 9.33316 9.11663 9.34827C7.67492 9.92898 6.74511 10.9662 6.34398 12.4683C6.1409 13.2303 6.22818 14.0107 6.22482 14.7845C6.22482 14.9791 6.37251 15.0664 6.56217 15.0664C6.89113 15.0681 7.22176 15.0664 7.55072 15.0664C7.78737 15.0664 8.02402 15.0664 8.30598 15.0664C8.23549 15.001 8.20528 14.9775 8.17843 14.9489C7.85618 14.5931 7.49701 14.3313 6.9784 14.4454C6.88609 14.4656 6.83406 14.432 6.83742 14.3212C6.84749 13.8429 6.81057 13.3646 6.89616 12.8896C7.20498 11.181 8.61815 9.87527 10.3318 9.70911C12.042 9.54463 13.6566 10.5516 14.296 12.1645C14.5763 12.8711 14.5612 13.6046 14.5579 14.3414C14.5579 14.4723 14.4655 14.4572 14.3951 14.4421C13.9184 14.3481 13.5676 14.5562 13.2706 14.9003C13.2303 14.9473 13.1782 14.9842 13.0876 15.0647C13.7136 15.0647 14.2843 15.0681 14.8532 15.0631C15.0647 15.0614 15.1738 14.9389 15.1755 14.714C15.1822 14.3028 15.1889 13.8865 15.1755 13.4703ZM10.649 9.06966C9.44391 9.04113 8.50906 8.05258 8.53424 6.83409C8.55773 5.68442 9.55468 4.71601 10.696 4.73447C11.9111 4.75461 12.8493 5.74987 12.8191 6.98514C12.7889 8.14321 11.7986 9.09651 10.649 9.06966Z"  stroke-width="0.2"/>
<path d="M20.3246 12.3002C20.046 10.9273 19.2303 9.99577 17.9413 9.43688C19.3494 8.33756 19.1061 6.74144 18.3827 5.93415C17.5419 4.99595 16.1304 4.87343 15.1435 5.67904C14.6903 6.04996 14.4084 6.52997 14.3244 7.11236C14.1835 8.08245 14.5426 8.84778 15.3298 9.4352C14.9689 9.57618 14.6635 9.74905 14.3714 9.96053C14.4604 10.0646 14.5594 10.1569 14.6316 10.2677C14.7289 10.417 14.8028 10.4204 14.9605 10.3231C15.981 9.68863 17.0484 9.62318 18.1041 10.1989C19.1648 10.7779 19.7052 11.7077 19.7355 12.9195C19.7405 13.1427 19.8395 13.4498 19.6918 13.5673C19.5525 13.6798 19.2571 13.5925 19.0322 13.6059C18.908 13.6126 18.8678 13.5707 18.8711 13.4465C18.8778 13.1645 18.8778 12.8825 18.8711 12.6006C18.8661 12.3673 18.7503 12.2364 18.5623 12.233C18.3642 12.2297 18.2434 12.3673 18.24 12.6106C18.2367 12.8775 18.23 13.1444 18.2417 13.4095C18.2484 13.5623 18.2065 13.6093 18.0487 13.6059C17.468 13.5958 16.8873 13.6026 16.3083 13.6026C15.8215 13.6026 15.8249 13.6026 15.8551 14.0977C15.8618 14.2034 15.8954 14.2286 15.9927 14.2252C16.1891 14.2202 16.3855 14.2235 16.5802 14.2235C17.7181 14.2235 18.8543 14.2235 19.9922 14.2235C20.2373 14.2235 20.3833 14.1245 20.385 13.9164C20.3934 13.3793 20.4337 12.8355 20.3246 12.3002ZM16.607 9.17002C15.6671 9.1717 14.9203 8.4114 14.9219 7.45642C14.9236 6.50647 15.6906 5.7445 16.6439 5.74953C17.5805 5.75457 18.3374 6.52158 18.334 7.46313C18.3324 8.40973 17.5637 9.16834 16.607 9.17002Z"  stroke-width="0.2"/>
<path d="M13.6497 13.4364C13.596 13.2888 13.4667 13.2451 13.3123 13.23C12.829 13.1813 12.3473 13.1159 11.8639 13.0672C11.7313 13.0538 11.6592 13.0034 11.6055 12.8792C11.4225 12.4563 11.2228 12.0401 11.0398 11.6171C10.9694 11.456 10.8871 11.3184 10.6941 11.315C10.4961 11.3116 10.3903 11.4392 10.3148 11.6104C10.1302 12.0333 9.93045 12.4496 9.74751 12.8725C9.69045 13.0051 9.61157 13.0605 9.47226 13.0739C8.99729 13.1209 8.52231 13.1797 8.04734 13.2334C7.87951 13.2518 7.74188 13.3206 7.68649 13.4868C7.63279 13.6446 7.73181 13.7503 7.84426 13.8493C8.18329 14.1514 8.51224 14.467 8.86134 14.759C9.01072 14.8849 9.03253 15.0057 8.99225 15.1853C8.88484 15.6586 8.79421 16.1352 8.69854 16.6035C8.69686 16.7428 8.72372 16.867 8.84456 16.9375C8.97883 17.0164 9.11645 16.9895 9.24569 16.9157C9.66695 16.6757 10.0916 16.439 10.5078 16.1906C10.6169 16.1252 10.6941 16.1252 10.8015 16.1889C11.211 16.4323 11.629 16.6656 12.0418 16.9039C12.1744 16.9811 12.3087 17.0516 12.4564 16.9476C12.6041 16.8435 12.6225 16.6958 12.5923 16.5297C12.5101 16.0597 12.4346 15.5881 12.3473 15.1182C12.3221 14.9805 12.349 14.8899 12.4581 14.7942C12.8189 14.4804 13.168 14.1531 13.5255 13.8359C13.648 13.7234 13.7068 13.5909 13.6497 13.4364ZM11.8069 14.5559C11.6843 14.66 11.6373 14.7623 11.6726 14.9218C11.7515 15.2776 11.8169 15.6384 11.8975 16.0496C11.5618 15.8566 11.2681 15.6972 10.9861 15.521C10.7982 15.4035 10.6287 15.4052 10.439 15.5176C10.1436 15.6905 9.83815 15.8466 9.49744 16.0329C9.56961 15.6821 9.61996 15.3666 9.70052 15.0594C9.77101 14.7926 9.71227 14.5979 9.4924 14.4233C9.24401 14.2253 9.01911 13.9937 8.75393 13.7503C9.13827 13.7016 9.48401 13.6479 9.83311 13.6194C10.0547 13.6009 10.1889 13.5036 10.2745 13.3005C10.4105 12.9766 10.5632 12.661 10.7243 12.3052C10.8838 12.6527 11.0348 12.9648 11.1708 13.2837C11.2597 13.4935 11.3957 13.6009 11.629 13.6194C11.9713 13.6462 12.312 13.6999 12.7014 13.7486C12.3758 14.0423 12.0972 14.3075 11.8069 14.5559Z"  stroke-width="0.2"/>
</svg>
