<svg width="20" height="20" viewBox="0 0 20 20" fill="#6B7280" xmlns="http://www.w3.org/2000/svg">
<path d="M13.9828 0C14.6078 0 15.2328 0 15.8578 0C16.1219 0.108014 16.1568 0.325609 16.1509 0.57686C16.1415 0.973305 16.1685 0.938082 16.5051 1.12906C16.8565 1.32866 17.0737 1.25156 17.3117 0.959607C17.5234 0.699746 17.7371 0.716966 17.9774 0.954911C18.2779 1.25273 18.5761 1.5529 18.8751 1.85229C19.342 2.31918 19.3502 2.40215 18.8755 2.85143C18.7163 3.0021 18.6814 3.11794 18.7949 3.30892C18.8896 3.4686 18.8959 3.72298 19.0254 3.80869C19.164 3.90026 19.4007 3.84117 19.5941 3.85213C19.8477 3.86661 19.994 4.00945 19.9964 4.26031C20.0011 4.80704 20.0015 5.35376 19.996 5.90049C19.9936 6.14156 19.8484 6.28754 19.6074 6.30163C19.4516 6.31063 19.2947 6.2985 19.1389 6.30906C19.0849 6.31259 19.0039 6.34272 18.9855 6.38342C18.8802 6.61863 18.7902 6.86088 18.6838 7.12896C18.7949 7.23188 18.9155 7.34068 19.0325 7.45339C19.079 7.49801 19.1252 7.54653 19.1589 7.60093C19.2653 7.7743 19.2418 7.95824 19.0489 8.12066C18.8599 8.27994 18.8141 8.46074 18.8153 8.6983C18.8239 10.677 18.8207 12.6561 18.82 14.6348C18.8196 15.6742 18.1648 16.3262 17.1234 16.3266C15.1772 16.327 13.231 16.3266 11.2848 16.3266C11.21 16.3266 11.1349 16.3266 11.0629 16.3266C11.0629 16.7837 11.0629 17.2107 11.0629 17.6553C11.3842 17.6553 11.6953 17.6506 12.006 17.6561C12.6835 17.6678 13.2435 18.141 13.3648 18.8063C13.3891 18.9393 13.3942 19.0779 13.3946 19.2137C13.3977 19.969 13.3676 19.9979 12.6216 19.9979C10.4214 19.9979 8.22123 19.9979 6.02142 19.9979C5.96271 19.9979 5.90401 19.9995 5.8457 19.9976C5.58466 19.9886 5.43477 19.8418 5.4289 19.5827C5.4246 19.3874 5.42381 19.1921 5.43008 18.9969C5.45004 18.3726 5.91105 17.8032 6.52822 17.6987C6.85814 17.6428 7.20175 17.6662 7.5391 17.6549C7.61385 17.6525 7.6886 17.6545 7.75943 17.6545C7.75943 17.1962 7.75943 16.7693 7.75943 16.3266C7.67177 16.3266 7.59467 16.3266 7.51797 16.3266C5.54553 16.3266 3.57348 16.3298 1.60104 16.3247C0.916949 16.3231 0.424231 15.9995 0.130713 15.3827C0.0727924 15.2614 0.0426579 15.1271 0 14.9988C0 11.2492 0 7.49918 0 3.74959C0.00782714 3.73941 0.0191765 3.73002 0.0223073 3.71867C0.264166 2.83108 0.79876 2.42172 1.71688 2.42172C4.60588 2.42172 7.49487 2.42172 10.3835 2.42172C10.4606 2.42172 10.5377 2.42172 10.578 2.42172C10.6394 2.29061 10.6649 2.16577 10.7396 2.08789C11.1271 1.6844 11.5243 1.28991 11.9246 0.898947C12.0918 0.735751 12.2913 0.739664 12.4682 0.890337C12.5175 0.932212 12.5618 0.98074 12.608 1.02653C12.8893 1.30791 12.8784 1.26917 13.2639 1.16076C13.6392 1.05549 13.7507 0.855897 13.6959 0.497806C13.6599 0.266123 13.7636 0.0947084 13.9828 0ZM11.0797 3.20286C10.9956 3.20286 10.9373 3.20286 10.8793 3.20286C7.80718 3.20286 4.73503 3.20286 1.66288 3.20286C1.09306 3.20286 0.781148 3.5136 0.781148 4.08224C0.780757 6.38616 0.781148 8.69047 0.781148 10.9944C0.781148 11.0629 0.781148 11.1314 0.781148 11.2096C0.893076 11.2096 0.977218 11.2096 1.06097 11.2096C1.94622 11.2096 2.83147 11.2081 3.71672 11.2108C4.00749 11.2116 4.18204 11.4034 4.1429 11.6663C4.11277 11.8695 3.9527 11.99 3.70106 11.9904C2.8029 11.992 1.90473 11.9908 1.00657 11.9912C0.936908 11.9912 0.867638 11.9912 0.793672 11.9912C0.793672 12.3661 0.793672 12.7199 0.793672 13.0878C0.889163 13.0878 0.972913 13.0878 1.05627 13.0878C5.74277 13.0878 10.4289 13.0878 15.1154 13.0878C15.1803 13.0878 15.2457 13.0842 15.3107 13.0897C15.5326 13.1073 15.6954 13.2764 15.6938 13.4826C15.6918 13.6901 15.5271 13.8544 15.3048 13.8673C15.2336 13.8716 15.1616 13.8689 15.0899 13.8689C10.4101 13.8689 5.73025 13.8689 1.0504 13.8689C0.967434 13.8689 0.884858 13.8689 0.78154 13.8689C0.78154 14.1464 0.781148 14.4051 0.78154 14.6634C0.782322 15.2324 1.09345 15.5451 1.66131 15.5451C6.82292 15.5455 11.9841 15.5455 17.1457 15.5451C17.7261 15.5451 18.0392 15.2336 18.0392 14.654C18.04 12.8901 18.0396 11.1263 18.0392 9.36243C18.0392 9.30725 18.0337 9.25246 18.0302 9.18789C17.6177 9.45362 17.5496 9.44735 17.208 9.09944C17.1183 9.00825 17.0459 8.90024 16.9653 8.80005C16.8413 8.88224 16.7657 8.92059 16.6882 8.95307C16.5153 9.02586 16.2711 9.05013 16.1865 9.17967C16.0957 9.31899 16.1568 9.55576 16.1462 9.74987C16.1321 10.0039 15.9893 10.1506 15.7388 10.153C15.1921 10.1581 14.6454 10.1581 14.0986 10.153C13.8572 10.1506 13.7108 10.0062 13.6971 9.76553C13.6877 9.60311 13.7006 9.43992 13.6889 9.2779C13.685 9.22663 13.6458 9.15227 13.6032 9.1331C13.3734 9.03017 13.1375 8.94133 12.8682 8.83332C12.8201 8.89202 12.7645 8.96481 12.7034 9.03173C12.6377 9.10374 12.5684 9.17301 12.4968 9.23915C12.3019 9.41957 12.0968 9.42544 11.909 9.2415C11.5231 8.86345 11.1411 8.48149 10.7627 8.096C10.5694 7.89954 10.5721 7.69368 10.7674 7.49566C10.8997 7.36181 11.0445 7.24089 11.165 7.13091C11.0582 6.86557 10.9752 6.63976 10.8746 6.42217C10.85 6.36933 10.7697 6.3165 10.7099 6.31024C10.5553 6.2938 10.3976 6.30985 10.2418 6.30163C9.98899 6.28832 9.84654 6.14313 9.84458 5.88914C9.84028 5.34907 9.84028 4.8086 9.84458 4.26853C9.84654 4.00671 9.99251 3.8623 10.2579 3.85134C10.414 3.84508 10.5709 3.85682 10.7259 3.84469C10.7756 3.84078 10.8445 3.79577 10.8648 3.75155C10.9416 3.5817 11.0022 3.40402 11.0797 3.20286ZM18.2725 7.77196C18.1613 7.66864 18.0478 7.5708 17.9433 7.46435C17.7723 7.2902 17.7707 7.13874 17.8733 6.91645C18.0329 6.56971 18.1789 6.21631 18.3124 5.859C18.3953 5.6371 18.4951 5.53574 18.7339 5.52674C18.8881 5.52087 19.0426 5.52557 19.2066 5.52557C19.2066 5.21992 19.2066 4.93697 19.2066 4.63053C19.0434 4.63053 18.8892 4.63523 18.735 4.62936C18.4975 4.61997 18.3949 4.51704 18.3132 4.29671C18.1801 3.93901 18.0353 3.58483 17.876 3.23848C17.7727 3.01384 17.7723 2.86669 17.9441 2.69058C18.0509 2.581 18.1664 2.47925 18.2486 2.40215C18.0192 2.17203 17.8153 1.96774 17.5989 1.75054C17.5661 1.78733 17.5195 1.84173 17.4706 1.89338C17.4213 1.94544 17.3704 1.99553 17.3187 2.04523C17.132 2.22526 16.988 2.22799 16.7552 2.11959C16.4151 1.96109 16.0679 1.81629 15.7153 1.68792C15.4727 1.59948 15.3752 1.50203 15.3686 1.23786C15.3647 1.09071 15.3678 0.943561 15.3678 0.79328C15.0571 0.79328 14.7737 0.79328 14.472 0.79328C14.472 0.966651 14.4771 1.12828 14.4708 1.28991C14.4626 1.49694 14.3471 1.61122 14.1526 1.68362C13.7891 1.81942 13.4298 1.96735 13.0768 2.1282C12.8565 2.22839 12.7058 2.22526 12.5297 2.05032C12.424 1.94504 12.3281 1.82998 12.2362 1.72823C12.0068 1.95718 11.8014 2.16264 11.5681 2.39589C11.6746 2.49099 11.7959 2.58961 11.9051 2.69958C12.0675 2.86317 12.0698 3.02167 11.9743 3.23222C11.8162 3.57935 11.6667 3.93157 11.5341 4.28927C11.4468 4.52448 11.3509 4.62192 11.0997 4.63053C10.9463 4.63562 10.7928 4.63132 10.6371 4.63132C10.6371 4.94323 10.6371 5.22657 10.6371 5.52635C10.8042 5.52635 10.9599 5.52126 11.1149 5.52752C11.3521 5.53692 11.4499 5.6375 11.5341 5.86253C11.6679 6.21983 11.8158 6.57245 11.9751 6.91919C12.0741 7.13483 12.0691 7.29372 11.8972 7.46709C11.7896 7.57589 11.6734 7.67607 11.5928 7.75004C11.8256 7.98368 12.0291 8.18797 12.2459 8.40595C12.3328 8.31399 12.4318 8.20167 12.5387 8.09757C12.7113 7.92928 12.8666 7.92772 13.0874 8.02986C13.4278 8.18758 13.7746 8.33394 14.1264 8.46348C14.3714 8.5535 14.4665 8.64899 14.4736 8.91315C14.4775 9.06069 14.4743 9.20863 14.4743 9.36556C14.78 9.36556 15.0633 9.36556 15.3682 9.36556C15.3682 9.20824 15.3651 9.0603 15.369 8.91237C15.376 8.64938 15.4715 8.55467 15.7177 8.46427C16.0699 8.33512 16.4166 8.18914 16.7571 8.03182C16.979 7.92928 17.1324 7.93046 17.3058 8.09952C17.4162 8.20715 17.5191 8.32181 17.6212 8.42944C17.8431 8.20401 18.0439 8.00207 18.2725 7.77196ZM12.6064 19.2082C12.631 18.7053 12.3798 18.4364 11.9027 18.436C10.2371 18.4353 8.57111 18.4356 6.90549 18.436C6.8601 18.436 6.81391 18.4345 6.76891 18.4396C6.39008 18.4803 6.14587 18.8333 6.23745 19.2082C8.35625 19.2082 10.4754 19.2082 12.6064 19.2082ZM10.261 16.3399C9.68569 16.3399 9.12488 16.3399 8.56719 16.3399C8.56719 16.7845 8.56719 17.2154 8.56719 17.6447C9.13857 17.6447 9.69508 17.6447 10.261 17.6447C10.261 17.2087 10.261 16.7826 10.261 16.3399Z" />
<path d="M8.32042 10.0098C8.23902 9.96715 8.09618 9.89475 7.95607 9.81804C7.78348 9.72412 7.43596 9.91275 7.44691 10.1088C7.48292 10.7573 7.27041 10.8191 6.73073 10.8C6.41882 10.789 6.10613 10.8019 5.79422 10.7964C5.48035 10.7913 5.34963 10.6528 5.34572 10.3366C5.34533 10.3108 5.34572 10.2845 5.34572 10.2587C5.34533 9.99729 5.2334 9.84192 4.98763 9.77656C4.95084 9.76678 4.90036 9.78439 4.86318 9.80317C4.7763 9.84661 4.6945 9.90101 4.6088 9.9468C4.36968 10.0744 4.16421 10.0227 4.02646 9.78987C3.81434 9.43217 3.60575 9.07251 3.40224 8.70972C3.26683 8.46825 3.32358 8.27492 3.55839 8.12856C3.58579 8.11134 3.61475 8.09647 3.64293 8.08042C3.91218 7.92583 3.95601 7.8413 3.89613 7.53761C3.88635 7.48751 3.82491 7.43664 3.77521 7.4065C3.23748 7.08324 3.21791 7.01436 3.52787 6.47625C3.68989 6.19486 3.85074 5.9123 4.01706 5.63326C4.17048 5.37575 4.36185 5.32762 4.62562 5.47163C4.64832 5.48416 4.67063 5.49746 4.69333 5.51038C4.9571 5.66066 5.05925 5.65596 5.2878 5.45755C5.32693 5.4235 5.34611 5.34366 5.34259 5.28691C5.30502 4.67405 5.48857 4.58521 6.04625 4.60752C6.36442 4.62004 6.68377 4.60752 7.00233 4.61065C7.28724 4.61339 7.4297 4.75584 7.44378 5.04271C7.44535 5.07519 7.44418 5.10767 7.44457 5.14016C7.44574 5.42702 7.5248 5.54521 7.79601 5.627C7.84493 5.64188 7.91733 5.60939 7.96899 5.58082C8.49967 5.28378 8.58146 5.30531 8.88359 5.82894C9.046 6.11033 9.21154 6.38976 9.37083 6.6731C9.52189 6.94118 9.46671 7.1349 9.20137 7.29536C9.17358 7.31219 9.14501 7.32784 9.11684 7.34389C8.90433 7.46638 8.82332 7.6464 8.89298 7.88318C8.90785 7.93405 8.97477 7.97749 9.02682 8.0088C9.53754 8.31406 9.56181 8.40212 9.26672 8.91362C9.09766 9.20635 8.92781 9.49831 8.75953 9.79143C8.67852 9.93232 8.56385 10.0145 8.32042 10.0098ZM4.2601 6.7729C4.3098 6.80538 4.34933 6.83943 4.39511 6.86056C4.65458 6.98149 4.75321 7.1666 4.69724 7.45973C4.6628 7.64053 4.6812 7.837 4.70624 8.0225C4.7352 8.23892 4.66554 8.38959 4.48278 8.49721C4.40764 8.54144 4.33445 8.5884 4.25814 8.63575C4.35167 8.7966 4.43308 8.93593 4.51996 9.08503C4.58531 9.05138 4.63658 9.02672 4.68628 8.99854C4.96297 8.84239 5.06786 8.85296 5.32224 9.04551C5.42008 9.11986 5.52144 9.20792 5.63493 9.23962C6.01807 9.34646 6.17892 9.58714 6.1343 9.97576C6.13313 9.98476 6.14957 9.99533 6.1664 10.0157C6.28811 10.0157 6.41804 10.0169 6.54758 10.0149C6.57889 10.0145 6.6098 10.0043 6.65207 9.9965C6.65559 9.93545 6.66107 9.87792 6.66224 9.82078C6.6689 9.49165 6.71508 9.42786 7.02582 9.29871C7.12131 9.2588 7.22736 9.22396 7.30172 9.15704C7.60228 8.88701 7.90754 8.76921 8.2535 9.10538C8.3533 8.93006 8.43783 8.78134 8.5251 8.62793C8.46483 8.59231 8.42805 8.56531 8.38695 8.54692C8.12122 8.42755 8.03043 8.22757 8.08757 7.94384C8.11027 7.83073 8.12866 7.70433 8.10244 7.59553C8.01008 7.21552 8.11535 6.94509 8.48988 6.79794C8.49927 6.79442 8.50358 6.77759 8.51649 6.75724C8.4347 6.61674 8.35056 6.47194 8.26289 6.32127C8.21202 6.34827 8.16936 6.36471 8.13336 6.39093C7.88484 6.56939 7.66373 6.54904 7.43048 6.3428C7.3029 6.23008 7.13344 6.15768 6.97259 6.09154C6.76713 6.00701 6.65598 5.87395 6.66264 5.64814C6.66498 5.56595 6.66303 5.48377 6.66303 5.40432C6.46774 5.40432 6.30141 5.40432 6.12648 5.40432C6.12648 5.46302 6.12295 5.50881 6.12687 5.55343C6.15231 5.84029 6.03412 6.02306 5.7543 6.11307C5.63298 6.1522 5.50226 6.20973 5.41421 6.2974C5.13634 6.57487 4.86005 6.56743 4.56379 6.34084C4.55557 6.33458 4.53953 6.33849 4.51056 6.33653C4.43112 6.47586 4.34737 6.62105 4.2601 6.7729Z" />
<path d="M16.4787 13.4668C16.485 13.2551 16.663 13.0845 16.8728 13.09C17.0806 13.0955 17.2575 13.2782 17.2551 13.4841C17.2524 13.7001 17.0634 13.877 16.8458 13.8676C16.6321 13.8582 16.4724 13.6837 16.4787 13.4668Z" />
<path d="M14.9133 2.65626C16.2467 2.65352 17.3393 3.73992 17.3421 5.07054C17.3448 6.4035 16.2576 7.49695 14.9274 7.4993C13.5956 7.50204 12.5014 6.41367 12.499 5.08462C12.4967 3.75245 13.5839 2.65899 14.9133 2.65626ZM14.9266 6.71776C15.8279 6.71502 16.5629 5.97457 16.5605 5.07171C16.5582 4.17002 15.8181 3.43545 14.9145 3.43819C14.0128 3.44093 13.2782 4.18098 13.2806 5.08423C13.2829 5.98435 14.0241 6.7205 14.9266 6.71776Z" />
<path d="M6.00782 7.70133C6.0086 7.48843 6.17962 7.3135 6.38939 7.31154C6.60229 7.30958 6.79014 7.50174 6.78309 7.71385C6.77605 7.92479 6.59916 8.0919 6.38626 8.08877C6.17023 8.08564 6.00703 7.91853 6.00782 7.70133Z" />
</svg>
