<svg width="15" height="20" viewBox="0 0 15 20" fill="#1462B0" stroke="#1462B0" xmlns="http://www.w3.org/2000/svg">
<path d="M14.8462 8.35577C14.7393 8.7638 14.6614 9.18178 14.5208 9.57726C14.0331 10.9467 13.2508 12.1544 12.4032 13.3213C11.2868 14.8583 10.035 16.2814 8.72399 17.6535C8.43019 17.9607 8.08014 18.1208 7.65524 17.997C7.5025 17.9525 7.33981 17.8702 7.23164 17.7577C5.50519 15.9629 3.86918 14.0928 2.53476 11.9804C1.9225 11.0116 1.3851 10.0048 1.11596 8.8776C1.07399 8.70452 1.03851 8.52971 1 8.35577C1 7.99534 1 7.63447 1 7.27404C1.02812 7.12736 1.06058 6.98154 1.08308 6.83442C1.50063 4.09505 3.65197 1.78144 6.34851 1.17697C6.65486 1.10817 6.96553 1.05841 7.27404 1C7.70673 1 8.13942 1 8.57212 1C8.76163 1.03202 8.95288 1.05538 9.14067 1.09692C11.999 1.72952 13.8436 3.44601 14.6467 6.26543C14.7401 6.59385 14.7808 6.9374 14.8462 7.27404C14.8462 7.63447 14.8462 7.99534 14.8462 8.35577ZM14.1573 7.73529C14.1249 7.48692 14.0928 7.12086 14.0279 6.76087C13.4334 3.46764 10.1852 1.18692 6.88635 1.79139C4.6238 2.20591 3.0263 3.51351 2.1449 5.63933C1.63865 6.86168 1.48591 8.13639 2.00817 9.39769C2.30111 10.1051 2.64293 10.8013 3.04187 11.4551C4.3088 13.5321 5.89981 15.3563 7.57303 17.1113C7.85774 17.4099 8.00183 17.4168 8.28221 17.1C9.22289 16.0374 10.18 14.9881 11.0826 13.8938C12.0363 12.7376 12.8856 11.5032 13.5334 10.1432C13.8778 9.41846 14.1378 8.66817 14.1573 7.73529Z"  stroke-width="0.2"/>
<path d="M6.84136 19.0001C6.42511 18.9715 6.00669 18.9642 5.59391 18.9101C4.70992 18.7941 3.82636 18.6695 2.94886 18.5142C2.66501 18.464 2.38376 18.3359 2.12934 18.194C1.53915 17.8647 1.5266 17.3303 2.1315 17.0292C2.57588 16.8081 3.07088 16.6713 3.55766 16.5571C4.01804 16.4489 4.49617 16.4126 4.96823 16.3611C5.04698 16.3525 5.15516 16.407 5.21444 16.4671C5.36501 16.6194 5.49525 16.7916 5.65838 16.9851C4.5602 17.1045 3.4841 17.1802 2.41232 17.6086C2.54948 17.6717 2.63126 17.7288 2.72083 17.7475C3.43867 17.895 4.15261 18.0789 4.8778 18.1685C6.51294 18.3697 8.15847 18.3528 9.80054 18.2572C10.8503 18.1962 11.8969 18.0841 12.9146 17.7929C13.0111 17.7652 13.1059 17.7297 13.2002 17.6942C13.2396 17.6795 13.2755 17.6557 13.3668 17.6073C12.3214 17.1767 11.2566 17.1014 10.1584 16.9885C10.3501 16.7696 10.5192 16.571 10.6971 16.3793C10.7235 16.3512 10.7897 16.3473 10.8355 16.3516C11.6468 16.4273 12.4551 16.5264 13.2283 16.7981C13.4434 16.8738 13.6563 16.9764 13.8432 17.1053C14.2633 17.3957 14.2772 17.8409 13.8397 18.1049C13.5009 18.3095 13.1145 18.4601 12.7299 18.5588C11.6365 18.8396 10.5132 18.9118 9.38948 18.9629C9.26097 18.9685 9.1329 18.9871 9.00482 18.9997C8.28352 19.0001 7.56266 19.0001 6.84136 19.0001Z"  stroke-width="0.2"/>
<path d="M11.0203 7.57702C11.3612 7.57702 11.6923 7.57486 12.0233 7.57789C12.285 7.58005 12.4239 7.7051 12.4218 7.92707C12.4196 8.14775 12.2807 8.26674 12.015 8.2689C11.6845 8.2715 11.3539 8.26933 11.0224 8.26933C10.7447 9.82573 9.81567 10.714 8.26922 11.0221C8.26922 11.3367 8.27052 11.6668 8.26879 11.997C8.26749 12.2804 8.1511 12.4214 7.9235 12.4219C7.69547 12.4223 7.57865 12.2817 7.57735 11.9987C7.57562 11.6751 7.57692 11.3514 7.57692 11.0217C6.02485 10.7469 5.13394 9.82053 4.82586 8.26933C4.49788 8.26933 4.15432 8.26803 3.8112 8.26976C3.63596 8.27063 3.49879 8.21308 3.44038 8.03525C3.36206 7.7977 3.51437 7.58525 3.77701 7.57919C4.12879 7.5714 4.48057 7.57746 4.82456 7.57746C5.10451 6.01025 6.03956 5.12799 7.57692 4.82597C7.57692 4.49928 7.57519 4.16871 7.57735 3.83856C7.57908 3.56164 7.70326 3.41885 7.93259 3.42448C8.15197 3.4301 8.26706 3.56813 8.26879 3.8364C8.27096 4.16654 8.26922 4.49712 8.26922 4.8238C9.82995 5.10376 10.7174 6.03361 11.0203 7.57702ZM7.57692 10.2952C7.57692 9.99275 7.57562 9.69159 7.57735 9.39001C7.57865 9.10486 7.69245 8.96467 7.92004 8.96294C8.1485 8.96121 8.26706 9.1027 8.26879 9.38395C8.27052 9.68597 8.26922 9.98799 8.26922 10.29C9.22807 10.258 10.2613 9.22472 10.2903 8.2689C9.98831 8.2689 9.68629 8.2702 9.38427 8.26847C9.10259 8.26674 8.96153 8.14818 8.96283 7.91972C8.96456 7.69212 9.10432 7.57832 9.38946 7.57659C9.69105 7.57529 9.99221 7.57616 10.2947 7.57616C10.2267 6.57967 9.19043 5.54986 8.26879 5.56025C8.26879 5.87654 8.26836 6.19284 8.26879 6.50914C8.26922 6.69779 8.19091 6.83106 8.00052 6.8752C7.76557 6.92972 7.58297 6.77611 7.57822 6.5152C7.57259 6.19371 7.57692 5.87222 7.57692 5.54813C6.37446 5.67318 5.55927 6.79775 5.56533 7.57659C5.88163 7.57659 6.19836 7.5727 6.51509 7.57789C6.74701 7.58178 6.87855 7.70726 6.88288 7.91409C6.88764 8.12957 6.75134 8.26371 6.5099 8.26717C6.18971 8.27193 5.86951 8.26847 5.54716 8.26847C5.651 9.29611 6.59341 10.2329 7.57692 10.2952Z"  stroke-width="0.2"/>
</svg>
