<svg width="18" height="18" viewBox="0 0 18 18" fill="#6B7280" xmlns="http://www.w3.org/2000/svg">
<path d="M0.000352394 4.35355C0.079641 4.11181 0.128271 3.85385 0.244209 3.63079C0.667434 2.81782 1.6714 2.4693 2.49072 2.82945C3.38192 3.22131 3.81819 4.17383 3.5035 5.06327C3.46051 5.18485 3.47918 5.24757 3.57327 5.32651C3.8788 5.58235 4.17622 5.8477 4.48033 6.1127C5.984 4.935 7.58211 4.78171 9.29192 5.66163C9.85399 4.94804 10.4189 4.23092 10.9894 3.50639C10.7642 3.19312 10.619 2.85552 10.5563 2.47881C10.3681 1.34552 11.2125 0.190368 12.3592 0.0247434C13.5573 -0.148282 14.6324 0.602317 14.8587 1.7698C15.0807 2.91613 14.3417 4.02653 13.176 4.29505C12.7581 4.39125 12.3493 4.34932 11.9461 4.20977C11.8943 4.1918 11.7971 4.20026 11.7692 4.23514C11.241 4.89377 10.7202 5.55803 10.1983 6.22159C10.1733 6.2533 10.1507 6.28713 10.1327 6.31215C10.3174 6.56341 10.5172 6.79529 10.6726 7.05359C11.3619 8.20063 11.468 9.40723 10.9964 10.6593C10.9461 10.7925 10.9728 10.8517 11.0912 10.9193C11.4415 11.1195 11.7844 11.3324 12.1364 11.5441C12.4666 11.1953 12.8423 10.9331 13.2824 10.7629C15.0106 10.094 16.9773 11.2947 17.1655 13.1352C17.1718 13.1979 17.1866 13.2596 17.1975 13.322C17.1975 13.4157 17.1975 13.5094 17.1975 13.6032C17.1679 13.7751 17.1492 13.9496 17.1073 14.1184C16.7419 15.6006 15.4081 16.5066 13.8797 16.3149C12.5568 16.1492 11.4708 14.9677 11.4133 13.6419C11.3957 13.2339 11.4514 12.8392 11.5864 12.4466C11.1822 12.2031 10.7878 11.9653 10.3903 11.726C10.3265 11.7965 10.2762 11.8528 10.2247 11.9092C9.60379 12.5897 8.84367 13.0203 7.93415 13.1881C7.0373 13.3533 6.18099 13.2318 5.37048 12.8202C5.21367 12.7405 5.14495 12.7687 5.04839 12.9016C4.70093 13.3808 4.3422 13.8523 3.98135 14.3217C3.9091 14.4154 3.9017 14.4761 3.97394 14.5786C4.69882 15.6055 4.4088 17.027 3.3273 17.6695C3.06724 17.8242 2.75537 17.8922 2.46711 18C2.29091 18 2.11472 18 1.93852 18C1.91138 17.9898 1.88531 17.9753 1.85712 17.9704C0.99657 17.8146 0.421815 17.3199 0.124395 16.5044C0.0648405 16.3413 0.0405253 16.1651 0 15.9952C0 15.8899 0 15.7841 0 15.6788C0.011629 15.6224 0.0267819 15.5667 0.034887 15.5096C0.155053 14.6487 0.807334 13.9263 1.6566 13.7128C2.12705 13.5947 2.58657 13.636 3.04257 13.8153C3.47496 13.2409 3.90311 12.6718 4.33233 12.1013C4.22097 11.9751 4.11349 11.8662 4.02046 11.7468C2.91253 10.3238 2.80294 8.58862 3.72304 7.03597C3.77238 6.95245 3.7833 6.90136 3.69978 6.83088C3.40835 6.58526 3.1215 6.334 2.83853 6.07887C2.76523 6.01262 2.71273 6.0313 2.63802 6.06935C1.73871 6.52535 0.69633 6.20362 0.228704 5.31136C0.119462 5.10274 0.0747075 4.861 0.000352394 4.63476C0.000352394 4.54102 0.000352394 4.44729 0.000352394 4.35355ZM7.18954 12.2031C8.85918 12.2059 10.2141 10.8619 10.2219 9.19509C10.2296 7.52615 8.87292 6.16168 7.19835 6.15393C5.53822 6.14653 4.15684 7.52545 4.16142 9.18593C4.16635 10.8499 5.52201 12.2007 7.18954 12.2031ZM14.2959 11.634C13.2969 11.6337 12.4709 12.4547 12.4649 13.4548C12.4589 14.4602 13.2888 15.2933 14.2956 15.2926C15.2928 15.2919 16.1224 14.4697 16.1315 13.4724C16.1407 12.479 15.2974 11.6347 14.2959 11.634ZM12.7059 1.04845C12.0938 1.05479 11.5909 1.56329 11.5934 2.17435C11.5959 2.78434 12.1051 3.29214 12.7144 3.29214C13.33 3.29214 13.8544 2.76284 13.8385 2.15708C13.8219 1.53898 13.3145 1.0421 12.7059 1.04845ZM3.31285 15.8433C3.32484 15.2249 2.82303 14.7093 2.2007 14.6995C1.59705 14.69 1.08291 15.1932 1.0674 15.8088C1.05225 16.4072 1.56322 16.9305 2.17497 16.9428C2.78321 16.9552 3.30123 16.4548 3.31285 15.8433ZM1.8039 3.7499C1.39724 3.75201 1.06352 4.08643 1.0674 4.48746C1.07128 4.88813 1.41345 5.22537 1.81236 5.2222C2.21691 5.21868 2.54499 4.88566 2.54358 4.479C2.54182 4.07022 2.21479 3.74778 1.8039 3.7499Z" />
</svg>
