<svg width="60" height="61" viewBox="0 0 60 61" fill="none" xmlns="http://www.w3.org/2000/svg">
<rect x="-0.000366211" y="0.359985" width="59.7683" height="60" rx="29.8842" fill="#28282B" fill-opacity="0.48"/>
<g clip-path="url(#clip0_54054_32003)">
<path d="M38.1419 26.4401L28.8669 19.6345C28.1424 19.1041 27.2853 18.7846 26.3904 18.7115C25.4955 18.6385 24.5979 18.8147 23.797 19.2207C22.9962 19.6267 22.3234 20.2465 21.8533 21.0115C21.3832 21.7764 21.1342 22.6567 21.1338 23.5545V37.1656C21.134 38.0639 21.383 38.9446 21.8533 39.7099C22.3236 40.4752 22.9968 41.0952 23.7981 41.5012C24.5994 41.9071 25.4975 42.0831 26.3928 42.0096C27.2881 41.936 28.1454 41.6159 28.8698 41.0847L38.1448 34.2791C38.7605 33.8276 39.2611 33.2374 39.6062 32.5564C39.9513 31.8753 40.1312 31.1226 40.1312 30.3591C40.1312 29.5956 39.9513 28.8429 39.6062 28.1618C39.2611 27.4808 38.7605 26.8906 38.1448 26.4391L38.1419 26.4401ZM36.9907 32.7109L27.7157 39.5165C27.2812 39.834 26.7672 40.0251 26.2307 40.0687C25.6943 40.1122 25.1562 40.0064 24.6762 39.763C24.1961 39.5197 23.7927 39.1482 23.5107 38.6898C23.2287 38.2314 23.079 37.7039 23.0782 37.1656V23.5545C23.0729 23.0153 23.2197 22.4854 23.5019 22.0259C23.7841 21.5664 24.1903 21.1958 24.6737 20.9567C25.0848 20.7476 25.5395 20.6384 26.0007 20.6378C26.619 20.6402 27.2201 20.8409 27.7157 21.2105L36.9907 28.016C37.3597 28.287 37.6597 28.641 37.8665 29.0494C38.0732 29.4578 38.181 29.9091 38.181 30.3669C38.181 30.8246 38.0732 31.276 37.8665 31.6844C37.6597 32.0928 37.3597 32.4468 36.9907 32.7177V32.7109Z" fill="#E7E8EB"/>
</g>
<defs>
<clipPath id="clip0_54054_32003">
<rect width="23.3333" height="23.3333" fill="white" transform="translate(18.2171 18.6934)"/>
</clipPath>
</defs>
</svg>
