<svg width="40" height="41" viewBox="0 0 40 41" fill="none" xmlns="http://www.w3.org/2000/svg">
<rect y="0.708984" width="40" height="40" rx="8" fill="#C5C6C9"/>
<g clip-path="url(#clip0_54054_19671)">
<path d="M26.6064 18.073L19.1864 12.6285C18.6069 12.2042 17.9212 11.9486 17.2053 11.8902C16.4894 11.8317 15.7712 11.9727 15.1306 12.2975C14.4899 12.6223 13.9517 13.1181 13.5756 13.7301C13.1995 14.3421 13.0003 15.0462 13 15.7645V26.6534C13.0001 27.372 13.1994 28.0766 13.5756 28.6888C13.9519 29.3011 14.4904 29.7971 15.1314 30.1219C15.7725 30.4466 16.491 30.5874 17.2072 30.5286C17.9234 30.4698 18.6093 30.2136 19.1888 29.7887L26.6088 24.3442C27.1013 23.983 27.5019 23.5109 27.7779 22.966C28.054 22.4212 28.1979 21.819 28.1979 21.2082C28.1979 20.5974 28.054 19.9952 27.7779 19.4504C27.5019 18.9056 27.1013 18.4334 26.6088 18.0722L26.6064 18.073ZM25.6856 23.0897L18.2656 28.5341C17.9179 28.7881 17.5067 28.941 17.0776 28.9759C16.6484 29.0107 16.2179 28.926 15.8339 28.7314C15.4498 28.5367 15.1271 28.2395 14.9015 27.8728C14.6759 27.506 14.5562 27.084 14.5556 26.6534V15.7645C14.5512 15.3331 14.6687 14.9093 14.8945 14.5417C15.1203 14.174 15.4452 13.8776 15.8319 13.6863C16.1608 13.519 16.5245 13.4316 16.8936 13.4312C17.3881 13.4331 17.8691 13.5937 18.2656 13.8893L25.6856 19.3338C25.9807 19.5505 26.2207 19.8337 26.3861 20.1604C26.5516 20.4872 26.6378 20.8482 26.6378 21.2144C26.6378 21.5806 26.5516 21.9417 26.3861 22.2684C26.2207 22.5951 25.9807 22.8783 25.6856 23.0951V23.0897Z" fill="white"/>
</g>
<defs>
<clipPath id="clip0_54054_19671">
<rect width="18.6667" height="18.6667" fill="white" transform="translate(10.6667 11.8757)"/>
</clipPath>
</defs>
</svg>
