<svg width="22" height="22" viewBox="0 0 22 22" fill="none" xmlns="http://www.w3.org/2000/svg">
<path d="M6.77864 18.4826C6.77889 18.199 6.89172 17.9272 7.09234 17.7268L12.5622 12.257C12.7278 12.0914 12.8591 11.8949 12.9487 11.6787C13.0383 11.4624 13.0844 11.2306 13.0844 10.9964C13.0844 10.7623 13.0383 10.5305 12.9487 10.3142C12.8591 10.098 12.7278 9.90145 12.5622 9.73593L7.09947 4.27321C6.90466 4.07151 6.79687 3.80136 6.7993 3.52096C6.80174 3.24055 6.91421 2.97232 7.1125 2.77404C7.31078 2.57576 7.57901 2.46328 7.85942 2.46085C8.13982 2.45841 8.40996 2.5662 8.61166 2.76101L14.0744 8.21946C14.8089 8.95542 15.2214 9.95274 15.2214 10.9925C15.2214 12.0323 14.8089 13.0296 14.0744 13.7656L8.60454 19.239C8.45497 19.3887 8.26437 19.4906 8.05685 19.5319C7.84934 19.5732 7.63423 19.552 7.43876 19.4711C7.24328 19.3901 7.07622 19.2529 6.95872 19.077C6.84121 18.901 6.77854 18.6941 6.77864 18.4826Z" fill="#28282B"/>
</svg>
