<svg width="25" height="24" viewBox="0 0 25 24" fill="none" xmlns="http://www.w3.org/2000/svg">
<g clip-path="url(#clip0_39856_168801)">
<path fill-rule="evenodd" clip-rule="evenodd" d="M7.05559 12.1878C7.63116 12.5723 8.30785 12.7776 9.00008 12.7776C9.77153 12.7768 10.5165 12.5215 11.1229 12.0584C11.3815 11.7062 11.6739 11.3803 11.9953 11.0855C12.3221 10.5445 12.4994 9.92023 12.5001 9.27762C12.5001 8.58538 12.2948 7.90869 11.9102 7.33312C11.5256 6.75755 10.979 6.30895 10.3395 6.04404C9.69993 5.77913 8.9962 5.70982 8.31727 5.84487C7.63833 5.97992 7.01469 6.31326 6.52521 6.80274C6.03572 7.29223 5.70238 7.91587 5.56733 8.5948C5.43228 9.27373 5.5016 9.97747 5.7665 10.617C6.03141 11.2566 6.48001 11.8032 7.05559 12.1878ZM17.9002 9.4806C17.4487 9.38412 16.9803 9.33333 16.5001 9.33333C16.1494 9.33333 15.8051 9.36041 15.469 9.41258C15.2473 9.32316 15.0342 9.21082 14.8334 9.07665C14.2578 8.69206 13.8092 8.14544 13.5443 7.5059C13.2794 6.86636 13.2101 6.16262 13.3451 5.48369C13.4802 4.80476 13.8135 4.18112 14.303 3.69163C14.7925 3.20215 15.4161 2.86881 16.095 2.73376C16.774 2.59871 17.4777 2.66802 18.1173 2.93293C18.7568 3.19783 19.3034 3.64644 19.688 4.22201C20.0726 4.79758 20.2779 5.47427 20.2779 6.16651C20.2768 7.09445 19.9078 7.98409 19.2516 8.64024C18.8679 9.0239 18.4044 9.30942 17.9002 9.4806ZM10.021 14.4232C9.9006 14.9196 9.83577 15.4378 9.83348 15.9707C9.561 15.9166 9.28197 15.8887 9.00008 15.8887C7.86554 15.8887 6.77748 16.3394 5.97524 17.1417C5.173 17.9439 4.7223 19.032 4.7223 20.1665V20.5554C4.7223 20.7617 4.64036 20.9595 4.4945 21.1054C4.34864 21.2512 4.15081 21.3332 3.94453 21.3332C3.73825 21.3332 3.54042 21.2512 3.39455 21.1054C3.24869 20.9595 3.16675 20.7617 3.16675 20.5554V20.1665C3.16675 18.6194 3.78133 17.1357 4.87529 16.0417C5.96925 14.9478 7.45299 14.3332 9.00008 14.3332C9.34473 14.3332 9.68624 14.3637 10.021 14.4232ZM7.91981 7.66087C8.23957 7.44721 8.61551 7.33317 9.00008 7.33317C9.51578 7.33317 10.0104 7.53803 10.375 7.90269C10.7397 8.26734 10.9445 8.76192 10.9445 9.27762C10.9445 9.66219 10.8305 10.0381 10.6168 10.3579C10.4032 10.6777 10.0995 10.9269 9.74419 11.074C9.38889 11.2212 8.99792 11.2597 8.62074 11.1847C8.24355 11.1097 7.89709 10.9245 7.62515 10.6525C7.35322 10.3806 7.16803 10.0341 7.093 9.65696C7.01797 9.27977 7.05648 8.88881 7.20365 8.53351C7.35082 8.17821 7.60004 7.87453 7.91981 7.66087ZM15.6976 4.54976C16.0173 4.3361 16.3933 4.22206 16.7779 4.22206C17.2936 4.22206 17.7881 4.42692 18.1528 4.79158C18.5174 5.15623 18.7223 5.65081 18.7223 6.16651C18.7223 6.55108 18.6083 6.92702 18.3946 7.24678C18.1809 7.56654 17.8773 7.81577 17.522 7.96294C17.1667 8.11011 16.7757 8.14862 16.3985 8.07359C16.0213 7.99856 15.6749 7.81337 15.4029 7.54144C15.131 7.2695 14.9458 6.92303 14.8708 6.54585C14.7958 6.16866 14.8343 5.7777 14.9814 5.4224C15.1286 5.0671 15.3778 4.76342 15.6976 4.54976Z" fill="white"/>
<path fill-rule="evenodd" clip-rule="evenodd" d="M16.5001 21.3334C19.4456 21.3334 21.8334 18.9456 21.8334 16.0001C21.8334 13.0546 19.4456 10.6667 16.5001 10.6667C13.5546 10.6667 11.1667 13.0546 11.1667 16.0001C11.1667 18.9456 13.5546 21.3334 16.5001 21.3334ZM17.3334 16.8808L17.3334 18.5475C17.3334 19.0077 16.9603 19.3808 16.5001 19.3808C16.0398 19.3808 15.6668 19.0077 15.6668 18.5475V16.8808L14.0001 16.8808C13.5398 16.8808 13.1667 16.5077 13.1667 16.0475C13.1667 15.5872 13.5398 15.2141 14.0001 15.2141H15.6668V13.5474C15.6668 13.0872 16.0398 12.7141 16.5001 12.7141C16.9603 12.7141 17.3334 13.0872 17.3334 13.5474V15.2141H19.0001C19.4603 15.2141 19.8334 15.5872 19.8334 16.0475C19.8334 16.5077 19.4603 16.8808 19.0001 16.8808H17.3334Z" fill="white"/>
</g>
<defs>
<clipPath id="clip0_39856_168801">
<rect width="18.6667" height="18.6667" fill="white" transform="translate(3.16675 2.6665)"/>
</clipPath>
</defs>
</svg>
