<svg width="24" height="24" viewBox="0 0 24 24" fill="none" xmlns="http://www.w3.org/2000/svg">
<g clip-path="url(#clip0_39856_168957)">
<path fill-rule="evenodd" clip-rule="evenodd" d="M6.55559 12.1878C7.13116 12.5723 7.80785 12.7776 8.50008 12.7776C9.27153 12.7768 10.0165 12.5215 10.6229 12.0584C10.8815 11.7062 11.1739 11.3803 11.4953 11.0855C11.8221 10.5445 11.9994 9.92023 12.0001 9.27762C12.0001 8.58538 11.7948 7.90869 11.4102 7.33312C11.0256 6.75755 10.479 6.30895 9.83947 6.04404C9.19993 5.77913 8.4962 5.70982 7.81727 5.84487C7.13833 5.97992 6.51469 6.31326 6.02521 6.80274C5.53572 7.29223 5.20238 7.91587 5.06733 8.5948C4.93228 9.27373 5.0016 9.97747 5.2665 10.617C5.53141 11.2566 5.98001 11.8032 6.55559 12.1878ZM17.4002 9.4806C16.9487 9.38412 16.4803 9.33333 16.0001 9.33333C15.6494 9.33333 15.3051 9.36041 14.969 9.41258C14.7473 9.32316 14.5342 9.21082 14.3334 9.07665C13.7578 8.69206 13.3092 8.14544 13.0443 7.5059C12.7794 6.86636 12.7101 6.16262 12.8451 5.48369C12.9802 4.80476 13.3135 4.18112 13.803 3.69163C14.2925 3.20215 14.9161 2.86881 15.595 2.73376C16.274 2.59871 16.9777 2.66802 17.6173 2.93293C18.2568 3.19783 18.8034 3.64644 19.188 4.22201C19.5726 4.79758 19.7779 5.47427 19.7779 6.16651C19.7768 7.09445 19.4078 7.98409 18.7516 8.64024C18.3679 9.0239 17.9044 9.30942 17.4002 9.4806ZM9.52099 14.4232C9.4006 14.9196 9.33577 15.4378 9.33348 15.9707C9.061 15.9166 8.78197 15.8887 8.50008 15.8887C7.36554 15.8887 6.27748 16.3394 5.47524 17.1417C4.673 17.9439 4.2223 19.032 4.2223 20.1665V20.5554C4.2223 20.7617 4.14036 20.9595 3.9945 21.1054C3.84864 21.2512 3.65081 21.3332 3.44453 21.3332C3.23825 21.3332 3.04042 21.2512 2.89455 21.1054C2.74869 20.9595 2.66675 20.7617 2.66675 20.5554V20.1665C2.66675 18.6194 3.28133 17.1357 4.37529 16.0417C5.46925 14.9478 6.95299 14.3332 8.50008 14.3332C8.84473 14.3332 9.18624 14.3637 9.52099 14.4232ZM7.41981 7.66087C7.73957 7.44721 8.11551 7.33317 8.50008 7.33317C9.01578 7.33317 9.51036 7.53803 9.87501 7.90269C10.2397 8.26734 10.4445 8.76192 10.4445 9.27762C10.4445 9.66219 10.3305 10.0381 10.1168 10.3579C9.90317 10.6777 9.59949 10.9269 9.24419 11.074C8.88889 11.2212 8.49792 11.2597 8.12074 11.1847C7.74355 11.1097 7.39709 10.9245 7.12515 10.6525C6.85322 10.3806 6.66803 10.0341 6.593 9.65696C6.51797 9.27977 6.55648 8.88881 6.70365 8.53351C6.85082 8.17821 7.10004 7.87453 7.41981 7.66087ZM15.1976 4.54976C15.5173 4.3361 15.8933 4.22206 16.2779 4.22206C16.7936 4.22206 17.2881 4.42692 17.6528 4.79158C18.0174 5.15623 18.2223 5.65081 18.2223 6.16651C18.2223 6.55108 18.1083 6.92702 17.8946 7.24678C17.6809 7.56654 17.3773 7.81577 17.022 7.96294C16.6667 8.11011 16.2757 8.14862 15.8985 8.07359C15.5213 7.99856 15.1749 7.81337 14.9029 7.54144C14.631 7.2695 14.4458 6.92303 14.3708 6.54585C14.2958 6.16866 14.3343 5.7777 14.4814 5.4224C14.6286 5.0671 14.8778 4.76342 15.1976 4.54976Z" fill="#28282B"/>
<path fill-rule="evenodd" clip-rule="evenodd" d="M16.0008 21.3333C18.9463 21.3333 21.3341 18.9455 21.3341 16C21.3341 13.0544 18.9463 10.6666 16.0008 10.6666C13.0553 10.6666 10.6675 13.0544 10.6675 16C10.6675 18.9455 13.0553 21.3333 16.0008 21.3333ZM14.1037 17.9316C14.3527 18.1889 14.6907 18.3334 15.0432 18.3333C15.3957 18.3334 15.7337 18.1889 15.9827 17.9316L19.1049 14.7118C19.4106 14.3964 19.4106 13.8852 19.1049 13.5698C18.7992 13.2545 18.3036 13.2545 17.9979 13.5698L15.0432 16.6178L14.0037 15.63C13.698 15.3147 13.2024 15.3147 12.8967 15.63C12.591 15.9454 12.591 16.4567 12.8967 16.7721L14.1037 17.9316Z" fill="#28282B"/>
</g>
<defs>
<clipPath id="clip0_39856_168957">
<rect width="18.6667" height="18.6667" fill="white" transform="translate(2.66675 2.6665)"/>
</clipPath>
</defs>
</svg>
