<svg width="25" height="24" viewBox="0 0 25 24" fill="none" xmlns="http://www.w3.org/2000/svg">
<g clip-path="url(#clip0_39856_168806)">
<mask id="path-1-inside-1_39856_168806" fill="white">
<path d="M17.9445 2.66675H7.05564C6.02462 2.66798 5.03618 3.0781 4.30714 3.80714C3.5781 4.53618 3.16798 5.52462 3.16675 6.55564L3.16675 10.4445C3.1686 11.8879 3.7428 13.2717 4.76343 14.2923C5.78407 15.3129 7.16781 15.8871 8.61119 15.889H10.1667V19.0001C10.1667 19.6189 10.4126 20.2124 10.8502 20.65C11.2878 21.0876 11.8812 21.3334 12.5001 21.3334C13.1189 21.3334 13.7124 21.0876 14.15 20.65C14.5876 20.2124 14.8334 19.6189 14.8334 19.0001V15.889H16.389C17.8324 15.8871 19.2161 15.3129 20.2367 14.2923C21.2574 13.2717 21.8316 11.8879 21.8334 10.4445V6.55564C21.8322 5.52462 21.4221 4.53618 20.693 3.80714C19.964 3.0781 18.9755 2.66798 17.9445 2.66675V2.66675ZM4.7223 6.55564C4.7223 5.9368 4.96814 5.34331 5.40572 4.90572C5.84331 4.46814 6.4368 4.2223 7.05564 4.2223H10.9445V5.00008C10.9445 5.20636 11.0265 5.40419 11.1723 5.55005C11.3182 5.69592 11.516 5.77786 11.7223 5.77786C11.9286 5.77786 12.1264 5.69592 12.2723 5.55005C12.4181 5.40419 12.5001 5.20636 12.5001 5.00008V4.2223H14.0556V6.55564C14.0556 6.76192 14.1376 6.95975 14.2834 7.10561C14.4293 7.25147 14.6271 7.33342 14.8334 7.33342C15.0397 7.33342 15.2375 7.25147 15.3834 7.10561C15.5292 6.95975 15.6112 6.76192 15.6112 6.55564V4.2223H17.1667V8.11119C17.1667 8.31747 17.2487 8.5153 17.3946 8.66116C17.5404 8.80703 17.7382 8.88897 17.9445 8.88897C18.1508 8.88897 18.3486 8.80703 18.4945 8.66116C18.6404 8.5153 18.7223 8.31747 18.7223 8.11119V4.36541C19.1757 4.5257 19.5685 4.82215 19.8469 5.2142C20.1254 5.60626 20.2759 6.07477 20.2779 6.55564V10.4445H4.7223V6.55564ZM16.389 14.3334H14.0556C13.8494 14.3334 13.6515 14.4154 13.5057 14.5612C13.3598 14.7071 13.2779 14.9049 13.2779 15.1112V19.0001C13.2779 19.2064 13.1959 19.4042 13.0501 19.5501C12.9042 19.6959 12.7064 19.7779 12.5001 19.7779C12.2938 19.7779 12.096 19.6959 11.9501 19.5501C11.8042 19.4042 11.7223 19.2064 11.7223 19.0001V15.1112C11.7223 14.9049 11.6404 14.7071 11.4945 14.5612C11.3486 14.4154 11.1508 14.3334 10.9445 14.3334H8.61119C7.85537 14.3324 7.11623 14.1112 6.48414 13.6968C5.85204 13.2824 5.35441 12.6928 5.05208 12.0001H19.9481C19.6458 12.6928 19.1481 13.2824 18.516 13.6968C17.8839 14.1112 17.1448 14.3324 16.389 14.3334Z"/>
</mask>
<path d="M17.9445 2.66675H7.05564C6.02462 2.66798 5.03618 3.0781 4.30714 3.80714C3.5781 4.53618 3.16798 5.52462 3.16675 6.55564L3.16675 10.4445C3.1686 11.8879 3.7428 13.2717 4.76343 14.2923C5.78407 15.3129 7.16781 15.8871 8.61119 15.889H10.1667V19.0001C10.1667 19.6189 10.4126 20.2124 10.8502 20.65C11.2878 21.0876 11.8812 21.3334 12.5001 21.3334C13.1189 21.3334 13.7124 21.0876 14.15 20.65C14.5876 20.2124 14.8334 19.6189 14.8334 19.0001V15.889H16.389C17.8324 15.8871 19.2161 15.3129 20.2367 14.2923C21.2574 13.2717 21.8316 11.8879 21.8334 10.4445V6.55564C21.8322 5.52462 21.4221 4.53618 20.693 3.80714C19.964 3.0781 18.9755 2.66798 17.9445 2.66675V2.66675ZM4.7223 6.55564C4.7223 5.9368 4.96814 5.34331 5.40572 4.90572C5.84331 4.46814 6.4368 4.2223 7.05564 4.2223H10.9445V5.00008C10.9445 5.20636 11.0265 5.40419 11.1723 5.55005C11.3182 5.69592 11.516 5.77786 11.7223 5.77786C11.9286 5.77786 12.1264 5.69592 12.2723 5.55005C12.4181 5.40419 12.5001 5.20636 12.5001 5.00008V4.2223H14.0556V6.55564C14.0556 6.76192 14.1376 6.95975 14.2834 7.10561C14.4293 7.25147 14.6271 7.33342 14.8334 7.33342C15.0397 7.33342 15.2375 7.25147 15.3834 7.10561C15.5292 6.95975 15.6112 6.76192 15.6112 6.55564V4.2223H17.1667V8.11119C17.1667 8.31747 17.2487 8.5153 17.3946 8.66116C17.5404 8.80703 17.7382 8.88897 17.9445 8.88897C18.1508 8.88897 18.3486 8.80703 18.4945 8.66116C18.6404 8.5153 18.7223 8.31747 18.7223 8.11119V4.36541C19.1757 4.5257 19.5685 4.82215 19.8469 5.2142C20.1254 5.60626 20.2759 6.07477 20.2779 6.55564V10.4445H4.7223V6.55564ZM16.389 14.3334H14.0556C13.8494 14.3334 13.6515 14.4154 13.5057 14.5612C13.3598 14.7071 13.2779 14.9049 13.2779 15.1112V19.0001C13.2779 19.2064 13.1959 19.4042 13.0501 19.5501C12.9042 19.6959 12.7064 19.7779 12.5001 19.7779C12.2938 19.7779 12.096 19.6959 11.9501 19.5501C11.8042 19.4042 11.7223 19.2064 11.7223 19.0001V15.1112C11.7223 14.9049 11.6404 14.7071 11.4945 14.5612C11.3486 14.4154 11.1508 14.3334 10.9445 14.3334H8.61119C7.85537 14.3324 7.11623 14.1112 6.48414 13.6968C5.85204 13.2824 5.35441 12.6928 5.05208 12.0001H19.9481C19.6458 12.6928 19.1481 13.2824 18.516 13.6968C17.8839 14.1112 17.1448 14.3324 16.389 14.3334Z" fill="white"/>
<path d="M17.9445 2.66675V24.0001H39.2779V2.66675H17.9445ZM7.05564 2.66675V-18.6666H7.04286L7.03008 -18.6666L7.05564 2.66675ZM3.16675 6.55564L-18.1666 6.53008L-18.1666 6.54286V6.55564H3.16675ZM3.16675 10.4445H-18.1666V10.4582L-18.1666 10.4719L3.16675 10.4445ZM8.61119 15.889L8.58382 37.2223L8.59751 37.2223H8.61119V15.889ZM10.1667 15.889H31.5001V-5.44436H10.1667V15.889ZM12.5001 21.3334V42.6668V21.3334ZM14.8334 15.889V-5.44436H-6.49992V15.889H14.8334ZM16.389 15.889V37.2223H16.4027L16.4163 37.2223L16.389 15.889ZM21.8334 10.4445L43.1667 10.4719L43.1668 10.4582V10.4445H21.8334ZM21.8334 6.55564H43.1668V6.54286L43.1667 6.53008L21.8334 6.55564ZM17.9445 2.66675L17.9701 -18.6666L-3.38881 -18.6922V2.66675H17.9445ZM4.7223 6.55564H-16.611H4.7223ZM7.05564 4.2223V-17.111V4.2223ZM10.9445 4.2223H32.2779V-17.111H10.9445V4.2223ZM11.1723 5.55005L-3.91261 20.635L11.1723 5.55005ZM11.7223 5.77786V27.1112V5.77786ZM12.5001 4.2223V-17.111H-8.83325V4.2223H12.5001ZM14.0556 4.2223H35.389V-17.111H14.0556V4.2223ZM15.6112 4.2223V-17.111H-5.72214V4.2223H15.6112ZM17.1667 4.2223H38.5001V-17.111H17.1667V4.2223ZM18.7223 4.36541L25.8332 -15.7479L-2.61103 -25.8042V4.36541H18.7223ZM20.2779 6.55564H41.6112V6.51142L41.611 6.4672L20.2779 6.55564ZM20.2779 10.4445V31.7779H41.6112V10.4445H20.2779ZM4.7223 10.4445H-16.611V31.7779H4.7223V10.4445ZM8.61119 14.3334L8.58313 35.6667L8.59716 35.6667H8.61119V14.3334ZM5.05208 12.0001V-9.33325H-27.5351L-14.5002 20.5334L5.05208 12.0001ZM19.9481 12.0001L39.5004 20.5334L52.5353 -9.33325H19.9481V12.0001ZM17.9445 -18.6666H7.05564V24.0001H17.9445V-18.6666ZM7.03008 -18.6666C0.349971 -18.6586 -6.05425 -16.0014 -10.7778 -11.2778L19.3921 18.8921C16.1266 22.1576 11.6993 23.9945 7.08119 24.0001L7.03008 -18.6666ZM-10.7778 -11.2778C-15.5014 -6.55425 -18.1586 -0.150029 -18.1666 6.53008L24.5001 6.58119C24.4945 11.1993 22.6576 15.6266 19.3921 18.8921L-10.7778 -11.2778ZM-18.1666 6.55564V10.4445H24.5001V6.55564H-18.1666ZM-18.1666 10.4719C-18.1575 17.5638 -15.3362 24.3625 -10.3215 29.3772L19.8484 -0.792661C22.8218 2.18078 24.4947 6.21208 24.5001 10.4172L-18.1666 10.4719ZM-10.3215 29.3772C-5.30681 34.3919 1.49196 37.2132 8.58382 37.2223L8.63857 -5.44434C12.8436 -5.43895 16.8749 -3.7661 19.8484 -0.792661L-10.3215 29.3772ZM8.61119 37.2223H10.1667V-5.44436H8.61119V37.2223ZM-11.1666 15.889V19.0001H31.5001V15.889H-11.1666ZM-11.1666 19.0001C-11.1666 25.2769 -8.67315 31.2966 -4.23478 35.7349L25.9351 5.56505C29.4983 9.12825 31.5001 13.961 31.5001 19.0001H-11.1666ZM-4.23478 35.7349C0.203589 40.1733 6.2233 42.6668 12.5001 42.6668V8.24928e-05C17.5392 8.24928e-05 22.3719 2.00186 25.9351 5.56505L-4.23478 35.7349ZM12.5001 42.6668C18.7769 42.6668 24.7966 40.1733 29.2349 35.7349L-0.934947 5.56505C2.62825 2.00186 7.46098 8.24928e-05 12.5001 8.24928e-05V42.6668ZM29.2349 35.7349C33.6733 31.2966 36.1667 25.2769 36.1667 19.0001H-6.49992C-6.49992 13.961 -4.49814 9.12825 -0.934947 5.56505L29.2349 35.7349ZM36.1667 19.0001V15.889H-6.49992V19.0001H36.1667ZM14.8334 37.2223H16.389V-5.44436H14.8334V37.2223ZM16.4163 37.2223C23.5082 37.2132 30.307 34.3919 35.3217 29.3772L5.15178 -0.792661C8.12522 -3.7661 12.1565 -5.43895 16.3616 -5.44434L16.4163 37.2223ZM35.3217 29.3772C40.3364 24.3625 43.1576 17.5638 43.1667 10.4719L0.5001 10.4172C0.505496 6.21207 2.17835 2.18078 5.15178 -0.792661L35.3217 29.3772ZM43.1668 10.4445V6.55564H0.500082V10.4445H43.1668ZM43.1667 6.53008C43.1587 -0.150019 40.5015 -6.55424 35.778 -11.2778L5.60808 18.8921C2.3426 15.6266 0.50563 11.1993 0.500098 6.58119L43.1667 6.53008ZM35.778 -11.2778C31.0544 -16.0014 24.6502 -18.6586 17.9701 -18.6666L17.919 24.0001C13.3009 23.9945 8.87356 22.1576 5.60808 18.8921L35.778 -11.2778ZM-3.38881 2.66675V2.66675H39.2779V2.66675H-3.38881ZM26.0556 6.55564C26.0556 11.5948 24.0539 16.4275 20.4907 19.9907L-9.67922 -10.1792C-14.1176 -5.74086 -16.611 0.278844 -16.611 6.55564H26.0556ZM20.4907 19.9907C16.9275 23.5539 12.0948 25.5556 7.05564 25.5556V-17.111C0.778844 -17.111 -5.24086 -14.6176 -9.67922 -10.1792L20.4907 19.9907ZM7.05564 25.5556H10.9445V-17.111H7.05564V25.5556ZM-10.3888 4.2223V5.00008H32.2779V4.2223H-10.3888ZM-10.3888 5.00008C-10.3888 10.8643 -8.05924 16.4884 -3.91261 20.635L26.2573 -9.53489C30.1122 -5.67998 32.2779 -0.4516 32.2779 5.00008H-10.3888ZM-3.91261 20.635C0.234024 24.7816 5.85807 27.1112 11.7223 27.1112V-15.5555C17.174 -15.5555 22.4024 -13.3898 26.2573 -9.53489L-3.91261 20.635ZM11.7223 27.1112C17.5865 27.1112 23.2106 24.7816 27.3572 20.635L-2.81267 -9.53489C1.04224 -13.3898 6.27063 -15.5555 11.7223 -15.5555V27.1112ZM27.3572 20.635C31.5039 16.4884 33.8334 10.8643 33.8334 5.00008H-8.83325C-8.83325 -0.4516 -6.66758 -5.67998 -2.81267 -9.53489L27.3572 20.635ZM33.8334 5.00008V4.2223H-8.83325V5.00008H33.8334ZM12.5001 25.5556H14.0556V-17.111H12.5001V25.5556ZM-7.2777 4.2223V6.55564H35.389V4.2223H-7.2777ZM-7.2777 6.55564C-7.2777 12.4199 -4.94813 18.0439 -0.801501 22.1906L29.3684 -7.97934C33.2233 -4.12443 35.389 1.10395 35.389 6.55564H-7.2777ZM-0.801501 22.1906C3.34513 26.3372 8.96917 28.6667 14.8334 28.6667V-13.9999C20.2851 -13.9999 25.5135 -11.8342 29.3684 -7.97934L-0.801501 22.1906ZM14.8334 28.6667C20.6977 28.6667 26.3217 26.3372 30.4683 22.1906L0.298443 -7.97934C4.15335 -11.8342 9.38173 -13.9999 14.8334 -13.9999V28.6667ZM30.4683 22.1906C34.615 18.0439 36.9445 12.4199 36.9445 6.55564H-5.72214C-5.72214 1.10395 -3.55646 -4.12443 0.298443 -7.97934L30.4683 22.1906ZM36.9445 6.55564V4.2223H-5.72214V6.55564H36.9445ZM15.6112 25.5556H17.1667V-17.111H15.6112V25.5556ZM-4.16658 4.2223V8.11119H38.5001V4.2223H-4.16658ZM-4.16658 8.11119C-4.16658 13.9754 -1.83705 19.5994 2.30961 23.7461L32.4795 -6.42378C36.3344 -2.56884 38.5001 2.65956 38.5001 8.11119H-4.16658ZM2.30961 23.7461C6.45625 27.8928 12.0803 30.2223 17.9445 30.2223V-12.4444C23.3962 -12.4444 28.6246 -10.2787 32.4795 -6.42378L2.30961 23.7461ZM17.9445 30.2223C23.8088 30.2223 29.4328 27.8928 33.5794 23.7461L3.40955 -6.42378C7.26447 -10.2787 12.4929 -12.4444 17.9445 -12.4444V30.2223ZM33.5794 23.7461C37.7261 19.5994 40.0556 13.9754 40.0556 8.11119H-2.61103C-2.61103 2.65956 -0.445386 -2.56884 3.40955 -6.42378L33.5794 23.7461ZM40.0556 8.11119V4.36541H-2.61103V8.11119H40.0556ZM11.6114 24.4787C7.91961 23.1735 4.72128 20.7596 2.45393 17.5672L37.2399 -7.13876C34.4156 -11.1153 30.4317 -14.1221 25.8332 -15.7479L11.6114 24.4787ZM2.45393 17.5672C0.186587 14.3747 -1.03906 10.5597 -1.05529 6.64407L41.611 6.4672C41.5908 1.58979 40.0641 -3.16223 37.2399 -7.13876L2.45393 17.5672ZM-1.05547 6.55564V10.4445H41.6112V6.55564H-1.05547ZM20.2779 -10.8888H4.7223V31.7779H20.2779V-10.8888ZM26.0556 10.4445V6.55564H-16.611V10.4445H26.0556ZM16.389 -6.99992H14.0556V35.6667H16.389V-6.99992ZM14.0556 -6.99992C8.19139 -6.99992 2.56735 -4.67035 -1.57928 -0.523723L28.5906 29.6462C24.7357 33.5011 19.5073 35.6667 14.0556 35.6667V-6.99992ZM-1.57928 -0.523723C-5.72591 3.6229 -8.05547 9.24695 -8.05547 15.1112H34.6112C34.6112 20.5629 32.4455 25.7913 28.5906 29.6462L-1.57928 -0.523723ZM-8.05547 15.1112V19.0001H34.6112V15.1112H-8.05547ZM-8.05547 19.0001C-8.05547 13.5484 -5.88981 8.32003 -2.03489 4.46511L28.135 34.635C32.2816 30.4884 34.6112 24.8643 34.6112 19.0001H-8.05547ZM-2.03489 4.46511C1.82005 0.61017 7.04845 -1.55547 12.5001 -1.55547V41.1112C18.3643 41.1112 23.9883 38.7817 28.135 34.635L-2.03489 4.46511ZM12.5001 -1.55547C17.9517 -1.55547 23.1801 0.61017 27.0351 4.46511L-3.13483 34.635C1.01183 38.7817 6.63589 41.1112 12.5001 41.1112V-1.55547ZM27.0351 4.46511C30.89 8.32003 33.0556 13.5484 33.0556 19.0001H-9.61103C-9.61103 24.8643 -7.28148 30.4884 -3.13483 34.635L27.0351 4.46511ZM33.0556 19.0001V15.1112H-9.61103V19.0001H33.0556ZM33.0556 15.1112C33.0556 9.24695 30.7261 3.6229 26.5794 -0.523723L-3.59045 29.6462C-7.44535 25.7913 -9.61103 20.5629 -9.61103 15.1112H33.0556ZM26.5794 -0.523723C22.4328 -4.67035 16.8088 -6.99992 10.9445 -6.99992V35.6667C5.49284 35.6667 0.264457 33.5011 -3.59045 29.6462L26.5794 -0.523723ZM10.9445 -6.99992H8.61119V35.6667H10.9445V-6.99992ZM8.63926 -6.9999C12.0296 -6.99544 15.3452 -6.00311 18.1806 -4.14425L-5.21236 31.5379C-1.11279 34.2255 3.68112 35.6603 8.58313 35.6667L8.63926 -6.9999ZM18.1806 -4.14425C21.016 -2.28538 23.2483 0.359432 24.6044 3.46677L-14.5002 20.5334C-12.5394 25.0262 -9.31192 28.8502 -5.21236 31.5379L18.1806 -4.14425ZM5.05208 33.3334H19.9481V-9.33325H5.05208V33.3334ZM0.395752 3.46677C1.7519 0.359435 3.98415 -2.28538 6.81953 -4.14425L30.2125 31.5379C34.3121 28.8502 37.5396 25.0262 39.5004 20.5334L0.395752 3.46677ZM6.81953 -4.14425C9.65492 -6.00311 12.9705 -6.99544 16.3609 -6.9999L16.417 35.6667C21.319 35.6603 26.113 34.2255 30.2125 31.5379L6.81953 -4.14425Z" fill="white" mask="url(#path-1-inside-1_39856_168806)"/>
</g>
<defs>
<clipPath id="clip0_39856_168806">
<rect width="18.6667" height="18.6667" fill="white" transform="translate(3.16675 2.66675)"/>
</clipPath>
</defs>
</svg>
