<svg width="24" height="24" viewBox="0 0 24 24" fill="none" xmlns="http://www.w3.org/2000/svg">
<path fill-rule="evenodd" clip-rule="evenodd" d="M2.75293 9.7977C2.75293 9.3291 3.1708 8.94922 3.68626 8.94922H20.3219C20.8374 8.94922 21.2553 9.3291 21.2553 9.7977C21.2553 10.2663 20.8374 10.6462 20.3219 10.6462H3.68626C3.1708 10.6462 2.75293 10.2663 2.75293 9.7977Z" fill="#28282B"/>
<path fill-rule="evenodd" clip-rule="evenodd" d="M15.2134 13.1112C15.2134 12.6426 15.6312 12.2627 16.1467 12.2627H16.1554C16.6708 12.2627 17.0887 12.6426 17.0887 13.1112C17.0887 13.5798 16.6708 13.9597 16.1554 13.9597H16.1467C15.6312 13.9597 15.2134 13.5798 15.2134 13.1112Z" fill="#28282B"/>
<path fill-rule="evenodd" clip-rule="evenodd" d="M11.0715 13.1112C11.0715 12.6426 11.4894 12.2627 12.0049 12.2627H12.0135C12.529 12.2627 12.9468 12.6426 12.9468 13.1112C12.9468 13.5798 12.529 13.9597 12.0135 13.9597H12.0049C11.4894 13.9597 11.0715 13.5798 11.0715 13.1112Z" fill="#28282B"/>
<path fill-rule="evenodd" clip-rule="evenodd" d="M6.92041 13.1112C6.92041 12.6426 7.33828 12.2627 7.85374 12.2627H7.86239C8.37786 12.2627 8.79572 12.6426 8.79572 13.1112C8.79572 13.5798 8.37786 13.9597 7.86239 13.9597H7.85374C7.33828 13.9597 6.92041 13.5798 6.92041 13.1112Z" fill="#28282B"/>
<path fill-rule="evenodd" clip-rule="evenodd" d="M15.2134 16.4092C15.2134 15.9405 15.6312 15.5607 16.1467 15.5607H16.1554C16.6708 15.5607 17.0887 15.9405 17.0887 16.4092C17.0887 16.8778 16.6708 17.2576 16.1554 17.2576H16.1467C15.6312 17.2576 15.2134 16.8778 15.2134 16.4092Z" fill="#28282B"/>
<path fill-rule="evenodd" clip-rule="evenodd" d="M11.0715 16.4092C11.0715 15.9405 11.4894 15.5607 12.0049 15.5607H12.0135C12.529 15.5607 12.9468 15.9405 12.9468 16.4092C12.9468 16.8778 12.529 17.2576 12.0135 17.2576H12.0049C11.4894 17.2576 11.0715 16.8778 11.0715 16.4092Z" fill="#28282B"/>
<path fill-rule="evenodd" clip-rule="evenodd" d="M6.92041 16.4092C6.92041 15.9405 7.33828 15.5607 7.85374 15.5607H7.86239C8.37786 15.5607 8.79572 15.9405 8.79572 16.4092C8.79572 16.8778 8.37786 17.2576 7.86239 17.2576H7.85374C7.33828 17.2576 6.92041 16.8778 6.92041 16.4092Z" fill="#28282B"/>
<path fill-rule="evenodd" clip-rule="evenodd" d="M15.7746 2.66675C16.2901 2.66675 16.708 3.04663 16.708 3.51523V6.30741C16.708 6.77602 16.2901 7.1559 15.7746 7.1559C15.2592 7.1559 14.8413 6.77602 14.8413 6.30741V3.51523C14.8413 3.04663 15.2592 2.66675 15.7746 2.66675Z" fill="#28282B"/>
<path fill-rule="evenodd" clip-rule="evenodd" d="M8.23509 2.66675C8.75056 2.66675 9.16842 3.04663 9.16842 3.51523V6.30741C9.16842 6.77602 8.75056 7.1559 8.23509 7.1559C7.71963 7.1559 7.30176 6.77602 7.30176 6.30741V3.51523C7.30176 3.04663 7.71963 2.66675 8.23509 2.66675Z" fill="#28282B"/>
<path fill-rule="evenodd" clip-rule="evenodd" d="M4.15564 5.25308C5.14527 4.39785 6.5144 4.00659 8.05298 4.00659H15.9558C17.4979 4.00659 18.868 4.39747 19.8562 5.2539C20.8514 6.11635 21.338 7.34566 21.3334 8.79578C21.3334 8.79626 21.3334 8.79674 21.3334 8.79723L20.4 8.79461H21.3334V8.79578V16.5373C21.3334 17.9874 20.8444 19.2177 19.8492 20.0815C18.8606 20.9397 17.4908 21.3333 15.9472 21.3333H8.05298C6.5088 21.3333 5.13766 20.9311 4.14912 20.0601C3.15594 19.185 2.66675 17.9405 2.66675 16.4731V8.79461C2.66675 7.3432 3.1588 6.11454 4.15564 5.25308ZM5.44174 6.48301C4.89736 6.95345 4.53341 7.69455 4.53341 8.79461V16.4731C4.53341 17.5972 4.90022 18.3587 5.44826 18.8415C6.00094 19.3285 6.85625 19.6364 8.05298 19.6364H15.9472C17.1531 19.6364 18.0097 19.332 18.5601 18.8542C19.104 18.3821 19.4667 17.6387 19.4667 16.5373V8.79461L19.4667 8.792C19.4705 7.69128 19.1096 6.95134 18.5683 6.48219C18.0196 6.00672 17.1633 5.70356 15.9558 5.70356H8.05298C6.85065 5.70356 5.99333 6.00633 5.44174 6.48301Z" fill="#28282B"/>
</svg>
