<svg width="24" height="24" viewBox="0 0 24 24" fill="none" xmlns="http://www.w3.org/2000/svg">
<g clip-path="url(#clip0_39856_169051)">
<path d="M6.77871 12H10.4444C10.8569 12 11.2526 11.8361 11.5443 11.5444C11.836 11.2526 11.9999 10.857 11.9999 10.4444V6.76863C11.9989 6.41084 12.0801 6.0576 12.2374 5.73622C12.3946 5.41483 12.6237 5.13392 12.9068 4.91519C13.1751 4.70271 13.4887 4.55475 13.8233 4.48273C14.1579 4.41072 14.5045 4.41658 14.8365 4.49986C16.7221 4.96793 18.3915 6.06557 19.5685 7.61125C20.7456 9.15693 21.3598 11.0581 21.3097 13.0002C21.2595 14.9424 20.548 16.8093 19.2927 18.2922C18.0374 19.775 16.3136 20.7851 14.4064 21.1552C12.262 21.5656 10.0418 21.1407 8.20045 19.9675C6.35914 18.7942 5.03606 16.9614 4.50216 14.8443C4.41857 14.5119 4.41248 14.1648 4.48435 13.8296C4.55623 13.4945 4.70416 13.1804 4.91671 12.9115C5.13803 12.6288 5.42055 12.3998 5.74305 12.242C6.06555 12.0841 6.41964 12.0013 6.77871 12ZM6.01027 14.464C6.30807 15.6632 6.91906 16.7618 7.78075 17.6474C8.64244 18.533 9.72391 19.1739 10.9145 19.5044C12.1052 19.8349 13.3622 19.8433 14.5571 19.5286C15.752 19.2139 16.8419 18.5875 17.7153 17.7134C18.5886 16.8393 19.2142 15.7489 19.5279 14.5537C19.8416 13.3586 19.8322 12.1015 19.5007 10.9112C19.1692 9.72081 18.5274 8.63988 17.6411 7.77892C16.7547 6.91797 15.6556 6.30788 14.4562 6.01108C14.3535 5.98544 14.2463 5.98419 14.1432 6.00742C14.04 6.03065 13.9437 6.07772 13.8619 6.14486C13.7654 6.21844 13.6872 6.31327 13.6332 6.42198C13.5792 6.5307 13.5511 6.65038 13.5508 6.77174V10.4444C13.5508 11.2695 13.223 12.0609 12.6396 12.6443C12.0562 13.2277 11.2648 13.5555 10.4397 13.5555H6.77482C6.6524 13.556 6.53168 13.5843 6.42175 13.6382C6.31182 13.6921 6.21554 13.7702 6.14016 13.8666C6.07404 13.9495 6.02799 14.0465 6.00559 14.1502C5.98319 14.2538 5.98506 14.3612 6.01105 14.464H6.01027Z" fill="#28282B"/>
<path d="M2.93813 8.45797C3.29622 7.14156 3.99184 5.94147 4.95616 4.97647C5.92049 4.01146 7.12009 3.31499 8.43624 2.95597C8.57422 2.91888 8.71647 2.90005 8.85935 2.89997C9.06487 2.89802 9.26874 2.93681 9.45918 3.01411C9.64962 3.09141 9.82285 3.20568 9.96886 3.35033C10.1149 3.49497 10.2308 3.66711 10.3099 3.85681C10.389 4.04651 10.4297 4.25 10.4297 4.45553V8.11108C10.4297 8.72992 10.1839 9.32342 9.74627 9.761C9.30869 10.1986 8.71519 10.4444 8.09635 10.4444H4.42602C4.18594 10.4421 3.94964 10.3845 3.73545 10.276C3.52126 10.1675 3.33497 10.0112 3.19103 9.81899C3.0471 9.62684 2.94941 9.40408 2.90555 9.16804C2.86169 8.93199 2.87284 8.68901 2.93813 8.45797ZM4.88102 8.88886H8.09947C8.30574 8.88886 8.50357 8.80692 8.64944 8.66106C8.7953 8.51519 8.87724 8.31736 8.87724 8.11108L8.88347 4.46097C8.87777 4.45686 8.87103 4.45443 8.86402 4.45397H8.8438C7.78439 4.74259 6.8192 5.30401 6.04455 6.08221C5.26991 6.8604 4.71291 7.82814 4.42913 8.88886H4.88102Z" fill="#28282B"/>
</g>
<defs>
<clipPath id="clip0_39856_169051">
<rect width="18.6667" height="18.6667" fill="white" transform="matrix(-1 0 0 1 21.3333 2.66663)"/>
</clipPath>
</defs>
</svg>
