<svg width="14" height="15" viewBox="0 0 14 15"  fill="#C5C6C9" xmlns="http://www.w3.org/2000/svg">
<g clip-path="url(#clip0_39856_170835)">
<path d="M6.03714 10.2776C6.16354 10.404 6.31362 10.5044 6.47882 10.5728C6.64401 10.6413 6.82108 10.6765 6.99989 10.6765C7.17871 10.6765 7.35578 10.6413 7.52097 10.5728C7.68617 10.5044 7.83625 10.404 7.96265 10.2776L9.4195 8.82072C9.49761 8.73433 9.5395 8.62121 9.53651 8.50479C9.53353 8.38836 9.48588 8.27754 9.40344 8.19527C9.321 8.11301 9.21008 8.0656 9.09364 8.06285C8.97721 8.06011 8.86418 8.10225 8.77796 8.18054L7.45042 9.50853L7.4536 2.50925C7.4536 2.38892 7.4058 2.27351 7.32071 2.18843C7.23563 2.10334 7.12022 2.05554 6.99989 2.05554V2.05554C6.87957 2.05554 6.76416 2.10334 6.67908 2.18843C6.59399 2.27351 6.54619 2.38892 6.54619 2.50925L6.54211 9.49991L5.22183 8.18054C5.1367 8.09547 5.02125 8.0477 4.9009 8.04774C4.78055 8.04778 4.66514 8.09564 4.58007 8.18077C4.49499 8.2659 4.44722 8.38134 4.44727 8.5017C4.44731 8.62205 4.49516 8.73746 4.58029 8.82253L6.03714 10.2776Z"/>
<path d="M11.9908 9.31482C11.8705 9.31482 11.7551 9.36262 11.67 9.44771C11.5849 9.53279 11.5371 9.64819 11.5371 9.76852V11.5833C11.5371 11.7037 11.4893 11.8191 11.4043 11.9042C11.3192 11.9892 11.2038 12.037 11.0834 12.037H2.91678C2.79645 12.037 2.68104 11.9892 2.59596 11.9042C2.51087 11.8191 2.46307 11.7037 2.46307 11.5833V9.76852C2.46307 9.64819 2.41527 9.53279 2.33018 9.44771C2.2451 9.36262 2.1297 9.31482 2.00937 9.31482C1.88904 9.31482 1.77364 9.36262 1.68855 9.44771C1.60346 9.53279 1.55566 9.64819 1.55566 9.76852V11.5833C1.55566 11.9443 1.69907 12.2905 1.95432 12.5458C2.20958 12.801 2.55579 12.9444 2.91678 12.9444H11.0834C11.4444 12.9444 11.7906 12.801 12.0459 12.5458C12.3012 12.2905 12.4446 11.9443 12.4446 11.5833V9.76852C12.4446 9.64819 12.3968 9.53279 12.3117 9.44771C12.2266 9.36262 12.1112 9.31482 11.9908 9.31482Z"/>
</g>
<defs>
<clipPath id="clip0_39856_170835">
<rect width="10.8889" height="10.8889" fill="white" transform="translate(1.55566 2.05554)"/>
</clipPath>
</defs>
</svg>
