<svg width="24" height="24" viewBox="0 0 24 24" fill="none" xmlns="http://www.w3.org/2000/svg">
<path fill-rule="evenodd" clip-rule="evenodd" d="M12.0003 13.8005C11.2284 13.8005 10.6003 13.1724 10.6003 12.4005C10.6003 12.3883 10.6031 12.3763 10.6059 12.3644C10.6085 12.3535 10.611 12.3426 10.6115 12.3314L12.0694 13.7893C12.0582 13.7898 12.0473 13.7923 12.0364 13.7949L12.0364 13.7949L12.0364 13.7949C12.0245 13.7977 12.0125 13.8005 12.0003 13.8005ZM5.19324 4.2737C4.8283 3.90877 4.23843 3.90877 3.87349 4.2737C3.50855 4.63864 3.50855 5.22852 3.87349 5.59345L9.12822 10.8482C8.87062 11.3233 8.73342 11.8506 8.73342 12.4003C8.73342 14.2017 10.1988 15.667 12.0001 15.667C12.5499 15.667 13.0772 15.5298 13.5523 15.2722L18.807 20.527C18.989 20.709 19.2279 20.8004 19.4669 20.8004C19.7058 20.8004 19.9448 20.709 20.1268 20.527C20.4917 20.162 20.4917 19.5722 20.1268 19.2072L5.19324 4.2737ZM12.2053 17.065C8.18725 17.1583 5.56455 13.7208 4.69467 12.3964C5.12121 11.73 5.83615 10.7537 6.8255 9.86612L5.50855 8.54823C4.088 9.84465 3.17705 11.2615 2.79065 11.9363C2.62545 12.2237 2.62545 12.5775 2.79065 12.865C3.37772 13.8888 6.5511 18.9336 12.0233 18.9336C12.0998 18.9336 12.1764 18.9326 12.2529 18.9308C13.358 18.9028 14.3585 18.6638 15.2648 18.3054L13.7901 16.8307C13.2908 16.9633 12.7653 17.051 12.2053 17.065ZM11.7478 5.87037C17.3246 5.69584 20.6146 10.8983 21.2101 11.9362C21.3744 12.2237 21.3744 12.5774 21.2101 12.8649C20.8228 13.5397 19.9118 14.9565 18.4913 16.2529L17.1743 14.935C18.1637 14.0474 18.8795 13.0711 19.3051 12.4047C18.4353 11.0803 15.8004 7.63533 11.7954 7.73613C11.2354 7.75013 10.71 7.83786 10.2097 7.9704L8.73501 6.49571C9.64222 6.13731 10.6418 5.89837 11.7478 5.87037Z" fill="#28282B"/>
</svg>
