<svg width="24" height="24" viewBox="0 0 24 24" fill="none" xmlns="http://www.w3.org/2000/svg">
<g clip-path="url(#clip0_39856_169044)">
<path d="M8.50393 21.3333C7.09595 21.3324 5.73582 20.8223 4.6745 19.8971C3.61318 18.9719 2.92231 17.6941 2.72936 16.2994C2.53642 14.9047 2.85442 13.4873 3.62469 12.3087C4.39497 11.1301 5.56553 10.2699 6.92037 9.88675C7.90514 9.60475 8.94749 9.59186 9.93893 9.84942L16.0896 3.70031C16.4161 3.37153 16.8047 3.11086 17.2327 2.93342C17.6608 2.75597 18.1198 2.6653 18.5831 2.66664C19.3124 2.66726 20.0115 2.95721 20.5272 3.47284C21.0428 3.98848 21.3328 4.68765 21.3334 5.41686C21.3346 5.88026 21.2439 6.33929 21.0666 6.76743C20.8893 7.19557 20.6289 7.58431 20.3005 7.9112L19.7778 8.43386C19.4854 8.72432 19.0902 8.8878 18.678 8.88886H17.4445V9.66664C17.4445 10.0792 17.2806 10.4749 16.9889 10.7666C16.6971 11.0583 16.3015 11.2222 15.8889 11.2222H15.1111V12.4558C15.1117 12.6601 15.0717 12.8625 14.9935 13.0513C14.9152 13.2401 14.8003 13.4115 14.6554 13.5555L14.1498 14.0611C14.4088 15.0521 14.3962 16.0945 14.1133 17.0789C13.7949 18.2004 13.1491 19.2014 12.2584 19.9537C11.3677 20.706 10.2727 21.1752 9.1137 21.3014C8.91112 21.3225 8.7076 21.3331 8.50393 21.3333ZM8.50393 11.2222C7.7076 11.2214 6.92686 11.4429 6.2496 11.8618C5.57235 12.2807 5.02546 12.8803 4.67049 13.5932C4.31553 14.306 4.16659 15.1038 4.24044 15.8967C4.31429 16.6896 4.60799 17.4461 5.08848 18.0811C5.56898 18.7162 6.2172 19.2045 6.96016 19.4911C7.70312 19.7777 8.51134 19.8512 9.29383 19.7034C10.0763 19.5556 10.802 19.1923 11.3892 18.6544C11.9764 18.1165 12.4019 17.4254 12.6176 16.6589C12.8603 15.8162 12.8331 14.9187 12.5398 14.0922C12.492 13.9542 12.4839 13.8055 12.5167 13.6631C12.5494 13.5207 12.6216 13.3905 12.7249 13.2872L13.5556 12.4558V11.2222C13.5556 10.8096 13.7195 10.414 14.0112 10.1223C14.3029 9.83053 14.6986 9.66664 15.1111 9.66664H15.8889V8.88886C15.8889 8.4763 16.0528 8.08064 16.3445 7.78892C16.6363 7.4972 17.0319 7.33331 17.4445 7.33331H18.678L19.2007 6.81064C19.3842 6.62798 19.5297 6.41076 19.6288 6.17152C19.7278 5.93229 19.7785 5.67579 19.7778 5.41686C19.7776 5.10022 19.6518 4.79658 19.428 4.57261C19.2041 4.34863 18.9006 4.22261 18.5839 4.2222C18.3248 4.22156 18.0682 4.27231 17.8288 4.3715C17.5894 4.47069 17.3721 4.61636 17.1894 4.80009L10.7097 11.279C10.6063 11.3823 10.4759 11.4544 10.3333 11.487C10.1908 11.5196 10.042 11.5114 9.90393 11.4633C9.45287 11.3045 8.97824 11.223 8.50004 11.2222H8.50393ZM6.55559 16.6666C6.55559 16.8205 6.60121 16.9708 6.68667 17.0988C6.77214 17.2267 6.89361 17.3263 7.03573 17.3852C7.17785 17.4441 7.33423 17.4595 7.48511 17.4295C7.63598 17.3995 7.77457 17.3254 7.88334 17.2166C7.99212 17.1078 8.06619 16.9693 8.0962 16.8184C8.12621 16.6675 8.11081 16.5111 8.05194 16.369C7.99308 16.2269 7.89339 16.1054 7.76548 16.0199C7.63758 15.9345 7.4872 15.8889 7.33337 15.8889C7.12709 15.8889 6.92926 15.9708 6.7834 16.1167C6.63754 16.2625 6.55559 16.4604 6.55559 16.6666Z" fill="#28282B"/>
</g>
<defs>
<clipPath id="clip0_39856_169044">
<rect width="18.6667" height="18.6667" fill="white" transform="translate(2.66675 2.66663)"/>
</clipPath>
</defs>
</svg>
