<svg width="24" height="24" viewBox="0 0 24 24" fill="none" xmlns="http://www.w3.org/2000/svg">
<g clip-path="url(#clip0_39856_169065)">
<path d="M11.5925 14.3333C11.3862 14.3333 11.1884 14.4152 11.0426 14.5611C10.8967 14.707 10.8147 14.9048 10.8147 15.1111V17.4444C10.8147 18.0632 10.5689 18.6567 10.1313 19.0943C9.69375 19.5319 9.10025 19.7777 8.48142 19.7777H6.55564C5.9368 19.7777 5.34331 19.5319 4.90572 19.0943C4.46814 18.6567 4.2223 18.0632 4.2223 17.4444V6.55552C4.2223 5.93668 4.46814 5.34318 4.90572 4.9056C5.34331 4.46801 5.9368 4.22218 6.55564 4.22218H8.48142C9.10025 4.22218 9.69375 4.46801 10.1313 4.9056C10.5689 5.34318 10.8147 5.93668 10.8147 6.55552V8.88885C10.8147 9.09513 10.8967 9.29296 11.0426 9.43882C11.1884 9.58468 11.3862 9.66663 11.5925 9.66663C11.7988 9.66663 11.9966 9.58468 12.1425 9.43882C12.2884 9.29296 12.3703 9.09513 12.3703 8.88885V6.55552C12.3691 5.5245 11.959 4.53606 11.2299 3.80702C10.5009 3.07798 9.51243 2.66786 8.48142 2.66663H6.55564C5.52462 2.66786 4.53618 3.07798 3.80714 3.80702C3.0781 4.53606 2.66798 5.5245 2.66675 6.55552L2.66675 17.4444C2.66798 18.4754 3.0781 19.4639 3.80714 20.1929C4.53618 20.9219 5.52462 21.3321 6.55564 21.3333H8.48142C9.51243 21.3321 10.5009 20.9219 11.2299 20.1929C11.959 19.4639 12.3691 18.4754 12.3703 17.4444V15.1111C12.3703 14.9048 12.2884 14.707 12.1425 14.5611C11.9966 14.4152 11.7988 14.3333 11.5925 14.3333Z" fill="#FFA233"/>
<path d="M20.4522 10.3502L16.8853 6.78334C16.8136 6.70906 16.7278 6.64981 16.6329 6.60904C16.538 6.56828 16.4359 6.54683 16.3326 6.54593C16.2294 6.54503 16.127 6.56471 16.0314 6.60382C15.9358 6.64292 15.8489 6.70068 15.7759 6.7737C15.7029 6.84673 15.6451 6.93357 15.606 7.02916C15.5669 7.12474 15.5472 7.22716 15.5481 7.33043C15.549 7.43371 15.5705 7.53577 15.6113 7.63066C15.652 7.72555 15.7113 7.81138 15.7856 7.88312L19.1004 11.1988L7.33344 11.2221C7.12716 11.2221 6.92933 11.3041 6.78347 11.4499C6.63761 11.5958 6.55566 11.7936 6.55566 11.9999C6.55566 12.2062 6.63761 12.404 6.78347 12.5499C6.92933 12.6957 7.12716 12.7777 7.33344 12.7777L19.1463 12.7536L15.784 16.1167C15.7097 16.1884 15.6505 16.2743 15.6097 16.3691C15.5689 16.464 15.5475 16.5661 15.5466 16.6694C15.5457 16.7726 15.5654 16.8751 15.6045 16.9706C15.6436 17.0662 15.7013 17.1531 15.7744 17.2261C15.8474 17.2991 15.9342 17.3569 16.0298 17.396C16.1254 17.4351 16.2278 17.4548 16.3311 17.4539C16.4344 17.453 16.5364 17.4315 16.6313 17.3908C16.7262 17.35 16.812 17.2907 16.8838 17.2165L20.4507 13.6496C20.8883 13.2122 21.1343 12.6189 21.1346 12.0002C21.1349 11.3815 20.8894 10.788 20.4522 10.3502Z" fill="#FFA233"/>
</g>
<defs>
<clipPath id="clip0_39856_169065">
<rect width="18.6667" height="18.6667" fill="white" transform="translate(2.66675 2.66663)"/>
</clipPath>
</defs>
</svg>
