<svg width="24" height="24" viewBox="0 0 24 24" fill="none" xmlns="http://www.w3.org/2000/svg">
<g clip-path="url(#clip0_39856_168964)">
<path d="M13.435 16.0964L10.8979 18.6335C10.1613 19.3505 9.17202 19.7485 8.14414 19.7417C7.11626 19.7348 6.13242 19.3235 5.40548 18.5967C4.67854 17.87 4.26696 16.8863 4.25978 15.8584C4.2526 14.8305 4.65041 13.8411 5.36713 13.1043L7.90424 10.5649C8.05008 10.4189 8.13197 10.221 8.1319 10.0147C8.13182 9.8084 8.04979 9.61056 7.90385 9.46472C7.75791 9.31888 7.56001 9.23699 7.35369 9.23706C7.14736 9.23713 6.94952 9.31916 6.80368 9.46511L4.26735 12.0045C3.24245 13.03 2.66687 14.4205 2.66724 15.8703C2.6676 17.3201 3.24388 18.7104 4.26929 19.7353C5.29471 20.7602 6.68527 21.3357 8.13506 21.3354C9.58485 21.335 10.9751 20.7587 12 19.7333L14.5371 17.1962C14.6788 17.0495 14.7572 16.853 14.7554 16.6491C14.7537 16.4452 14.6719 16.2501 14.5277 16.1059C14.3834 15.9617 14.1884 15.8799 13.9844 15.8781C13.7805 15.8764 13.584 15.9547 13.4373 16.0964H13.435Z" fill="#28282B"/>
<path d="M19.7344 4.27001C19.2283 3.76042 18.6261 3.35634 17.9627 3.08117C17.2993 2.80601 16.5878 2.66524 15.8696 2.66701C15.1518 2.6651 14.4407 2.80552 13.7775 3.08013C13.1142 3.35474 12.512 3.75811 12.0056 4.2669L9.46462 6.80479C9.31868 6.95063 9.23665 7.14847 9.23657 7.35479C9.2365 7.56111 9.31839 7.75901 9.46423 7.90496C9.61007 8.0509 9.80791 8.13293 10.0142 8.133C10.2206 8.13308 10.4185 8.05119 10.5644 7.90535L13.1038 5.36823C13.4659 5.00396 13.8967 4.71514 14.3712 4.51848C14.8457 4.32182 15.3544 4.22125 15.8681 4.22257C16.6414 4.22282 17.3973 4.45235 18.0402 4.88212C18.683 5.3119 19.1841 5.92263 19.4799 6.63712C19.7758 7.3516 19.8532 8.13776 19.7023 8.89622C19.5514 9.65467 19.1791 10.3514 18.6323 10.8982L16.0952 13.4353C15.9492 13.5813 15.8672 13.7792 15.8672 13.9856C15.8672 14.192 15.9492 14.39 16.0952 14.5359C16.2411 14.6818 16.4391 14.7638 16.6455 14.7638C16.8518 14.7638 17.0498 14.6818 17.1957 14.5359L19.7328 12.0003C20.7564 10.9745 21.3314 9.58465 21.3317 8.1355C21.332 6.68635 20.7576 5.29624 19.7344 4.27001Z" fill="#28282B"/>
<path d="M13.7838 9.11677L9.11709 13.7834C9.0428 13.8552 8.98355 13.941 8.94278 14.0359C8.90202 14.1308 8.88057 14.2328 8.87967 14.3361C8.87877 14.4394 8.89845 14.5418 8.93756 14.6374C8.97666 14.733 9.03442 14.8198 9.10744 14.8928C9.18047 14.9659 9.26731 15.0236 9.3629 15.0627C9.45848 15.1018 9.5609 15.1215 9.66417 15.1206C9.76745 15.1197 9.86951 15.0983 9.9644 15.0575C10.0593 15.0167 10.1451 14.9575 10.2169 14.8832L14.8835 10.2165C15.0252 10.0699 15.1036 9.87339 15.1018 9.66946C15.1001 9.46553 15.0183 9.27045 14.8741 9.12624C14.7298 8.98204 14.5348 8.90024 14.3308 8.89847C14.1269 8.89669 13.9304 8.97509 13.7838 9.11677Z" fill="#28282B"/>
</g>
<defs>
<clipPath id="clip0_39856_168964">
<rect width="18.6667" height="18.6667" fill="white" transform="translate(2.66675 2.66663)"/>
</clipPath>
</defs>
</svg>
