<svg width="23" height="22" viewBox="0 0 23 22" fill="none" xmlns="http://www.w3.org/2000/svg">
<path d="M16.0833 14.666L19.75 10.9993M19.75 10.9993L16.0833 7.33268M19.75 10.9993H6.91667M12.4167 14.666V15.5827C12.4167 16.312 12.1269 17.0115 11.6112 17.5272C11.0955 18.043 10.396 18.3327 9.66667 18.3327H6C5.27065 18.3327 4.57118 18.043 4.05546 17.5272C3.53973 17.0115 3.25 16.312 3.25 15.5827V6.41602C3.25 5.68667 3.53973 4.9872 4.05546 4.47147C4.57118 3.95575 5.27065 3.66602 6 3.66602H9.66667C10.396 3.66602 11.0955 3.95575 11.6112 4.47147C12.1269 4.9872 12.4167 5.68667 12.4167 6.41602V7.33268" stroke="#FF384C" stroke-width="1.5" stroke-linecap="round" stroke-linejoin="round"/>
</svg>
