<svg width="25" height="24" viewBox="0 0 25 24" fill="none" xmlns="http://www.w3.org/2000/svg">
<path fill-rule="evenodd" clip-rule="evenodd" d="M6.03166 8.55956C6.03166 5.7134 8.64642 2.66675 12.5 2.66675C16.3536 2.66675 18.9683 5.7134 18.9683 8.55956C18.9683 9.23977 19.0542 9.70684 19.167 10.0592C19.2803 10.4131 19.4313 10.6865 19.615 10.9962C19.6337 11.0278 19.653 11.0602 19.6729 11.0934C19.8417 11.3758 20.0481 11.7211 20.2052 12.1354C20.3881 12.6175 20.5 13.1726 20.5 13.8841C20.5 13.9086 20.4989 13.9331 20.4968 13.9575C20.4329 14.7 20.2124 15.365 19.784 15.9233C19.3579 16.4787 18.7742 16.8658 18.0873 17.1369C16.7541 17.6629 14.8714 17.8102 12.5 17.8102C10.1299 17.8102 8.24725 17.6654 6.91403 17.1406C6.22683 16.8701 5.64275 16.4832 5.2163 15.927C4.78764 15.368 4.56726 14.7018 4.50315 13.9575C4.50105 13.9331 4.5 13.9086 4.5 13.8841C4.5 13.1726 4.61195 12.6175 4.79481 12.1354C4.95194 11.7211 5.15829 11.3758 5.32706 11.0934C5.34695 11.0602 5.36632 11.0278 5.38502 10.9962C5.56869 10.6865 5.71969 10.4131 5.83302 10.0592C5.94584 9.70684 6.03166 9.23977 6.03166 8.55956ZM12.5 4.36371C9.54056 4.36371 7.71587 6.6865 7.71587 8.55956C7.71587 9.38975 7.61023 10.0357 7.43587 10.5802C7.26202 11.1232 7.0301 11.5305 6.83085 11.8666C6.81157 11.8991 6.79282 11.9306 6.77457 11.9613C6.5983 12.2576 6.46912 12.4747 6.36805 12.7412C6.26624 13.0096 6.18807 13.3478 6.18435 13.8468C6.23008 14.3195 6.36227 14.6459 6.54911 14.8896C6.74287 15.1423 7.0447 15.3702 7.52685 15.56C8.53233 15.9557 10.1222 16.1132 12.5 16.1132C14.8774 16.1132 16.4676 15.9535 17.4731 15.5567C17.9555 15.3664 18.2577 15.1381 18.4515 14.8854C18.6384 14.642 18.7702 14.3167 18.8157 13.8468C18.8119 13.3478 18.7338 13.0096 18.632 12.7412C18.5309 12.4747 18.4017 12.2576 18.2254 11.9613C18.2072 11.9306 18.1884 11.8991 18.1692 11.8666C17.9699 11.5305 17.738 11.1232 17.5641 10.5802C17.3898 10.0357 17.2841 9.38975 17.2841 8.55956C17.2841 6.6865 15.4594 4.36371 12.5 4.36371Z" fill="white"/>
<path fill-rule="evenodd" clip-rule="evenodd" d="M9.84837 18.8841C10.1943 18.5709 10.7267 18.5996 11.0376 18.9481C11.8595 19.8698 13.0684 19.8621 13.8859 18.9474C14.1972 18.5992 14.7296 18.5712 15.0752 18.8848C15.4208 19.1983 15.4487 19.7348 15.1374 20.083C13.6575 21.7388 11.2824 21.7616 9.78482 20.0823C9.47397 19.7338 9.50243 19.1973 9.84837 18.8841Z" fill="white"/>
</svg>
