<svg width="24" height="24" viewBox="0 0 24 24" fill="none" xmlns="http://www.w3.org/2000/svg">
<g clip-path="url(#clip0_39856_168892)">
<path d="M17.4445 2.66675H6.55564C5.52462 2.66798 4.53618 3.0781 3.80714 3.80714C3.0781 4.53618 2.66798 5.52462 2.66675 6.55564L2.66675 17.4445C2.66798 18.4755 3.0781 19.464 3.80714 20.193C4.53618 20.9221 5.52462 21.3322 6.55564 21.3334H17.4445C18.4755 21.3322 19.464 20.9221 20.193 20.193C20.9221 19.464 21.3322 18.4755 21.3334 17.4445V6.55564C21.3322 5.52462 20.9221 4.53618 20.193 3.80714C19.464 3.0781 18.4755 2.66798 17.4445 2.66675V2.66675ZM6.55564 4.2223H17.4445C18.0634 4.2223 18.6569 4.46814 19.0944 4.90572C19.532 5.34331 19.7779 5.9368 19.7779 6.55564V17.4445C19.7765 17.791 19.6967 18.1327 19.5445 18.444L12.4177 11.3172C12.0566 10.956 11.6279 10.6694 11.156 10.4739C10.6841 10.2784 10.1783 10.1778 9.66753 10.1778C9.15674 10.1778 8.65096 10.2784 8.17908 10.4739C7.70719 10.6694 7.27843 10.956 6.9173 11.3172L4.2223 14.0114V6.55564C4.2223 5.9368 4.46814 5.34331 4.90572 4.90572C5.34331 4.46814 5.9368 4.2223 6.55564 4.2223ZM6.55564 19.7779C5.9368 19.7779 5.34331 19.532 4.90572 19.0944C4.46814 18.6569 4.2223 18.0634 4.2223 17.4445V16.211L8.0163 12.417C8.23299 12.2001 8.49028 12.0281 8.77348 11.9108C9.05667 11.7934 9.36021 11.733 9.66675 11.733C9.97329 11.733 10.2768 11.7934 10.56 11.9108C10.8432 12.0281 11.1005 12.2001 11.3172 12.417L18.444 19.5445C18.1327 19.6967 17.791 19.7765 17.4445 19.7779H6.55564Z" fill="#28282B"/>
<path d="M15.1111 10.8334C15.6495 10.8334 16.1759 10.6737 16.6235 10.3746C17.0712 10.0755 17.4201 9.65031 17.6261 9.15289C17.8322 8.65547 17.8861 8.10812 17.7811 7.58006C17.676 7.052 17.4168 6.56695 17.036 6.18624C16.6553 5.80553 16.1703 5.54626 15.6422 5.44122C15.1142 5.33619 14.5668 5.3901 14.0694 5.59613C13.572 5.80217 13.1468 6.15109 12.8477 6.59875C12.5486 7.04642 12.3889 7.57274 12.3889 8.11114C12.3889 8.83312 12.6757 9.52553 13.1862 10.036C13.6968 10.5466 14.3892 10.8334 15.1111 10.8334ZM15.1111 6.94447C15.3419 6.94447 15.5674 7.0129 15.7593 7.14109C15.9512 7.26929 16.1007 7.4515 16.189 7.66468C16.2773 7.87786 16.3004 8.11243 16.2554 8.33875C16.2104 8.56506 16.0993 8.77294 15.9361 8.9361C15.7729 9.09926 15.5651 9.21037 15.3387 9.25539C15.1124 9.30041 14.8779 9.2773 14.6647 9.189C14.4515 9.1007 14.2693 8.95116 14.1411 8.75931C14.0129 8.56745 13.9445 8.34188 13.9445 8.11114C13.9445 7.80172 14.0674 7.50497 14.2862 7.28618C14.505 7.06739 14.8017 6.94447 15.1111 6.94447Z" fill="#28282B"/>
</g>
<defs>
<clipPath id="clip0_39856_168892">
<rect width="18.6667" height="18.6667" fill="white" transform="translate(2.66675 2.66675)"/>
</clipPath>
</defs>
</svg>
