<svg width="24" height="24" viewBox="0 0 24 24" fill="none" xmlns="http://www.w3.org/2000/svg">
<g clip-path="url(#clip0_39856_168927)">
<path d="M3.4446 21.3333C3.65087 21.3333 3.84867 21.2513 3.99449 21.1054L9.1426 15.9573L10.1133 16.9622C10.8449 17.7353 11.8532 18.1868 12.9172 18.2175C13.2718 18.2186 13.6241 18.1589 13.9586 18.041C14.4755 17.863 14.9296 17.5388 15.2658 17.1078C15.6019 16.6768 15.8058 16.1574 15.8525 15.6128C15.9369 14.824 15.8784 14.0264 15.6798 13.2584L15.5134 12.448C15.4818 12.3184 15.4842 12.1828 15.5201 12.0544C15.5561 11.926 15.6245 11.8089 15.7187 11.7145L16.953 10.4794C17.0017 10.4305 17.0676 10.4026 17.1366 10.4016C17.1608 10.3971 17.1858 10.3995 17.2088 10.4084C17.2317 10.4173 17.2517 10.4325 17.2665 10.4522C17.6572 10.8665 18.1827 11.1279 18.7488 11.1895C19.3149 11.2511 19.8844 11.1088 20.355 10.7882C20.6312 10.5913 20.8611 10.3366 21.0288 10.0418C21.1965 9.74706 21.2979 9.41926 21.3259 9.08129C21.354 8.74331 21.308 8.40328 21.1913 8.08488C21.0745 7.76647 20.8897 7.47735 20.6498 7.23764L16.8224 3.40864C16.4294 3.00583 15.9073 2.75397 15.3474 2.6971C14.7875 2.64023 14.2255 2.78197 13.7595 3.09753C13.4833 3.29433 13.2533 3.54898 13.0856 3.84374C12.9178 4.1385 12.8163 4.46628 12.7882 4.80426C12.7601 5.14223 12.806 5.48228 12.9227 5.80072C13.0394 6.11915 13.2241 6.40832 13.4639 6.64808L13.523 6.7072C13.5676 6.75207 13.5926 6.81274 13.5926 6.87597C13.5926 6.93921 13.5676 6.99988 13.523 7.04475L12.2786 8.2892C12.1831 8.38446 12.0645 8.45326 11.9345 8.48885C11.8044 8.52444 11.6673 8.52559 11.5366 8.4922L10.9012 8.32964C10.1195 8.12551 9.30748 8.06412 8.50405 8.14842C7.93422 8.20743 7.39314 8.42813 6.94458 8.78449C6.49603 9.14085 6.15871 9.61802 5.97238 10.1598C5.76904 10.7164 5.72895 11.3196 5.85682 11.8984C5.98468 12.4771 6.27519 13.0072 6.69416 13.4264L8.06149 14.842L2.89472 20.0056C2.78597 20.1144 2.71193 20.253 2.68193 20.4038C2.65193 20.5547 2.66733 20.7111 2.72619 20.8531C2.78504 20.9952 2.88471 21.1167 3.01258 21.2022C3.14046 21.2876 3.2908 21.3333 3.4446 21.3333ZM7.43849 10.6778C7.52614 10.4128 7.68872 10.1789 7.90654 10.0044C8.12437 9.82992 8.38811 9.72233 8.66583 9.69464C8.84489 9.676 9.0248 9.66666 9.20483 9.66664C9.64607 9.66666 10.0855 9.72339 10.5123 9.83542L11.1524 9.99875C11.5446 10.098 11.9557 10.0939 12.3459 9.98688C12.736 9.87988 13.0917 9.67361 13.3784 9.3882L14.6228 8.14375C14.9586 7.80696 15.1472 7.35078 15.1472 6.8752C15.1472 6.39961 14.9586 5.94343 14.6228 5.60664L14.5637 5.54753C14.4832 5.46719 14.4213 5.37016 14.3823 5.26328C14.3433 5.1564 14.3283 5.04228 14.3382 4.92896C14.3482 4.81564 14.3828 4.70588 14.4398 4.60742C14.4968 4.50895 14.5747 4.42418 14.6679 4.35908C14.8339 4.25861 15.0294 4.21845 15.2216 4.24537C15.4137 4.27229 15.5906 4.36465 15.7226 4.50686L19.5524 8.33664C19.6329 8.41698 19.6948 8.51401 19.7338 8.62089C19.7728 8.72776 19.7878 8.84189 19.7779 8.95521C19.7679 9.06853 19.7332 9.17829 19.6763 9.27675C19.6193 9.37522 19.5414 9.45999 19.4482 9.52508C19.2804 9.62693 19.0824 9.66711 18.8882 9.63872C18.694 9.61033 18.5158 9.51514 18.3842 9.36953C18.2241 9.20453 18.0327 9.07326 17.8211 8.98349C17.6095 8.89372 17.382 8.84727 17.1522 8.84686C16.6673 8.84907 16.2023 9.03986 15.8556 9.37886L14.622 10.6132C14.3419 10.8935 14.1378 11.2405 14.029 11.6215C13.9201 12.0025 13.9101 12.405 13.9998 12.791L14.1702 13.6139C14.3271 14.2139 14.3748 14.8372 14.3109 15.4541C14.2923 15.7057 14.2002 15.9462 14.0461 16.1459C13.8919 16.3456 13.6824 16.4956 13.4437 16.5772C13.0458 16.6818 12.6265 16.6716 12.2342 16.5477C11.8419 16.4238 11.4927 16.1913 11.227 15.8772L7.80483 12.3383C7.59143 12.1255 7.44351 11.856 7.37858 11.5617C7.31366 11.2674 7.33445 10.9606 7.43849 10.6778Z" fill="#28282B"/>
</g>
<defs>
<clipPath id="clip0_39856_168927">
<rect width="18.6667" height="18.6667" fill="white" transform="translate(2.66675 2.66663)"/>
</clipPath>
</defs>
</svg>
