<svg width="24" height="24" viewBox="0 0 24 24" fill="#28282B" xmlns="http://www.w3.org/2000/svg">
<g clip-path="url(#clip0_39856_168942)">
<path d="M12 8.88879C11.3847 8.88879 10.7832 9.07126 10.2716 9.41311C9.75997 9.75496 9.36121 10.2409 9.12574 10.8093C8.89026 11.3778 8.82865 12.0034 8.9487 12.6069C9.06874 13.2103 9.36504 13.7647 9.80014 14.1998C10.2352 14.6349 10.7896 14.9312 11.3931 15.0512C11.9966 15.1713 12.6221 15.1097 13.1906 14.8742C13.7591 14.6387 14.245 14.24 14.5868 13.7283C14.9287 13.2167 15.1111 12.6152 15.1111 11.9999C15.1111 11.1748 14.7834 10.3835 14.1999 9.80002C13.6165 9.21657 12.8251 8.88879 12 8.88879ZM12 13.5555C11.6924 13.5555 11.3916 13.4642 11.1358 13.2933C10.88 13.1224 10.6806 12.8794 10.5629 12.5952C10.4451 12.3109 10.4143 11.9982 10.4744 11.6964C10.5344 11.3947 10.6825 11.1175 10.9001 10.9C11.1176 10.6824 11.3948 10.5343 11.6966 10.4742C11.9983 10.4142 12.3111 10.445 12.5953 10.5628C12.8796 10.6805 13.1225 10.8799 13.2934 11.1357C13.4644 11.3915 13.5556 11.6922 13.5556 11.9999C13.5556 12.4125 13.3917 12.8081 13.1 13.0998C12.8082 13.3916 12.4126 13.5555 12 13.5555Z"/>
<path d="M19.2289 13.4777L18.8835 13.2786C19.039 12.4327 19.039 11.5656 18.8835 10.7197L19.2289 10.5206C19.4944 10.3674 19.7272 10.1634 19.9139 9.92023C20.1006 9.67706 20.2376 9.39949 20.3171 9.10337C20.3965 8.80726 20.4169 8.49839 20.3769 8.19442C20.337 7.89044 20.2376 7.5973 20.0844 7.33174C19.9312 7.06618 19.7272 6.83339 19.484 6.64667C19.2408 6.45996 18.9633 6.32296 18.6672 6.24352C18.3711 6.16407 18.0622 6.14373 17.7582 6.18365C17.4542 6.22357 17.1611 6.32297 16.8955 6.47618L16.5494 6.67607C15.8957 6.11756 15.1445 5.6846 14.3335 5.39896V4.99996C14.3335 4.38112 14.0877 3.78763 13.6501 3.35004C13.2125 2.91246 12.619 2.66663 12.0002 2.66663C11.3814 2.66663 10.7879 2.91246 10.3503 3.35004C9.9127 3.78763 9.66686 4.38112 9.66686 4.99996V5.39896C8.85594 5.68562 8.10497 6.11965 7.45175 6.67918L7.10408 6.47774C6.56776 6.16832 5.93048 6.08463 5.33245 6.24507C4.73442 6.40552 4.22462 6.79697 3.9152 7.33329C3.60578 7.86962 3.52209 8.5069 3.68253 9.10493C3.84298 9.70296 4.23443 10.2128 4.77075 10.5222L5.11609 10.7213C4.96061 11.5672 4.96061 12.4343 5.11609 13.2802L4.77075 13.4793C4.23443 13.7887 3.84298 14.2985 3.68253 14.8965C3.52209 15.4946 3.60578 16.1319 3.9152 16.6682C4.22462 17.2045 4.73442 17.596 5.33245 17.7564C5.93048 17.9168 6.56776 17.8332 7.10408 17.5237L7.4502 17.3238C8.10412 17.8824 8.85563 18.3154 9.66686 18.601V19C9.66686 19.6188 9.9127 20.2123 10.3503 20.6499C10.7879 21.0875 11.3814 21.3333 12.0002 21.3333C12.619 21.3333 13.2125 21.0875 13.6501 20.6499C14.0877 20.2123 14.3335 19.6188 14.3335 19V18.601C15.1445 18.3143 15.8954 17.8803 16.5486 17.3207L16.8963 17.5214C17.4326 17.8308 18.0699 17.9145 18.6679 17.7541C19.266 17.5936 19.7758 17.2022 20.0852 16.6658C20.3946 16.1295 20.4783 15.4922 20.3179 14.8942C20.1574 14.2962 19.766 13.7864 19.2296 13.477L19.2289 13.4777ZM17.2471 10.5408C17.5105 11.4952 17.5105 12.5031 17.2471 13.4575C17.2011 13.6236 17.2116 13.8003 17.2769 13.9598C17.3422 14.1193 17.4587 14.2526 17.608 14.3387L18.4511 14.8256C18.6298 14.9288 18.7603 15.0987 18.8137 15.298C18.8672 15.4973 18.8393 15.7097 18.7361 15.8885C18.633 16.0672 18.4631 16.1976 18.2638 16.2511C18.0644 16.3046 17.852 16.2767 17.6733 16.1735L16.8286 15.6851C16.6792 15.5985 16.5053 15.5642 16.3342 15.5874C16.1631 15.6106 16.0046 15.6902 15.8836 15.8134C15.1914 16.5201 14.3192 17.0244 13.3613 17.2717C13.1941 17.3147 13.046 17.4121 12.9402 17.5486C12.8345 17.685 12.7771 17.8528 12.7772 18.0254V19C12.7772 19.2062 12.6953 19.4041 12.5494 19.5499C12.4035 19.6958 12.2057 19.7777 11.9994 19.7777C11.7931 19.7777 11.5953 19.6958 11.4494 19.5499C11.3036 19.4041 11.2216 19.2062 11.2216 19V18.0262C11.2217 17.8535 11.1644 17.6858 11.0586 17.5493C10.9529 17.4129 10.8047 17.3155 10.6375 17.2725C9.67958 17.0242 8.80767 16.5188 8.11597 15.8111C7.99505 15.6878 7.83655 15.6083 7.66545 15.5851C7.49435 15.5618 7.32039 15.5962 7.17097 15.6827L6.32786 16.1704C6.23937 16.2223 6.1415 16.2561 6.03987 16.27C5.93824 16.2839 5.83487 16.2776 5.7357 16.2514C5.63654 16.2252 5.54354 16.1796 5.46206 16.1173C5.38058 16.055 5.31222 15.9772 5.26094 15.8883C5.20965 15.7995 5.17644 15.7014 5.16322 15.5997C5.14999 15.498 5.15702 15.3946 5.1839 15.2956C5.21077 15.1967 5.25696 15.104 5.31981 15.0229C5.38266 14.9418 5.46092 14.874 5.55009 14.8233L6.3932 14.3364C6.54249 14.2503 6.65894 14.117 6.72426 13.9575C6.78959 13.798 6.80008 13.6213 6.75409 13.4552C6.4907 12.5008 6.4907 11.4929 6.75409 10.5385C6.79925 10.3728 6.78826 10.1967 6.72283 10.0379C6.6574 9.879 6.54122 9.74628 6.39242 9.6604L5.54931 9.17352C5.37057 9.07038 5.24012 8.90046 5.18666 8.70114C5.1332 8.50182 5.16111 8.28942 5.26425 8.11068C5.36739 7.93194 5.53731 7.80149 5.73663 7.74803C5.93595 7.69458 6.14834 7.72249 6.32709 7.82563L7.17175 8.31407C7.32076 8.4008 7.49436 8.43557 7.66527 8.4129C7.83619 8.39024 7.99473 8.31142 8.11597 8.18885C8.80826 7.48212 9.68042 6.97786 10.6383 6.73052C10.806 6.6874 10.9545 6.58954 11.0604 6.45246C11.1662 6.31538 11.2232 6.1469 11.2224 5.97374V4.99996C11.2224 4.79368 11.3044 4.59585 11.4502 4.44999C11.5961 4.30413 11.7939 4.22218 12.0002 4.22218C12.2065 4.22218 12.4043 4.30413 12.5502 4.44999C12.696 4.59585 12.778 4.79368 12.778 4.99996V5.97374C12.7779 6.14637 12.8352 6.31413 12.941 6.45058C13.0467 6.58703 13.1949 6.68442 13.3621 6.7274C14.3203 6.97563 15.1925 7.48098 15.8844 8.18885C16.0053 8.3121 16.1638 8.39161 16.3349 8.41484C16.506 8.43808 16.68 8.40372 16.8294 8.31718L17.6725 7.82952C17.761 7.77764 17.8589 7.74378 17.9605 7.72988C18.0622 7.71599 18.1655 7.72233 18.2647 7.74855C18.3639 7.77477 18.4569 7.82034 18.5383 7.88265C18.6198 7.94495 18.6882 8.02276 18.7395 8.11159C18.7907 8.20042 18.824 8.29852 18.8372 8.40024C18.8504 8.50196 18.8434 8.60529 18.8165 8.70428C18.7896 8.80327 18.7434 8.89596 18.6806 8.97703C18.6177 9.05809 18.5395 9.12593 18.4503 9.17663L17.6072 9.66352C17.4587 9.74962 17.3428 9.88244 17.2777 10.0413C17.2125 10.2001 17.2018 10.376 17.2471 10.5416V10.5408Z"/>
</g>
<defs>
<clipPath id="clip0_39856_168942">
<rect width="18.6667" height="18.6667" fill="white" transform="translate(2.66675 2.66663)"/>
</clipPath>
</defs>
</svg>
