<svg width="20" height="20" viewBox="0 0 20 20" fill="none" xmlns="http://www.w3.org/2000/svg">
<path d="M12.5001 14.167V11.667H15.0001V10.0003L18.3334 12.917L15.0001 15.8337V14.167H12.5001ZM14.1667 15.0003V17.5003H11.6667V19.167L8.33338 16.2503L11.6667 13.3337V15.0003H14.1667ZM10.0001 6.66699C8.15838 6.66699 6.66672 8.16699 6.66672 10.0003C6.66672 11.592 7.79172 12.9503 9.34172 13.267L13.3334 9.88366C13.3038 9.01977 12.9395 8.20124 12.3174 7.601C11.6954 7.00076 10.8644 6.66584 10.0001 6.66699ZM10.0001 11.667C9.08338 11.667 8.33338 10.9253 8.33338 10.0003C8.33338 9.07533 9.08338 8.33366 10.0001 8.33366C10.9167 8.33366 11.6667 9.08366 11.6667 10.0003C11.6667 10.917 10.9251 11.667 10.0001 11.667ZM18.0501 7.27533L16.3834 4.39199C16.2834 4.20866 16.0667 4.13366 15.8751 4.20866L13.8001 5.04199C13.3751 4.70033 12.9167 4.42533 12.3917 4.20866L12.0834 2.01699C12.0665 1.91884 12.0153 1.82985 11.9391 1.76579C11.8628 1.70172 11.7663 1.66673 11.6667 1.66699H8.33338C8.12505 1.66699 7.95005 1.81699 7.91672 2.01699L7.60839 4.22533C7.08338 4.44199 6.63338 4.71699 6.20005 5.05866L4.16672 4.20866C3.97505 4.13366 3.75005 4.20866 3.65838 4.39199L1.99172 7.27533C1.88338 7.45033 1.92505 7.68366 2.08338 7.80866L3.80838 9.16699L3.75005 10.0003L3.80838 10.8337L2.05005 12.192C1.88338 12.317 1.84172 12.5503 1.95005 12.7253L3.61672 15.6087C3.70838 15.8337 3.95005 15.9253 4.16672 15.8337L6.25005 15.0003C6.45005 15.1587 6.66672 15.3087 6.88338 15.442L8.25838 14.2753C7.61672 14.0003 7.05005 13.592 6.59172 13.067L4.58338 13.9003L3.94172 12.817L5.66672 11.5003C5.33338 10.5281 5.33338 9.47255 5.66672 8.50033L3.90838 7.20866L4.53338 6.12533L6.54172 6.95866C7.19172 6.20866 8.06672 5.68366 9.04172 5.47533L9.37505 3.33366H10.6251L10.9334 5.51699C11.9084 5.71699 12.7834 6.25033 13.4334 6.99199L15.4417 6.15866L16.0667 7.24199L14.3334 8.50033C14.4084 8.71699 14.4667 8.94199 14.5001 9.16699H16.1667L17.9167 7.80866C18.0029 7.75364 18.0647 7.66772 18.0895 7.56853C18.1143 7.46934 18.1002 7.36442 18.0501 7.27533ZM10.0001 6.66699C8.15838 6.66699 6.66672 8.16699 6.66672 10.0003C6.66672 11.592 7.79172 12.9503 9.34172 13.267L13.3334 9.88366C13.3038 9.01977 12.9395 8.20124 12.3174 7.601C11.6954 7.00076 10.8644 6.66584 10.0001 6.66699ZM10.0001 11.667C9.08338 11.667 8.33338 10.9253 8.33338 10.0003C8.33338 9.07533 9.08338 8.33366 10.0001 8.33366C10.9167 8.33366 11.6667 9.08366 11.6667 10.0003C11.6667 10.917 10.9251 11.667 10.0001 11.667ZM10.0001 6.66699C8.15838 6.66699 6.66672 8.16699 6.66672 10.0003C6.66672 11.592 7.79172 12.9503 9.34172 13.267L13.3334 9.88366C13.3038 9.01977 12.9395 8.20124 12.3174 7.601C11.6954 7.00076 10.8644 6.66584 10.0001 6.66699ZM10.0001 11.667C9.08338 11.667 8.33338 10.9253 8.33338 10.0003C8.33338 9.07533 9.08338 8.33366 10.0001 8.33366C10.9167 8.33366 11.6667 9.08366 11.6667 10.0003C11.6667 10.917 10.9251 11.667 10.0001 11.667Z" fill="#FCFBFA"/>
</svg>
