<svg width="24" height="24" viewBox="0 0 24 24" fill="none" xmlns="http://www.w3.org/2000/svg">
<g clip-path="url(#clip0_39856_169058)">
<path d="M19.0002 5.77774H16.5891C16.4086 4.89995 15.9309 4.11123 15.2367 3.54452C14.5425 2.97781 13.6741 2.66776 12.778 2.66663L11.2224 2.66663C10.3263 2.66776 9.45788 2.97781 8.76366 3.54452C8.06944 4.11123 7.59182 4.89995 7.4113 5.77774H5.00019C4.79391 5.77774 4.59608 5.85968 4.45022 6.00554C4.30436 6.15141 4.22241 6.34924 4.22241 6.55552C4.22241 6.76179 4.30436 6.95963 4.45022 7.10549C4.59608 7.25135 4.79391 7.33329 5.00019 7.33329H5.77797V17.4444C5.7792 18.4754 6.18932 19.4639 6.91836 20.1929C7.6474 20.9219 8.63584 21.3321 9.66686 21.3333H14.3335C15.3645 21.3321 16.353 20.9219 17.082 20.1929C17.8111 19.4639 18.2212 18.4754 18.2224 17.4444V7.33329H19.0002C19.2065 7.33329 19.4043 7.25135 19.5502 7.10549C19.696 6.95963 19.778 6.76179 19.778 6.55552C19.778 6.34924 19.696 6.15141 19.5502 6.00554C19.4043 5.85968 19.2065 5.77774 19.0002 5.77774ZM11.2224 4.22218H12.778C13.2604 4.22277 13.7308 4.37259 14.1248 4.65108C14.5187 4.92958 14.8168 5.32312 14.9783 5.77774H9.02208C9.18353 5.32312 9.48167 4.92958 9.8756 4.65108C10.2695 4.37259 10.74 4.22277 11.2224 4.22218ZM16.6669 17.4444C16.6669 18.0632 16.421 18.6567 15.9834 19.0943C15.5459 19.5319 14.9524 19.7777 14.3335 19.7777H9.66686C9.04802 19.7777 8.45453 19.5319 8.01694 19.0943C7.57936 18.6567 7.33352 18.0632 7.33352 17.4444V7.33329H16.6669V17.4444Z" fill="#28282B"/>
<path d="M10.4445 16.6667C10.6508 16.6667 10.8486 16.5847 10.9945 16.4389C11.1404 16.293 11.2223 16.0952 11.2223 15.8889V11.2222C11.2223 11.016 11.1404 10.8181 10.9945 10.6723C10.8486 10.5264 10.6508 10.4445 10.4445 10.4445C10.2382 10.4445 10.0404 10.5264 9.89455 10.6723C9.74869 10.8181 9.66675 11.016 9.66675 11.2222V15.8889C9.66675 16.0952 9.74869 16.293 9.89455 16.4389C10.0404 16.5847 10.2382 16.6667 10.4445 16.6667Z" fill="#28282B"/>
<path d="M13.5556 16.6667C13.7619 16.6667 13.9597 16.5847 14.1056 16.4389C14.2514 16.293 14.3334 16.0952 14.3334 15.8889V11.2222C14.3334 11.016 14.2514 10.8181 14.1056 10.6723C13.9597 10.5264 13.7619 10.4445 13.5556 10.4445C13.3493 10.4445 13.1515 10.5264 13.0056 10.6723C12.8598 10.8181 12.7778 11.016 12.7778 11.2222V15.8889C12.7778 16.0952 12.8598 16.293 13.0056 16.4389C13.1515 16.5847 13.3493 16.6667 13.5556 16.6667Z" fill="#28282B"/>
</g>
<defs>
<clipPath id="clip0_39856_169058">
<rect width="18.6667" height="18.6667" fill="white" transform="translate(2.66675 2.66663)"/>
</clipPath>
</defs>
</svg>
