<svg width="24" height="24" viewBox="0 0 24 24" fill="none" xmlns="http://www.w3.org/2000/svg">
<g clip-path="url(#clip0_39856_168950)">
<path d="M8.50008 12.7776C7.80785 12.7776 7.13116 12.5723 6.55559 12.1878C5.98001 11.8032 5.53141 11.2566 5.2665 10.617C5.0016 9.97747 4.93228 9.27373 5.06733 8.5948C5.20238 7.91587 5.53572 7.29223 6.02521 6.80274C6.51469 6.31326 7.13833 5.97992 7.81727 5.84487C8.4962 5.70982 9.19993 5.77913 9.83947 6.04404C10.479 6.30895 11.0256 6.75755 11.4102 7.33312C11.7948 7.90869 12.0001 8.58538 12.0001 9.27762C11.9991 10.2056 11.63 11.0952 10.9738 11.7514C10.3177 12.4075 9.42802 12.7766 8.50008 12.7776ZM8.50008 7.33317C8.11551 7.33317 7.73957 7.44721 7.41981 7.66087C7.10004 7.87453 6.85082 8.17821 6.70365 8.53351C6.55648 8.88881 6.51797 9.27977 6.593 9.65696C6.66803 10.0341 6.85322 10.3806 7.12515 10.6525C7.39709 10.9245 7.74355 11.1097 8.12074 11.1847C8.49792 11.2597 8.88889 11.2212 9.24419 11.074C9.59949 10.9269 9.90317 10.6777 10.1168 10.3579C10.3305 10.0381 10.4445 9.66219 10.4445 9.27762C10.4445 8.76192 10.2397 8.26734 9.87501 7.90269C9.51036 7.53803 9.01578 7.33317 8.50008 7.33317ZM14.3334 20.5554V20.1665C14.3334 18.6194 13.7188 17.1357 12.6249 16.0417C11.5309 14.9478 10.0472 14.3332 8.50008 14.3332C6.95299 14.3332 5.46925 14.9478 4.37529 16.0417C3.28133 17.1357 2.66675 18.6194 2.66675 20.1665L2.66675 20.5554C2.66675 20.7617 2.74869 20.9595 2.89455 21.1054C3.04042 21.2512 3.23825 21.3332 3.44453 21.3332C3.65081 21.3332 3.84864 21.2512 3.9945 21.1054C4.14036 20.9595 4.2223 20.7617 4.2223 20.5554V20.1665C4.2223 19.032 4.673 17.9439 5.47524 17.1417C6.27748 16.3394 7.36554 15.8887 8.50008 15.8887C9.63462 15.8887 10.7227 16.3394 11.5249 17.1417C12.3272 17.9439 12.7779 19.032 12.7779 20.1665V20.5554C12.7779 20.7617 12.8598 20.9595 13.0057 21.1054C13.1515 21.2512 13.3494 21.3332 13.5556 21.3332C13.7619 21.3332 13.9597 21.2512 14.1056 21.1054C14.2515 20.9595 14.3334 20.7617 14.3334 20.5554ZM21.3334 16.6665C21.3334 15.6155 21.0291 14.5869 20.4574 13.705C19.8857 12.8231 19.0709 12.1255 18.1114 11.6965C17.152 11.2674 16.0888 11.1253 15.0503 11.2872C14.0119 11.4491 13.0424 11.9081 12.2591 12.6088C12.1819 12.6767 12.1189 12.7591 12.0738 12.8514C12.0286 12.9437 12.0022 13.044 11.9961 13.1466C11.99 13.2492 12.0042 13.3519 12.038 13.4489C12.0718 13.546 12.1245 13.6353 12.193 13.7119C12.2616 13.7884 12.3446 13.8507 12.4373 13.8949C12.53 13.9392 12.6306 13.9647 12.7332 13.9699C12.8358 13.9751 12.9384 13.9599 13.0351 13.9252C13.1319 13.8905 13.2207 13.837 13.2966 13.7677C13.8562 13.2673 14.5487 12.9396 15.2904 12.824C16.0321 12.7085 16.7915 12.8101 17.4767 13.1166C18.162 13.4231 18.7439 13.9213 19.1522 14.5513C19.5606 15.1812 19.7778 15.9158 19.7779 16.6665C19.7779 16.8728 19.8598 17.0706 20.0057 17.2165C20.1515 17.3623 20.3494 17.4443 20.5556 17.4443C20.7619 17.4443 20.9597 17.3623 21.1056 17.2165C21.2515 17.0706 21.3334 16.8728 21.3334 16.6665ZM16.2779 9.66651C15.5856 9.66651 14.9089 9.46123 14.3334 9.07665C13.7578 8.69206 13.3092 8.14544 13.0443 7.5059C12.7794 6.86636 12.7101 6.16262 12.8451 5.48369C12.9802 4.80476 13.3135 4.18112 13.803 3.69163C14.2925 3.20215 14.9161 2.86881 15.595 2.73376C16.274 2.59871 16.9777 2.66802 17.6173 2.93293C18.2568 3.19783 18.8034 3.64644 19.188 4.22201C19.5726 4.79758 19.7779 5.47427 19.7779 6.16651C19.7768 7.09445 19.4078 7.98409 18.7516 8.64024C18.0954 9.2964 17.2058 9.66548 16.2779 9.66651ZM16.2779 4.22206C15.8933 4.22206 15.5173 4.3361 15.1976 4.54976C14.8778 4.76342 14.6286 5.0671 14.4814 5.4224C14.3343 5.7777 14.2958 6.16866 14.3708 6.54585C14.4458 6.92303 14.631 7.2695 14.9029 7.54144C15.1749 7.81337 15.5213 7.99856 15.8985 8.07359C16.2757 8.14862 16.6667 8.11011 17.022 7.96294C17.3773 7.81577 17.6809 7.56654 17.8946 7.24678C18.1083 6.92702 18.2223 6.55108 18.2223 6.16651C18.2223 5.65081 18.0174 5.15623 17.6528 4.79158C17.2881 4.42692 16.7936 4.22206 16.2779 4.22206Z" fill="#28282B"/>
</g>
<defs>
<clipPath id="clip0_39856_168950">
<rect width="18.6667" height="18.6667" fill="white" transform="translate(2.66675 2.6665)"/>
</clipPath>
</defs>
</svg>
