<svg width="23" height="22" viewBox="0 0 23 22" fill="none" xmlns="http://www.w3.org/2000/svg">
<path d="M16.0834 18.3327H20.6667V16.4993C20.6667 15.9278 20.4886 15.3705 20.1572 14.9049C19.8258 14.4393 19.3575 14.0885 18.8176 13.9013C18.2776 13.7141 17.6927 13.6997 17.1442 13.8603C16.5957 14.0208 16.1108 14.3483 15.757 14.7971M16.0834 18.3327H6.91671M16.0834 18.3327V16.4993C16.0834 15.898 15.9679 15.3233 15.757 14.7971M15.757 14.7971C15.4166 13.9464 14.8291 13.2172 14.0704 12.7035C13.3116 12.1899 12.4163 11.9154 11.5 11.9154C10.5838 11.9154 9.68849 12.1899 8.92971 12.7035C8.17093 13.2172 7.58345 13.9464 7.24304 14.7971M6.91671 18.3327H2.33337V16.4993C2.33342 15.9278 2.51151 15.3705 2.84291 14.9049C3.17431 14.4393 3.64254 14.0885 4.18252 13.9013C4.7225 13.7141 5.30739 13.6997 5.85588 13.8603C6.40438 14.0208 6.88923 14.3483 7.24304 14.7971M6.91671 18.3327V16.4993C6.91671 15.898 7.03221 15.3233 7.24304 14.7971M14.25 6.41602C14.25 7.14536 13.9603 7.84483 13.4446 8.36056C12.9289 8.87628 12.2294 9.16602 11.5 9.16602C10.7707 9.16602 10.0712 8.87628 9.5555 8.36056C9.03977 7.84483 8.75004 7.14536 8.75004 6.41602C8.75004 5.68667 9.03977 4.9872 9.5555 4.47147C10.0712 3.95575 10.7707 3.66602 11.5 3.66602C12.2294 3.66602 12.9289 3.95575 13.4446 4.47147C13.9603 4.9872 14.25 5.68667 14.25 6.41602ZM19.75 9.16602C19.75 9.65225 19.5569 10.1186 19.2131 10.4624C18.8693 10.8062 18.4029 10.9993 17.9167 10.9993C17.4305 10.9993 16.9642 10.8062 16.6203 10.4624C16.2765 10.1186 16.0834 9.65225 16.0834 9.16602C16.0834 8.67979 16.2765 8.21347 16.6203 7.86965C16.9642 7.52584 17.4305 7.33268 17.9167 7.33268C18.4029 7.33268 18.8693 7.52584 19.2131 7.86965C19.5569 8.21347 19.75 8.67979 19.75 9.16602ZM6.91671 9.16602C6.91671 9.65225 6.72355 10.1186 6.37974 10.4624C6.03592 10.8062 5.5696 10.9993 5.08337 10.9993C4.59714 10.9993 4.13083 10.8062 3.78701 10.4624C3.44319 10.1186 3.25004 9.65225 3.25004 9.16602C3.25004 8.67979 3.44319 8.21347 3.78701 7.86965C4.13083 7.52584 4.59714 7.33268 5.08337 7.33268C5.5696 7.33268 6.03592 7.52584 6.37974 7.86965C6.72355 8.21347 6.91671 8.67979 6.91671 9.16602Z" stroke="#9B51E0" stroke-width="1.5" stroke-linecap="round" stroke-linejoin="round"/>
</svg>
