<svg width="24" height="24" viewBox="0 0 24 24" fill="none" xmlns="http://www.w3.org/2000/svg">
<g clip-path="url(#clip0_39856_168934)">
<path fill-rule="evenodd" clip-rule="evenodd" d="M4.99992 9.06659C5.15905 9.06659 5.31166 9.1298 5.42418 9.24232C5.5367 9.35484 5.59992 9.50745 5.59992 9.66659V18.9999C5.59992 19.159 5.5367 19.3117 5.42418 19.4242C5.31166 19.5367 5.15905 19.5999 4.99992 19.5999C4.84079 19.5999 4.68818 19.5367 4.57565 19.4242C4.46313 19.3117 4.39992 19.159 4.39992 18.9999V9.66659C4.39992 9.50745 4.46313 9.35484 4.57565 9.24232C4.68818 9.1298 4.84079 9.06659 4.99992 9.06659ZM6.64983 8.01667C6.21225 7.57908 5.61876 7.33325 4.99992 7.33325C4.38108 7.33325 3.78759 7.57908 3.35 8.01667C2.91242 8.45425 2.66658 9.04775 2.66658 9.66659V18.9999C2.66658 19.6188 2.91242 20.2122 3.35 20.6498C3.78759 21.0874 4.38108 21.3333 4.99992 21.3333C5.61876 21.3333 6.21225 21.0874 6.64983 20.6498C7.08742 20.2122 7.33325 19.6188 7.33325 18.9999V9.66659C7.33325 9.04775 7.08742 8.45425 6.64983 8.01667Z" fill="#28282B"/>
<path fill-rule="evenodd" clip-rule="evenodd" d="M13.7333 3.4379C14.1185 3.8654 14.3333 4.42161 14.3333 4.99996V19C14.3333 19.6188 14.0874 20.2123 13.6498 20.6499C13.2122 21.0875 12.6188 21.3333 11.9999 21.3333C11.3811 21.3333 10.7876 21.0875 10.35 20.6499C9.91242 20.2123 9.66658 19.6188 9.66658 19V4.99996C9.66658 4.38112 9.91242 3.78763 10.35 3.35004C10.7876 2.91246 11.3811 2.66663 11.9999 2.66663C12.6188 2.66663 13.2122 2.91246 13.6498 3.35004C13.6785 3.37868 13.7063 3.40797 13.7333 3.4379ZM11.9999 4.39996C12.159 4.39996 12.3117 4.46317 12.4242 4.5757C12.5367 4.68822 12.5999 4.84083 12.5999 4.99996V19C12.5999 19.1591 12.5367 19.3117 12.4242 19.4242C12.3117 19.5367 12.159 19.6 11.9999 19.6C11.8408 19.6 11.6882 19.5367 11.5757 19.4242C11.4631 19.3117 11.3999 19.1591 11.3999 19V4.99996C11.3999 4.84083 11.4631 4.68822 11.5757 4.5757C11.6882 4.46317 11.8408 4.39996 11.9999 4.39996Z" fill="#28282B"/>
<path fill-rule="evenodd" clip-rule="evenodd" d="M18.9999 13.7333C19.159 13.7333 19.3117 13.7965 19.4242 13.9091C19.5367 14.0216 19.5999 14.1742 19.5999 14.3333V19C19.5999 19.1591 19.5367 19.3117 19.4242 19.4243C19.3117 19.5368 19.159 19.6 18.9999 19.6C18.8408 19.6 18.6882 19.5368 18.5757 19.4243C18.4631 19.3117 18.3999 19.1591 18.3999 19V14.3333C18.3999 14.1742 18.4631 14.0216 18.5757 13.9091C18.6882 13.7965 18.8408 13.7333 18.9999 13.7333ZM20.6498 12.6834C20.2122 12.2458 19.6188 12 18.9999 12C18.3811 12 17.7876 12.2458 17.35 12.6834C16.9124 13.121 16.6666 13.7145 16.6666 14.3333V19C16.6666 19.6188 16.9124 20.2123 17.35 20.6499C17.7876 21.0875 18.3811 21.3333 18.9999 21.3333C19.6188 21.3333 20.2122 21.0875 20.6498 20.6499C21.0874 20.2123 21.3333 19.6188 21.3333 19V14.3333C21.3333 13.7145 21.0874 13.121 20.6498 12.6834Z" fill="#28282B"/>
</g>
<defs>
<clipPath id="clip0_39856_168934">
<rect width="18.6667" height="18.6667" fill="white" transform="matrix(-1 0 0 1 21.3333 2.66663)"/>
</clipPath>
</defs>
</svg>
