<svg width="24" height="24" viewBox="0 0 24 24" fill="none" xmlns="http://www.w3.org/2000/svg">
<g clip-path="url(#clip0_39856_169030)">
<path d="M12.0001 2.66663C10.1541 2.66663 8.34962 3.21402 6.81476 4.23958C5.2799 5.26514 4.08363 6.7228 3.37721 8.42825C2.67079 10.1337 2.48596 12.0103 2.84609 13.8208C3.20622 15.6313 4.09513 17.2943 5.40042 18.5996C6.70571 19.9049 8.36875 20.7938 10.1792 21.154C11.9897 21.5141 13.8664 21.3293 15.5718 20.6228C17.2772 19.9164 18.7349 18.7201 19.7605 17.1853C20.786 15.6504 21.3334 13.8459 21.3334 12C21.3307 9.52543 20.3466 7.15301 18.5968 5.40325C16.847 3.65349 14.4746 2.6693 12.0001 2.66663V2.66663ZM12.0001 19.7777C10.4618 19.7777 8.95803 19.3216 7.67898 18.4669C6.39994 17.6123 5.40304 16.3976 4.81436 14.9764C4.22567 13.5552 4.07165 11.9913 4.37176 10.4826C4.67186 8.97385 5.41262 7.58798 6.50037 6.50024C7.58811 5.4125 8.97398 4.67174 10.4827 4.37163C11.9915 4.07152 13.5553 4.22555 14.9765 4.81423C16.3977 5.40291 17.6124 6.39981 18.4671 7.67886C19.3217 8.95791 19.7779 10.4617 19.7779 12C19.7756 14.0621 18.9554 16.0391 17.4973 17.4972C16.0392 18.9553 14.0622 19.7755 12.0001 19.7777Z" fill="#28282B"/>
<path d="M12.0002 6.55554C11.7939 6.55554 11.5961 6.63749 11.4502 6.78335C11.3044 6.92921 11.2224 7.12704 11.2224 7.33332V13.5555C11.2224 13.7618 11.3044 13.9597 11.4502 14.1055C11.5961 14.2514 11.7939 14.3333 12.0002 14.3333C12.2065 14.3333 12.4043 14.2514 12.5502 14.1055C12.696 13.9597 12.778 13.7618 12.778 13.5555V7.33332C12.778 7.12704 12.696 6.92921 12.5502 6.78335C12.4043 6.63749 12.2065 6.55554 12.0002 6.55554Z" fill="#28282B"/>
<path d="M12.778 16.6666C12.778 16.237 12.4297 15.8888 12.0002 15.8888C11.5706 15.8888 11.2224 16.237 11.2224 16.6666C11.2224 17.0961 11.5706 17.4443 12.0002 17.4443C12.4297 17.4443 12.778 17.0961 12.778 16.6666Z" fill="#28282B"/>
</g>
<defs>
<clipPath id="clip0_39856_169030">
<rect width="18.6667" height="18.6667" fill="white" transform="translate(2.66675 2.66663)"/>
</clipPath>
</defs>
</svg>
