<svg width="18" height="19" viewBox="0 0 18 19" fill="none" xmlns="http://www.w3.org/2000/svg">
<mask id="path-1-inside-1_1186_3626" fill="white">
<path d="M4.1999 6.2502C4.1999 6.10433 4.25785 5.96443 4.36099 5.86129C4.46414 5.75814 4.60403 5.7002 4.7499 5.7002H10.2499C10.3958 5.7002 10.5357 5.75814 10.6388 5.86129C10.742 5.96443 10.7999 6.10433 10.7999 6.2502C10.7999 6.39606 10.742 6.53596 10.6388 6.6391C10.5357 6.74225 10.3958 6.8002 10.2499 6.8002H4.7499C4.60403 6.8002 4.46414 6.74225 4.36099 6.6391C4.25785 6.53596 4.1999 6.39606 4.1999 6.2502ZM4.7499 9.0002C4.60403 9.0002 4.46414 9.05814 4.36099 9.16129C4.25785 9.26443 4.1999 9.40433 4.1999 9.5502C4.1999 9.69606 4.25785 9.83596 4.36099 9.93911C4.46414 10.0422 4.60403 10.1002 4.7499 10.1002H10.2499C10.3958 10.1002 10.5357 10.0422 10.6388 9.93911C10.742 9.83596 10.7999 9.69606 10.7999 9.5502C10.7999 9.40433 10.742 9.26443 10.6388 9.16129C10.5357 9.05814 10.3958 9.0002 10.2499 9.0002H4.7499ZM4.1999 12.8502C4.1999 12.7043 4.25785 12.5644 4.36099 12.4613C4.46414 12.3581 4.60403 12.3002 4.7499 12.3002H6.9499C7.09577 12.3002 7.23567 12.3581 7.33881 12.4613C7.44196 12.5644 7.4999 12.7043 7.4999 12.8502C7.4999 12.9961 7.44196 13.136 7.33881 13.2391C7.23567 13.3422 7.09577 13.4002 6.9499 13.4002H4.7499C4.60403 13.4002 4.46414 13.3422 4.36099 13.2391C4.25785 13.136 4.1999 12.9961 4.1999 12.8502ZM3.0999 0.750195C3.0999 0.604326 3.15785 0.464432 3.26099 0.361287C3.36414 0.258142 3.50403 0.200195 3.6499 0.200195C3.79577 0.200195 3.93567 0.258142 4.03881 0.361287C4.14196 0.464432 4.1999 0.604326 4.1999 0.750195V1.3002H6.9499V0.750195C6.9499 0.604326 7.00785 0.464432 7.11099 0.361287C7.21414 0.258142 7.35403 0.200195 7.4999 0.200195C7.64577 0.200195 7.78567 0.258142 7.88881 0.361287C7.99196 0.464432 8.0499 0.604326 8.0499 0.750195V1.3002H10.7999V0.750195C10.7999 0.604326 10.8578 0.464432 10.961 0.361287C11.0641 0.258142 11.204 0.200195 11.3499 0.200195C11.4958 0.200195 11.6357 0.258142 11.7388 0.361287C11.842 0.464432 11.8999 0.604326 11.8999 0.750195V1.3002H12.4499C12.8875 1.3002 13.3072 1.47403 13.6166 1.78347C13.9261 2.0929 14.0999 2.51259 14.0999 2.9502V8.1554C13.7413 8.3094 13.4047 8.5316 13.1121 8.8253L12.9999 8.9375V2.9502C12.9999 2.80433 12.942 2.66443 12.8388 2.56129C12.7357 2.45814 12.5958 2.4002 12.4499 2.4002H2.5499C2.40403 2.4002 2.26414 2.45814 2.16099 2.56129C2.05785 2.66443 1.9999 2.80433 1.9999 2.9502V16.1502C1.9999 16.2961 2.05785 16.436 2.16099 16.5391C2.26414 16.6423 2.40403 16.7002 2.5499 16.7002H6.6419L6.4626 17.4185C6.43034 17.5476 6.41054 17.6748 6.4032 17.8002H2.5499C2.1123 17.8002 1.69261 17.6264 1.38318 17.3169C1.07374 17.0075 0.899902 16.5878 0.899902 16.1502V2.9502C0.899902 2.51259 1.07374 2.0929 1.38318 1.78347C1.69261 1.47403 2.1123 1.3002 2.5499 1.3002H3.0999V0.750195ZM13.8909 9.603L8.5779 14.916C8.26838 15.2256 8.04865 15.6134 7.9421 16.038L7.5296 17.6858C7.48892 17.8497 7.49132 18.0213 7.53657 18.184C7.58182 18.3467 7.66837 18.4949 7.78783 18.6142C7.90729 18.7336 8.05558 18.82 8.21831 18.8651C8.38103 18.9102 8.55266 18.9124 8.7165 18.8716L10.3643 18.4602C10.7889 18.3537 11.1767 18.1339 11.4863 17.8244L16.7993 12.5114C17.1801 12.1246 17.3925 11.6029 17.3903 11.0601C17.3881 10.5173 17.1714 9.99741 16.7875 9.61367C16.4036 9.22993 15.8837 9.01348 15.3409 9.01148C14.7981 9.00948 14.2765 9.2221 13.8898 9.603"/>
</mask>
<path d="M4.1999 6.2502C4.1999 6.10433 4.25785 5.96443 4.36099 5.86129C4.46414 5.75814 4.60403 5.7002 4.7499 5.7002H10.2499C10.3958 5.7002 10.5357 5.75814 10.6388 5.86129C10.742 5.96443 10.7999 6.10433 10.7999 6.2502C10.7999 6.39606 10.742 6.53596 10.6388 6.6391C10.5357 6.74225 10.3958 6.8002 10.2499 6.8002H4.7499C4.60403 6.8002 4.46414 6.74225 4.36099 6.6391C4.25785 6.53596 4.1999 6.39606 4.1999 6.2502ZM4.7499 9.0002C4.60403 9.0002 4.46414 9.05814 4.36099 9.16129C4.25785 9.26443 4.1999 9.40433 4.1999 9.5502C4.1999 9.69606 4.25785 9.83596 4.36099 9.93911C4.46414 10.0422 4.60403 10.1002 4.7499 10.1002H10.2499C10.3958 10.1002 10.5357 10.0422 10.6388 9.93911C10.742 9.83596 10.7999 9.69606 10.7999 9.5502C10.7999 9.40433 10.742 9.26443 10.6388 9.16129C10.5357 9.05814 10.3958 9.0002 10.2499 9.0002H4.7499ZM4.1999 12.8502C4.1999 12.7043 4.25785 12.5644 4.36099 12.4613C4.46414 12.3581 4.60403 12.3002 4.7499 12.3002H6.9499C7.09577 12.3002 7.23567 12.3581 7.33881 12.4613C7.44196 12.5644 7.4999 12.7043 7.4999 12.8502C7.4999 12.9961 7.44196 13.136 7.33881 13.2391C7.23567 13.3422 7.09577 13.4002 6.9499 13.4002H4.7499C4.60403 13.4002 4.46414 13.3422 4.36099 13.2391C4.25785 13.136 4.1999 12.9961 4.1999 12.8502ZM3.0999 0.750195C3.0999 0.604326 3.15785 0.464432 3.26099 0.361287C3.36414 0.258142 3.50403 0.200195 3.6499 0.200195C3.79577 0.200195 3.93567 0.258142 4.03881 0.361287C4.14196 0.464432 4.1999 0.604326 4.1999 0.750195V1.3002H6.9499V0.750195C6.9499 0.604326 7.00785 0.464432 7.11099 0.361287C7.21414 0.258142 7.35403 0.200195 7.4999 0.200195C7.64577 0.200195 7.78567 0.258142 7.88881 0.361287C7.99196 0.464432 8.0499 0.604326 8.0499 0.750195V1.3002H10.7999V0.750195C10.7999 0.604326 10.8578 0.464432 10.961 0.361287C11.0641 0.258142 11.204 0.200195 11.3499 0.200195C11.4958 0.200195 11.6357 0.258142 11.7388 0.361287C11.842 0.464432 11.8999 0.604326 11.8999 0.750195V1.3002H12.4499C12.8875 1.3002 13.3072 1.47403 13.6166 1.78347C13.9261 2.0929 14.0999 2.51259 14.0999 2.9502V8.1554C13.7413 8.3094 13.4047 8.5316 13.1121 8.8253L12.9999 8.9375V2.9502C12.9999 2.80433 12.942 2.66443 12.8388 2.56129C12.7357 2.45814 12.5958 2.4002 12.4499 2.4002H2.5499C2.40403 2.4002 2.26414 2.45814 2.16099 2.56129C2.05785 2.66443 1.9999 2.80433 1.9999 2.9502V16.1502C1.9999 16.2961 2.05785 16.436 2.16099 16.5391C2.26414 16.6423 2.40403 16.7002 2.5499 16.7002H6.6419L6.4626 17.4185C6.43034 17.5476 6.41054 17.6748 6.4032 17.8002H2.5499C2.1123 17.8002 1.69261 17.6264 1.38318 17.3169C1.07374 17.0075 0.899902 16.5878 0.899902 16.1502V2.9502C0.899902 2.51259 1.07374 2.0929 1.38318 1.78347C1.69261 1.47403 2.1123 1.3002 2.5499 1.3002H3.0999V0.750195ZM13.8909 9.603L8.5779 14.916C8.26838 15.2256 8.04865 15.6134 7.9421 16.038L7.5296 17.6858C7.48892 17.8497 7.49132 18.0213 7.53657 18.184C7.58182 18.3467 7.66837 18.4949 7.78783 18.6142C7.90729 18.7336 8.05558 18.82 8.21831 18.8651C8.38103 18.9102 8.55266 18.9124 8.7165 18.8716L10.3643 18.4602C10.7889 18.3537 11.1767 18.1339 11.4863 17.8244L16.7993 12.5114C17.1801 12.1246 17.3925 11.6029 17.3903 11.0601C17.3881 10.5173 17.1714 9.99741 16.7875 9.61367C16.4036 9.22993 15.8837 9.01348 15.3409 9.01148C14.7981 9.00948 14.2765 9.2221 13.8898 9.603" fill="#F69641"/>
<path d="M3.6499 0.200195V1.7002V0.200195ZM4.1999 1.3002H2.6999V2.8002H4.1999V1.3002ZM6.9499 1.3002V2.8002H8.4499V1.3002H6.9499ZM7.4999 0.200195V1.7002V0.200195ZM8.0499 1.3002H6.5499V2.8002H8.0499V1.3002ZM10.7999 1.3002V2.8002H12.2999V1.3002H10.7999ZM11.3499 0.200195V1.7002V0.200195ZM11.8999 1.3002H10.3999V2.8002H11.8999V1.3002ZM14.0999 2.9502H15.5999H14.0999ZM14.0999 8.1554L14.6918 9.53368L15.5999 9.14369V8.1554H14.0999ZM13.1121 8.8253L14.1728 9.88596L14.1748 9.88396L13.1121 8.8253ZM12.9999 8.9375H11.4999V12.5588L14.0606 9.99816L12.9999 8.9375ZM12.4499 2.4002V3.9002V2.4002ZM2.5499 2.4002V3.9002V2.4002ZM6.6419 16.7002L8.09725 17.0635L8.56235 15.2002H6.6419V16.7002ZM6.4626 17.4185L7.91782 17.7823L7.91795 17.7818L6.4626 17.4185ZM6.4032 17.8002V19.3002H7.81805L7.90064 17.8878L6.4032 17.8002ZM2.5499 1.3002L2.5499 -0.199805L2.5499 1.3002ZM3.0999 1.3002V2.8002H4.5999V1.3002H3.0999ZM8.5779 14.916L7.51724 13.8553L7.51709 13.8555L8.5779 14.916ZM7.9421 16.038L6.4872 15.6729L6.487 15.6737L7.9421 16.038ZM7.5296 17.6858L6.0745 17.3215L6.07378 17.3244L7.5296 17.6858ZM8.7165 18.8716L9.07922 20.3271L9.07985 20.3269L8.7165 18.8716ZM10.3643 18.4602L10.7276 19.9155L10.7294 19.9151L10.3643 18.4602ZM11.4863 17.8244L12.5468 18.8852L12.547 18.8851L11.4863 17.8244ZM16.7993 12.5114L17.86 13.5721L17.8683 13.5636L16.7993 12.5114ZM5.6999 6.2502C5.6999 6.50215 5.59981 6.74379 5.42165 6.92195L3.30033 4.80063C2.91588 5.18508 2.6999 5.7065 2.6999 6.2502H5.6999ZM5.42165 6.92195C5.24349 7.10011 5.00186 7.2002 4.7499 7.2002V4.2002C4.20621 4.2002 3.68478 4.41618 3.30033 4.80063L5.42165 6.92195ZM4.7499 7.2002H10.2499V4.2002H4.7499V7.2002ZM10.2499 7.2002C9.99795 7.2002 9.75631 7.10011 9.57815 6.92195L11.6995 4.80063C11.315 4.41618 10.7936 4.2002 10.2499 4.2002V7.2002ZM9.57815 6.92195C9.39999 6.74379 9.2999 6.50215 9.2999 6.2502H12.2999C12.2999 5.7065 12.0839 5.18508 11.6995 4.80063L9.57815 6.92195ZM9.2999 6.2502C9.2999 5.99824 9.39999 5.75661 9.57815 5.57844L11.6995 7.69976C12.0839 7.31531 12.2999 6.79389 12.2999 6.2502H9.2999ZM9.57815 5.57844C9.75631 5.40028 9.99795 5.3002 10.2499 5.3002V8.3002C10.7936 8.3002 11.315 8.08421 11.6995 7.69976L9.57815 5.57844ZM10.2499 5.3002H4.7499V8.3002H10.2499V5.3002ZM4.7499 5.3002C5.00186 5.3002 5.24349 5.40029 5.42165 5.57844L3.30033 7.69976C3.68478 8.08421 4.20621 8.3002 4.7499 8.3002V5.3002ZM5.42165 5.57844C5.59981 5.7566 5.6999 5.99824 5.6999 6.2502H2.6999C2.6999 6.79389 2.91588 7.31532 3.30033 7.69976L5.42165 5.57844ZM4.7499 7.5002C4.20621 7.5002 3.68479 7.71617 3.30033 8.10063L5.42165 10.2219C5.24349 10.4001 5.00186 10.5002 4.7499 10.5002V7.5002ZM3.30033 8.10063C2.91588 8.48508 2.6999 9.0065 2.6999 9.5502H5.6999C5.6999 9.80215 5.59981 10.0438 5.42165 10.2219L3.30033 8.10063ZM2.6999 9.5502C2.6999 10.0939 2.91588 10.6153 3.30033 10.9998L5.42165 8.87844C5.59981 9.0566 5.6999 9.29824 5.6999 9.5502H2.6999ZM3.30033 10.9998C3.68479 11.3842 4.20621 11.6002 4.7499 11.6002V8.6002C5.00186 8.6002 5.24349 8.70028 5.42165 8.87844L3.30033 10.9998ZM4.7499 11.6002H10.2499V8.6002H4.7499V11.6002ZM10.2499 11.6002C10.7936 11.6002 11.315 11.3842 11.6995 10.9998L9.57815 8.87844C9.75631 8.70028 9.99795 8.6002 10.2499 8.6002V11.6002ZM11.6995 10.9998C12.0839 10.6153 12.2999 10.0939 12.2999 9.5502H9.2999C9.2999 9.29824 9.39999 9.05661 9.57815 8.87844L11.6995 10.9998ZM12.2999 9.5502C12.2999 9.00651 12.0839 8.48508 11.6995 8.10063L9.57815 10.2219C9.39999 10.0438 9.2999 9.80215 9.2999 9.5502H12.2999ZM11.6995 8.10063C11.315 7.71617 10.7936 7.5002 10.2499 7.5002V10.5002C9.99795 10.5002 9.75631 10.4001 9.57815 10.2219L11.6995 8.10063ZM10.2499 7.5002H4.7499V10.5002H10.2499V7.5002ZM5.6999 12.8502C5.6999 13.1022 5.59981 13.3438 5.42165 13.5219L3.30033 11.4006C2.91588 11.7851 2.6999 12.3065 2.6999 12.8502H5.6999ZM5.42165 13.5219C5.24349 13.7001 5.00186 13.8002 4.7499 13.8002V10.8002C4.20621 10.8002 3.68479 11.0162 3.30033 11.4006L5.42165 13.5219ZM4.7499 13.8002H6.9499V10.8002H4.7499V13.8002ZM6.9499 13.8002C6.69795 13.8002 6.45631 13.7001 6.27815 13.5219L8.39947 11.4006C8.01502 11.0162 7.49359 10.8002 6.9499 10.8002V13.8002ZM6.27815 13.5219C6.09999 13.3438 5.9999 13.1021 5.9999 12.8502H8.9999C8.9999 12.3065 8.78392 11.7851 8.39947 11.4006L6.27815 13.5219ZM5.9999 12.8502C5.9999 12.5982 6.09999 12.3566 6.27815 12.1784L8.39947 14.2998C8.78392 13.9153 8.9999 13.3939 8.9999 12.8502H5.9999ZM6.27815 12.1784C6.45631 12.0003 6.69795 11.9002 6.9499 11.9002V14.9002C7.49359 14.9002 8.01502 14.6842 8.39947 14.2998L6.27815 12.1784ZM6.9499 11.9002H4.7499V14.9002H6.9499V11.9002ZM4.7499 11.9002C5.00186 11.9002 5.24349 12.0003 5.42165 12.1784L3.30033 14.2998C3.68479 14.6842 4.20621 14.9002 4.7499 14.9002V11.9002ZM5.42165 12.1784C5.59981 12.3566 5.6999 12.5982 5.6999 12.8502H2.6999C2.6999 13.3939 2.91588 13.9153 3.30033 14.2998L5.42165 12.1784ZM4.5999 0.750195C4.5999 1.00215 4.49981 1.24379 4.32165 1.42195L2.20033 -0.699373C1.81588 -0.314925 1.5999 0.2065 1.5999 0.750195H4.5999ZM4.32165 1.42195C4.1435 1.60011 3.90186 1.7002 3.6499 1.7002V-1.2998C3.10621 -1.2998 2.58478 -1.08382 2.20033 -0.699373L4.32165 1.42195ZM3.6499 1.7002C3.39795 1.7002 3.15631 1.60011 2.97815 1.42195L5.09947 -0.699373C4.71502 -1.08382 4.1936 -1.2998 3.6499 -1.2998V1.7002ZM2.97815 1.42195C2.79999 1.24379 2.6999 1.00215 2.6999 0.750195H5.6999C5.6999 0.2065 5.48392 -0.314925 5.09947 -0.699373L2.97815 1.42195ZM2.6999 0.750195V1.3002H5.6999V0.750195H2.6999ZM4.1999 2.8002H6.9499V-0.199805H4.1999V2.8002ZM8.4499 1.3002V0.750195H5.4499V1.3002H8.4499ZM8.4499 0.750195C8.4499 1.00215 8.34981 1.24379 8.17165 1.42195L6.05033 -0.699373C5.66588 -0.314922 5.4499 0.206504 5.4499 0.750195H8.4499ZM8.17165 1.42195C7.99349 1.60011 7.75186 1.7002 7.4999 1.7002L7.4999 -1.2998C6.95621 -1.2998 6.43478 -1.08382 6.05033 -0.699373L8.17165 1.42195ZM7.4999 1.7002C7.24795 1.7002 7.00631 1.60011 6.82815 1.42195L8.94947 -0.699373C8.56502 -1.08382 8.0436 -1.2998 7.4999 -1.2998L7.4999 1.7002ZM6.82815 1.42195C6.64999 1.24379 6.5499 1.00215 6.5499 0.750195H9.5499C9.5499 0.206504 9.33392 -0.314922 8.94947 -0.699373L6.82815 1.42195ZM6.5499 0.750195V1.3002H9.5499V0.750195H6.5499ZM8.0499 2.8002H10.7999V-0.199805H8.0499V2.8002ZM12.2999 1.3002V0.750195H9.2999V1.3002H12.2999ZM12.2999 0.750195C12.2999 1.00215 12.1998 1.24379 12.0217 1.42195L9.90033 -0.699373C9.51588 -0.314922 9.2999 0.206504 9.2999 0.750195H12.2999ZM12.0217 1.42195C11.8435 1.60011 11.6019 1.7002 11.3499 1.7002V-1.2998C10.8062 -1.2998 10.2848 -1.08382 9.90033 -0.699373L12.0217 1.42195ZM11.3499 1.7002C11.0979 1.7002 10.8563 1.60011 10.6782 1.42195L12.7995 -0.699373C12.415 -1.08382 11.8936 -1.2998 11.3499 -1.2998V1.7002ZM10.6782 1.42195C10.5 1.24379 10.3999 1.00215 10.3999 0.750195H13.3999C13.3999 0.206504 13.1839 -0.314922 12.7995 -0.699373L10.6782 1.42195ZM10.3999 0.750195V1.3002H13.3999V0.750195H10.3999ZM11.8999 2.8002H12.4499V-0.199805H11.8999V2.8002ZM12.4499 2.8002C12.4897 2.8002 12.5278 2.816 12.556 2.84413L14.6773 0.722809C14.0865 0.132069 13.2853 -0.199805 12.4499 -0.199805V2.8002ZM12.556 2.84413C12.5841 2.87226 12.5999 2.91041 12.5999 2.9502H15.5999C15.5999 2.11476 15.268 1.31355 14.6773 0.722809L12.556 2.84413ZM12.5999 2.9502V8.1554H15.5999V2.9502H12.5999ZM13.508 6.77712C12.9805 7.00366 12.4824 7.33208 12.0495 7.76663L14.1748 9.88396C14.327 9.73111 14.5021 9.61513 14.6918 9.53368L13.508 6.77712ZM12.0514 7.76464L11.9392 7.87684L14.0606 9.99816L14.1728 9.88595L12.0514 7.76464ZM14.4999 8.9375V2.9502H11.4999V8.9375H14.4999ZM14.4999 2.9502C14.4999 2.4065 14.2839 1.88508 13.8995 1.50063L11.7782 3.62195C11.6 3.44379 11.4999 3.20215 11.4999 2.9502H14.4999ZM13.8995 1.50063C13.515 1.11618 12.9936 0.900195 12.4499 0.900195V3.9002C12.1979 3.9002 11.9563 3.80011 11.7782 3.62195L13.8995 1.50063ZM12.4499 0.900195H2.5499V3.9002H12.4499V0.900195ZM2.5499 0.900195C2.00621 0.900195 1.48478 1.11618 1.10033 1.50063L3.22165 3.62195C3.0435 3.80011 2.80186 3.9002 2.5499 3.9002L2.5499 0.900195ZM1.10033 1.50063C0.715885 1.88508 0.499902 2.4065 0.499902 2.9502H3.4999C3.4999 3.20215 3.39981 3.44379 3.22165 3.62195L1.10033 1.50063ZM0.499902 2.9502V16.1502H3.4999V2.9502H0.499902ZM0.499902 16.1502C0.499902 16.6939 0.715884 17.2153 1.10033 17.5998L3.22165 15.4784C3.39981 15.6566 3.4999 15.8982 3.4999 16.1502H0.499902ZM1.10033 17.5998C1.48479 17.9842 2.00621 18.2002 2.5499 18.2002V15.2002C2.80186 15.2002 3.04349 15.3003 3.22165 15.4784L1.10033 17.5998ZM2.5499 18.2002H6.6419V15.2002H2.5499V18.2002ZM5.18656 16.3369L5.00726 17.0552L7.91795 17.7818L8.09725 17.0635L5.18656 16.3369ZM5.00739 17.0547C4.95381 17.269 4.91885 17.4887 4.90576 17.7126L7.90064 17.8878C7.90222 17.8609 7.90686 17.8261 7.91782 17.7823L5.00739 17.0547ZM6.4032 16.3002H2.5499V19.3002H6.4032V16.3002ZM2.5499 16.3002C2.51012 16.3002 2.47197 16.2844 2.44384 16.2563L0.322516 18.3776C0.913254 18.9683 1.71447 19.3002 2.5499 19.3002V16.3002ZM2.44384 16.2563C2.41571 16.2281 2.3999 16.19 2.3999 16.1502H-0.600098C-0.600098 16.9856 -0.268224 17.7868 0.322516 18.3776L2.44384 16.2563ZM2.3999 16.1502V2.9502H-0.600098V16.1502H2.3999ZM2.3999 2.9502C2.3999 2.91041 2.41571 2.87226 2.44384 2.84413L0.322516 0.722809C-0.268224 1.31355 -0.600098 2.11476 -0.600098 2.9502H2.3999ZM2.44384 2.84413C2.47197 2.816 2.51012 2.8002 2.5499 2.8002L2.5499 -0.199805C1.71447 -0.199805 0.913255 0.132069 0.322516 0.722809L2.44384 2.84413ZM2.5499 2.8002H3.0999V-0.199805H2.5499V2.8002ZM4.5999 1.3002V0.750195H1.5999V1.3002H4.5999ZM12.8302 8.54234L7.51724 13.8553L9.63856 15.9767L14.9516 10.6637L12.8302 8.54234ZM7.51709 13.8555C7.01572 14.357 6.65979 14.9851 6.4872 15.6729L9.397 16.4031C9.43751 16.2416 9.52104 16.0942 9.63871 15.9765L7.51709 13.8555ZM6.487 15.6737L6.0745 17.3215L8.9847 18.0501L9.3972 16.4023L6.487 15.6737ZM6.07378 17.3244C5.97077 17.7394 5.97685 18.174 6.09143 18.5859L8.98171 17.782C9.00579 17.8686 9.00707 17.96 8.98542 18.0472L6.07378 17.3244ZM6.09143 18.5859C6.206 18.9979 6.42517 19.3732 6.72766 19.6754L8.848 17.5531C8.91157 17.6166 8.95764 17.6955 8.98171 17.782L6.09143 18.5859ZM6.72766 19.6754C7.03015 19.9776 7.40566 20.1964 7.8177 20.3106L8.61891 17.4196C8.70551 17.4436 8.78443 17.4896 8.848 17.5531L6.72766 19.6754ZM7.8177 20.3106C8.22975 20.4248 8.66433 20.4305 9.07922 20.3271L8.35378 17.4161C8.44098 17.3944 8.53231 17.3956 8.61891 17.4196L7.8177 20.3106ZM9.07985 20.3269L10.7276 19.9155L10.001 17.0049L8.35316 17.4163L9.07985 20.3269ZM10.7294 19.9151C11.4172 19.7425 12.0453 19.3866 12.5468 18.8852L10.4258 16.7636C10.3081 16.8813 10.1607 16.9648 9.99925 17.0053L10.7294 19.9151ZM12.547 18.8851L17.86 13.5721L15.7386 11.4507L10.4256 16.7637L12.547 18.8851ZM17.8683 13.5636C18.5268 12.8947 18.8941 11.9926 18.8903 11.054L15.8903 11.0662C15.8909 11.2132 15.8334 11.3544 15.7303 11.4592L17.8683 13.5636ZM18.8903 11.054C18.8864 10.1154 18.5118 9.21638 17.848 8.55281L15.7271 10.6745C15.831 10.7784 15.8897 10.9192 15.8903 11.0662L18.8903 11.054ZM17.848 8.55281C17.1842 7.88924 16.285 7.51494 15.3464 7.51149L15.3353 10.5115C15.4823 10.512 15.6231 10.5706 15.7271 10.6745L17.848 8.55281ZM15.3464 7.51149C14.4078 7.50803 13.5059 7.87569 12.8372 8.53435L14.9424 10.6716C15.0471 10.5685 15.1884 10.5109 15.3353 10.5115L15.3464 7.51149Z" fill="#F69641" mask="url(#path-1-inside-1_1186_3626)"/>
</svg>
