<svg width="70" height="70" viewBox="0 0 70 70" fill="none" xmlns="http://www.w3.org/2000/svg">
<g clip-path="url(#clip0_595_45642)">
<path d="M20.8559 20.8573L20.8573 20.8559C20.9908 20.722 21.1494 20.6158 21.3241 20.5434C21.4987 20.4709 21.6859 20.4336 21.875 20.4336C22.0641 20.4336 22.2513 20.4709 22.4259 20.5434C22.6006 20.6158 22.7592 20.722 22.8927 20.8559L22.8933 20.8565L34.4696 32.4371L35 32.9677L35.5304 32.4371L47.1066 20.8566C47.2403 20.7228 47.3991 20.6167 47.5738 20.5444C47.7486 20.472 47.9359 20.4347 48.125 20.4347C48.3141 20.4347 48.5014 20.472 48.6762 20.5444C48.8509 20.6167 49.0097 20.7228 49.1434 20.8566C49.2772 20.9903 49.3833 21.1491 49.4556 21.3238C49.528 21.4986 49.5653 21.6859 49.5653 21.875C49.5653 22.0641 49.528 22.2514 49.4556 22.4262C49.3833 22.6009 49.2772 22.7596 49.1435 22.8933C49.1435 22.8933 49.1434 22.8934 49.1434 22.8934L37.5629 34.4696L37.0323 35L37.5629 35.5304L49.1434 47.1066C49.1434 47.1066 49.1435 47.1067 49.1435 47.1067C49.2772 47.2404 49.3833 47.3991 49.4556 47.5738C49.528 47.7486 49.5653 47.9359 49.5653 48.125C49.5653 48.3141 49.528 48.5014 49.4556 48.6762C49.3833 48.8509 49.2772 49.0097 49.1434 49.1434C49.0097 49.2772 48.8509 49.3833 48.6762 49.4556C48.5014 49.528 48.3141 49.5653 48.125 49.5653C47.9359 49.5653 47.7486 49.528 47.5738 49.4556C47.3991 49.3833 47.2404 49.2772 47.1067 49.1435C47.1067 49.1435 47.1066 49.1434 47.1066 49.1434L35.5304 37.5629L35 37.0323L34.4696 37.5629L22.8934 49.1434C22.8934 49.1434 22.8933 49.1435 22.8933 49.1435C22.7596 49.2772 22.6009 49.3833 22.4262 49.4556C22.2514 49.528 22.0641 49.5653 21.875 49.5653C21.6859 49.5653 21.4986 49.528 21.3238 49.4556C21.1491 49.3833 20.9903 49.2772 20.8566 49.1434C20.7228 49.0097 20.6167 48.8509 20.5444 48.6762C20.472 48.5014 20.4347 48.3141 20.4347 48.125C20.4347 47.9359 20.472 47.7486 20.5444 47.5738C20.6167 47.3991 20.7228 47.2403 20.8566 47.1066L32.4371 35.5304L32.9677 35L32.4371 34.4696L20.8565 22.8933L20.8559 22.8927C20.722 22.7592 20.6158 22.6006 20.5434 22.4259C20.4709 22.2513 20.4336 22.0641 20.4336 21.875C20.4336 21.6859 20.4709 21.4987 20.5434 21.3241C20.6158 21.1494 20.722 20.9908 20.8559 20.8573ZM12.8145 57.1855C18.6985 63.0694 26.6788 66.375 35 66.375C43.3212 66.375 51.3015 63.0694 57.1855 57.1855C63.0694 51.3015 66.375 43.3212 66.375 35C66.375 26.6788 63.0694 18.6985 57.1855 12.8145C51.3015 6.93057 43.3212 3.625 35 3.625C26.6788 3.625 18.6985 6.93057 12.8145 12.8145C6.93057 18.6985 3.625 26.6788 3.625 35C3.625 43.3212 6.93057 51.3015 12.8145 57.1855ZM59.2184 59.2184C52.7953 65.6415 44.0837 69.25 35 69.25C25.9163 69.25 17.2047 65.6415 10.7816 59.2184C4.35847 52.7953 0.75 44.0837 0.75 35C0.75 25.9163 4.35847 17.2047 10.7816 10.7816C17.2047 4.35847 25.9163 0.75 35 0.75C44.0837 0.75 52.7953 4.35847 59.2184 10.7816C65.6415 17.2047 69.25 25.9163 69.25 35C69.25 44.0837 65.6415 52.7953 59.2184 59.2184Z" fill="#FF384C" stroke="#FF384C" stroke-width="1.5"/>
</g>
<defs>
<clipPath id="clip0_595_45642">
<rect width="70" height="70" fill="white"/>
</clipPath>
</defs>
</svg>
