<svg width="16" height="16" viewBox="0 0 16 16" fill="none" xmlns="http://www.w3.org/2000/svg">
<path d="M12.3571 8.74091L12.1413 9.30077C12.1571 9.30688 12.1779 9.31741 12.1994 9.3315C12.1903 9.33595 12.18 9.34048 12.1683 9.34497L11.0574 8.88909C11.4195 9.02517 11.781 9.16238 12.1419 9.30101L12.3571 8.74091ZM12.3571 8.74091C11.2013 8.29695 10.04 7.86789 8.87657 7.44436L12.3736 9.9088C12.7822 9.7564 12.9678 9.39084 12.7717 9.06947C12.6845 8.927 12.5161 8.8022 12.3571 8.74091ZM7.32124 5.51225C7.28479 5.41344 7.24826 5.31468 7.21165 5.21598C7.2098 5.21101 7.20796 5.20604 7.20611 5.20107L7.21263 5.21554C7.22049 5.23298 7.23061 5.25457 7.2419 5.27867C7.27372 5.34657 7.31485 5.43436 7.34109 5.5054L7.32124 5.51225ZM7.32124 5.51225L7.04724 5.61366L7.32124 5.51225ZM5.19135 7.69999C5.20571 7.65956 5.22012 7.61913 5.23459 7.57871C5.19344 7.64126 5.14453 7.70139 5.08607 7.75744C5.02964 7.81154 4.97027 7.85609 4.91023 7.89321C4.95931 7.87566 5.00843 7.85822 5.05756 7.84093L5.19135 7.69999ZM5.19135 7.69999C5.16927 7.76206 5.14912 7.78617 5.13965 7.79579C5.13094 7.80463 5.11098 7.82209 5.0577 7.84088L5.19135 7.69999ZM5.24844 11.0771C5.2526 11.0908 5.25681 11.1044 5.26105 11.1181C5.21271 11.0381 5.15374 10.9619 5.08121 10.8918C5.0141 10.827 4.94281 10.7748 4.87044 10.7319C4.87751 10.7343 4.88458 10.7367 4.89165 10.739L4.89166 10.739C5.02509 10.7836 5.09397 10.8299 5.13447 10.8691C5.17201 10.9054 5.21345 10.9628 5.24844 11.0771ZM5.24844 11.0771L5.82238 10.9022L5.24856 11.0775C5.24852 11.0774 5.24848 11.0773 5.24844 11.0771ZM6.65843 14.8474L6.6584 14.8474C6.65469 14.8373 6.65099 14.8272 6.64729 14.8171L7.15319 13.5857C7.07404 13.7986 6.99466 14.0116 6.9152 14.2249C6.84143 14.4228 6.76759 14.621 6.69379 14.8194C6.68479 14.8433 6.67674 14.862 6.66991 14.8763C6.66621 14.8677 6.66235 14.8581 6.65843 14.8474ZM8.19907 10.8541C8.21096 10.8421 8.23581 10.8214 8.2967 10.7998C8.35416 10.7796 8.41161 10.7592 8.46904 10.7386C8.39825 10.7816 8.32878 10.8334 8.26326 10.8967C8.19132 10.9661 8.13225 11.0415 8.08331 11.1207C8.10277 11.0668 8.12217 11.0128 8.14151 10.9589L8.14161 10.9586C8.16484 10.8937 8.18664 10.8667 8.19907 10.8541ZM8.25507 7.75701C8.31233 7.81198 8.37265 7.85716 8.43363 7.89474C8.403 7.884 8.37237 7.87331 8.34173 7.86267L8.34139 7.86256C8.25954 7.83419 8.22325 7.80569 8.20347 7.78554C8.18285 7.76451 8.15303 7.72469 8.12251 7.63682L8.12242 7.63654C8.11386 7.61194 8.10527 7.58733 8.09666 7.56274C8.13984 7.63094 8.19191 7.69637 8.25507 7.75701ZM5.7518 12.3964C5.62513 12.0519 5.49936 11.707 5.37501 11.3607C5.37497 11.3606 5.37494 11.3605 5.37491 11.3604L5.34405 11.3715L5.7518 12.3964Z" fill="#E96012" stroke="#E96012" stroke-width="1.2"/>
<path d="M11.6695 7.55859C11.3946 7.55969 11.2029 7.41336 11.0859 7.10137C10.8865 6.5685 10.701 6.03067 10.4878 5.50332C10.4409 5.38681 10.3216 5.26367 10.2062 5.21618C9.68054 5.00137 9.14601 4.80866 8.61204 4.61594C8.33539 4.51599 8.15427 4.34868 8.14765 4.03835C8.14157 3.7501 8.28514 3.57064 8.62419 3.44363C9.15595 3.24374 9.69158 3.05433 10.2178 2.84119C10.3261 2.79756 10.437 2.6816 10.4807 2.57227C10.6927 2.04492 10.8816 1.50764 11.0809 0.97477C11.2057 0.6429 11.3968 0.490494 11.6789 0.500986C11.9865 0.512581 12.1533 0.694253 12.2521 0.972008C12.4404 1.49935 12.6458 2.02007 12.8314 2.54797C12.8877 2.70811 12.9683 2.80253 13.1345 2.86051C13.6713 3.0466 14.2014 3.25036 14.7326 3.45081C15.0374 3.56567 15.2052 3.77329 15.1925 4.03503C15.1776 4.33598 15.0054 4.51544 14.7259 4.61594C14.1826 4.81031 13.6403 5.00855 13.1047 5.2228C13.0025 5.26367 12.8949 5.37024 12.854 5.4724C12.6375 6.01796 12.4443 6.57292 12.2372 7.12235C12.1268 7.41943 11.9379 7.55748 11.6695 7.55859ZM12.875 4.02675C12.1709 3.90968 11.8081 3.49223 11.6579 2.82131C11.5475 3.52867 11.1273 3.88539 10.4641 4.03614C11.1494 4.16866 11.5376 4.55299 11.664 5.24379C11.8054 4.56183 12.1825 4.15265 12.875 4.02675Z" fill="#E96012"/>
<path d="M2.55108 3.43686C2.55108 3.23365 2.54722 3.07793 2.55164 2.92276C2.56268 2.52297 2.79515 2.25902 3.13475 2.2535C3.48374 2.24798 3.7245 2.51966 3.73444 2.93436C3.7383 3.08897 3.73499 3.24414 3.73499 3.43686C3.94041 3.43686 4.12153 3.43078 4.30154 3.43796C4.65826 3.45177 4.90509 3.69473 4.90454 4.02108C4.90399 4.34411 4.64998 4.5937 4.29989 4.60751C4.1265 4.61414 3.95311 4.60861 3.73499 4.60861C3.73499 4.73727 3.73499 4.85158 3.73499 4.96644C3.73389 5.51035 3.53344 5.78258 3.13586 5.77927C2.74214 5.77595 2.55053 5.50648 2.54998 4.95429C2.54998 4.85324 2.54998 4.75274 2.54998 4.60917C2.35837 4.60917 2.1789 4.61358 1.99999 4.60806C1.63389 4.59702 1.37436 4.34356 1.38098 4.00948C1.38761 3.68203 1.63334 3.45011 1.99502 3.43796C2.16841 3.43189 2.3407 3.43686 2.55108 3.43686Z" fill="#E96012"/>
</svg>
