<svg width="24" height="24" viewBox="0 0 24 24" fill="none" xmlns="http://www.w3.org/2000/svg">
<path d="M5.5 20H3M5.5 20C5.5 20.197 5.5388 20.392 5.61418 20.574C5.68956 20.756 5.80005 20.9214 5.93934 21.0607C6.07863 21.1999 6.24399 21.3104 6.42597 21.3858C6.60796 21.4612 6.80302 21.5 7 21.5C7.19698 21.5 7.39204 21.4612 7.57403 21.3858C7.75601 21.3104 7.92137 21.1999 8.06066 21.0607C8.19995 20.9214 8.31044 20.756 8.38582 20.574C8.4612 20.392 8.5 20.197 8.5 20M5.5 20C5.5 19.6022 5.65804 19.2206 5.93934 18.9393C6.22064 18.658 6.60218 18.5 7 18.5C7.39782 18.5 7.77936 18.658 8.06066 18.9393C8.34196 19.2206 8.5 19.6022 8.5 20M8.5 20H21M2 2.5H22V15.5H2V2.5ZM11 7L14 9L11 11V7Z" stroke="#E96012" stroke-linecap="round" stroke-linejoin="round"/>
</svg>
