<svg width="12" height="12" viewBox="0 0 12 12" fill="none" xmlns="http://www.w3.org/2000/svg">
<path fill-rule="evenodd" clip-rule="evenodd" d="M6.0002 10.8002C7.27323 10.8002 8.49413 10.2945 9.39431 9.39431C10.2945 8.49413 10.8002 7.27323 10.8002 6.0002C10.8002 4.72716 10.2945 3.50626 9.39431 2.60608C8.49413 1.70591 7.27323 1.2002 6.0002 1.2002C4.72716 1.2002 3.50626 1.70591 2.60608 2.60608C1.70591 3.50626 1.2002 4.72716 1.2002 6.0002C1.2002 7.27323 1.70591 8.49413 2.60608 9.39431C3.50626 10.2945 4.72716 10.8002 6.0002 10.8002ZM5.2244 4.376C5.11123 4.2667 4.95967 4.20622 4.80236 4.20759C4.64504 4.20896 4.49455 4.27206 4.3833 4.3833C4.27206 4.49455 4.20896 4.64504 4.20759 4.80236C4.20622 4.95967 4.2667 5.11123 4.376 5.2244L5.1518 6.0002L4.376 6.776C4.31869 6.83134 4.27298 6.89755 4.24153 6.97075C4.21009 7.04396 4.19354 7.12269 4.19285 7.20235C4.19215 7.28202 4.20733 7.36103 4.2375 7.43477C4.26767 7.50851 4.31222 7.5755 4.36856 7.63183C4.42489 7.68817 4.49189 7.73272 4.56562 7.76289C4.63936 7.79306 4.71837 7.80824 4.79804 7.80755C4.8777 7.80685 4.95644 7.7903 5.02964 7.75886C5.10284 7.72741 5.16905 7.6817 5.2244 7.6244L6.0002 6.8486L6.776 7.6244C6.88916 7.73369 7.04072 7.79417 7.19804 7.7928C7.35535 7.79143 7.50584 7.72833 7.61709 7.61709C7.72833 7.50584 7.79143 7.35535 7.7928 7.19804C7.79417 7.04072 7.73369 6.88916 7.6244 6.776L6.8486 6.0002L7.6244 5.2244C7.73369 5.11123 7.79417 4.95967 7.7928 4.80236C7.79143 4.64504 7.72833 4.49455 7.61709 4.3833C7.50584 4.27206 7.35535 4.20896 7.19804 4.20759C7.04072 4.20622 6.88916 4.2667 6.776 4.376L6.0002 5.1518L5.2244 4.376Z" fill="#6B7280"/>
</svg>