<svg width="25" height="24" viewBox="0 0 25 24" fill="#13C296" xmlns="http://www.w3.org/2000/svg">
<path d="M12.667 22.5C9.88222 22.5 7.2115 21.3938 5.24237 19.4246C3.27324 17.4555 2.16699 14.7848 2.16699 12C2.16699 9.21523 3.27324 6.54451 5.24237 4.57538C7.2115 2.60625 9.88222 1.5 12.667 1.5C15.4518 1.5 18.1225 2.60625 20.0916 4.57538C22.0607 6.54451 23.167 9.21523 23.167 12C23.167 14.7848 22.0607 17.4555 20.0916 19.4246C18.1225 21.3938 15.4518 22.5 12.667 22.5ZM12.667 24C15.8496 24 18.9018 22.7357 21.1523 20.4853C23.4027 18.2348 24.667 15.1826 24.667 12C24.667 8.8174 23.4027 5.76515 21.1523 3.51472C18.9018 1.26428 15.8496 0 12.667 0C9.48439 0 6.43215 1.26428 4.18171 3.51472C1.93127 5.76515 0.666992 8.8174 0.666992 12C0.666992 15.1826 1.93127 18.2348 4.18171 20.4853C6.43215 22.7357 9.48439 24 12.667 24Z"/>
<path d="M17.122 7.455C17.1113 7.46536 17.1013 7.47638 17.092 7.488L11.8825 14.1255L8.74299 10.9845C8.52973 10.7858 8.24766 10.6776 7.95621 10.6827C7.66476 10.6879 7.38668 10.8059 7.18056 11.0121C6.97444 11.2182 6.85637 11.4963 6.85123 11.7877C6.84609 12.0792 6.95427 12.3612 7.15299 12.5745L11.122 16.545C11.2289 16.6517 11.3562 16.7358 11.4964 16.7923C11.6365 16.8487 11.7866 16.8764 11.9376 16.8736C12.0887 16.8708 12.2376 16.8376 12.3755 16.776C12.5135 16.7144 12.6376 16.6256 12.7405 16.515L18.7285 9.03C18.9324 8.816 19.0439 8.53034 19.0388 8.2348C19.0338 7.93926 18.9126 7.65757 18.7016 7.45064C18.4905 7.24371 18.2065 7.12816 17.9109 7.12898C17.6153 7.12979 17.3319 7.24691 17.122 7.455Z"/>
</svg>
