<svg width="24" height="24" viewBox="0 0 24 24" fill="#DC3545" xmlns="http://www.w3.org/2000/svg">
<path d="M12 22.5C9.21523 22.5 6.54451 21.3938 4.57538 19.4246C2.60625 17.4555 1.5 14.7848 1.5 12C1.5 9.21523 2.60625 6.54451 4.57538 4.57538C6.54451 2.60625 9.21523 1.5 12 1.5C14.7848 1.5 17.4555 2.60625 19.4246 4.57538C21.3938 6.54451 22.5 9.21523 22.5 12C22.5 14.7848 21.3938 17.4555 19.4246 19.4246C17.4555 21.3938 14.7848 22.5 12 22.5ZM12 24C15.1826 24 18.2348 22.7357 20.4853 20.4853C22.7357 18.2348 24 15.1826 24 12C24 8.8174 22.7357 5.76515 20.4853 3.51472C18.2348 1.26428 15.1826 0 12 0C8.8174 0 5.76515 1.26428 3.51472 3.51472C1.26428 5.76515 0 8.8174 0 12C0 15.1826 1.26428 18.2348 3.51472 20.4853C5.76515 22.7357 8.8174 24 12 24Z"/>
<path d="M6.969 6.969C7.03867 6.89916 7.12143 6.84374 7.21255 6.80593C7.30367 6.76812 7.40135 6.74866 7.5 6.74866C7.59865 6.74866 7.69633 6.76812 7.78745 6.80593C7.87857 6.84374 7.96133 6.89916 8.031 6.969L12 10.9395L15.969 6.969C16.0387 6.89927 16.1215 6.84395 16.2126 6.80621C16.3037 6.76848 16.4014 6.74905 16.5 6.74905C16.5986 6.74905 16.6963 6.76848 16.7874 6.80621C16.8785 6.84395 16.9613 6.89927 17.031 6.969C17.1007 7.03873 17.156 7.12152 17.1938 7.21262C17.2315 7.30373 17.2509 7.40138 17.2509 7.5C17.2509 7.59862 17.2315 7.69627 17.1938 7.78738C17.156 7.87848 17.1007 7.96127 17.031 8.031L13.0605 12L17.031 15.969C17.1007 16.0387 17.156 16.1215 17.1938 16.2126C17.2315 16.3037 17.2509 16.4014 17.2509 16.5C17.2509 16.5986 17.2315 16.6963 17.1938 16.7874C17.156 16.8785 17.1007 16.9613 17.031 17.031C16.9613 17.1007 16.8785 17.156 16.7874 17.1938C16.6963 17.2315 16.5986 17.2509 16.5 17.2509C16.4014 17.2509 16.3037 17.2315 16.2126 17.1938C16.1215 17.156 16.0387 17.1007 15.969 17.031L12 13.0605L8.031 17.031C7.96127 17.1007 7.87848 17.156 7.78738 17.1938C7.69627 17.2315 7.59862 17.2509 7.5 17.2509C7.40138 17.2509 7.30373 17.2315 7.21262 17.1938C7.12152 17.156 7.03873 17.1007 6.969 17.031C6.89927 16.9613 6.84395 16.8785 6.80621 16.7874C6.76848 16.6963 6.74905 16.5986 6.74905 16.5C6.74905 16.4014 6.76848 16.3037 6.80621 16.2126C6.84395 16.1215 6.89927 16.0387 6.969 15.969L10.9395 12L6.969 8.031C6.89916 7.96133 6.84374 7.87857 6.80593 7.78745C6.76812 7.69633 6.74866 7.59865 6.74866 7.5C6.74866 7.40135 6.76812 7.30367 6.80593 7.21255C6.84374 7.12143 6.89916 7.03867 6.969 6.969Z"/>
</svg>
