<svg width="14" height="16" viewBox="0 0 14 16" fill="#E96012" stroke="#E96012" xmlns="http://www.w3.org/2000/svg">
<path d="M7.70003 16C7.23337 16 6.7667 16 6.30003 16C6.2017 15.9887 6.10337 15.974 6.0047 15.9667C5.26737 15.914 4.53637 15.8213 3.82903 15.596C3.5107 15.4947 3.2017 15.3683 2.95503 15.132C2.65703 14.8463 2.65437 14.4757 2.96137 14.2003C3.09137 14.0837 3.2457 13.985 3.40403 13.9107C4.01403 13.6247 4.67037 13.5153 5.33237 13.4327C5.51003 13.4107 5.68803 13.392 5.88837 13.369C5.6977 13.0587 5.5127 12.782 5.35303 12.4917C5.14803 12.1193 4.8437 11.8853 4.46103 11.7073C2.71237 10.895 1.57503 9.55367 1.0707 7.69067C0.971366 7.32433 0.933033 6.94167 0.866699 6.56667C0.866699 6.26667 0.866699 5.96667 0.866699 5.66667C0.887699 5.53667 0.912033 5.407 0.929366 5.27633C1.26003 2.815 3.18603 0.712 5.6197 0.164333C5.93203 0.094 6.25103 0.054 6.5667 0C6.8557 0 7.14437 0 7.43337 0C7.47603 0.00933333 7.5187 0.023 7.56203 0.027C10.205 0.273 12.3714 2.16333 12.969 4.754C13.0407 5.06533 13.0797 5.38433 13.1337 5.69967C13.1337 5.99967 13.1337 6.29967 13.1337 6.59967C13.1084 6.76833 13.088 6.938 13.0567 7.10567C12.649 9.29033 11.436 10.8453 9.4157 11.7753C9.23337 11.8593 9.0347 11.97 8.91903 12.1247C8.62803 12.5133 8.38003 12.9343 8.09837 13.3677C8.20137 13.3807 8.2667 13.386 8.33103 13.3973C8.90937 13.499 9.49437 13.5743 10.063 13.7153C10.373 13.792 10.6794 13.9457 10.9454 14.126C11.3837 14.4233 11.377 14.8817 10.9577 15.2037C10.8187 15.3107 10.66 15.3987 10.4987 15.469C9.9287 15.7183 9.32137 15.8233 8.7087 15.8973C8.37303 15.9387 8.03603 15.9663 7.70003 16ZM7.00803 2.4C4.9517 2.39667 3.27203 4.06667 3.2667 6.12067C3.26137 8.17767 4.92937 9.85867 6.98337 9.86633C9.0467 9.874 10.7314 8.19833 10.733 6.137C10.735 4.08067 9.06337 2.40367 7.00803 2.4ZM6.96837 15.4687C7.9317 15.4587 8.8517 15.4077 9.74603 15.1613C10.047 15.0783 10.337 14.9443 10.618 14.806C10.7727 14.7297 10.77 14.634 10.6357 14.5407C10.5184 14.4593 10.3904 14.387 10.2574 14.3357C9.4927 14.04 8.68937 13.9467 7.8787 13.9027C7.8297 13.9 7.75937 13.9503 7.7297 13.9957C7.56637 14.2467 7.41503 14.5053 7.25503 14.7583C7.10637 14.9937 6.89403 14.9933 6.74537 14.758C6.59437 14.5187 6.4417 14.2803 6.30337 14.034C6.24303 13.927 6.17637 13.8813 6.0547 13.8993C5.47937 13.984 4.89837 14.0407 4.3297 14.1567C4.01503 14.2207 3.7117 14.364 3.41937 14.505C3.21437 14.6037 3.2157 14.719 3.4087 14.827C3.60537 14.937 3.81537 15.0327 4.03037 15.0987C5.00003 15.3973 6.0017 15.4557 6.96837 15.4687Z" />
<path d="M6.17779 7.10866C6.79979 6.48532 7.38379 5.90066 7.96779 5.31566C8.10112 5.18199 8.23179 5.04566 8.36845 4.91599C8.49079 4.80032 8.64845 4.80032 8.75479 4.90732C8.86245 5.01532 8.85945 5.16466 8.74578 5.29432C8.72745 5.31499 8.70679 5.33399 8.68712 5.35332C7.94545 6.09499 7.20412 6.83699 6.46212 7.57799C6.26112 7.77899 6.14078 7.77966 5.94312 7.58232C5.62878 7.26899 5.31145 6.95832 5.00378 6.63832C4.94378 6.57599 4.88278 6.47299 4.89145 6.39666C4.90078 6.31466 4.97878 6.19632 5.05012 6.17666C5.13778 6.15232 5.27678 6.18232 5.34545 6.24332C5.59378 6.46432 5.82279 6.70732 6.05645 6.94432C6.09845 6.98766 6.12912 7.04199 6.17779 7.10866Z" />
</svg>
