<svg width="23" height="22" viewBox="0 0 23 22" fill="#DC3545" stroke="#DC3545" xmlns="http://www.w3.org/2000/svg">
<path d="M3.25 11.9464C3.33047 11.3998 3.36379 10.8415 3.49872 10.3088C4.18351 7.60749 5.81238 5.66576 8.3906 4.6154C12.4392 2.96565 16.8918 4.6703 18.8734 8.56147C19.37 9.5362 19.6456 10.5752 19.7142 11.6678C19.7199 11.7609 19.7378 11.8537 19.75 11.9468C19.75 12.0684 19.75 12.1904 19.75 12.3119C19.7362 12.3412 19.7199 12.3701 19.7085 12.4006C19.5923 12.7186 19.3058 12.9056 19.0042 12.8593C18.6759 12.8089 18.4507 12.5628 18.4418 12.2176C18.4215 11.4356 18.3272 10.6638 18.0423 9.93267C16.9865 7.22524 15.0235 5.62347 12.1202 5.33679C8.45319 4.97487 5.25073 7.51314 4.64275 11.1595C4.14775 14.1288 5.80506 17.2275 8.55479 18.4844C9.45945 18.8979 10.4031 19.1261 11.3996 19.1403C11.5374 19.1423 11.6865 19.1704 11.8097 19.2298C12.0673 19.3538 12.199 19.6665 12.1344 19.9312C12.0608 20.233 11.8044 20.4367 11.4825 20.4359C9.78904 20.4318 8.23576 19.9581 6.84708 18.9943C5.04549 17.7447 3.90431 16.0401 3.44182 13.895C3.36379 13.5331 3.33778 13.1602 3.2878 12.7926C3.2752 12.6999 3.2626 12.6072 3.25 12.5149C3.25 12.325 3.25 12.1359 3.25 11.9464Z" stroke-width="0.2"/>
<path d="M10.8498 9.81962C10.8498 9.13646 10.8494 8.4533 10.8498 7.77014C10.8502 7.32405 11.1127 7.02883 11.5045 7.03127C11.8882 7.0337 12.1495 7.32649 12.1499 7.75956C12.1507 9.14622 12.1507 10.5325 12.1499 11.9191C12.1495 12.3526 11.8886 12.6458 11.5049 12.6482C11.1131 12.6507 10.8502 12.3554 10.8498 11.9094C10.8494 11.2128 10.8498 10.5162 10.8498 9.81962Z" fill="#DC3545" stroke="#DC3545" stroke-width="0.2"/>
<path d="M15.615 17.2084C15.615 17.7626 15.6175 18.3169 15.6142 18.8711C15.6118 19.2851 15.3383 19.5771 14.9648 19.575C14.5937 19.573 14.317 19.2774 14.3158 18.865C14.3125 17.7496 14.3129 16.6346 14.3158 15.5192C14.3166 15.165 14.5267 14.8913 14.8291 14.8303C15.1444 14.7665 15.4525 14.9263 15.5663 15.2284C15.6033 15.3264 15.6122 15.4391 15.613 15.5452C15.6175 16.0999 15.615 16.6541 15.615 17.2084Z" fill="#DC3545" stroke="#DC3545" stroke-width="0.2"/>
<path d="M18.216 17.2037C18.216 17.7579 18.2184 18.3122 18.2152 18.8664C18.2128 19.2824 17.9445 19.5748 17.5715 19.5764C17.2 19.578 16.9184 19.2824 16.9171 18.8721C16.9135 17.7567 16.9139 16.6417 16.9171 15.5263C16.9184 15.1103 17.1898 14.8215 17.5662 14.8203C17.9466 14.8191 18.2132 15.1029 18.2156 15.5206C18.218 16.0813 18.216 16.6425 18.216 17.2037Z" fill="#DC3545" stroke="#DC3545" stroke-width="0.2"/>
<path d="M11.5093 1.83417C12.3757 1.83417 13.2418 1.83051 14.1078 1.8362C14.4256 1.83823 14.6804 2.06107 14.7406 2.3628C14.7975 2.64705 14.6349 2.95569 14.3533 3.06955C14.2558 3.10899 14.1436 3.12933 14.0383 3.12933C12.3465 3.13299 10.6546 3.13299 8.96275 3.13095C8.61649 3.13055 8.37143 2.95732 8.27959 2.66372C8.19627 2.39737 8.28406 2.10499 8.53359 1.95575C8.65917 1.88052 8.82417 1.84027 8.97169 1.83864C9.81742 1.82807 10.6636 1.83335 11.5093 1.83335C11.5093 1.83335 11.5093 1.83376 11.5093 1.83417Z" fill="#DC3545" stroke="#DC3545" stroke-width="0.2"/>
</svg>
