<svg width="50" height="50" viewBox="0 0 50 50" fill="none" xmlns="http://www.w3.org/2000/svg">
<mask id="mask0_150_245" style="mask-type:alpha" maskUnits="userSpaceOnUse" x="0" y="0" width="50" height="50">
<rect width="50" height="50" fill="#FFF1E0"/>
</mask>
<g mask="url(#mask0_150_245)">
<rect width="50" height="50" fill="#E7E8EB"/>
<g clip-path="url(#clip0_150_245)">
<path d="M31.8055 13.334H18.1944C16.9056 13.3355 15.67 13.8482 14.7587 14.7595C13.8474 15.6708 13.3348 16.9063 13.3333 18.1951L13.3333 31.8062C13.3348 33.095 13.8474 34.3305 14.7587 35.2418C15.67 36.1531 16.9056 36.6658 18.1944 36.6673H31.8055C33.0942 36.6658 34.3298 36.1531 35.2411 35.2418C36.1524 34.3305 36.665 33.095 36.6666 31.8062V18.1951C36.665 16.9063 36.1524 15.6708 35.2411 14.7595C34.3298 13.8482 33.0942 13.3355 31.8055 13.334V13.334ZM18.1944 15.2784H31.8055C32.579 15.2784 33.3209 15.5857 33.8679 16.1327C34.4148 16.6797 34.7221 17.4215 34.7221 18.1951V31.8062C34.7205 32.2393 34.6207 32.6664 34.4305 33.0555L25.522 24.147C25.0706 23.6955 24.5346 23.3373 23.9448 23.093C23.3549 22.8486 22.7227 22.7228 22.0842 22.7228C21.4457 22.7228 20.8135 22.8486 20.2237 23.093C19.6338 23.3373 19.0979 23.6955 18.6464 24.147L15.2777 27.5148V18.1951C15.2777 17.4215 15.585 16.6797 16.132 16.1327C16.6789 15.5857 17.4208 15.2784 18.1944 15.2784V15.2784ZM18.1944 34.7229C17.4208 34.7229 16.6789 34.4156 16.132 33.8686C15.585 33.3216 15.2777 32.5798 15.2777 31.8062V30.2643L20.0202 25.5218C20.2911 25.2507 20.6127 25.0357 20.9667 24.889C21.3206 24.7423 21.7001 24.6668 22.0833 24.6668C22.4664 24.6668 22.8459 24.7423 23.1998 24.889C23.5538 25.0357 23.8754 25.2507 24.1463 25.5218L33.0548 34.4312C32.6657 34.6215 32.2386 34.7212 31.8055 34.7229H18.1944Z" fill="white"/>
<path d="M28.8889 23.5419C29.5619 23.5419 30.2198 23.3423 30.7793 22.9684C31.3389 22.5945 31.7751 22.0631 32.0326 21.4413C32.2902 20.8195 32.3576 20.1353 32.2263 19.4753C32.095 18.8152 31.7709 18.2089 31.295 17.733C30.8191 17.2571 30.2128 16.933 29.5527 16.8017C28.8926 16.6704 28.2085 16.7378 27.5867 16.9954C26.9649 17.2529 26.4335 17.689 26.0596 18.2486C25.6857 18.8082 25.4861 19.4661 25.4861 20.1391C25.4861 21.0416 25.8446 21.9071 26.4827 22.5452C27.1209 23.1834 27.9864 23.5419 28.8889 23.5419V23.5419ZM28.8889 18.6808C29.1773 18.6808 29.4592 18.7663 29.6991 18.9265C29.9389 19.0868 30.1258 19.3146 30.2362 19.581C30.3466 19.8475 30.3754 20.1407 30.3192 20.4236C30.2629 20.7065 30.124 20.9664 29.9201 21.1703C29.7161 21.3743 29.4563 21.5131 29.1734 21.5694C28.8905 21.6257 28.5973 21.5968 28.3308 21.4864C28.0643 21.3761 27.8365 21.1891 27.6763 20.9493C27.5161 20.7095 27.4305 20.4275 27.4305 20.1391C27.4305 19.7523 27.5842 19.3814 27.8577 19.1079C28.1312 18.8344 28.5021 18.6808 28.8889 18.6808V18.6808Z" fill="white"/>
</g>
</g>
<defs>
<clipPath id="clip0_150_245">
<rect width="23.3333" height="23.3333" fill="white" transform="translate(13.3333 13.334)"/>
</clipPath>
</defs>
</svg>
