<svg width="23" height="22" viewBox="0 0 23 22" fill="none" xmlns="http://www.w3.org/2000/svg">
<path d="M13.4445 12.9445C13.9603 12.4288 14.25 11.7293 14.25 11C14.25 10.2707 13.9603 9.57118 13.4445 9.05546C12.9288 8.53973 12.2293 8.25 11.5 8.25C10.7707 8.25 10.0712 8.53973 9.55546 9.05546C9.03973 9.57118 8.75 10.2707 8.75 11C8.75 11.7293 9.03973 12.4288 9.55546 12.9445C10.0712 13.4603 10.7707 13.75 11.5 13.75C12.2293 13.75 12.9288 13.4603 13.4445 12.9445Z" stroke="#4A9DE6" stroke-width="1.5" stroke-linecap="round" stroke-linejoin="round"/>
<path d="M2.75317 10.9999C3.92101 7.281 7.39609 4.58325 11.5 4.58325C15.6048 4.58325 19.079 7.281 20.2468 10.9999C19.079 14.7188 15.6048 17.4166 11.5 17.4166C7.39609 17.4166 3.92101 14.7188 2.75317 10.9999Z" stroke="#4A9DE6" stroke-width="1.5" stroke-linecap="round" stroke-linejoin="round"/>
</svg>
