<svg width="42" height="52" viewBox="0 0 42 52" xmlns="http://www.w3.org/2000/svg">
    <defs>
        <linearGradient id="gradient1" x1="-10.7625" y1="83.2286" x2="29.2404" y2="9.8036">
            <stop offset="0%" stop-color="#ffab89" />
            <stop offset="100%" stop-color="#ff7351" />
        </linearGradient>
    </defs>
    <path
        fill="url(#gradient1)"
        d="M4,0L27.937,0L42,14.063L42,48C42,50.209 40.209,52 38,52L4,52C1.791,52 0,50.209 0,48L0,4C0,1.791 1.791,0 4,0" />
    <path
        fill="#fea98f"
        d="M28,0l13,13l-13,0z" />
    <path
        fill="#fff"
        d="M17.7661,33.9684L17.7661,41.1655L15.3418,41.1655L15.3418,22.7813L22.1223,22.7813C24.1341,22.7813 25.7103,23.2947 26.8509,24.3217C27.9915,25.3487 28.5618,26.7081 28.5618,28.4001C28.5618,30.1846 28.0041,31.5588 26.8888,32.5226C25.7734,33.4865 24.1762,33.9684 22.097,33.9684L17.7661,33.9684ZM17.7661,31.986L22.1223,31.986C23.4186,31.986 24.4119,31.6809 25.1021,31.0706C25.7924,30.4603 26.1375,29.5786 26.1375,28.4253C26.1375,27.331 25.7924,26.4556 25.1021,25.799C24.4119,25.1424 23.4649,24.8015 22.2611,24.7762L17.7661,24.7762L17.7661,31.986Z"
        stroke="#fff"
        stroke-width="0.5" />
</svg>
