<svg width="23" height="22" viewBox="0 0 23 22" fill="none" xmlns="http://www.w3.org/2000/svg">
<path d="M10.5833 4.5834H5.99996C5.51373 4.5834 5.04741 4.77656 4.7036 5.12037C4.35978 5.46419 4.16663 5.9305 4.16663 6.41673V16.5001C4.16663 16.9863 4.35978 17.4526 4.7036 17.7964C5.04741 18.1402 5.51373 18.3334 5.99996 18.3334H16.0833C16.5695 18.3334 17.0358 18.1402 17.3797 17.7964C17.7235 17.4526 17.9166 16.9863 17.9166 16.5001V11.9167M16.6205 3.28723C16.7896 3.11213 16.9919 2.97246 17.2156 2.87638C17.4392 2.7803 17.6798 2.72972 17.9232 2.72761C18.1667 2.72549 18.4081 2.77188 18.6334 2.86406C18.8587 2.95624 19.0634 3.09237 19.2355 3.26451C19.4077 3.43665 19.5438 3.64134 19.636 3.86665C19.7281 4.09196 19.7745 4.33337 19.7724 4.5768C19.7703 4.82023 19.7197 5.0608 19.6236 5.28448C19.5276 5.50815 19.3879 5.71045 19.2128 5.87957L11.3423 13.7501H8.74996V11.1577L16.6205 3.28723Z" stroke="#1462B0" stroke-width="1.5" stroke-linecap="round" stroke-linejoin="round"/>
</svg>
