<svg width="23" height="22" viewBox="0 0 22 19" fill="none" stroke="#13C296"  xmlns="http://www.w3.org/2000/svg">
<path d="M9.5 6.25V9M9.5 9V11.75M9.5 9H12.25M9.5 9H6.75M17.75 9C17.75 10.0834 17.5366 11.1562 17.122 12.1571C16.7074 13.1581 16.0997 14.0675 15.3336 14.8336C14.5675 15.5997 13.6581 16.2074 12.6571 16.622C11.6562 17.0366 10.5834 17.25 9.5 17.25C8.41659 17.25 7.3438 17.0366 6.34286 16.622C5.34193 16.2074 4.43245 15.5997 3.66637 14.8336C2.90029 14.0675 2.2926 13.1581 1.87799 12.1571C1.46339 11.1562 1.25 10.0834 1.25 9C1.25 6.81196 2.11919 4.71354 3.66637 3.16637C5.21354 1.61919 7.31196 0.75 9.5 0.75C11.688 0.75 13.7865 1.61919 15.3336 3.16637C16.8808 4.71354 17.75 6.81196 17.75 9Z" stroke-width="1.5" stroke-linecap="round" stroke-linejoin="round"/>
</svg>
