<svg width="24" height="24" viewBox="0 0 24 24" fill="none" xmlns="http://www.w3.org/2000/svg">
<path d="M12.5806 21.5929C12.327 21.4929 12.0971 21.3657 12.0074 21.0831C11.8605 20.6211 12.177 20.1738 12.681 20.1572C13.4194 20.1331 14.1555 20.0738 14.8586 19.8439C18.0296 18.8068 19.9822 16.6631 20.4764 13.3601C21.1161 9.08071 18.1193 5.14062 13.8439 4.49911C10.0396 3.92814 6.31196 6.25622 5.17538 9.91417C5.14904 9.9981 5.13073 10.0847 5.10127 10.1963C5.22225 10.1963 5.32448 10.1936 5.42671 10.1968C5.74367 10.207 5.99098 10.3374 6.11375 10.6383C6.23517 10.9356 6.17223 11.2079 5.94589 11.4356C5.50081 11.8838 5.05663 12.3324 4.60351 12.7726C4.28879 13.0779 3.88121 13.0748 3.56827 12.769C3.11694 12.3275 2.66963 11.8815 2.22901 11.4289C2.13393 11.3311 2.07544 11.1976 2 11.0807C2 10.9619 2 10.8432 2 10.7244C2.18303 10.3097 2.51026 10.1584 2.94909 10.1932C3.11917 10.2066 3.29104 10.1896 3.46202 10.1972C3.57854 10.2026 3.62675 10.1624 3.65934 10.045C3.75889 9.68873 3.85799 9.33025 3.99192 8.98607C5.71152 4.57902 10.2373 2.19247 14.8653 3.24825C18.3407 4.04109 21.2125 7.04013 21.8259 10.5222C21.8924 10.8999 21.9424 11.2807 22 11.6601C22 12.0757 22 12.4913 22 12.9074C21.9871 12.9565 21.967 13.0052 21.9629 13.0552C21.8509 14.4752 21.4357 15.8038 20.6924 17.0162C19.2273 19.4068 17.1162 20.8916 14.3488 21.417C13.8698 21.5081 13.3788 21.5358 12.8931 21.5929C12.789 21.5929 12.6846 21.5929 12.5806 21.5929Z" fill="#1BB94E" stroke="#1BB94E" stroke-width="0.3"/>
<path d="M5.33764 15.3918C5.34255 15.7432 5.04925 16.049 4.69569 16.0606C4.33632 16.0726 4.01892 15.7686 4.01445 15.4088C4.00999 15.057 4.30373 14.7512 4.65596 14.7405C5.01756 14.7298 5.33273 15.0307 5.33764 15.3918Z" fill="#1BB94E" stroke="#1BB94E" stroke-width="0.3"/>
<path d="M7.26732 18.3494C7.26777 18.7123 6.96063 19.0146 6.5968 19.0092C6.24368 19.0038 5.94547 18.703 5.94458 18.3512C5.94369 17.9918 6.25797 17.682 6.61689 17.6896C6.97179 17.6967 7.26687 17.9963 7.26732 18.3494Z" fill="#1BB94E" stroke="#1BB94E" stroke-width="0.3"/>
<path d="M9.22971 20.7938C8.8699 20.7938 8.5766 20.5072 8.56946 20.1487C8.56232 19.7862 8.8632 19.4854 9.23373 19.4854C9.59444 19.4854 9.88729 19.7711 9.89399 20.1295C9.90023 20.4929 9.59935 20.7938 9.22971 20.7938Z" fill="#1BB94E" stroke="#1BB94E" stroke-width="0.3"/>
</svg>
