<svg width="22" height="22" viewBox="0 0 22 22" fill="none" xmlns="http://www.w3.org/2000/svg">
<path d="M16.8979 19.9998C16.584 19.9519 16.2627 19.9327 15.9577 19.8524C13.2646 19.148 12.1534 15.9944 13.8017 13.75C13.8268 13.7154 13.8518 13.6815 13.8975 13.6189C12.0584 12.2211 10.0152 11.7348 7.82751 12.4701C4.59725 13.5555 3.16338 15.9598 3.15675 19.3145C2.78981 19.3145 2.40813 19.3145 2.02645 19.3145C1.77814 16.4453 3.33801 12.9358 7.017 11.4703C5.33776 10.3665 4.4462 8.83535 4.52872 6.81497C4.58914 5.34352 5.22282 4.12481 6.34722 3.17724C8.4995 1.36391 11.7526 1.6859 13.5298 3.86397C15.3992 6.15477 14.9652 9.66871 12.3133 11.3804C12.7385 11.5859 13.1762 11.7687 13.5844 12.0022C13.997 12.2388 14.3801 12.5269 14.7802 12.7951C15.047 12.6713 15.3247 12.5151 15.6209 12.4097C17.9781 11.5705 20.4811 13.1141 20.8001 15.595C20.8045 15.6297 20.8215 15.6628 20.8325 15.6974C20.8325 15.9546 20.8325 16.2125 20.8325 16.4696C20.8215 16.5035 20.8045 16.5367 20.7994 16.5713C20.5467 18.1585 19.6669 19.2379 18.1549 19.7743C17.7806 19.9069 17.3672 19.9283 16.9716 20.0005C16.9465 19.9998 16.9222 19.9998 16.8979 19.9998ZM13.5018 7.08317C13.5055 4.93532 11.7548 3.17945 9.60106 3.17356C7.45615 3.16693 5.69512 4.92279 5.68923 7.07286C5.68407 9.2244 7.44657 10.9832 9.60842 10.9847C11.7401 10.9862 13.4981 9.2244 13.5018 7.08317ZM16.934 18.8061C18.4349 18.8017 19.6551 17.5793 19.6551 16.0791C19.6551 14.5738 18.4165 13.3403 16.9156 13.3506C15.4139 13.3602 14.2033 14.5841 14.2077 16.0887C14.2114 17.5918 15.4338 18.8105 16.934 18.8061Z" fill="#FF384C"/>
<path d="M15.0919 16.6524C15.0919 16.2678 15.0919 15.8912 15.0919 15.5014C16.3187 15.5014 17.5389 15.5014 18.7679 15.5014C18.7679 15.8868 18.7679 16.2633 18.7679 16.6524C17.5419 16.6524 16.3224 16.6524 15.0919 16.6524Z" fill="#FF384C"/>
<path d="M16.8979 19.9998C16.584 19.9519 16.2627 19.9327 15.9577 19.8524C13.2646 19.148 12.1534 15.9944 13.8017 13.75C13.8268 13.7154 13.8518 13.6815 13.8975 13.6189C12.0584 12.2211 10.0152 11.7348 7.82751 12.4701C4.59725 13.5555 3.16338 15.9598 3.15675 19.3145C2.78981 19.3145 2.40813 19.3145 2.02645 19.3145C1.77814 16.4453 3.33801 12.9358 7.017 11.4703C5.33776 10.3665 4.4462 8.83535 4.52872 6.81497C4.58914 5.34352 5.22282 4.12481 6.34722 3.17724C8.4995 1.36391 11.7526 1.6859 13.5298 3.86397C15.3992 6.15477 14.9652 9.66871 12.3133 11.3804C12.7385 11.5859 13.1762 11.7687 13.5844 12.0022C13.997 12.2388 14.3801 12.5269 14.7802 12.7951C15.047 12.6713 15.3247 12.5151 15.6209 12.4097C17.9781 11.5705 20.4811 13.1141 20.8001 15.595C20.8045 15.6297 20.8215 15.6628 20.8325 15.6974C20.8325 15.9546 20.8325 16.2125 20.8325 16.4696C20.8215 16.5035 20.8045 16.5367 20.7994 16.5713C20.5467 18.1585 19.6669 19.2379 18.1549 19.7743C17.7806 19.9069 17.3672 19.9283 16.9716 20.0005C16.9465 19.9998 16.9222 19.9998 16.8979 19.9998ZM13.5018 7.08317C13.5055 4.93532 11.7548 3.17945 9.60106 3.17356C7.45615 3.16693 5.69512 4.92279 5.68923 7.07286C5.68407 9.2244 7.44657 10.9832 9.60842 10.9847C11.7401 10.9862 13.4981 9.2244 13.5018 7.08317ZM16.934 18.8061C18.4349 18.8017 19.6551 17.5793 19.6551 16.0791C19.6551 14.5738 18.4165 13.3403 16.9156 13.3506C15.4139 13.3602 14.2033 14.5841 14.2077 16.0887C14.2114 17.5918 15.4338 18.8105 16.934 18.8061Z" stroke="#FF384C" stroke-width="0.2"/>
<path d="M15.0919 16.6524C15.0919 16.2678 15.0919 15.8912 15.0919 15.5014C16.3187 15.5014 17.5389 15.5014 18.7679 15.5014C18.7679 15.8868 18.7679 16.2633 18.7679 16.6524C17.5419 16.6524 16.3224 16.6524 15.0919 16.6524Z" stroke="#FF384C" stroke-width="0.2"/>
</svg>
