<svg width="22" height="23" viewBox="0 0 22 23" fill="none" xmlns="http://www.w3.org/2000/svg">
<path d="M20.4875 10.7092C20.35 10.4686 20.1437 10.2967 19.9031 10.1592L4.05621 1.2905C3.78121 1.153 3.47184 1.08425 3.16246 1.11862C2.85309 1.153 2.57809 1.25612 2.33746 1.46237C2.09684 1.66862 1.92496 1.94362 1.85621 2.21862C1.75309 2.528 1.78746 2.83737 1.89059 3.14675L4.84684 11.4999L1.89059 19.853C1.78746 20.1624 1.78746 20.4717 1.85621 20.7467C1.92496 21.0561 2.09684 21.2967 2.33746 21.503C2.57809 21.7092 2.85309 21.8124 3.16246 21.8467C3.19684 21.8467 3.26559 21.8467 3.29996 21.8467C3.54059 21.8467 3.81559 21.778 4.05621 21.6405L19.9031 12.7717C20.1437 12.6342 20.35 12.4624 20.4875 12.2217C20.625 11.9811 20.6937 11.7061 20.6937 11.4655C20.6937 11.2249 20.625 10.9499 20.4875 10.7092ZM3.36871 2.6655L17.7375 10.7092H6.22184L3.36871 2.6655ZM3.36871 20.3342L6.25621 12.2905H17.7718L3.36871 20.3342Z" fill="#FCFBFA"/>
</svg>
