<svg width="32" height="32" viewBox="0 0 32 32" fill="none" xmlns="http://www.w3.org/2000/svg">
<rect width="32" height="32" rx="16" fill="#E96012"/>
<path d="M22.9 15.4247C22.8 15.2497 22.65 15.1247 22.475 15.0247L10.95 8.57473C10.75 8.47473 10.525 8.42473 10.3 8.44973C10.075 8.47473 9.87497 8.54973 9.69997 8.69973C9.52497 8.84973 9.39997 9.04973 9.34997 9.24973C9.27497 9.47473 9.29997 9.69973 9.37497 9.92473L11.525 15.9997L9.37497 22.0747C9.29997 22.2997 9.29997 22.5247 9.34997 22.7247C9.39997 22.9497 9.52497 23.1247 9.69997 23.2747C9.87497 23.4247 10.075 23.4997 10.3 23.5247C10.325 23.5247 10.375 23.5247 10.4 23.5247C10.575 23.5247 10.775 23.4747 10.95 23.3747L22.475 16.9247C22.65 16.8247 22.8 16.6997 22.9 16.5247C23 16.3497 23.05 16.1497 23.05 15.9747C23.05 15.7997 23 15.5997 22.9 15.4247ZM10.45 9.57473L20.9 15.4247H12.525L10.45 9.57473ZM10.45 22.4247L12.55 16.5747H20.925L10.45 22.4247Z" fill="#FCFBFA"/>
</svg>
