<svg width="23" height="22" viewBox="0 0 22 18" fill="#20BF4D" xmlns="http://www.w3.org/2000/svg">
<g clip-path="url(#clip0_475_51244)">
<path d="M16.3542 0.145173C16.4234 0.214505 16.4707 0.302647 16.4903 0.398651C16.5098 0.494654 16.5008 0.594287 16.4642 0.685173L10.6452 15.2322C10.5939 15.3603 10.5083 15.4718 10.3977 15.5543C10.2872 15.6369 10.156 15.6874 10.0186 15.7002C9.88116 15.713 9.7429 15.6877 9.61897 15.627C9.49505 15.5663 9.39027 15.4726 9.31618 15.3562L6.13818 10.3612L1.14318 7.18317C1.02649 7.10916 0.932527 7.00434 0.871646 6.8803C0.810764 6.75626 0.785334 6.61781 0.798161 6.48023C0.810988 6.34264 0.861574 6.21128 0.944337 6.10063C1.0271 5.98998 1.13882 5.90434 1.26718 5.85317L15.8142 0.0361732C15.9051 -0.000414535 16.0047 -0.00949426 16.1007 0.0100619C16.1967 0.0296181 16.2848 0.0769483 16.3542 0.146173V0.145173ZM7.13618 10.0692L9.89718 14.4072L14.6302 2.57517L7.13618 10.0692ZM13.9232 1.86817L2.09118 6.60117L6.43018 9.36117L13.9242 1.86817H13.9232Z"/>
</g>
<defs>
<clipPath id="clip0_475_51244">
<rect width="23" height="22" fill="white" transform="translate(0.5)"/>
</clipPath>
</defs>
</svg>
