<svg width="23" height="22" viewBox="0 0 23 22" fill="none" xmlns="http://www.w3.org/2000/svg">
<path d="M18.3462 9.35577C18.2393 9.7638 18.1614 10.1818 18.0208 10.5773C17.5331 11.9467 16.7508 13.1544 15.9032 14.3213C14.7868 15.8583 13.535 17.2814 12.224 18.6535C11.9302 18.9607 11.5801 19.1208 11.1552 18.997C11.0025 18.9525 10.8398 18.8702 10.7316 18.7577C9.00519 16.9629 7.36918 15.0928 6.03476 12.9804C5.4225 12.0116 4.8851 11.0048 4.61596 9.8776C4.57399 9.70452 4.53851 9.52971 4.5 9.35577C4.5 8.99534 4.5 8.63447 4.5 8.27404C4.52812 8.12736 4.56058 7.98154 4.58308 7.83442C5.00063 5.09505 7.15197 2.78144 9.84851 2.17697C10.1549 2.10817 10.4655 2.05841 10.774 2C11.2067 2 11.6394 2 12.0721 2C12.2616 2.03202 12.4529 2.05538 12.6407 2.09692C15.499 2.72952 17.3436 4.44601 18.1467 7.26543C18.2401 7.59385 18.2808 7.9374 18.3462 8.27404C18.3462 8.63447 18.3462 8.99534 18.3462 9.35577ZM17.6573 8.73529C17.6249 8.48692 17.5928 8.12086 17.5279 7.76087C16.9334 4.46764 13.6852 2.18692 10.3863 2.79139C8.1238 3.20591 6.5263 4.51351 5.6449 6.63933C5.13865 7.86168 4.98591 9.13639 5.50817 10.3977C5.80111 11.1051 6.14293 11.8013 6.54187 12.4551C7.8088 14.5321 9.39981 16.3563 11.073 18.1113C11.3577 18.4099 11.5018 18.4168 11.7822 18.1C12.7229 17.0374 13.68 15.9881 14.5826 14.8938C15.5363 13.7376 16.3856 12.5032 17.0334 11.1432C17.3778 10.4185 17.6378 9.66817 17.6573 8.73529Z" fill="#20BF4D" stroke="#20BF4D" stroke-width="0.6"/>
<path d="M10.3414 20.0001C9.92511 19.9715 9.50669 19.9642 9.09391 19.9101C8.20992 19.7941 7.32636 19.6695 6.44886 19.5142C6.16501 19.464 5.88376 19.3359 5.62934 19.194C5.03915 18.8647 5.0266 18.3303 5.6315 18.0292C6.07588 17.8081 6.57088 17.6713 7.05766 17.5571C7.51804 17.4489 7.99617 17.4126 8.46823 17.3611C8.54698 17.3525 8.65516 17.407 8.71444 17.4671C8.86501 17.6194 8.99525 17.7916 9.15838 17.9851C8.0602 18.1045 6.9841 18.1802 5.91232 18.6086C6.04948 18.6717 6.13126 18.7288 6.22083 18.7475C6.93867 18.895 7.65261 19.0789 8.3778 19.1685C10.0129 19.3697 11.6585 19.3528 13.3005 19.2572C14.3503 19.1962 15.3969 19.0841 16.4146 18.7929C16.5111 18.7652 16.6059 18.7297 16.7002 18.6942C16.7396 18.6795 16.7755 18.6557 16.8668 18.6073C15.8214 18.1767 14.7566 18.1014 13.6584 17.9885C13.8501 17.7696 14.0192 17.571 14.1971 17.3793C14.2235 17.3512 14.2897 17.3473 14.3355 17.3516C15.1468 17.4273 15.9551 17.5264 16.7283 17.7981C16.9434 17.8738 17.1563 17.9764 17.3432 18.1053C17.7633 18.3957 17.7772 18.8409 17.3397 19.1049C17.0009 19.3095 16.6145 19.4601 16.2299 19.5588C15.1365 19.8396 14.0132 19.9118 12.8895 19.9629C12.761 19.9685 12.6329 19.9871 12.5048 19.9997C11.7835 20.0001 11.0627 20.0001 10.3414 20.0001Z" fill="#20BF4D" stroke="#20BF4D" stroke-width="0.6"/>
<path d="M14.5203 8.57678C14.8612 8.57678 15.1923 8.57462 15.5233 8.57765C15.785 8.57981 15.9239 8.70486 15.9218 8.92683C15.9196 9.1475 15.7807 9.26649 15.515 9.26866C15.1845 9.27125 14.8539 9.26909 14.5224 9.26909C14.2447 10.8255 13.3157 11.7138 11.7692 12.0219C11.7692 12.3364 11.7705 12.6666 11.7688 12.9967C11.7675 13.2801 11.6511 13.4212 11.4235 13.4216C11.1955 13.4221 11.0786 13.2814 11.0773 12.9985C11.0756 12.6748 11.0769 12.3512 11.0769 12.0214C9.52485 11.7467 8.63394 10.8203 8.32586 9.26909C7.99788 9.26909 7.65432 9.26779 7.3112 9.26952C7.13596 9.27039 6.99879 9.21284 6.94038 9.035C6.86206 8.79745 7.01437 8.585 7.27701 8.57894C7.62879 8.57116 7.98057 8.57721 8.32456 8.57721C8.60451 7.01 9.53956 6.12774 11.0769 5.82572C11.0769 5.49904 11.0752 5.16846 11.0773 4.83832C11.0791 4.5614 11.2033 4.41861 11.4326 4.42423C11.652 4.42986 11.7671 4.56789 11.7688 4.83616C11.771 5.1663 11.7692 5.49688 11.7692 5.82356C13.3299 6.10351 14.2174 7.03337 14.5203 8.57678ZM11.0769 11.295C11.0769 10.9925 11.0756 10.6913 11.0773 10.3898C11.0786 10.1046 11.1924 9.96442 11.42 9.96269C11.6485 9.96096 11.7671 10.1025 11.7688 10.3837C11.7705 10.6857 11.7692 10.9877 11.7692 11.2898C12.7281 11.2577 13.7613 10.2245 13.7903 9.26866C13.4883 9.26866 13.1863 9.26995 12.8843 9.26822C12.6026 9.26649 12.4615 9.14793 12.4628 8.91947C12.4646 8.69188 12.6043 8.57808 12.8895 8.57635C13.1911 8.57505 13.4922 8.57591 13.7947 8.57591C13.7267 7.57942 12.6904 6.54962 11.7688 6.56C11.7688 6.8763 11.7684 7.1926 11.7688 7.5089C11.7692 7.69755 11.6909 7.83082 11.5005 7.87495C11.2656 7.92947 11.083 7.77587 11.0782 7.51495C11.0726 7.19346 11.0769 6.87197 11.0769 6.54789C9.87446 6.67293 9.05927 7.7975 9.06533 8.57635C9.38163 8.57635 9.69836 8.57245 10.0151 8.57765C10.247 8.58154 10.3786 8.70702 10.3829 8.91385C10.3876 9.12933 10.2513 9.26346 10.0099 9.26692C9.68971 9.27168 9.36951 9.26822 9.04716 9.26822C9.151 10.2959 10.0934 11.2326 11.0769 11.295Z" fill="#20BF4D" stroke="#20BF4D" stroke-width="0.6"/>
</svg>
