<svg width="23" height="22" viewBox="0 0 23 22" fill="none" xmlns="http://www.w3.org/2000/svg">
<path d="M3.25 11.9503C3.33047 11.4037 3.36379 10.8454 3.49872 10.3127C4.18351 7.61139 5.81238 5.66967 8.3906 4.61931C12.4392 2.96956 16.8918 4.6742 18.8734 8.56538C19.37 9.5401 19.6456 10.5791 19.7142 11.6717C19.7199 11.7648 19.7378 11.8576 19.75 11.9507C19.75 12.0723 19.75 12.1943 19.75 12.3159C19.7362 12.3451 19.7199 12.374 19.7085 12.4045C19.5923 12.7225 19.3058 12.9096 19.0042 12.8632C18.6759 12.8128 18.4507 12.5667 18.4418 12.2215C18.4215 11.4395 18.3272 10.6677 18.0423 9.93658C16.9865 7.22915 15.0235 5.62738 12.1202 5.34069C8.45319 4.97878 5.25073 7.51705 4.64275 11.1634C4.14775 14.1327 5.80506 17.2314 8.55479 18.4883C9.45945 18.9018 10.4031 19.13 11.3996 19.1442C11.5374 19.1462 11.6865 19.1743 11.8097 19.2337C12.0673 19.3577 12.199 19.6704 12.1344 19.9351C12.0608 20.2369 11.8044 20.4406 11.4825 20.4398C9.78904 20.4357 8.23576 19.962 6.84708 18.9982C5.04549 17.7486 3.90431 16.044 3.44182 13.8989C3.36379 13.537 3.33778 13.1641 3.2878 12.7965C3.2752 12.7038 3.2626 12.6111 3.25 12.5188C3.25 12.3289 3.25 12.1398 3.25 11.9503Z" fill="#DC3545" stroke="#DC3545" stroke-width="0.3"/>
<path d="M10.8498 9.81962C10.8498 9.13646 10.8494 8.4533 10.8498 7.77014C10.8502 7.32405 11.1127 7.02883 11.5045 7.03127C11.8882 7.0337 12.1495 7.32649 12.1499 7.75956C12.1507 9.14622 12.1507 10.5325 12.1499 11.9191C12.1495 12.3526 11.8886 12.6458 11.5049 12.6482C11.1131 12.6507 10.8502 12.3554 10.8498 11.9094C10.8494 11.2128 10.8498 10.5162 10.8498 9.81962Z" fill="#DC3545" stroke="#DC3545" stroke-width="0.3"/>
<path d="M15.615 17.2123C15.615 17.7665 15.6175 18.3208 15.6142 18.875C15.6118 19.289 15.3383 19.581 14.9648 19.5789C14.5937 19.5769 14.317 19.2813 14.3158 18.8689C14.3125 17.7535 14.3129 16.6385 14.3158 15.5231C14.3166 15.1689 14.5267 14.8952 14.8291 14.8342C15.1444 14.7704 15.4525 14.9302 15.5663 15.2323C15.6033 15.3303 15.6122 15.443 15.613 15.5491C15.6175 16.1038 15.615 16.658 15.615 17.2123Z" fill="#DC3545" stroke="#DC3545" stroke-width="0.3"/>
<path d="M18.216 17.2056C18.216 17.7599 18.2184 18.3141 18.2152 18.8684C18.2128 19.2844 17.9445 19.5767 17.5715 19.5784C17.2 19.58 16.9184 19.2844 16.9171 18.8741C16.9135 17.7586 16.9139 16.6436 16.9171 15.5282C16.9184 15.1122 17.1898 14.8235 17.5662 14.8223C17.9466 14.821 18.2132 15.1049 18.2156 15.5225C18.218 16.0833 18.216 16.6444 18.216 17.2056Z" fill="#DC3545" stroke="#DC3545" stroke-width="0.3"/>
<path d="M11.5093 1.83612C12.3757 1.83612 13.2418 1.83246 14.1078 1.83815C14.4256 1.84019 14.6804 2.06303 14.7406 2.36476C14.7975 2.649 14.6349 2.95764 14.3533 3.0715C14.2558 3.11095 14.1436 3.13128 14.0383 3.13128C12.3465 3.13494 10.6546 3.13494 8.96275 3.13291C8.61649 3.1325 8.37143 2.95927 8.27959 2.66567C8.19627 2.39932 8.28406 2.10694 8.53359 1.95771C8.65917 1.88248 8.82417 1.84222 8.97169 1.84059C9.81742 1.83002 10.6636 1.83531 11.5093 1.83531C11.5093 1.83531 11.5093 1.83571 11.5093 1.83612Z" fill="#DC3545" stroke="#DC3545" stroke-width="0.3"/>
</svg>
