<svg width="20" height="20" viewBox="0 0 20 20" fill="none" xmlns="http://www.w3.org/2000/svg">
<path d="M18.1818 7.54138C18.0825 7.69945 18.0071 7.88634 17.8796 8.01248C16.2451 9.6368 14.6026 11.2518 12.9631 12.8714C12.6544 13.1759 12.3081 13.2888 11.9169 13.0988C11.5372 12.9142 11.372 12.5763 11.3757 12.1317C11.3807 11.6069 11.3771 11.0812 11.3771 10.519C11.3003 10.519 11.2293 10.519 11.1583 10.519C10.1809 10.519 9.20356 10.5198 8.22618 10.519C7.81466 10.519 7.63353 10.3228 7.63281 9.87663C7.63208 9.25213 7.63281 8.62764 7.63281 7.94474C6.08017 9.47639 4.56448 10.9715 3.03358 12.4821C4.56159 13.9896 6.0751 15.4831 7.61759 17.0046C7.62411 16.9143 7.63208 16.8559 7.63208 16.7967C7.63281 16.2205 7.63136 15.6443 7.63281 15.0673C7.63426 14.6452 7.81249 14.4498 8.20372 14.4498C10.2809 14.4482 12.3581 14.449 14.4353 14.4498C14.7997 14.4498 15.0127 14.6421 15.0142 14.9661C15.0156 15.297 14.7961 15.4995 14.423 15.4995C12.5834 15.501 10.7439 15.5002 8.90433 15.5002C8.81666 15.5002 8.72827 15.5002 8.61018 15.5002C8.61018 15.6692 8.61018 15.8265 8.61018 15.9838C8.61018 16.356 8.6109 16.7282 8.61018 17.1004C8.60873 17.6774 8.37036 18.0045 7.84726 18.1516C7.82843 18.1571 7.81176 18.1719 7.79365 18.182C7.72554 18.182 7.65816 18.182 7.59006 18.182C7.27345 18.101 7.04885 17.8736 6.81845 17.6455C5.24625 16.0881 3.66898 14.5362 2.09316 12.9828C1.72583 12.6207 1.72583 12.3474 2.09678 11.9806C3.74143 10.3571 5.38753 8.73431 7.03146 7.11C7.33431 6.81098 7.67483 6.70353 8.05955 6.88496C8.44281 7.06561 8.61163 7.40044 8.61018 7.84507C8.608 8.3769 8.60945 8.90796 8.60945 9.46938C8.69422 9.46938 8.76595 9.46938 8.83768 9.46938C9.80853 9.46938 10.7794 9.46861 11.7502 9.46938C12.177 9.46938 12.353 9.66016 12.3537 10.1219C12.3545 10.7417 12.3537 11.3608 12.3537 12.0445C13.9028 10.5167 15.4177 9.02242 16.9537 7.50712C15.4279 6.00116 13.9107 4.50454 12.3682 2.98223C12.3617 3.07801 12.3537 3.13875 12.3537 3.19948C12.353 3.76869 12.3537 4.33791 12.353 4.90712C12.3523 5.34474 12.1762 5.5394 11.7741 5.5394C9.41149 5.54018 7.04957 5.54018 4.68693 5.5394C4.32684 5.5394 4.10514 5.3424 4.10152 5.0247C4.09717 4.70233 4.32902 4.48975 4.69562 4.48975C6.82715 4.48819 8.95867 4.48897 11.0902 4.48897C11.1771 4.48897 11.2641 4.48897 11.3757 4.48897C11.3757 4.09262 11.3757 3.71574 11.3757 3.33887C11.3757 3.16366 11.3735 2.98846 11.3764 2.81326C11.3836 2.39433 11.5619 2.0813 11.9161 1.91155C12.2712 1.7418 12.6117 1.80643 12.9008 2.0852C13.4362 2.60224 13.9629 3.12862 14.4932 3.65111C15.6184 4.76073 16.7458 5.86801 17.8651 6.98541C17.9941 7.11389 18.076 7.29688 18.1796 7.45417C18.1818 7.48298 18.1818 7.51257 18.1818 7.54138Z" fill="#E96012" stroke="#E96012" stroke-width="0.1"/>
</svg>
