<svg width="23" height="22" viewBox="0 0 23 22" fill="none" stroke="#FF384C" xmlns="http://www.w3.org/2000/svg">
<path d="M9.66663 10.0833V15.5833M13.3333 10.0833V15.5833M4.16663 6.41667H18.8333M17.9166 6.41667L17.1219 17.5468C17.089 18.0094 16.882 18.4422 16.5426 18.7583C16.2033 19.0743 15.7568 19.25 15.2931 19.25H7.70679C7.24309 19.25 6.7966 19.0743 6.45727 18.7583C6.11794 18.4422 5.91097 18.0094 5.87804 17.5468L5.08329 6.41667H17.9166ZM14.25 6.41667V3.66667C14.25 3.42355 14.1534 3.19039 13.9815 3.01849C13.8096 2.84658 13.5764 2.75 13.3333 2.75H9.66663C9.42351 2.75 9.19035 2.84658 9.01845 3.01849C8.84654 3.19039 8.74996 3.42355 8.74996 3.66667V6.41667H14.25Z"  stroke-width="1.5" stroke-linecap="round" stroke-linejoin="round"/>
</svg>
