<svg width="116" height="115" viewBox="0 0 116 115" fill="none" stroke="none" xmlns="http://www.w3.org/2000/svg">
<circle cx="58" cy="57.5" r="57.5" fill="#F3F4F6"/>
<path d="M65.2651 51.1524C67.3074 49.1101 68.4548 46.3402 68.4548 43.4519C68.4548 40.5637 67.3074 37.7937 65.2651 35.7514C63.2228 33.7091 60.4529 32.5618 57.5646 32.5618C54.6764 32.5618 51.9064 33.7091 49.8641 35.7514C47.8218 37.7937 46.6744 40.5637 46.6744 43.4519C46.6744 46.3402 47.8218 49.1101 49.8641 51.1524C51.9064 53.1947 54.6764 54.3421 57.5646 54.3421C60.4529 54.3421 63.2228 53.1947 65.2651 51.1524Z" stroke="#9CA3AF" stroke-width="3" stroke-linecap="round" stroke-linejoin="round"/>
<path d="M44.0887 68.0916C47.6628 64.5176 52.5102 62.5097 57.5646 62.5097C62.619 62.5097 67.4665 64.5176 71.0405 68.0916C74.6145 71.6656 76.6224 76.513 76.6224 81.5675H38.5068C38.5068 76.513 40.5147 71.6656 44.0887 68.0916Z" stroke="#9CA3AF" stroke-width="3" stroke-linecap="round" stroke-linejoin="round"/>
</svg>
