<svg width="19" height="18" viewBox="0 0 19 18" fill="none" xmlns="http://www.w3.org/2000/svg">
<path d="M11.8713 7.37132C12.4339 6.80871 12.75 6.04565 12.75 5.25C12.75 4.45435 12.4339 3.69129 11.8713 3.12868C11.3087 2.56607 10.5456 2.25 9.75 2.25C8.95435 2.25 8.19129 2.56607 7.62868 3.12868C7.06607 3.69129 6.75 4.45435 6.75 5.25C6.75 6.04565 7.06607 6.80871 7.62868 7.37132C8.19129 7.93393 8.95435 8.25 9.75 8.25C10.5456 8.25 11.3087 7.93393 11.8713 7.37132Z" stroke="#2381D4" stroke-width="1.2" stroke-linecap="round" stroke-linejoin="round"/>
<path d="M6.03769 12.0377C7.02226 11.0531 8.35761 10.5 9.75 10.5C11.1424 10.5 12.4777 11.0531 13.4623 12.0377C14.4469 13.0223 15 14.3576 15 15.75H4.5C4.5 14.3576 5.05312 13.0223 6.03769 12.0377Z" stroke="#2381D4" stroke-width="1.2" stroke-linecap="round" stroke-linejoin="round"/>
</svg>
