<svg width="20" height="13" viewBox="0 0 20 13" fill="none" xmlns="http://www.w3.org/2000/svg">
<path d="M19 5.71162C18.558 5.71162 18.1159 5.71162 17.6524 5.71162C17.6524 4.91622 17.6524 4.13559 17.6524 3.34948C15.6318 5.36247 13.6247 7.36153 11.6294 9.34962C10.4786 8.20296 9.36144 7.09007 8.25066 5.98309C6.12452 8.10079 4.03765 10.1801 1.96175 12.2484C1.61386 11.9026 1.30186 11.5914 1 11.2908C3.38959 8.91054 5.79099 6.51842 8.19324 4.12546C9.29896 5.22737 10.4161 6.34026 11.5163 7.43711C13.2359 5.72387 14.9284 4.03765 16.6256 2.3472C15.8564 2.3472 15.0732 2.3472 14.2808 2.3472C14.2808 1.89377 14.2808 1.46187 14.2808 1C15.8543 1 17.4273 1 19.0004 1C19 2.57054 19 4.14108 19 5.71162Z" fill="#20BF4D" stroke="#20BF4D" stroke-width="0.3"/>
</svg>
