<svg width="285" height="58" viewBox="0 0 285 58" fill="none" xmlns="http://www.w3.org/2000/svg">
<path fill-rule="evenodd" clip-rule="evenodd" d="M67.8684 11.297C69.2434 13.038 70.1888 15.0749 70.6289 17.2443C70.976 17.2868 71.2938 17.4591 71.5177 17.7261C71.7415 17.9931 71.8546 18.3349 71.8339 18.6818C71.813 19.033 71.6582 19.3631 71.4011 19.6049C71.144 19.8467 70.8039 19.9822 70.4499 19.9837H70.3703C70.0025 19.9633 69.658 19.7987 69.4123 19.526C69.1666 19.2532 69.04 18.8948 69.0601 18.5293C69.0696 18.3477 69.1158 18.1699 69.1958 18.0064C69.2759 17.8429 69.3883 17.6971 69.5262 17.5776C69.6207 17.4851 69.7328 17.4121 69.8559 17.363C69.4361 15.3277 68.5449 13.4176 67.2529 11.7843C65.9609 10.1509 64.3037 8.83912 62.4128 7.95299C62.3145 8.05017 62.1979 8.12713 62.0696 8.17947C61.9414 8.2318 61.804 8.25849 61.6653 8.258H61.6085C61.4696 8.2519 61.3333 8.21833 61.2076 8.15926C61.0819 8.10019 60.9693 8.01681 60.8764 7.91399C60.7835 7.81117 60.7122 7.69098 60.6666 7.56045C60.6211 7.42992 60.6021 7.29166 60.611 7.15377C60.6278 6.87759 60.7525 6.61887 60.9585 6.43267C61.1644 6.24648 61.4354 6.14752 61.7136 6.15686C61.9848 6.17413 62.2391 6.29368 62.4245 6.49105C62.6099 6.68842 62.7125 6.94872 62.7112 7.21872C64.7272 8.15923 66.4934 9.55596 67.8684 11.297ZM61.9714 7.52593C62.0504 7.44902 62.0973 7.3454 62.103 7.23567L62.0888 7.18766C62.0876 7.08273 62.0471 6.982 61.9751 6.90525C61.9361 6.86031 61.8883 6.82383 61.8345 6.79807C61.7807 6.77232 61.7221 6.75785 61.6625 6.75557H61.6397C61.5352 6.75912 61.4349 6.79797 61.3556 6.86571C61.2662 6.94706 61.2114 7.05913 61.2021 7.17918C61.2001 7.29719 61.2439 7.41144 61.3243 7.49831C61.4018 7.58662 61.5109 7.64134 61.6284 7.65081C61.6442 7.65488 61.6609 7.65488 61.6767 7.65081C61.7872 7.64741 61.8924 7.60283 61.9714 7.52593ZM69.9895 18.2667C69.9212 18.3566 69.8817 18.4648 69.8758 18.5773C69.8703 18.7244 69.9228 18.8677 70.022 18.9769C70.1213 19.0861 70.2595 19.1525 70.4072 19.1619C70.5563 19.1685 70.7024 19.1191 70.8165 19.0235C70.9274 18.923 70.9939 18.7829 71.0012 18.6338V18.6027C71.0019 18.5189 70.9827 18.4361 70.9451 18.3611C70.9076 18.286 70.8528 18.2208 70.7852 18.1707C70.6973 18.0945 70.5862 18.0498 70.4698 18.0436H70.4385C70.2994 18.0431 70.1649 18.0933 70.0605 18.1848C70.0344 18.2099 70.0106 18.2373 69.9895 18.2667ZM73.1512 21.2539C72.7259 24.8497 71.036 28.1807 68.3798 30.6589H68.394C70.6426 31.8883 72.5181 33.6948 73.8247 35.8899C75.1314 38.085 75.8215 40.5883 75.8229 43.1386V51.1817C75.8229 51.6831 75.7235 52.1796 75.5304 52.6429C75.3373 53.1061 75.0543 53.527 74.6975 53.8816C74.3407 54.2362 73.9172 54.5174 73.451 54.7093C72.9848 54.9012 72.4852 54.9999 71.9806 54.9999H69.059V43.0935C69.0594 42.1083 68.8644 41.1328 68.4852 40.2226C68.106 39.3124 67.55 38.4853 66.849 37.7887C66.148 37.0921 65.3158 36.5396 64.3998 36.1628C63.4838 35.786 62.5021 35.5922 61.5108 35.5926H49.4722V24.0759C50.393 25.7044 51.7817 27.023 53.4607 27.8631C55.1396 28.7031 57.0326 29.0265 58.8975 28.7918C60.7624 28.5571 62.5145 27.7751 63.9297 26.5456C65.345 25.3162 66.3591 23.6952 66.8423 21.89C66.9133 21.907 66.9855 21.9183 67.0583 21.9239H67.1492C67.5629 21.9244 67.9608 21.7665 68.2604 21.483C68.5599 21.1995 68.7381 20.8123 68.7578 20.4017C68.779 20.0254 68.779 19.6483 68.7578 19.272C68.8927 19.6046 69.1243 19.8896 69.4229 20.0908C69.7216 20.292 70.0737 20.4002 70.4345 20.4017H70.6164C71.0961 20.3539 71.537 20.1188 71.8424 19.7481C72.1477 19.3775 72.2925 18.9015 72.2449 18.4248C72.0018 16.0516 71.2048 13.7676 69.9173 11.7542C70.0576 11.6739 70.189 11.5793 70.3095 11.4718C70.461 11.3343 70.5938 11.1776 70.7045 11.0059C72.71 14.0286 73.5766 17.6581 73.1512 21.2539ZM56.285 42.156H59.7379C60.2073 42.1567 60.6572 42.3423 60.9891 42.6721C61.321 43.0019 61.5077 43.449 61.5085 43.9154V55.0001H56.285V42.156ZM67.455 19.3115C67.3933 17.9897 67.0654 16.6936 66.4909 15.4998C65.9164 14.306 65.1068 13.2389 64.11 12.3614C64.1421 12.2913 64.1585 12.2152 64.1583 12.1383C64.167 11.9177 64.0886 11.7025 63.94 11.5385C63.7914 11.3745 63.5842 11.2745 63.3626 11.26C63.1425 11.2518 62.9273 11.3264 62.7601 11.469C62.6755 11.5417 62.6066 11.6308 62.5578 11.7308C62.5089 11.8308 62.4811 11.9397 62.4759 12.0507C62.4673 12.16 62.4822 12.2699 62.5194 12.3731C62.5566 12.4763 62.6154 12.5705 62.6919 12.6494C62.7623 12.7325 62.849 12.8005 62.9467 12.849C63.0445 12.8976 63.1512 12.9258 63.2603 12.9319H63.3086C63.4517 12.9348 63.593 12.8997 63.7178 12.8302C64.6464 13.6528 65.401 14.6507 65.9377 15.7658C66.4744 16.8809 66.7825 18.0911 66.844 19.3257C66.6314 19.3858 66.4431 19.5109 66.3059 19.6832C66.1687 19.8556 66.0895 20.0664 66.0795 20.2859C66.0707 20.4255 66.0896 20.5655 66.1352 20.6979C66.1809 20.8303 66.2523 20.9524 66.3455 21.0573C66.4387 21.1622 66.5517 21.2479 66.6782 21.3093C66.8047 21.3708 66.9422 21.4069 67.0827 21.4155H67.1481C67.4228 21.4123 67.686 21.3056 67.8844 21.1168C68.0828 20.928 68.2016 20.6714 68.2167 20.3988C68.2357 20.158 68.1703 19.9181 68.0314 19.7199C67.8926 19.5217 67.6889 19.3774 67.455 19.3115ZM63.5303 12.3303C63.4654 12.3848 63.3821 12.4131 63.2972 12.4094C63.2664 12.4097 63.236 12.4019 63.2091 12.3868C63.1584 12.3763 63.1131 12.3483 63.0812 12.3077C63.0266 12.2431 62.9982 12.1605 63.0017 12.0761C63.0113 11.9946 63.0472 11.9183 63.104 11.8587C63.1664 11.8096 63.2432 11.7818 63.3228 11.7796H63.3399C63.4216 11.7896 63.4976 11.8263 63.5558 11.8841C63.5558 11.8908 63.561 11.8963 63.5664 11.902C63.5724 11.9082 63.5786 11.9148 63.5786 11.9236C63.6176 11.98 63.6375 12.0473 63.6354 12.1157C63.6291 12.1979 63.5915 12.2746 63.5303 12.3303ZM66.7474 20.3028C66.7494 20.2061 66.7891 20.1139 66.8582 20.0458C66.8967 20.0056 66.943 19.9737 66.9943 19.9518C67.0456 19.93 67.1008 19.9187 67.1566 19.9187H67.1822C67.291 19.9259 67.3928 19.9744 67.4664 20.0543C67.5026 20.0943 67.5303 20.1413 67.5479 20.1922C67.5655 20.2431 67.5726 20.2971 67.5687 20.3508C67.5581 20.4569 67.5078 20.5552 67.4278 20.6263C67.3479 20.6974 67.244 20.7361 67.1367 20.7349C67.0822 20.7331 67.0286 20.7204 66.9792 20.6975C66.9297 20.6746 66.8855 20.642 66.8491 20.6016C66.8127 20.5612 66.7849 20.5139 66.7674 20.4625C66.75 20.4112 66.7431 20.3568 66.7474 20.3028Z" fill="url(#paint0_linear_315_14895)"/>
<path d="M62.033 11.1301C61.8629 11.3543 61.7554 11.6191 61.7214 11.8978C61.6875 12.1766 61.7283 12.4593 61.8397 12.7173C60.6166 12.0651 59.2491 11.7263 57.861 11.7316H49.48V54.9999H45.4359C44.8603 55.0003 44.2902 54.8879 43.7584 54.6692C43.2265 54.4505 42.7433 54.1297 42.3363 53.7253C41.9293 53.3208 41.6065 52.8406 41.3864 52.3121C41.1663 51.7836 41.0532 51.2171 41.0535 50.6451V20.0797V11.7627H35.8868C35.6871 11.7903 35.4837 11.7753 35.2902 11.7188C35.0967 11.6622 34.9176 11.5653 34.7647 11.4347C34.6118 11.304 34.4886 11.1424 34.4034 10.9608C34.3181 10.7792 34.2728 10.5816 34.2704 10.3812C34.2679 10.1808 34.3084 9.98215 34.3892 9.79851C34.47 9.61487 34.5892 9.45043 34.7389 9.31611C34.8886 9.18178 35.0653 9.08066 35.2574 9.01947C35.4494 8.95827 35.6524 8.9384 35.8527 8.96118H36.7991C36.9988 8.98895 37.2022 8.97415 37.3958 8.91777C37.5893 8.8614 37.7685 8.76473 37.9215 8.6342C38.0746 8.50367 38.1979 8.34226 38.2833 8.16071C38.3687 7.97917 38.4142 7.78164 38.4169 7.58125C38.4195 7.38086 38.3792 7.18221 38.2986 6.9985C38.218 6.81479 38.099 6.65023 37.9495 6.51576C37.7999 6.38129 37.6233 6.27999 37.4314 6.21859C37.2394 6.15719 37.0365 6.1371 36.8361 6.15966H33.744C33.5443 6.18742 33.3409 6.17263 33.1474 6.11625C32.9538 6.05987 32.7746 5.96321 32.6216 5.83268C32.4685 5.70214 32.3452 5.54074 32.2598 5.35919C32.1744 5.17764 32.1289 4.98011 32.1262 4.77972C32.1236 4.57934 32.1639 4.38068 32.2445 4.19697C32.3251 4.01327 32.4441 3.84871 32.5936 3.71423C32.7432 3.57976 32.9198 3.47846 33.1118 3.41706C33.3037 3.35567 33.5067 3.33558 33.7071 3.35813H55.4652C55.3661 3.56558 55.2981 3.78632 55.2634 4.01333C55.2492 4.10088 55.2293 4.18278 55.2236 4.27032C55.1887 4.9046 55.4085 5.52671 55.8348 6.00008C56.2611 6.47344 56.859 6.75937 57.4972 6.79508C57.8041 6.81203 58.1082 6.85157 58.4123 6.88828C57.1931 6.82615 56.2098 8.17608 57.051 9.49777C57.1854 9.67584 57.3602 9.81982 57.5612 9.91798C57.7622 10.0161 57.9837 10.0657 58.2077 10.0626C58.2238 10.064 58.2399 10.064 58.256 10.0626C59.5794 10.1334 60.8718 10.4879 62.0443 11.1019L62.033 11.1301ZM30.8168 4.7589C30.8168 4.3844 30.6671 4.02523 30.4006 3.76042C30.1341 3.49561 29.7727 3.34684 29.3958 3.34684H28.421C28.2064 3.3484 27.9949 3.39825 27.8024 3.49265C27.61 3.58705 27.4415 3.72355 27.3098 3.89189C27.1179 4.1333 27.0129 4.43154 27.0114 4.73913C27.0114 5.11363 27.1611 5.47279 27.4276 5.7376C27.6941 6.00242 28.0555 6.15119 28.4324 6.15119H29.4071C29.784 6.15119 30.1455 6.00242 30.4119 5.7376C30.6784 5.47279 30.8281 5.11363 30.8281 4.73913L30.8168 4.7589ZM32.6328 10.3619C32.6333 10.0306 32.5143 9.70997 32.2974 9.45823C32.1649 9.30344 32.0003 9.1789 31.8149 9.09312C31.6295 9.00734 31.4277 8.96233 31.2232 8.96118H28.421C28.0441 8.96118 27.6827 9.10995 27.4162 9.37477C27.1497 9.63958 27 9.99874 27 10.3732C27 10.7477 27.1497 11.1069 27.4162 11.3717C27.6827 11.6365 28.0441 11.7853 28.421 11.7853H31.2232C31.4098 11.7853 31.5946 11.7488 31.767 11.6778C31.9394 11.6068 32.096 11.5028 32.228 11.3717C32.3599 11.2406 32.4646 11.0849 32.536 10.9136C32.6074 10.7423 32.6442 10.5587 32.6442 10.3732L32.6328 10.3619ZM37.8478 7.53783C37.852 7.67771 37.8281 7.81702 37.7776 7.94766C37.7271 8.0783 37.651 8.19767 37.5537 8.29884C37.4564 8.4 37.3398 8.48094 37.2108 8.53695C37.0817 8.59296 36.9428 8.62293 36.802 8.62512H36.7565C36.5427 8.62309 36.3345 8.55668 36.1595 8.43467C35.9844 8.31265 35.8507 8.14076 35.776 7.94168H30.4871C30.4197 8.08855 30.3107 8.21272 30.1734 8.29899C30.0361 8.38526 29.8765 8.42989 29.7141 8.42742H29.6857C29.4595 8.42742 29.2427 8.33816 29.0828 8.17928C28.9229 8.02039 28.8331 7.80489 28.8331 7.58019C28.8297 7.46599 28.8491 7.35226 28.8902 7.24557C28.9313 7.13889 28.9933 7.04136 29.0726 6.95863C29.1519 6.8759 29.2469 6.80961 29.3521 6.7636C29.4574 6.7176 29.5707 6.69278 29.6857 6.69059C29.8521 6.68977 30.0155 6.73539 30.1572 6.82226C30.2989 6.90913 30.4132 7.03377 30.4871 7.18199H35.7845C35.8556 6.98223 35.9872 6.80925 36.1613 6.68687C36.3353 6.56448 36.5433 6.49869 36.7565 6.49855C36.897 6.4948 37.0369 6.51879 37.168 6.56913C37.2992 6.61947 37.419 6.69516 37.5205 6.79181C37.622 6.88847 37.7032 7.00418 37.7593 7.13223C37.8155 7.26029 37.8456 7.39815 37.8478 7.53783ZM37.1998 7.58584C37.2041 7.53068 37.197 7.47523 37.1791 7.42285C37.1612 7.37047 37.1328 7.32223 37.0956 7.28106C37.0585 7.23989 37.0133 7.20663 36.9628 7.18329C36.9123 7.15996 36.8576 7.14702 36.802 7.14528C36.7367 7.1449 36.672 7.15738 36.6115 7.18199C36.5381 7.20887 36.4746 7.25728 36.4294 7.32082C36.3842 7.38436 36.3595 7.46004 36.3586 7.53783C36.3557 7.61971 36.3757 7.70079 36.4163 7.77208C36.4569 7.84336 36.5166 7.90207 36.5888 7.94168C36.6412 7.9667 36.6984 7.98018 36.7565 7.98121H36.802C36.9068 7.97905 37.0067 7.9367 37.0809 7.86302C37.155 7.78933 37.1977 7.69002 37.1998 7.58584ZM30.058 7.58584C30.0618 7.51604 30.0447 7.44668 30.0089 7.38655C29.973 7.32641 29.92 7.27821 29.8565 7.24805C29.7931 7.21788 29.7221 7.20712 29.6524 7.21712C29.5828 7.22711 29.5178 7.25742 29.4655 7.30421C29.4132 7.35099 29.3761 7.41214 29.3589 7.4799C29.3416 7.54766 29.345 7.61899 29.3686 7.68485C29.3921 7.7507 29.4349 7.80811 29.4913 7.84981C29.5478 7.89151 29.6154 7.91563 29.6857 7.91909H29.7141C29.7593 7.91946 29.8042 7.91088 29.8461 7.89384C29.888 7.8768 29.9261 7.85164 29.9581 7.81984C29.9901 7.78803 30.0154 7.75021 30.0326 7.70858C30.0497 7.66695 30.0583 7.62235 30.058 7.57737V7.58584ZM69.1379 16.5891C69.1311 16.7049 69.1013 16.8182 69.05 16.9225C68.9988 17.0267 68.9272 17.1198 68.8395 17.1963C68.6791 17.3404 68.4703 17.42 68.2541 17.4194H68.1972C68.0803 17.4133 67.9658 17.3842 67.8603 17.3337C67.7549 17.2833 67.6605 17.2126 67.5828 17.1256C67.5051 17.0386 67.4455 16.9372 67.4075 16.8272C67.3696 16.7171 67.354 16.6007 67.3617 16.4846C67.3721 16.271 67.4635 16.0693 67.6174 15.9198C67.0208 14.1298 65.939 12.5379 64.491 11.3193C63.0429 10.1006 61.2848 9.30223 59.4098 9.01202C59.3125 9.20928 59.1618 9.37564 58.9745 9.49239C58.7872 9.60914 58.5709 9.67164 58.3498 9.67286H58.2844C57.9716 9.65133 57.6788 9.51193 57.4659 9.28313C57.3624 9.16787 57.2827 9.03345 57.2315 8.88756C57.1804 8.74167 57.1586 8.58717 57.1676 8.43292C57.1766 8.27867 57.2161 8.1277 57.2838 7.98865C57.3516 7.84959 57.4463 7.72518 57.5626 7.62255C57.7968 7.41511 58.1042 7.30842 58.4175 7.32589C58.7307 7.34336 59.0242 7.48356 59.2336 7.71575C59.3611 7.86086 59.4517 8.0342 59.4979 8.22126C61.5257 8.53025 63.4283 9.38964 64.9959 10.7047C66.5635 12.0198 67.7352 13.7394 68.3819 15.6741C68.5852 15.7086 68.7717 15.8077 68.9134 15.9565C69.0679 16.1305 69.1484 16.3573 69.1379 16.5891ZM58.6226 8.11677C58.5491 8.06695 58.464 8.0368 58.3754 8.02923H58.3384C58.2228 8.02755 58.1109 8.07 58.0258 8.14784C57.9785 8.18829 57.9399 8.23776 57.9122 8.29333C57.8845 8.34889 57.8683 8.40941 57.8646 8.4713C57.8609 8.5332 57.8697 8.5952 57.8906 8.65364C57.9114 8.71208 57.9439 8.76576 57.986 8.8115C58.0267 8.85892 58.0773 8.89708 58.1342 8.92339C58.191 8.9497 58.2529 8.96356 58.3157 8.96401C58.3937 8.97116 58.472 8.95441 58.5402 8.916C58.5825 8.90497 58.6209 8.88248 58.651 8.85104C58.7463 8.76729 58.8045 8.64958 58.813 8.52345C58.8165 8.40011 58.7728 8.28005 58.6908 8.18738C58.6703 8.15831 58.6475 8.13092 58.6226 8.10547V8.11677ZM68.615 16.5665C68.6158 16.4703 68.5815 16.3769 68.5184 16.3039C68.4538 16.2334 68.364 16.1908 68.2683 16.1853H68.2455C68.1556 16.1852 68.069 16.2196 68.004 16.2813C67.9687 16.3123 67.9399 16.35 67.9194 16.3922C67.8989 16.4344 67.8871 16.4802 67.8846 16.527C67.8806 16.6228 67.9143 16.7164 67.9784 16.7881C68.0426 16.8597 68.1322 16.9038 68.2285 16.9111C68.3263 16.9127 68.421 16.8765 68.4926 16.8101C68.5641 16.7437 68.607 16.6524 68.6121 16.5552L68.615 16.5665ZM68.7883 8.48391C68.6034 8.47552 68.4189 8.50833 68.2484 8.57993C65.7621 6.15976 62.5609 4.59494 59.1143 4.115C59.0482 3.81072 58.8828 3.53666 58.6438 3.33543C58.4049 3.1342 58.1056 3.01709 57.7928 3.0023C57.6036 2.99163 57.4142 3.0182 57.2355 3.08048C57.0567 3.14277 56.8921 3.23955 56.751 3.36525C56.61 3.49095 56.4954 3.6431 56.4137 3.81296C56.332 3.98283 56.2849 4.16705 56.2751 4.35505C56.2638 4.54292 56.2905 4.73114 56.3534 4.90865C56.4164 5.08615 56.5144 5.24936 56.6418 5.38867C56.7676 5.52915 56.9204 5.64323 57.0912 5.72422C57.262 5.80521 57.4474 5.85148 57.6364 5.8603H57.716C58.0708 5.86227 58.4134 5.73232 58.6766 5.49599C58.8139 5.37365 58.9258 5.22593 59.0063 5.06108C62.2396 5.51776 65.2411 6.99028 67.572 9.26336C67.5237 9.38441 67.494 9.51198 67.4839 9.64179C67.4668 9.96736 67.5801 10.2864 67.7989 10.5293C68.0177 10.7722 68.3244 10.9191 68.6519 10.9381H68.7201C69.048 10.9471 69.3661 10.8262 69.6043 10.6022C69.8425 10.3782 69.9814 10.0693 69.9905 9.74346C69.9995 9.41765 69.878 9.10161 69.6525 8.86487C69.4271 8.62812 69.1162 8.49007 68.7883 8.48108V8.48391ZM58.1253 4.88598C58.0006 4.99009 57.8419 5.04533 57.6791 5.04131C57.5174 5.03135 57.3662 4.95826 57.2585 4.83797C57.2036 4.77897 57.1615 4.70946 57.1346 4.63371C57.1077 4.55796 57.0967 4.47755 57.1022 4.39741C57.113 4.24383 57.1821 4.10006 57.2955 3.9952C57.409 3.89034 57.5583 3.83221 57.7132 3.83259H57.7473C57.8683 3.83989 57.9844 3.88247 58.0812 3.955C58.178 4.02754 58.2511 4.12681 58.2915 4.24041C58.3318 4.35401 58.3376 4.47691 58.308 4.59374C58.2784 4.71057 58.2149 4.81614 58.1253 4.89728V4.88598ZM68.6917 10.1953C68.5633 10.1866 68.4434 10.1282 68.3579 10.0326C68.2723 9.93703 68.2279 9.81192 68.2342 9.68416C68.238 9.62121 68.2543 9.55963 68.2821 9.50293C68.3099 9.44624 68.3486 9.39554 68.3961 9.35373C68.4853 9.27453 68.6005 9.23035 68.7201 9.22948H68.7457C68.8741 9.2382 68.994 9.29662 69.0795 9.39219C69.1651 9.48777 69.2095 9.61288 69.2033 9.74064C69.1866 9.86415 69.1252 9.97737 69.0305 10.059C68.9357 10.1407 68.8143 10.1851 68.6889 10.184L68.6917 10.1953Z" fill="url(#paint1_linear_315_14895)"/>
<path d="M95.7177 49.3205C95.1601 49.338 94.6072 49.214 94.1103 48.9601C93.6836 48.7305 93.3363 48.3769 93.1141 47.9459C92.8766 47.4598 92.7589 46.9237 92.7709 46.3827C92.7646 45.9633 92.8326 45.5462 92.9718 45.1506C93.0964 44.8031 93.2933 44.4859 93.5494 44.2202C93.8089 43.9564 94.1233 43.7532 94.4703 43.6251C94.8728 43.48 95.2985 43.4104 95.7261 43.4198C96.0336 43.419 96.34 43.4556 96.6386 43.5287C96.9461 43.6021 97.239 43.7268 97.5051 43.8975C97.5908 43.9474 97.6561 44.0261 97.6893 44.1196C97.7145 44.2058 97.7145 44.2975 97.6893 44.3837C97.6694 44.4697 97.6276 44.5491 97.5679 44.6142C97.5084 44.6791 97.4287 44.7219 97.3419 44.7357C97.2385 44.7497 97.1335 44.7275 97.0447 44.6728C96.85 44.5573 96.64 44.4698 96.421 44.413C96.1896 44.3556 95.9519 44.3274 95.7135 44.3292C95.3594 44.3176 95.0085 44.4 94.6964 44.5681C94.4198 44.7295 94.2015 44.9745 94.0727 45.2679C93.9255 45.6206 93.8556 46.0007 93.8676 46.3827C93.829 46.9319 93.9994 47.4754 94.3448 47.904C94.5318 48.0864 94.7553 48.2271 95.0007 48.3167C95.246 48.4063 95.5075 48.4427 95.768 48.4236C95.9828 48.4234 96.1971 48.4038 96.4084 48.365C96.6286 48.3202 96.8454 48.26 97.0572 48.1848L96.8521 48.6499V46.9149H95.9898C95.9331 46.9198 95.876 46.9129 95.8221 46.8949C95.7681 46.8769 95.7183 46.8481 95.6759 46.8102C95.6395 46.7724 95.6111 46.7277 95.5924 46.6788C95.5737 46.6298 95.5651 46.5776 95.567 46.5252C95.5635 46.4726 95.5715 46.4199 95.5902 46.3707C95.609 46.3215 95.6382 46.277 95.6759 46.2402C95.7639 46.1679 95.8762 46.132 95.9898 46.1396H97.3293C97.3866 46.1359 97.444 46.1441 97.498 46.1635C97.552 46.183 97.6015 46.2134 97.6432 46.2528C97.6813 46.2945 97.7106 46.3434 97.7293 46.3967C97.748 46.45 97.7557 46.5065 97.7521 46.5629V48.541C97.7567 48.6457 97.7336 48.7498 97.6851 48.8427C97.6335 48.9278 97.5534 48.9916 97.4591 49.0229C97.1866 49.1189 96.9065 49.1918 96.6219 49.2408C96.3234 49.2935 96.0208 49.3202 95.7177 49.3205Z" fill="#1462B0"/>
<path d="M98.9452 44.4424C98.7846 44.4537 98.6257 44.4027 98.5015 44.2999C98.3999 44.1932 98.3433 44.0514 98.3433 43.9039C98.3433 43.7565 98.3999 43.6146 98.5015 43.5079C98.6273 43.4085 98.7853 43.3592 98.9452 43.3696C99.1064 43.359 99.2659 43.4082 99.3931 43.5079C99.4929 43.6156 99.5483 43.757 99.5483 43.9039C99.5483 44.0508 99.4929 44.1922 99.3931 44.2999C99.2673 44.4025 99.1072 44.4535 98.9452 44.4424ZM98.9452 49.2954C98.8756 49.2995 98.8059 49.2885 98.7409 49.2632C98.6759 49.2379 98.6171 49.1989 98.5685 49.1487C98.4746 49.0301 98.4284 48.8807 98.4387 48.7297V45.7416C98.4279 45.5905 98.4743 45.441 98.5685 45.3225C98.6725 45.2306 98.8065 45.1799 98.9452 45.1799C99.084 45.1799 99.218 45.2306 99.322 45.3225C99.3711 45.3799 99.4083 45.4465 99.4313 45.5185C99.4543 45.5905 99.4627 45.6663 99.4559 45.7416V48.7297C99.4684 48.8809 99.4219 49.0311 99.3262 49.1487C99.2769 49.1992 99.2174 49.2384 99.1517 49.2637C99.0859 49.289 99.0155 49.2998 98.9452 49.2954Z" fill="#1462B0"/>
<path d="M101.431 49.3209C101.166 49.3265 100.904 49.269 100.665 49.1532C100.451 49.055 100.268 48.8981 100.138 48.7006C100.009 48.512 99.9416 48.288 99.9454 48.0594C99.9316 47.8074 100.012 47.5594 100.171 47.3637C100.374 47.1659 100.633 47.0357 100.912 46.9908C101.365 46.9056 101.825 46.8677 102.285 46.8776H102.704V47.4643H102.269C102 47.4599 101.731 47.4767 101.465 47.5146C101.312 47.5282 101.166 47.5865 101.046 47.6822C101.003 47.7244 100.969 47.7755 100.948 47.8319C100.926 47.8884 100.917 47.9488 100.921 48.0091C100.918 48.0918 100.934 48.1741 100.966 48.2501C100.999 48.3261 101.047 48.3941 101.109 48.4492C101.254 48.5706 101.44 48.6321 101.628 48.621C101.793 48.624 101.955 48.5814 102.097 48.4978C102.239 48.4142 102.355 48.293 102.432 48.1474C102.516 47.9935 102.558 47.82 102.553 47.6445V46.689C102.573 46.4793 102.509 46.2703 102.377 46.1065C102.207 45.9703 101.991 45.9056 101.775 45.9263C101.603 45.9269 101.432 45.9452 101.264 45.9808C101.066 46.025 100.874 46.0911 100.69 46.1777C100.608 46.2248 100.511 46.2397 100.418 46.2196C100.344 46.1994 100.279 46.1515 100.238 46.0855C100.195 46.0181 100.172 45.9395 100.171 45.8592C100.172 45.775 100.195 45.6925 100.238 45.6204C100.285 45.5356 100.363 45.4725 100.456 45.4443C100.688 45.3478 100.929 45.2748 101.176 45.2264C101.384 45.1832 101.596 45.1608 101.808 45.1594C102.138 45.1469 102.467 45.2084 102.771 45.3396C103.014 45.4517 103.213 45.642 103.336 45.8802C103.47 46.1713 103.533 46.4902 103.52 46.8106V48.7844C103.531 48.9238 103.487 49.062 103.399 49.17C103.354 49.216 103.3 49.2518 103.24 49.2749C103.18 49.2981 103.115 49.308 103.051 49.3041C102.986 49.3076 102.921 49.2975 102.859 49.2744C102.798 49.2513 102.742 49.2158 102.695 49.17C102.605 49.0627 102.56 48.9244 102.57 48.7844V48.3905H102.637C102.604 48.569 102.528 48.7367 102.416 48.8791C102.303 49.0215 102.158 49.1343 101.992 49.2077C101.815 49.2839 101.624 49.3224 101.431 49.3209ZM101.85 44.7948C101.77 44.7986 101.692 44.7781 101.624 44.7361C101.597 44.7182 101.575 44.6939 101.561 44.6653C101.546 44.6367 101.539 44.6048 101.54 44.5727C101.537 44.4702 101.561 44.3687 101.611 44.2793C101.655 44.2042 101.709 44.1351 101.77 44.0739L101.929 43.9105C101.975 43.8599 101.999 43.7939 101.996 43.7261C101.998 43.6955 101.992 43.665 101.978 43.6377C101.964 43.6105 101.943 43.5874 101.917 43.571C101.841 43.5368 101.758 43.521 101.674 43.5249H101.536C101.483 43.5305 101.431 43.5417 101.381 43.5585C101.31 43.5777 101.235 43.5777 101.163 43.5585C101.135 43.5493 101.109 43.5329 101.088 43.5109C101.068 43.4889 101.053 43.462 101.046 43.4327C101.033 43.4017 101.026 43.3681 101.026 43.3343C101.026 43.3004 101.033 43.2669 101.046 43.2358C101.084 43.1669 101.147 43.1157 101.222 43.0933C101.326 43.0531 101.434 43.0249 101.544 43.0095C101.664 42.9923 101.784 42.9839 101.904 42.9843C102.127 42.9715 102.348 43.0239 102.541 43.1352C102.612 43.179 102.672 43.2406 102.713 43.314C102.754 43.3874 102.775 43.4701 102.775 43.5543C102.78 43.6722 102.746 43.7886 102.679 43.8853C102.621 43.9675 102.55 44.0397 102.469 44.0991C102.394 44.1579 102.322 44.2224 102.256 44.2919C102.195 44.3629 102.162 44.4539 102.164 44.5475C102.166 44.5771 102.16 44.6066 102.147 44.6331C102.133 44.6596 102.113 44.6821 102.089 44.6984C102.021 44.7548 101.938 44.7885 101.85 44.7948Z" fill="#1462B0"/>
<path d="M104.651 44.4427C104.491 44.4533 104.334 44.4023 104.211 44.3002C104.109 44.1935 104.053 44.0517 104.053 43.9042C104.053 43.7568 104.109 43.6149 104.211 43.5082C104.342 43.4183 104.496 43.3701 104.655 43.3701C104.813 43.3701 104.968 43.4183 105.098 43.5082C105.198 43.6159 105.254 43.7573 105.254 43.9042C105.254 44.0511 105.198 44.1925 105.098 44.3002C104.973 44.404 104.813 44.4551 104.651 44.4427ZM104.651 49.2957C104.582 49.2995 104.513 49.2883 104.448 49.263C104.384 49.2377 104.326 49.1988 104.278 49.149C104.182 49.0314 104.136 48.8812 104.148 48.73V45.7419C104.135 45.5906 104.182 45.4402 104.278 45.3228C104.326 45.2738 104.385 45.2357 104.449 45.2111C104.513 45.1866 104.582 45.176 104.651 45.1803C104.72 45.1759 104.791 45.1863 104.856 45.2109C104.922 45.2354 104.982 45.2736 105.031 45.3228C105.129 45.4396 105.177 45.59 105.165 45.7419V48.73C105.176 48.881 105.129 49.0304 105.036 49.149C104.986 49.1998 104.926 49.2392 104.859 49.2645C104.793 49.2898 104.721 49.3005 104.651 49.2957Z" fill="#1462B0"/>
<path d="M108.229 49.3033C108.159 49.3083 108.088 49.2982 108.022 49.2736C107.955 49.249 107.895 49.2106 107.844 49.1608C107.753 49.0569 107.705 48.9219 107.71 48.7836V44.027C107.705 43.9554 107.715 43.8834 107.739 43.8157C107.762 43.7479 107.8 43.6857 107.848 43.6331C107.956 43.539 108.095 43.4909 108.238 43.499H110.197C110.725 43.4669 111.245 43.6361 111.653 43.9725C111.827 44.1427 111.963 44.3481 112.051 44.5751C112.139 44.8021 112.178 45.0453 112.164 45.2885C112.178 45.5328 112.139 45.7773 112.051 46.0056C111.963 46.2339 111.827 46.4409 111.653 46.6128C111.247 46.9534 110.726 47.1244 110.197 47.0905H108.748V48.7668C108.757 48.91 108.711 49.0511 108.619 49.1608C108.568 49.2116 108.507 49.2507 108.44 49.2753C108.373 49.2999 108.301 49.3095 108.229 49.3033ZM108.748 46.2691H110.034C110.334 46.2911 110.632 46.2016 110.871 46.0177C111.054 45.82 111.156 45.5603 111.156 45.2905C111.156 45.0208 111.054 44.7611 110.871 44.5634C110.63 44.3849 110.333 44.2987 110.034 44.3204H108.748V46.2691Z" fill="#1462B0"/>
<path d="M113.01 49.3039C112.942 49.308 112.874 49.2982 112.81 49.2752C112.746 49.2521 112.687 49.2163 112.637 49.1698C112.591 49.1175 112.556 49.0564 112.533 48.9902C112.511 48.9239 112.502 48.8539 112.507 48.7842V43.948C112.502 43.8789 112.511 43.8095 112.533 43.7439C112.555 43.6783 112.591 43.618 112.637 43.5666C112.687 43.5202 112.746 43.4843 112.81 43.4613C112.874 43.4382 112.942 43.4285 113.01 43.4325C113.079 43.4288 113.148 43.4386 113.214 43.4617C113.279 43.4847 113.339 43.5203 113.391 43.5666C113.438 43.6176 113.474 43.6778 113.497 43.7434C113.52 43.809 113.53 43.8786 113.525 43.948V46.0434H113.407C113.515 45.7683 113.713 45.5379 113.968 45.3897C114.222 45.2398 114.511 45.1616 114.806 45.1633C115.081 45.1514 115.354 45.2136 115.597 45.3436C115.806 45.4682 115.969 45.6581 116.061 45.8842C116.172 46.1771 116.225 46.4889 116.216 46.802V48.7842C116.221 48.8542 116.211 48.9244 116.188 48.9906C116.165 49.0569 116.129 49.1178 116.082 49.1698C116.033 49.2167 115.974 49.2528 115.91 49.2759C115.846 49.2989 115.778 49.3085 115.71 49.3039C115.64 49.3106 115.57 49.3017 115.505 49.2778C115.439 49.2539 115.38 49.2157 115.331 49.1659C115.282 49.1161 115.245 49.056 115.222 48.99C115.199 48.9239 115.191 48.8537 115.199 48.7842V46.8606C115.219 46.6222 115.157 46.3841 115.023 46.1859C114.956 46.1113 114.872 46.0532 114.778 46.0161C114.684 45.9791 114.584 45.964 114.483 45.9722C114.351 45.9663 114.219 45.9887 114.097 46.0378C113.974 46.0869 113.863 46.1617 113.772 46.2572C113.589 46.4598 113.494 46.7265 113.508 46.9989V48.7842C113.518 48.853 113.512 48.9231 113.491 48.9892C113.47 49.0553 113.434 49.1157 113.386 49.1658C113.338 49.2159 113.279 49.2544 113.214 49.2783C113.148 49.3022 113.079 49.311 113.01 49.3039Z" fill="#1462B0"/>
<path d="M118.175 49.3205C117.908 49.3267 117.644 49.2693 117.405 49.1528C117.191 49.0527 117.009 48.8963 116.877 48.7002C116.75 48.5108 116.683 48.2873 116.685 48.059C116.67 47.8063 116.753 47.5576 116.915 47.3633C117.118 47.1655 117.376 47.0352 117.656 46.9903C118.108 46.9049 118.568 46.867 119.029 46.8772H119.447V47.4639H119.029C118.759 47.4593 118.488 47.4761 118.221 47.5142C118.068 47.5294 117.923 47.5875 117.802 47.6818C117.759 47.724 117.725 47.7751 117.704 47.8315C117.682 47.8879 117.673 47.9484 117.677 48.0087C117.674 48.0914 117.69 48.1736 117.722 48.2497C117.755 48.3257 117.803 48.3937 117.865 48.4488C118.01 48.5698 118.196 48.6312 118.384 48.6206C118.552 48.6238 118.717 48.5802 118.861 48.4949C119 48.4094 119.114 48.2896 119.192 48.147C119.274 47.9923 119.316 47.8193 119.313 47.6441V46.6886C119.324 46.5844 119.313 46.4792 119.282 46.3792C119.251 46.2792 119.201 46.1863 119.133 46.1061C118.964 45.9698 118.747 45.9052 118.531 45.9259C118.36 45.9268 118.191 45.945 118.024 45.9803C117.826 46.0246 117.634 46.0907 117.451 46.1773C117.368 46.224 117.271 46.2389 117.179 46.2192C117.103 46.1992 117.037 46.1513 116.994 46.0851C116.952 46.0172 116.931 45.9387 116.932 45.8588C116.933 45.7752 116.954 45.6932 116.994 45.6199C117.046 45.5373 117.124 45.475 117.216 45.4439C117.448 45.3463 117.689 45.2733 117.936 45.226C118.143 45.1831 118.353 45.1606 118.564 45.1589C118.894 45.1465 119.223 45.208 119.527 45.3392C119.77 45.4513 119.969 45.6415 120.092 45.8798C120.228 46.1705 120.292 46.4894 120.28 46.8101V48.784C120.29 48.9232 120.246 49.0608 120.159 49.1696C120.113 49.2157 120.058 49.2515 119.998 49.2746C119.937 49.2977 119.872 49.3076 119.807 49.3037C119.743 49.3071 119.678 49.297 119.617 49.2739C119.557 49.2508 119.502 49.2153 119.456 49.1696C119.365 49.0623 119.32 48.924 119.33 48.784V48.3901H119.393C119.362 48.5686 119.287 48.7367 119.175 48.8793C119.064 49.0219 118.918 49.1346 118.753 49.2073C118.57 49.2858 118.373 49.3243 118.175 49.3205ZM118.987 44.6812C118.965 44.7148 118.937 44.7437 118.904 44.7661C118.871 44.7884 118.834 44.8037 118.794 44.8111C118.718 44.8204 118.64 44.8058 118.573 44.7692C118.504 44.7346 118.451 44.6766 118.422 44.6058C118.408 44.5675 118.402 44.5266 118.406 44.4861C118.41 44.4455 118.422 44.4062 118.443 44.3711L119.062 43.1557C119.08 43.1117 119.106 43.0717 119.139 43.0378C119.172 43.004 119.211 42.9771 119.255 42.9588C119.337 42.933 119.424 42.933 119.506 42.9588C119.591 42.9786 119.669 43.0206 119.732 43.0803C119.797 43.1397 119.837 43.2208 119.846 43.3082C119.854 43.3956 119.83 43.4831 119.778 43.5538L118.987 44.6812Z" fill="#1462B0"/>
<path d="M121.402 50.7709C121.335 50.7751 121.267 50.7657 121.203 50.7434C121.139 50.7211 121.08 50.6863 121.03 50.641C120.983 50.5886 120.948 50.5275 120.926 50.4613C120.904 50.3951 120.895 50.3251 120.9 50.2554V45.7042C120.895 45.6351 120.904 45.5658 120.926 45.5003C120.948 45.4347 120.984 45.3744 121.03 45.3228C121.078 45.2769 121.135 45.2416 121.198 45.2193C121.261 45.1969 121.327 45.1879 121.394 45.1929C121.461 45.1878 121.529 45.1966 121.594 45.219C121.658 45.2413 121.716 45.2767 121.766 45.3228C121.812 45.3744 121.848 45.4347 121.87 45.5003C121.892 45.5658 121.901 45.6351 121.896 45.7042V46.3412L121.808 46.0981C121.89 45.8217 122.068 45.5838 122.311 45.4276C122.572 45.2571 122.878 45.1695 123.19 45.1761C123.513 45.1695 123.831 45.2569 124.106 45.4276C124.374 45.6027 124.587 45.8496 124.722 46.14C125.012 46.8476 125.012 47.641 124.722 48.3486C124.59 48.6418 124.378 48.8918 124.11 49.0694C123.834 49.2409 123.514 49.3283 123.19 49.3209C122.881 49.3263 122.578 49.2403 122.319 49.0736C122.084 48.9195 121.907 48.6908 121.817 48.424H121.913V50.2554C121.918 50.3255 121.909 50.3959 121.886 50.4623C121.863 50.5287 121.827 50.5895 121.779 50.641C121.675 50.7319 121.54 50.7786 121.402 50.7709ZM122.905 48.5456C123.094 48.5529 123.282 48.5007 123.44 48.3963C123.598 48.2918 123.72 48.1403 123.788 47.963C123.878 47.7352 123.921 47.4913 123.914 47.2464C123.94 46.8984 123.842 46.5525 123.637 46.2699C123.547 46.165 123.434 46.0818 123.308 46.0266C123.181 45.9715 123.043 45.9458 122.905 45.9514C122.719 45.9467 122.536 45.9962 122.377 46.0939C122.22 46.1944 122.098 46.3406 122.026 46.513C121.932 46.7413 121.888 46.987 121.896 47.2338C121.871 47.581 121.97 47.9257 122.177 48.2061C122.264 48.3148 122.375 48.402 122.501 48.4608C122.628 48.5197 122.766 48.5487 122.905 48.5456Z" fill="#1462B0"/>
<path d="M127.802 49.2366C127.727 49.2469 127.651 49.2397 127.579 49.2156C127.507 49.1915 127.442 49.1511 127.388 49.0976C127.334 49.0441 127.293 48.9789 127.268 48.9071C127.244 48.8353 127.236 48.7587 127.246 48.6834V44.0525C127.24 43.9767 127.25 43.9005 127.274 43.8285C127.299 43.7564 127.337 43.6901 127.388 43.6334C127.445 43.5825 127.511 43.5436 127.583 43.5192C127.655 43.4947 127.731 43.4851 127.807 43.4909H130.733C130.789 43.4861 130.846 43.4929 130.9 43.5109C130.954 43.529 131.004 43.5578 131.047 43.5957C131.084 43.6364 131.112 43.684 131.131 43.7357C131.15 43.7875 131.158 43.8425 131.155 43.8974C131.16 43.9545 131.152 44.0118 131.133 44.0659C131.115 44.1199 131.085 44.1696 131.047 44.2118C130.96 44.2878 130.847 44.3269 130.733 44.3207H128.263V45.9007H130.54C130.597 45.8953 130.655 45.9018 130.71 45.9198C130.765 45.9378 130.815 45.967 130.858 46.0054C130.926 46.0945 130.963 46.2035 130.963 46.3156C130.963 46.4276 130.926 46.5366 130.858 46.6257C130.815 46.6641 130.765 46.6933 130.71 46.7113C130.655 46.7293 130.597 46.7359 130.54 46.7305H128.263V48.4068H130.733C130.847 48.4006 130.96 48.4397 131.047 48.5158C131.084 48.5569 131.113 48.6052 131.132 48.6577C131.15 48.7103 131.158 48.766 131.155 48.8217C131.159 48.8781 131.151 48.9346 131.133 48.9879C131.114 49.0412 131.085 49.0901 131.047 49.1318C131.004 49.1697 130.954 49.1986 130.9 49.2166C130.846 49.2346 130.789 49.2414 130.733 49.2366H127.802Z" fill="#1462B0"/>
<path d="M132.231 49.3041C132.161 49.3092 132.09 49.299 132.023 49.2745C131.957 49.2499 131.897 49.2114 131.846 49.1617C131.753 49.0524 131.705 48.9114 131.712 48.7677V44.0279C131.707 43.9562 131.717 43.8843 131.74 43.8165C131.764 43.7488 131.802 43.6866 131.85 43.6339C131.958 43.5399 132.097 43.4918 132.24 43.4998H134.199C134.724 43.4648 135.243 43.6261 135.655 43.9524C135.828 44.1112 135.963 44.3063 136.052 44.5237C136.14 44.7411 136.179 44.9754 136.166 45.2097C136.176 45.5284 136.096 45.8435 135.936 46.1191C135.778 46.3788 135.544 46.5836 135.266 46.7058C134.93 46.8515 134.565 46.9216 134.199 46.9112L134.274 46.7896H134.542C134.748 46.7854 134.95 46.8423 135.124 46.9531C135.303 47.087 135.446 47.2625 135.542 47.4644L136.149 48.5959C136.212 48.6963 136.244 48.8128 136.241 48.9312C136.24 48.9812 136.229 49.0304 136.208 49.0758C136.187 49.1212 136.157 49.1619 136.12 49.1952C136.024 49.2685 135.905 49.3042 135.785 49.2958C135.66 49.302 135.536 49.2699 135.429 49.2036C135.326 49.1274 135.242 49.0285 135.182 48.9144L134.345 47.3973C134.273 47.2406 134.153 47.1112 134.002 47.0285C133.84 46.9612 133.666 46.9297 133.491 46.9363H132.721V48.7845C132.728 48.9273 132.682 49.0677 132.591 49.1784C132.493 49.2661 132.363 49.3112 132.231 49.3041ZM132.755 46.1694H134.01C134.307 46.1881 134.602 46.107 134.848 45.9389C134.947 45.8535 135.024 45.7462 135.074 45.6254C135.125 45.5046 135.146 45.3737 135.136 45.2432C135.144 45.1141 135.123 44.9849 135.072 44.8656C135.022 44.7464 134.945 44.6404 134.848 44.5559C134.602 44.3864 134.308 44.3038 134.01 44.3212H132.755V46.1694Z" fill="#1462B0"/>
<path d="M137.405 49.3033C137.334 49.3083 137.263 49.2982 137.197 49.2736C137.131 49.249 137.07 49.2106 137.02 49.1608C136.972 49.1074 136.935 49.0452 136.912 48.9776C136.888 48.91 136.878 48.8384 136.882 48.7668V44.027C136.877 43.9554 136.886 43.8834 136.91 43.8157C136.934 43.7479 136.971 43.6857 137.02 43.6331C137.129 43.5388 137.27 43.4907 137.413 43.499H139.372C139.9 43.4669 140.421 43.6361 140.829 43.9725C141.003 44.1427 141.139 44.3481 141.227 44.5751C141.315 44.8021 141.353 45.0453 141.34 45.2885C141.353 45.5328 141.315 45.7773 141.227 46.0056C141.139 46.2339 141.003 46.4409 140.829 46.6128C140.423 46.9534 139.901 47.1244 139.372 47.0905H137.924V48.7668C137.933 48.91 137.887 49.0511 137.794 49.1608C137.743 49.2111 137.682 49.2499 137.615 49.2745C137.548 49.2991 137.476 49.3089 137.405 49.3033ZM137.924 46.2691H139.209C139.51 46.2911 139.808 46.2016 140.046 46.0177C140.23 45.82 140.331 45.5603 140.331 45.2906C140.331 45.0208 140.23 44.7611 140.046 44.5634C139.805 44.3849 139.508 44.2987 139.209 44.3204H137.924V46.2691Z" fill="#1462B0"/>
<path d="M146.145 49.3206C145.637 49.3321 145.135 49.2061 144.692 48.956C144.28 48.7114 143.946 48.3537 143.73 47.9251C143.493 47.4402 143.375 46.9057 143.386 46.3661C143.381 45.9512 143.448 45.5386 143.583 45.1465C143.704 44.803 143.893 44.4878 144.14 44.2203C144.383 43.9605 144.68 43.7574 145.011 43.6253C145.372 43.4834 145.757 43.4137 146.145 43.4199C146.654 43.4066 147.157 43.5311 147.602 43.7803C148.012 44.0233 148.344 44.3779 148.56 44.8029C148.796 45.2864 148.913 45.8197 148.899 46.3577C148.905 46.7722 148.84 47.1848 148.707 47.5772C148.585 47.9241 148.396 48.2432 148.15 48.516C147.907 48.7758 147.61 48.9789 147.279 49.1111C146.918 49.2543 146.533 49.3255 146.145 49.3206ZM146.145 48.4238C146.462 48.434 146.776 48.3494 147.045 48.1807C147.301 48.0063 147.499 47.7598 147.614 47.4724C147.752 47.1203 147.819 46.7443 147.811 46.3661C147.851 45.8271 147.703 45.2911 147.392 44.849C147.243 44.6697 147.054 44.5278 146.841 44.4346C146.627 44.3415 146.394 44.2997 146.162 44.3125C145.846 44.3034 145.534 44.3879 145.266 44.5556C145.008 44.7254 144.808 44.9695 144.692 45.2555C144.553 45.6087 144.486 45.9864 144.496 46.3661C144.458 46.9035 144.605 47.4377 144.914 47.879C145.062 48.0606 145.25 48.2046 145.464 48.2993C145.678 48.394 145.911 48.4366 146.145 48.4238ZM148.338 50.1588C148.411 50.2514 148.444 50.3688 148.43 50.4857C148.417 50.5805 148.371 50.6678 148.301 50.7329C148.229 50.8013 148.139 50.8465 148.041 50.8628C147.937 50.8831 147.829 50.8715 147.731 50.8293C147.621 50.7855 147.529 50.7038 147.472 50.5988L146.911 49.6936C146.836 49.5743 146.731 49.4774 146.605 49.4128C146.458 49.3469 146.298 49.3153 146.137 49.3206L146.94 49.0021C147.152 48.9926 147.363 49.0388 147.551 49.1362C147.731 49.2578 147.881 49.4182 147.991 49.6056L148.338 50.1588Z" fill="#1462B0"/>
<path d="M150.892 49.3204C150.601 49.3327 150.313 49.2692 150.055 49.136C149.837 49.0129 149.667 48.8193 149.573 48.587C149.458 48.2982 149.403 47.9885 149.414 47.6776V45.7037C149.404 45.6349 149.41 45.5647 149.431 45.4985C149.452 45.4323 149.489 45.372 149.538 45.3224C149.586 45.2728 149.646 45.2353 149.712 45.2127C149.778 45.1902 149.848 45.1832 149.916 45.1924C150.054 45.1832 150.189 45.2283 150.293 45.3182C150.342 45.369 150.38 45.4296 150.404 45.4961C150.427 45.5626 150.437 45.6333 150.431 45.7037V47.6902C150.413 47.9128 150.472 48.135 150.599 48.3188C150.669 48.3908 150.754 48.4465 150.848 48.482C150.942 48.5175 151.043 48.5319 151.143 48.5242C151.268 48.5273 151.392 48.5039 151.508 48.4555C151.623 48.4071 151.727 48.3348 151.813 48.2434C151.992 48.0372 152.084 47.7702 152.072 47.4974V45.7037C152.066 45.634 152.075 45.5638 152.097 45.4975C152.119 45.4311 152.155 45.3701 152.202 45.3182C152.305 45.229 152.439 45.1838 152.575 45.1924C152.713 45.1843 152.849 45.2292 152.955 45.3182C153.003 45.3698 153.039 45.4306 153.063 45.497C153.086 45.5633 153.095 45.6337 153.089 45.7037V48.784C153.089 49.1318 152.922 49.3037 152.591 49.3037C152.525 49.3071 152.458 49.297 152.395 49.2739C152.333 49.2509 152.276 49.2154 152.227 49.1696C152.181 49.1172 152.146 49.0561 152.123 48.9899C152.101 48.9237 152.092 48.8537 152.097 48.784V48.1637L152.21 48.4068C152.112 48.6806 151.932 48.9175 151.695 49.0857C151.457 49.2417 151.177 49.3234 150.892 49.3204Z" fill="#1462B0"/>
<path d="M155.065 49.3207C154.799 49.327 154.535 49.2695 154.295 49.1531C154.077 49.0549 153.89 48.8983 153.755 48.7005C153.628 48.5111 153.561 48.2875 153.563 48.0593C153.548 47.8065 153.631 47.5578 153.793 47.3636C153.995 47.1658 154.254 47.0355 154.534 46.9906C154.986 46.9052 155.446 46.8673 155.907 46.8775H156.325V47.4642H155.928C155.657 47.4596 155.387 47.4764 155.12 47.5145C154.967 47.5297 154.822 47.5878 154.701 47.6821C154.658 47.7243 154.624 47.7753 154.603 47.8318C154.581 47.8882 154.572 47.9486 154.576 48.009C154.573 48.0916 154.588 48.1739 154.621 48.2499C154.654 48.326 154.702 48.3939 154.764 48.449C154.909 48.5701 155.094 48.6315 155.283 48.6208C155.451 48.624 155.616 48.5805 155.76 48.4951C155.899 48.4097 156.012 48.2899 156.091 48.1473C156.173 47.9926 156.215 47.8196 156.212 47.6444V46.6889C156.222 46.5847 156.212 46.4795 156.181 46.3795C156.15 46.2794 156.099 46.1866 156.032 46.1063C155.862 45.9701 155.646 45.9055 155.43 45.9261C155.259 45.927 155.09 45.9453 154.923 45.9806C154.725 46.0242 154.533 46.0903 154.35 46.1776C154.267 46.2243 154.17 46.2392 154.077 46.2195C154.001 46.1994 153.936 46.1516 153.893 46.0854C153.851 46.0175 153.829 45.939 153.831 45.8591C153.831 45.7755 153.853 45.6934 153.893 45.6202C153.945 45.5375 154.023 45.4753 154.115 45.4442C154.347 45.3466 154.588 45.2735 154.835 45.2263C155.042 45.1833 155.252 45.1608 155.463 45.1592C155.793 45.1467 156.122 45.2083 156.426 45.3394C156.669 45.4515 156.868 45.6418 156.991 45.88C157.127 46.1708 157.191 46.4897 157.179 46.8104V48.7843C157.188 48.9235 157.145 49.0611 157.058 49.1698C157.012 49.2159 156.957 49.2517 156.896 49.2749C156.836 49.298 156.771 49.3079 156.706 49.3039C156.642 49.3074 156.577 49.2972 156.516 49.2741C156.456 49.251 156.401 49.2155 156.355 49.1698C156.264 49.0625 156.219 48.9242 156.229 48.7843V48.3903H156.267C156.236 48.5689 156.161 48.737 156.049 48.8796C155.937 49.0222 155.792 49.1348 155.626 49.2076C155.449 49.2837 155.258 49.3222 155.065 49.3207ZM155.484 44.7946C155.403 44.7977 155.323 44.7773 155.254 44.7359C155.227 44.7179 155.206 44.6933 155.192 44.6647C155.178 44.6361 155.172 44.6043 155.174 44.5725C155.169 44.4704 155.193 44.369 155.241 44.2791C155.285 44.204 155.338 44.135 155.4 44.0738C155.463 44.0151 155.513 43.9606 155.559 43.9103C155.606 43.8602 155.631 43.7942 155.63 43.7259C155.631 43.695 155.624 43.6644 155.609 43.6372C155.595 43.6099 155.573 43.5871 155.547 43.5709C155.471 43.5362 155.387 43.5204 155.304 43.5248H155.166C155.113 43.5303 155.061 43.5416 155.011 43.5583C154.941 43.578 154.867 43.578 154.797 43.5583C154.768 43.549 154.742 43.5327 154.721 43.5108C154.7 43.4888 154.684 43.462 154.676 43.4326C154.651 43.3694 154.651 43.2988 154.676 43.2356C154.693 43.2012 154.717 43.1708 154.747 43.1463C154.776 43.1217 154.811 43.1036 154.848 43.0931C154.952 43.0534 155.06 43.0253 155.17 43.0093C155.289 42.9924 155.41 42.984 155.53 42.9842C155.753 42.972 155.976 43.0243 156.17 43.135C156.242 43.1791 156.3 43.2408 156.341 43.3143C156.381 43.3877 156.402 43.4703 156.401 43.5541C156.407 43.6716 156.375 43.7879 156.309 43.8852C156.248 43.9665 156.176 44.0386 156.095 44.0989C156.021 44.1588 155.952 44.2232 155.886 44.2917C155.823 44.3616 155.79 44.4534 155.794 44.5473C155.795 44.5772 155.788 44.6069 155.774 44.6334C155.76 44.6598 155.739 44.6822 155.714 44.6982C155.653 44.7523 155.577 44.786 155.496 44.7946H155.484Z" fill="#1462B0"/>
<path d="M158.301 49.3035C158.233 49.3081 158.165 49.2986 158.101 49.2755C158.037 49.2524 157.978 49.2163 157.929 49.1694C157.882 49.1171 157.847 49.056 157.825 48.9898C157.802 48.9236 157.794 48.8536 157.799 48.7839V45.7036C157.794 45.6346 157.803 45.5652 157.825 45.4997C157.847 45.4342 157.882 45.3738 157.929 45.3222C158.032 45.2385 158.16 45.1928 158.293 45.1928C158.425 45.1928 158.554 45.2385 158.657 45.3222C158.704 45.3735 158.74 45.4337 158.763 45.4992C158.786 45.5648 158.795 45.6343 158.791 45.7036V46.2694L158.699 46.064C158.806 45.79 159.002 45.5599 159.255 45.4102C159.515 45.2573 159.812 45.179 160.114 45.1839C160.389 45.1726 160.662 45.2348 160.905 45.3641C161.114 45.4878 161.276 45.6781 161.365 45.9048C161.478 46.1972 161.531 46.5093 161.52 46.8226V48.7839C161.525 48.8536 161.516 48.9236 161.494 48.9898C161.472 49.056 161.437 49.1171 161.39 49.1694C161.34 49.2159 161.282 49.2517 161.218 49.2748C161.154 49.2978 161.086 49.3076 161.018 49.3035C160.948 49.3109 160.877 49.3025 160.811 49.2789C160.745 49.2553 160.685 49.2172 160.636 49.1673C160.586 49.1174 160.549 49.0571 160.526 48.9907C160.503 48.9244 160.495 48.8537 160.503 48.7839V46.8603C160.522 46.6225 160.461 46.3852 160.331 46.1855C160.264 46.1109 160.18 46.0528 160.086 46.0157C159.992 45.9787 159.892 45.9637 159.791 45.9718C159.659 45.9657 159.527 45.9879 159.405 46.0371C159.282 46.0862 159.171 46.1611 159.08 46.2568C158.988 46.3563 158.917 46.4731 158.871 46.6005C158.825 46.7279 158.805 46.8633 158.812 46.9986V48.7839C158.823 48.8539 158.818 48.9256 158.796 48.9932C158.774 49.0608 158.737 49.1224 158.688 49.173C158.638 49.2235 158.577 49.2617 158.51 49.2844C158.443 49.3071 158.371 49.3136 158.301 49.3035Z" fill="#1462B0"/>
<path d="M165.764 49.3201C165.46 49.3306 165.157 49.2689 164.881 49.1399C164.653 49.029 164.469 48.8445 164.358 48.616C164.236 48.3465 164.177 48.0526 164.186 47.7569V46.0219H163.768C163.659 46.0282 163.553 45.9921 163.47 45.9213C163.434 45.8846 163.405 45.8407 163.386 45.7924C163.368 45.744 163.359 45.6923 163.362 45.6405C163.358 45.5879 163.366 45.5353 163.385 45.4861C163.404 45.4369 163.433 45.3923 163.47 45.3555C163.553 45.2862 163.66 45.2517 163.768 45.2591H164.186V44.5174C164.181 44.448 164.191 44.3783 164.214 44.3127C164.237 44.2471 164.273 44.187 164.32 44.136C164.372 44.0897 164.432 44.054 164.497 44.031C164.563 44.008 164.632 43.9981 164.701 44.0019C164.769 43.9978 164.837 44.0076 164.901 44.0306C164.965 44.0537 165.024 44.0895 165.074 44.136C165.12 44.1873 165.156 44.2476 165.178 44.3132C165.2 44.3788 165.209 44.4483 165.203 44.5174V45.2591H166.066C166.175 45.2505 166.283 45.2852 166.367 45.3555C166.404 45.3925 166.433 45.4372 166.451 45.4864C166.469 45.5357 166.476 45.5882 166.472 45.6405C166.475 45.692 166.467 45.7436 166.449 45.792C166.431 45.8404 166.403 45.8844 166.367 45.9213C166.284 45.9932 166.176 46.0293 166.066 46.0219H165.203V47.6982C165.188 47.9081 165.249 48.1167 165.375 48.2849C165.447 48.3559 165.534 48.4102 165.63 48.4442C165.725 48.4782 165.827 48.4911 165.928 48.4819C166.009 48.4832 166.091 48.4747 166.17 48.4567L166.359 48.4232C166.389 48.4201 166.42 48.4241 166.448 48.435C166.476 48.4459 166.502 48.4634 166.522 48.4861C166.575 48.5693 166.598 48.6688 166.585 48.7669C166.587 48.8656 166.57 48.9637 166.535 49.056C166.516 49.0972 166.49 49.1341 166.457 49.1644C166.424 49.1947 166.385 49.2178 166.342 49.2321C166.251 49.2579 166.159 49.2775 166.066 49.2907C165.966 49.3096 165.865 49.3194 165.764 49.3201Z" fill="#1462B0"/>
<path d="M167.179 49.3036C167.109 49.3116 167.038 49.3037 166.972 49.2804C166.905 49.2572 166.844 49.2191 166.795 49.1692C166.745 49.1192 166.707 49.0586 166.683 48.9919C166.66 48.9252 166.652 48.8541 166.66 48.7839V45.7037C166.655 45.6346 166.664 45.5653 166.686 45.4998C166.709 45.4342 166.744 45.3739 166.79 45.3223C166.894 45.2383 167.023 45.1924 167.156 45.1924C167.29 45.1924 167.419 45.2383 167.523 45.3223C167.614 45.4275 167.661 45.5644 167.652 45.7037V46.2191H167.569C167.625 45.9265 167.784 45.6636 168.016 45.4774C168.278 45.2959 168.586 45.1914 168.904 45.1756C168.953 45.168 169.003 45.172 169.05 45.1873C169.098 45.2026 169.141 45.2287 169.176 45.2636C169.251 45.3493 169.293 45.4595 169.293 45.5737C169.302 45.6323 169.298 45.6921 169.283 45.7492C169.267 45.8062 169.239 45.8593 169.201 45.9048C169.114 45.9947 168.996 46.0485 168.87 46.0557H168.695C168.417 46.0657 168.151 46.1741 167.945 46.3616C167.858 46.459 167.79 46.5729 167.747 46.6967C167.704 46.8205 167.686 46.9516 167.694 47.0825V48.7588C167.699 48.8288 167.689 48.8989 167.666 48.9652C167.643 49.0314 167.607 49.0923 167.56 49.1443C167.511 49.1962 167.452 49.2371 167.387 49.2646C167.321 49.292 167.25 49.3053 167.179 49.3036Z" fill="#1462B0"/>
<path d="M169.946 44.4426C169.786 44.4538 169.627 44.4028 169.502 44.3001C169.401 44.1933 169.344 44.0515 169.344 43.9041C169.344 43.7566 169.401 43.6148 169.502 43.508C169.628 43.4086 169.786 43.3594 169.946 43.3697C170.106 43.3586 170.265 43.4079 170.39 43.508C170.49 43.6157 170.545 43.7572 170.545 43.9041C170.545 44.0509 170.49 44.1924 170.39 44.3001C170.266 44.4032 170.107 44.4543 169.946 44.4426ZM169.946 50.9384C169.875 50.9439 169.803 50.9348 169.736 50.9118C169.668 50.8887 169.606 50.8521 169.553 50.8043C169.505 50.7544 169.468 50.6952 169.444 50.6302C169.42 50.5653 169.41 50.4961 169.415 50.4271C169.41 50.3587 169.42 50.29 169.443 50.2257C169.467 50.1613 169.505 50.1029 169.553 50.0541C169.662 49.9606 169.803 49.9139 169.946 49.9242C170.091 49.9141 170.233 49.9607 170.344 50.0541C170.392 50.1029 170.429 50.1613 170.453 50.2257C170.477 50.29 170.487 50.3587 170.482 50.4271C170.486 50.4961 170.476 50.5653 170.453 50.6302C170.429 50.6952 170.392 50.7544 170.344 50.8043C170.29 50.8521 170.227 50.8885 170.159 50.9116C170.09 50.9346 170.018 50.9437 169.946 50.9384ZM169.946 49.2956C169.877 49.2996 169.807 49.2887 169.742 49.2633C169.677 49.238 169.618 49.199 169.569 49.1489C169.476 49.0302 169.429 48.8808 169.44 48.7298V45.7417C169.429 45.5907 169.475 45.4411 169.569 45.3226C169.618 45.2731 169.677 45.2347 169.742 45.2101C169.807 45.1855 169.877 45.1753 169.946 45.1802C170.015 45.1758 170.085 45.1863 170.15 45.2108C170.215 45.2354 170.274 45.2735 170.323 45.3226C170.421 45.4394 170.469 45.5899 170.457 45.7417V48.7298C170.469 48.881 170.423 49.0313 170.327 49.1489C170.278 49.1993 170.218 49.2385 170.153 49.2639C170.087 49.2892 170.016 49.3 169.946 49.2956Z" fill="#1462B0"/>
<path d="M173.278 47.464C173.167 47.4658 173.061 47.4236 172.981 47.3466C172.943 47.3089 172.913 47.2638 172.892 47.2141C172.872 47.1643 172.863 47.111 172.864 47.0573C172.861 47.0028 172.87 46.9484 172.891 46.8978C172.911 46.8471 172.942 46.8014 172.981 46.7637C173.061 46.6883 173.168 46.6476 173.278 46.6505H175.011C175.118 46.6498 175.222 46.6904 175.3 46.7637C175.339 46.8014 175.37 46.8471 175.39 46.8978C175.41 46.9484 175.42 47.0028 175.417 47.0573C175.417 47.1685 175.373 47.2751 175.294 47.3538C175.216 47.4324 175.11 47.4766 174.999 47.4766L173.278 47.464Z" fill="#1462B0"/>
<path d="M180.198 49.3041C180.07 49.3099 179.944 49.2747 179.838 49.2035C179.734 49.1239 179.653 49.0184 179.603 48.8976L177.481 44.1284C177.424 44.0172 177.408 43.8899 177.435 43.768C177.46 43.6687 177.521 43.5822 177.606 43.525C177.696 43.4634 177.803 43.4312 177.912 43.4328C178.039 43.4245 178.165 43.4617 178.268 43.5375C178.358 43.6216 178.425 43.7267 178.465 43.8435L180.394 48.3109H180.043L181.964 43.8351C182.011 43.7217 182.083 43.6202 182.173 43.5375C182.272 43.4638 182.393 43.4268 182.517 43.4328C182.623 43.4306 182.727 43.463 182.814 43.525C182.891 43.5858 182.944 43.6718 182.964 43.768C182.982 43.8913 182.961 44.017 182.906 44.1284L180.784 48.8976C180.736 49.0166 180.66 49.1218 180.562 49.2035C180.454 49.275 180.327 49.3102 180.198 49.3041Z" fill="#1462B0"/>
<path d="M184.526 49.3203C184.26 49.3266 183.995 49.2691 183.756 49.1526C183.541 49.0544 183.358 48.8976 183.228 48.7C183.099 48.5115 183.032 48.2874 183.036 48.0588C183.022 47.8061 183.104 47.5574 183.266 47.3632C183.468 47.1661 183.725 47.0359 184.003 46.9902C184.457 46.9048 184.918 46.8669 185.38 46.877H185.798V47.4637H185.401C185.131 47.4592 184.86 47.476 184.593 47.514C184.44 47.5276 184.294 47.5859 184.174 47.6817C184.131 47.7239 184.097 47.7749 184.076 47.8313C184.054 47.8878 184.045 47.9482 184.049 48.0085C184.046 48.0912 184.062 48.1735 184.094 48.2495C184.127 48.3255 184.175 48.3935 184.237 48.4486C184.382 48.5696 184.568 48.631 184.756 48.6204C184.924 48.6236 185.089 48.5801 185.233 48.4947C185.372 48.4093 185.486 48.2894 185.564 48.1468C185.646 47.9921 185.688 47.8191 185.685 47.6439V46.6884C185.704 46.4782 185.639 46.2691 185.505 46.1059C185.336 45.9697 185.119 45.905 184.903 45.9257C184.732 45.9266 184.563 45.9449 184.396 45.9802C184.198 46.0238 184.006 46.0899 183.823 46.1771C183.74 46.2235 183.643 46.2383 183.551 46.2191C183.474 46.2002 183.408 46.152 183.366 46.0849C183.323 46.0175 183.3 45.9389 183.299 45.8586C183.302 45.7747 183.325 45.6928 183.366 45.6198C183.415 45.5361 183.492 45.4734 183.584 45.4438C183.816 45.3472 184.057 45.2742 184.304 45.2258C184.512 45.1829 184.724 45.1604 184.936 45.1588C185.266 45.1463 185.595 45.2079 185.899 45.339C186.142 45.4511 186.341 45.6414 186.464 45.8796C186.6 46.1703 186.664 46.4893 186.652 46.81V48.7839C186.662 48.9231 186.618 49.0606 186.531 49.1694C186.434 49.256 186.309 49.3039 186.179 49.3039C186.05 49.3039 185.924 49.256 185.828 49.1694C185.738 49.0621 185.692 48.9238 185.702 48.7839V48.3899H185.765C185.734 48.5685 185.659 48.7365 185.547 48.8791C185.436 49.0217 185.29 49.1344 185.125 49.2071C184.935 49.2877 184.731 49.3263 184.526 49.3203ZM186.108 44.3793C186.132 44.4128 186.148 44.4516 186.154 44.4925C186.16 44.5334 186.155 44.575 186.142 44.614C186.13 44.6484 186.112 44.6802 186.089 44.7075C186.065 44.7349 186.036 44.7572 186.004 44.7732C185.941 44.8065 185.869 44.8197 185.798 44.8109C185.76 44.804 185.724 44.7887 185.692 44.7663C185.66 44.7439 185.634 44.7148 185.614 44.681L184.957 43.6543L184.312 44.681C184.294 44.7145 184.268 44.7434 184.237 44.7658C184.206 44.7883 184.17 44.8037 184.132 44.8109C184.06 44.8197 183.988 44.8066 183.923 44.7732C183.86 44.7382 183.811 44.6818 183.785 44.614C183.773 44.5748 183.769 44.5334 183.775 44.4928C183.781 44.4521 183.796 44.4133 183.819 44.3793L184.405 43.3022C184.459 43.1907 184.541 43.0954 184.643 43.0256C184.743 42.9658 184.858 42.9353 184.974 42.9376C185.09 42.936 185.204 42.9664 185.305 43.0256C185.409 43.0948 185.495 43.1902 185.551 43.3022L186.108 44.3793ZM184.924 50.9379C184.853 50.9431 184.782 50.9339 184.715 50.9108C184.648 50.8878 184.587 50.8514 184.534 50.8038C184.486 50.754 184.449 50.6947 184.426 50.6298C184.402 50.5649 184.392 50.4957 184.396 50.4267C184.391 50.3582 184.401 50.2896 184.425 50.2252C184.449 50.1609 184.486 50.1024 184.534 50.0537C184.642 49.9608 184.782 49.9141 184.924 49.9238C184.999 49.9159 185.074 49.9234 185.146 49.9457C185.218 49.9681 185.285 50.0048 185.342 50.0537C185.39 50.1024 185.428 50.1609 185.451 50.2252C185.475 50.2896 185.485 50.3582 185.48 50.4267C185.485 50.4957 185.475 50.5649 185.451 50.6298C185.427 50.6947 185.39 50.754 185.342 50.8038C185.286 50.8543 185.219 50.8923 185.147 50.9155C185.075 50.9386 184.999 50.9462 184.924 50.9379Z" fill="#1462B0"/>
<path d="M187.761 49.3035C187.693 49.3077 187.624 49.298 187.559 49.2749C187.494 49.2519 187.435 49.216 187.384 49.1694C187.288 49.0647 187.237 48.9262 187.242 48.7839V45.7036C187.234 45.5644 187.28 45.4274 187.372 45.3222C187.421 45.2767 187.479 45.2416 187.543 45.2193C187.606 45.197 187.673 45.1878 187.74 45.1923C187.807 45.1879 187.873 45.1971 187.936 45.2194C187.998 45.2418 188.056 45.2768 188.104 45.3222C188.151 45.3738 188.186 45.4342 188.208 45.4997C188.23 45.5652 188.239 45.6346 188.234 45.7036V46.2694L188.146 46.064C188.252 45.7892 188.449 45.5587 188.703 45.4103C188.963 45.2574 189.26 45.1791 189.561 45.184C189.835 45.1725 190.107 45.2347 190.348 45.3642C190.559 45.4876 190.722 45.6778 190.813 45.9048C190.925 46.1972 190.978 46.5093 190.968 46.8226V48.7839C190.973 48.8536 190.964 48.9236 190.942 48.9898C190.919 49.056 190.884 49.1171 190.838 49.1694C190.788 49.2157 190.729 49.2514 190.665 49.2744C190.601 49.2975 190.533 49.3074 190.465 49.3035C190.397 49.3089 190.327 49.299 190.263 49.2745C190.198 49.2501 190.14 49.2116 190.092 49.162C190.044 49.1124 190.008 49.0527 189.985 48.9874C189.963 48.922 189.955 48.8525 189.963 48.7839V46.8603C189.983 46.6219 189.921 46.3838 189.787 46.1856C189.72 46.1104 189.636 46.0519 189.542 46.0148C189.449 45.9777 189.348 45.963 189.247 45.9718C189.115 45.9659 188.983 45.9883 188.861 46.0374C188.738 46.0866 188.627 46.1614 188.536 46.2568C188.353 46.4594 188.258 46.7261 188.272 46.9986V48.7839C188.282 48.8538 188.276 48.9251 188.254 48.9923C188.232 49.0595 188.195 49.1206 188.146 49.171C188.096 49.2214 188.036 49.2595 187.969 49.2825C187.902 49.3055 187.831 49.3127 187.761 49.3035Z" fill="#1462B0"/>
<path d="M193.906 49.3039C193.838 49.308 193.77 49.2982 193.706 49.2752C193.642 49.2521 193.584 49.2163 193.534 49.1698C193.488 49.1175 193.452 49.0564 193.43 48.9902C193.408 48.9239 193.399 48.8539 193.404 48.7842V43.948C193.398 43.8789 193.407 43.8095 193.429 43.7439C193.452 43.6783 193.487 43.618 193.534 43.5666C193.584 43.5202 193.642 43.4843 193.706 43.4613C193.77 43.4382 193.838 43.4285 193.906 43.4325C193.975 43.4288 194.045 43.4386 194.11 43.4617C194.175 43.4847 194.236 43.5203 194.287 43.5666C194.334 43.6176 194.371 43.6778 194.394 43.7434C194.417 43.809 194.426 43.8786 194.421 43.948V46.0434H194.308C194.413 45.7679 194.61 45.537 194.865 45.3897C195.125 45.2363 195.422 45.158 195.723 45.1633C195.997 45.1519 196.268 45.2141 196.51 45.3436C196.72 45.4682 196.883 45.6581 196.975 45.8842C197.085 46.1771 197.138 46.4889 197.129 46.802V48.7842C197.138 48.9248 197.091 49.0631 197 49.1698C196.928 49.249 196.833 49.3037 196.729 49.3263C196.625 49.3489 196.516 49.3381 196.418 49.2956C196.32 49.253 196.238 49.1808 196.183 49.0891C196.128 48.9974 196.103 48.8908 196.112 48.7842V46.8606C196.132 46.6222 196.07 46.3841 195.936 46.1859C195.869 46.1113 195.785 46.0532 195.691 46.0161C195.598 45.9791 195.497 45.964 195.396 45.9722C195.264 45.9663 195.133 45.9887 195.01 46.0378C194.887 46.0869 194.776 46.1617 194.685 46.2572C194.502 46.4598 194.408 46.7265 194.421 46.9989V48.7842C194.432 48.8545 194.426 48.9263 194.403 48.9938C194.381 49.0614 194.344 49.1228 194.294 49.1733C194.244 49.2237 194.183 49.2618 194.115 49.2845C194.048 49.3072 193.977 49.3138 193.906 49.3039Z" fill="#1462B0"/>
<path d="M199.063 49.3203C198.797 49.3266 198.533 49.2691 198.293 49.1527C198.079 49.0526 197.897 48.8961 197.766 48.7001C197.638 48.5107 197.571 48.2872 197.573 48.0589C197.561 47.8064 197.643 47.5585 197.803 47.3632C198.006 47.1654 198.265 47.0351 198.544 46.9902C198.997 46.9048 199.457 46.8669 199.917 46.8771H200.336V47.4638H199.938C199.669 47.4592 199.4 47.476 199.134 47.5141C198.982 47.5293 198.837 47.5874 198.716 47.6817C198.672 47.7239 198.639 47.775 198.617 47.8314C198.596 47.8878 198.586 47.9483 198.59 48.0086C198.587 48.0913 198.603 48.1735 198.636 48.2495C198.668 48.3256 198.717 48.3935 198.778 48.4486C198.924 48.5697 199.109 48.6311 199.298 48.6205C199.465 48.6236 199.63 48.5801 199.775 48.4947C199.913 48.4093 200.027 48.2895 200.105 48.1469C200.188 47.9922 200.229 47.8192 200.227 47.644V46.6885C200.237 46.5843 200.226 46.4791 200.195 46.3791C200.164 46.2791 200.114 46.1862 200.047 46.1059C199.877 45.9697 199.661 45.9051 199.444 45.9257C199.274 45.9267 199.104 45.9449 198.938 45.9802C198.74 46.0245 198.547 46.0905 198.364 46.1772C198.282 46.2239 198.185 46.2388 198.092 46.2191C198.016 46.1991 197.95 46.1512 197.908 46.085C197.866 46.0171 197.844 45.9386 197.845 45.8587C197.846 45.7751 197.868 45.693 197.908 45.6198C197.959 45.5371 198.038 45.4749 198.13 45.4438C198.362 45.3468 198.603 45.2737 198.85 45.2259C199.056 45.1829 199.267 45.1605 199.478 45.1588C199.808 45.1463 200.137 45.2079 200.44 45.339C200.685 45.4486 200.885 45.6396 201.005 45.8797C201.141 46.1704 201.206 46.4893 201.194 46.81V48.7839C201.203 48.9231 201.16 49.0607 201.072 49.1695C201.027 49.2156 200.972 49.2514 200.911 49.2745C200.85 49.2976 200.786 49.3075 200.721 49.3036C200.656 49.307 200.591 49.2968 200.531 49.2737C200.47 49.2506 200.415 49.2151 200.369 49.1695C200.279 49.0621 200.234 48.9239 200.244 48.7839V48.39H200.306C200.275 48.5685 200.201 48.7366 200.089 48.8792C199.977 49.0218 199.832 49.1345 199.666 49.2072C199.476 49.2892 199.27 49.3279 199.063 49.3203ZM199.122 44.6811L198.331 43.5412C198.278 43.4708 198.253 43.3831 198.262 43.2954C198.27 43.2077 198.311 43.1264 198.377 43.0676C198.438 43.009 198.513 42.9671 198.594 42.9461C198.676 42.9203 198.764 42.9203 198.845 42.9461C198.891 42.9635 198.932 42.99 198.966 43.0238C199.001 43.0577 199.028 43.0983 199.046 43.143L199.658 44.3584C199.677 44.3937 199.69 44.4328 199.694 44.4731C199.699 44.5135 199.695 44.5543 199.683 44.5931C199.654 44.6628 199.602 44.7206 199.536 44.7565C199.468 44.7929 199.391 44.8075 199.314 44.7984C199.276 44.793 199.239 44.7798 199.206 44.7596C199.173 44.7395 199.144 44.7127 199.122 44.6811Z" fill="#1462B0"/>
<path d="M202.311 49.3035C202.243 49.3081 202.175 49.2986 202.111 49.2755C202.047 49.2524 201.988 49.2163 201.939 49.1694C201.893 49.1171 201.857 49.056 201.835 48.9898C201.813 48.9236 201.804 48.8536 201.809 48.7839V45.7036C201.804 45.6346 201.813 45.5652 201.835 45.4997C201.857 45.4342 201.893 45.3738 201.939 45.3222C201.987 45.2768 202.045 45.2418 202.107 45.2194C202.17 45.1971 202.237 45.1879 202.303 45.1923C202.369 45.1873 202.436 45.1963 202.499 45.2187C202.562 45.2411 202.619 45.2763 202.667 45.3222C202.714 45.3735 202.75 45.4337 202.773 45.4992C202.796 45.5648 202.806 45.6343 202.801 45.7036V46.2694L202.709 46.064C202.817 45.79 203.013 45.5599 203.266 45.4102C203.526 45.2573 203.822 45.179 204.124 45.1839C204.399 45.1726 204.672 45.2348 204.915 45.3641C205.124 45.4878 205.287 45.6781 205.375 45.9048C205.488 46.1972 205.541 46.5093 205.53 46.8226V48.7839C205.535 48.8536 205.527 48.9236 205.504 48.9898C205.482 49.056 205.447 49.1171 205.401 49.1694C205.351 49.2163 205.292 49.2524 205.228 49.2755C205.164 49.2986 205.096 49.3081 205.028 49.3035C204.958 49.3101 204.888 49.3011 204.822 49.2773C204.757 49.2534 204.697 49.2153 204.648 49.1656C204.599 49.1159 204.561 49.0559 204.538 48.9899C204.514 48.9239 204.506 48.8535 204.513 48.7839V46.8603C204.534 46.6224 204.474 46.3844 204.342 46.1855C204.273 46.1106 204.189 46.0523 204.094 46.0152C204 45.9782 203.898 45.9633 203.797 45.9718C203.666 45.966 203.535 45.9884 203.413 46.0376C203.291 46.0867 203.181 46.1615 203.09 46.2568C202.998 46.3563 202.927 46.4731 202.881 46.6005C202.835 46.7279 202.815 46.8633 202.822 46.9986V48.7839C202.833 48.8539 202.828 48.9256 202.806 48.9932C202.785 49.0608 202.748 49.1224 202.698 49.173C202.648 49.2235 202.587 49.2617 202.52 49.2844C202.453 49.3071 202.382 49.3136 202.311 49.3035Z" fill="#1462B0"/>
<path d="M206.648 49.3039C206.58 49.308 206.512 49.2982 206.448 49.2752C206.384 49.2521 206.325 49.2163 206.275 49.1698C206.229 49.1175 206.194 49.0564 206.172 48.9902C206.149 48.9239 206.141 48.8539 206.146 48.7842V43.948C206.14 43.8789 206.149 43.8095 206.171 43.7439C206.193 43.6783 206.229 43.618 206.275 43.5666C206.325 43.5202 206.384 43.4843 206.448 43.4613C206.512 43.4382 206.58 43.4285 206.648 43.4325C206.717 43.4288 206.786 43.4386 206.852 43.4617C206.917 43.4847 206.977 43.5203 207.029 43.5666C207.076 43.6176 207.112 43.6778 207.135 43.7434C207.159 43.809 207.168 43.8786 207.163 43.948V46.0434H207.046C207.153 45.7695 207.349 45.5393 207.602 45.3897C207.863 45.2383 208.159 45.1601 208.46 45.1633C208.736 45.1514 209.009 45.2136 209.252 45.3436C209.461 45.4682 209.624 45.6581 209.716 45.8842C209.825 46.1774 209.877 46.4892 209.867 46.802V48.7842C209.872 48.8539 209.863 48.9239 209.841 48.9902C209.819 49.0564 209.783 49.1175 209.737 49.1698C209.688 49.2167 209.629 49.2528 209.565 49.2759C209.501 49.2989 209.433 49.3085 209.365 49.3039C209.295 49.3106 209.225 49.3017 209.16 49.2778C209.094 49.2539 209.035 49.2157 208.986 49.1659C208.937 49.1161 208.899 49.056 208.877 48.99C208.854 48.9239 208.846 48.8537 208.854 48.7842V46.8606C208.874 46.6222 208.812 46.3841 208.678 46.1859C208.61 46.1113 208.527 46.0532 208.433 46.0161C208.339 45.9791 208.239 45.964 208.138 45.9722C208.006 45.966 207.874 45.9883 207.751 46.0374C207.629 46.0866 207.518 46.1615 207.427 46.2572C207.244 46.4598 207.149 46.7265 207.163 46.9989V48.7842C207.173 48.8545 207.167 48.9263 207.145 48.9938C207.123 49.0614 207.085 49.1228 207.035 49.1733C206.986 49.2237 206.924 49.2618 206.857 49.2845C206.79 49.3072 206.718 49.3138 206.648 49.3039Z" fill="#1462B0"/>
<path d="M214.128 49.3205C213.75 49.3299 213.375 49.2419 213.04 49.0649C212.735 48.8977 212.486 48.644 212.324 48.3357C212.15 47.9934 212.064 47.6132 212.073 47.2293C212.067 46.9366 212.116 46.6454 212.215 46.3702C212.306 46.1269 212.449 45.9066 212.634 45.7248C212.818 45.5407 213.039 45.3978 213.283 45.3057C213.551 45.2088 213.835 45.1605 214.12 45.1632C214.316 45.1655 214.511 45.1908 214.702 45.2386C214.911 45.286 215.11 45.3682 215.292 45.4817C215.37 45.5253 215.431 45.595 215.464 45.6787C215.485 45.754 215.485 45.8338 215.464 45.9092C215.449 45.9851 215.413 46.0551 215.359 46.1103C215.311 46.1682 215.244 46.207 215.17 46.2193C215.083 46.2301 214.994 46.2109 214.919 46.1648C214.803 46.0971 214.68 46.0437 214.551 46.0056C214.435 45.9733 214.315 45.9563 214.195 45.9553C214.033 45.9504 213.872 45.979 213.722 46.0391C213.591 46.0949 213.472 46.1777 213.375 46.2821C213.278 46.3981 213.206 46.532 213.161 46.6761C213.11 46.8544 213.086 47.0395 213.09 47.2251C213.07 47.5646 213.171 47.9002 213.375 48.1722C213.478 48.2911 213.607 48.3841 213.752 48.4437C213.898 48.5034 214.055 48.5281 214.212 48.5159C214.331 48.5165 214.449 48.501 214.564 48.4698C214.694 48.4336 214.819 48.3815 214.936 48.3147C215.009 48.2676 215.097 48.2496 215.183 48.2644C215.254 48.2815 215.318 48.3194 215.367 48.3734C215.415 48.4326 215.445 48.5036 215.455 48.5787C215.464 48.6568 215.454 48.7359 215.426 48.8092C215.394 48.89 215.335 48.9569 215.258 48.9978C215.083 49.1068 214.89 49.1861 214.689 49.2325C214.506 49.2845 214.318 49.314 214.128 49.3205Z" fill="#1462B0"/>
<path d="M216.229 49.3039C216.161 49.3081 216.092 49.2984 216.027 49.2753C215.963 49.2523 215.903 49.2164 215.853 49.1698C215.755 49.0658 215.702 48.9271 215.706 48.7843V43.948C215.702 43.879 215.711 43.8098 215.733 43.7444C215.755 43.6789 215.79 43.6185 215.836 43.5667C215.887 43.5201 215.946 43.4842 216.011 43.4612C216.075 43.4381 216.144 43.4284 216.213 43.4326C216.281 43.4289 216.35 43.4388 216.415 43.4619C216.479 43.4849 216.539 43.5205 216.589 43.5667C216.637 43.6177 216.673 43.6778 216.696 43.7434C216.719 43.809 216.728 43.8787 216.723 43.948V46.0435H216.61C216.717 45.7686 216.913 45.5381 217.167 45.3897C217.427 45.2364 217.724 45.1581 218.025 45.1634C218.299 45.1519 218.571 45.2142 218.812 45.3436C219.022 45.4682 219.185 45.6581 219.277 45.8842C219.39 46.1766 219.442 46.4888 219.432 46.802V48.7843C219.44 48.9248 219.394 49.0631 219.302 49.1698C219.251 49.2164 219.192 49.2523 219.127 49.2753C219.062 49.2984 218.994 49.3081 218.925 49.3039C218.857 49.3076 218.788 49.2977 218.723 49.2747C218.659 49.2516 218.599 49.216 218.548 49.1698C218.501 49.1178 218.465 49.0569 218.442 48.9907C218.419 48.9244 218.41 48.8543 218.415 48.7843V46.8607C218.435 46.6223 218.373 46.3842 218.239 46.186C218.171 46.1113 218.087 46.0532 217.994 46.0161C217.9 45.9791 217.799 45.9641 217.699 45.9722C217.567 45.9663 217.435 45.9887 217.312 46.0378C217.189 46.087 217.079 46.1618 216.987 46.2572C216.805 46.4598 216.71 46.7265 216.723 46.999V48.7843C216.733 48.8526 216.727 48.9223 216.706 48.9881C216.685 49.0538 216.65 49.114 216.602 49.164C216.555 49.214 216.497 49.2526 216.432 49.2768C216.367 49.3011 216.298 49.3103 216.229 49.3039Z" fill="#1462B0"/>
<path d="M221.512 49.3204C221.222 49.3327 220.934 49.2692 220.675 49.136C220.457 49.0118 220.286 48.8187 220.19 48.587C220.078 48.2974 220.025 47.9881 220.035 47.6776V45.7037C220.024 45.6349 220.03 45.5647 220.052 45.4985C220.073 45.4323 220.11 45.372 220.158 45.3224C220.207 45.2728 220.267 45.2353 220.332 45.2127C220.398 45.1902 220.468 45.1832 220.537 45.1924C220.674 45.1832 220.81 45.2283 220.914 45.3182C220.962 45.3692 220.999 45.43 221.022 45.4965C221.045 45.5629 221.054 45.6336 221.048 45.7037V47.6902C221.03 47.9133 221.091 48.1356 221.219 48.3188C221.289 48.3913 221.374 48.4473 221.468 48.4829C221.562 48.5184 221.663 48.5325 221.764 48.5242C221.889 48.5273 222.013 48.5039 222.128 48.4555C222.244 48.4071 222.348 48.3348 222.433 48.2434C222.612 48.0372 222.705 47.7702 222.693 47.4974V45.7037C222.682 45.6349 222.688 45.5647 222.71 45.4985C222.731 45.4323 222.768 45.372 222.816 45.3224C222.865 45.2728 222.925 45.2353 222.99 45.2127C223.056 45.1902 223.126 45.1832 223.195 45.1924C223.332 45.1832 223.468 45.2283 223.572 45.3182C223.621 45.369 223.658 45.4296 223.682 45.4961C223.706 45.5626 223.716 45.6333 223.71 45.7037V48.784C223.71 49.1318 223.543 49.3037 223.212 49.3037C223.145 49.3078 223.078 49.2981 223.016 49.275C222.953 49.2519 222.896 49.216 222.848 49.1696C222.801 49.1172 222.766 49.0561 222.744 48.9899C222.722 48.9237 222.713 48.8537 222.718 48.784V48.1637L222.831 48.4068C222.736 48.6825 222.555 48.9202 222.314 49.0847C222.074 49.2492 221.787 49.3319 221.496 49.3204H221.512Z" fill="#1462B0"/>
<path d="M226.171 49.3205C225.799 49.3298 225.43 49.2432 225.1 49.0691C224.798 48.9036 224.552 48.6529 224.392 48.3482C224.218 48.0075 224.132 47.6286 224.141 47.246C224.136 46.9534 224.184 46.6621 224.284 46.3869C224.37 46.1429 224.509 45.9208 224.691 45.7362C224.872 45.5516 225.092 45.409 225.334 45.3183C225.602 45.2194 225.886 45.1711 226.171 45.1758C226.546 45.1665 226.916 45.2531 227.247 45.4272C227.546 45.5946 227.791 45.8431 227.955 46.1439C228.129 46.4844 228.215 46.8634 228.206 47.246C228.209 47.5385 228.16 47.8293 228.063 48.1052C227.97 48.3508 227.828 48.5747 227.645 48.7631C227.462 48.9473 227.243 49.0902 227 49.1822C226.735 49.279 226.454 49.3259 226.171 49.3205ZM225.025 43.4533C224.99 43.4529 224.957 43.4447 224.927 43.4295C224.896 43.4142 224.869 43.3923 224.849 43.3653C224.83 43.3336 224.817 43.2981 224.813 43.2612C224.809 43.2243 224.812 43.187 224.824 43.1516C224.865 42.9699 224.971 42.8092 225.121 42.699C225.271 42.592 225.452 42.5375 225.636 42.5439C225.773 42.5418 225.909 42.572 226.033 42.6319C226.155 42.6906 226.268 42.7535 226.372 42.8121C226.468 42.8683 226.576 42.8986 226.686 42.9001C226.761 42.9016 226.835 42.8874 226.904 42.8582C226.968 42.8278 227.017 42.7737 227.042 42.7074C227.063 42.6509 227.101 42.6025 227.151 42.5691C227.203 42.5348 227.265 42.52 227.327 42.5272C227.361 42.5282 227.394 42.5361 227.425 42.5505C227.456 42.5649 227.484 42.5855 227.507 42.611C227.528 42.6426 227.541 42.679 227.546 42.7169C227.55 42.7548 227.545 42.7932 227.532 42.8289C227.49 43.0103 227.384 43.1708 227.235 43.2815C227.083 43.3874 226.901 43.4417 226.716 43.4366C226.571 43.4409 226.428 43.4107 226.297 43.3486C226.182 43.2945 226.07 43.2344 225.962 43.1684C225.868 43.1129 225.761 43.0826 225.652 43.0804C225.576 43.0798 225.5 43.0956 225.431 43.1265C225.367 43.1569 225.317 43.211 225.292 43.2773C225.276 43.3371 225.237 43.3883 225.184 43.4209C225.132 43.4535 225.069 43.4651 225.008 43.4533H225.025ZM225.443 44.7399C225.41 44.773 225.37 44.7969 225.325 44.8094C225.28 44.8219 225.233 44.8225 225.188 44.8112C225.15 44.8015 225.115 44.7833 225.085 44.7578C225.055 44.7324 225.032 44.7005 225.016 44.6645C225.002 44.6256 224.999 44.5834 225.009 44.5431C225.019 44.5028 225.04 44.4663 225.071 44.4382L225.552 43.8682C225.63 43.7709 225.73 43.6945 225.845 43.6461C225.95 43.6036 226.062 43.5823 226.176 43.5833C226.257 43.584 226.339 43.5938 226.418 43.6126C226.491 43.6329 226.56 43.664 226.624 43.7048C226.694 43.7496 226.758 43.8046 226.812 43.8682L227.281 44.4382C227.304 44.46 227.321 44.4869 227.332 44.5167C227.343 44.5465 227.347 44.5785 227.343 44.61C227.336 44.6683 227.308 44.7219 227.264 44.7609C227.244 44.7814 227.22 44.7976 227.193 44.8085C227.166 44.8193 227.138 44.8245 227.109 44.8237C227.035 44.8184 226.964 44.789 226.908 44.7399L226.171 44.1406L225.443 44.7399ZM226.176 48.541C226.365 48.5472 226.551 48.4944 226.71 48.3901C226.868 48.2858 226.99 48.135 227.059 47.9585C227.149 47.7307 227.192 47.4868 227.184 47.2419C227.211 46.8939 227.113 46.5479 226.908 46.2654C226.818 46.1604 226.705 46.0772 226.578 46.0221C226.452 45.9669 226.314 45.9412 226.176 45.9469C225.99 45.9422 225.806 45.9917 225.648 46.0894C225.49 46.1896 225.366 46.3358 225.292 46.5085C225.202 46.7376 225.159 46.983 225.167 47.2293C225.143 47.5757 225.24 47.9197 225.443 48.2016C225.53 48.3106 225.641 48.3982 225.768 48.4577C225.894 48.5173 226.032 48.5472 226.171 48.5452L226.176 48.541Z" fill="#1462B0"/>
<path d="M229.156 44.4425C228.995 44.4521 228.837 44.4013 228.712 44.3C228.61 44.1933 228.554 44.0515 228.554 43.904C228.554 43.7566 228.61 43.6147 228.712 43.508C228.838 43.4097 228.996 43.3605 229.156 43.3697C229.317 43.3587 229.477 43.408 229.604 43.508C229.703 43.6157 229.759 43.7571 229.759 43.904C229.759 44.0509 229.703 44.1923 229.604 44.3C229.478 44.4034 229.318 44.4544 229.156 44.4425ZM229.156 49.2955C229.087 49.3001 229.017 49.2894 228.953 49.264C228.889 49.2386 228.831 49.1993 228.783 49.1488C228.687 49.0312 228.641 48.881 228.653 48.7298V45.7417C228.64 45.5904 228.687 45.44 228.783 45.3226C228.831 45.2729 228.889 45.2344 228.954 45.2097C229.018 45.1851 229.087 45.175 229.156 45.1801C229.225 45.1752 229.295 45.1854 229.36 45.21C229.425 45.2346 229.484 45.273 229.532 45.3226C229.582 45.38 229.619 45.4466 229.642 45.5186C229.665 45.5906 229.673 45.6664 229.666 45.7417V48.7298C229.679 48.881 229.632 49.0312 229.537 49.1488C229.488 49.1997 229.428 49.2393 229.362 49.2646C229.297 49.2899 229.226 49.3005 229.156 49.2955Z" fill="#1462B0"/>
<path d="M232.751 49.3042C232.679 49.3088 232.607 49.2986 232.54 49.274C232.472 49.2495 232.41 49.2113 232.358 49.1617C232.306 49.1056 232.267 49.0393 232.243 48.9672C232.218 48.895 232.209 48.8185 232.215 48.7426V44.0531C232.209 43.9771 232.218 43.9007 232.243 43.8285C232.267 43.7564 232.306 43.6901 232.358 43.634C232.414 43.5822 232.48 43.5428 232.552 43.5183C232.624 43.4937 232.701 43.4846 232.776 43.4915H235.614C235.671 43.4867 235.728 43.4935 235.782 43.5115C235.836 43.5295 235.886 43.5584 235.928 43.5963C235.965 43.6369 235.994 43.6845 236.013 43.7363C236.031 43.7881 236.04 43.843 236.037 43.898C236.041 43.9551 236.034 44.0124 236.015 44.0664C235.997 44.1205 235.967 44.1701 235.928 44.2123C235.886 44.251 235.837 44.2806 235.783 44.2993C235.729 44.3181 235.671 44.3255 235.614 44.3213H233.262V45.9431H235.443C235.499 45.9383 235.557 45.9451 235.611 45.9631C235.665 45.9812 235.714 46.01 235.757 46.0479C235.794 46.0886 235.822 46.1362 235.841 46.1879C235.86 46.2397 235.868 46.2947 235.866 46.3496C235.871 46.4061 235.865 46.4632 235.846 46.5168C235.827 46.5703 235.796 46.6189 235.756 46.6591C235.716 46.6993 235.667 46.73 235.614 46.7489C235.56 46.7679 235.503 46.7747 235.447 46.7687H233.266V48.7384C233.258 49.1156 233.086 49.3042 232.751 49.3042Z" fill="#1462B0"/>
<path d="M238.197 49.3203C237.836 49.3282 237.477 49.2611 237.143 49.1233C236.867 49.0126 236.629 48.825 236.456 48.5827C236.291 48.3458 236.206 48.0625 236.213 47.7739C236.211 47.5975 236.238 47.422 236.293 47.2542C236.343 47.0948 236.42 46.9447 236.519 46.81C236.625 46.6657 236.748 46.5336 236.883 46.416C237.038 46.2886 237.203 46.1737 237.377 46.0724L237.653 45.909L237.507 46.1269C237.3 45.93 237.126 45.7007 236.992 45.448C236.887 45.2431 236.832 45.0161 236.833 44.7858C236.827 44.5333 236.894 44.2845 237.025 44.0692C237.163 43.8605 237.356 43.6938 237.582 43.5872C237.845 43.4695 238.131 43.4122 238.419 43.4196C238.8 43.3975 239.176 43.5168 239.474 43.7549C239.603 43.8691 239.705 44.0108 239.773 44.1696C239.84 44.3284 239.871 44.5003 239.863 44.6727C239.866 44.8747 239.824 45.0748 239.742 45.2594C239.65 45.4605 239.518 45.6404 239.353 45.7874C239.136 45.9821 238.896 46.1482 238.637 46.2819V46.0389L240.018 47.514H239.801C239.877 47.3812 239.938 47.2408 239.985 47.095C240.042 46.9442 240.091 46.7903 240.131 46.634C240.171 46.4625 240.202 46.289 240.223 46.1143C240.234 46.0011 240.283 45.8948 240.362 45.8126C240.448 45.7407 240.557 45.7013 240.669 45.7013C240.782 45.7013 240.89 45.7407 240.977 45.8126C241.014 45.8598 241.041 45.9145 241.056 45.9731C241.07 46.0317 241.072 46.0927 241.061 46.152C241.034 46.3981 240.99 46.6419 240.927 46.8812C240.867 47.1013 240.789 47.3158 240.692 47.5224C240.606 47.7135 240.503 47.8972 240.387 48.0714V47.82L241.157 48.6037C241.203 48.6413 241.241 48.6884 241.268 48.7419C241.295 48.7954 241.31 48.854 241.312 48.9138C241.313 48.9625 241.303 49.0108 241.282 49.0551C241.262 49.0993 241.232 49.1384 241.195 49.1694C241.103 49.2408 240.988 49.2765 240.872 49.27C240.77 49.2748 240.669 49.2516 240.579 49.203C240.488 49.1429 240.404 49.0726 240.328 48.9934L239.826 48.4654H240.06C239.825 48.7199 239.54 48.9239 239.223 49.0647C238.904 49.224 238.554 49.3112 238.197 49.3203ZM238.256 48.5157C238.496 48.5198 238.734 48.4682 238.951 48.3648C239.166 48.2541 239.355 48.1 239.508 47.9122L239.482 48.172L237.808 46.437L238.227 46.4789L237.992 46.6172C237.831 46.7074 237.681 46.8157 237.544 46.9399C237.439 47.0349 237.353 47.1504 237.293 47.2794C237.24 47.4126 237.215 47.5551 237.218 47.6984C237.212 47.813 237.234 47.9273 237.28 48.0321C237.327 48.1369 237.397 48.2293 237.486 48.3019C237.71 48.4603 237.982 48.5359 238.256 48.5157ZM238.419 44.1404C238.246 44.1333 238.077 44.1933 237.946 44.3081C237.886 44.3662 237.838 44.4367 237.807 44.5148C237.776 44.5929 237.762 44.6767 237.766 44.7607C237.765 44.8593 237.782 44.9573 237.816 45.0498C237.858 45.1559 237.916 45.2549 237.988 45.3432C238.068 45.448 238.181 45.5779 238.319 45.7287H238.093C238.28 45.6236 238.46 45.5075 238.633 45.3809C238.748 45.2975 238.847 45.1921 238.922 45.0708C238.98 44.9659 239.011 44.8474 239.009 44.7271C239.013 44.6501 239.001 44.573 238.974 44.5009C238.947 44.4287 238.904 44.3631 238.85 44.3081C238.733 44.1996 238.579 44.1398 238.419 44.1404Z" fill="#1462B0"/>
<path d="M242.425 49.2367C242.35 49.2463 242.274 49.2386 242.203 49.2141C242.132 49.1897 242.067 49.1493 242.013 49.0959C241.96 49.0424 241.92 48.9775 241.895 48.906C241.871 48.8346 241.863 48.7584 241.873 48.6835V44.0526C241.867 43.9768 241.877 43.9006 241.901 43.8286C241.926 43.7566 241.964 43.6902 242.015 43.6336C242.071 43.5824 242.138 43.5434 242.21 43.5189C242.281 43.4944 242.358 43.4849 242.434 43.4911H244.388C244.737 43.4813 245.085 43.5426 245.41 43.6713C245.672 43.7729 245.898 43.951 246.059 44.1826C246.21 44.4316 246.282 44.7213 246.264 45.0123C246.273 45.3312 246.165 45.6425 245.962 45.8882C245.746 46.139 245.451 46.3089 245.125 46.3702V46.2486C245.481 46.2839 245.812 46.446 246.059 46.7054C246.29 46.9668 246.41 47.3081 246.393 47.6568C246.406 47.8804 246.366 48.1038 246.277 48.3091C246.187 48.5144 246.051 48.6958 245.879 48.8386C245.463 49.1408 244.955 49.2889 244.443 49.2577L242.425 49.2367ZM242.873 45.9343H244.2C244.482 45.9545 244.763 45.8809 244.999 45.7248C245.084 45.6463 245.151 45.5513 245.197 45.4457C245.243 45.3401 245.267 45.2261 245.267 45.1108C245.267 44.9956 245.243 44.8816 245.197 44.776C245.151 44.6703 245.084 44.5753 244.999 44.4969C244.763 44.3408 244.482 44.2671 244.2 44.2873H242.873V45.9343ZM242.873 48.4488H244.338C244.625 48.473 244.912 48.3975 245.15 48.2351C245.239 48.1534 245.309 48.0525 245.354 47.94C245.399 47.8275 245.418 47.7064 245.41 47.5855C245.419 47.4646 245.401 47.343 245.356 47.2303C245.311 47.1176 245.24 47.0169 245.15 46.9359C244.912 46.7735 244.625 46.698 244.338 46.7222H242.873V48.4488Z" fill="#1462B0"/>
<path d="M94.0338 7.39551H105.806C106.18 7.39551 106.54 7.54458 106.805 7.8099C107.07 8.07523 107.219 8.43509 107.219 8.81032V10.2877C107.219 10.6629 107.07 11.0228 106.805 11.2881C106.54 11.5534 106.18 11.7025 105.806 11.7025H102.287V36.0921C102.287 36.4673 102.139 36.8272 101.874 37.0925C101.609 37.3578 101.249 37.5069 100.874 37.5069H98.9818C98.6066 37.5069 98.2468 37.3579 97.9811 37.0927C97.7154 36.8275 97.5656 36.4677 97.5645 36.0921V11.7025H94.0296C93.6544 11.7025 93.2946 11.5536 93.0289 11.2884C92.7632 11.0232 92.6134 10.6633 92.6123 10.2877V8.81032C92.6129 8.62397 92.65 8.43956 92.7218 8.26761C92.7935 8.09566 92.8984 7.93955 93.0304 7.80817C93.1624 7.67679 93.3189 7.57273 93.4911 7.50193C93.6632 7.43112 93.8476 7.39497 94.0338 7.39551Z" fill="#1462B0"/>
<path d="M121.438 20.1078H126.577C126.757 20.1073 126.934 20.1421 127.1 20.2105C127.266 20.2788 127.417 20.3792 127.544 20.506C127.671 20.6328 127.772 20.7834 127.84 20.9493C127.909 21.1151 127.945 21.2929 127.945 21.4725V23.025C127.945 23.2046 127.909 23.3824 127.84 23.5483C127.772 23.7141 127.671 23.8647 127.544 23.9915C127.417 24.1183 127.266 24.2187 127.1 24.2871C126.934 24.3554 126.757 24.3903 126.577 24.3897H121.438V33.2166H128.232C128.595 33.2166 128.943 33.3608 129.199 33.6175C129.455 33.8742 129.599 34.2224 129.599 34.5855V36.1547C129.599 36.5177 129.455 36.8659 129.199 37.1226C128.943 37.3793 128.595 37.5235 128.232 37.5235H118.595C118.348 37.5235 118.104 37.4748 117.876 37.3802C117.648 37.2856 117.441 37.1468 117.267 36.972C117.092 36.7972 116.954 36.5896 116.86 36.3613C116.766 36.133 116.718 35.8883 116.719 35.6413V9.27355C116.719 8.77547 116.916 8.29778 117.268 7.94558C117.62 7.59337 118.097 7.39551 118.595 7.39551H128.232C128.595 7.39551 128.943 7.53973 129.199 7.79645C129.455 8.05316 129.599 8.40134 129.599 8.76439V10.3336C129.599 10.6967 129.455 11.0448 129.199 11.3016C128.943 11.5583 128.595 11.7025 128.232 11.7025H121.438V20.1078Z" fill="#1462B0"/>
<path d="M152.076 26.2844C152.259 26.2838 152.44 26.3194 152.608 26.389C152.777 26.4586 152.931 26.5608 153.06 26.6899C153.19 26.8191 153.292 26.9724 153.362 27.1413C153.432 27.3102 153.468 27.4913 153.468 27.6741V30.295C153.468 35.3365 151.119 37.8573 146.419 37.8573C141.72 37.8573 139.369 35.3365 139.366 30.295V14.6238C139.366 9.58228 141.717 7.06152 146.419 7.06152C151.121 7.06152 153.471 9.58228 153.468 14.6238V16.1721C153.468 16.355 153.432 16.5361 153.362 16.7049C153.292 16.8738 153.19 17.0272 153.06 17.1563C152.931 17.2854 152.777 17.3877 152.608 17.4573C152.44 17.5269 152.259 17.5624 152.076 17.5619H150.367C149.999 17.5619 149.646 17.4155 149.385 17.1548C149.125 16.8942 148.979 16.5407 148.979 16.1721V14.3316C148.979 12.3534 148.16 11.3657 146.524 11.3685C144.887 11.3713 144.068 12.359 144.068 14.3316V30.608C144.068 32.5696 144.887 33.5434 146.524 33.5295C148.16 33.5155 148.979 32.5417 148.979 30.608V27.6866C148.979 27.3181 149.125 26.9646 149.385 26.7039C149.646 26.4433 149.999 26.2969 150.367 26.2969L152.076 26.2844Z" fill="#1462B0"/>
<path d="M165.349 37.5232H163.719C163.31 37.5221 162.917 37.3585 162.628 37.0682C162.339 36.778 162.177 36.3848 162.177 35.9748V8.96436C162.177 8.55443 162.339 8.16123 162.628 7.87098C162.917 7.58073 163.31 7.41712 163.719 7.41602H165.349C165.759 7.41602 166.153 7.57915 166.443 7.86952C166.733 8.15989 166.896 8.55371 166.896 8.96436V20.3161H172.269V8.96436C172.269 8.55371 172.432 8.15989 172.722 7.86952C173.012 7.57915 173.405 7.41602 173.815 7.41602H175.545C175.955 7.41712 176.347 7.58073 176.636 7.87098C176.925 8.16123 177.088 8.55443 177.088 8.96436V35.9957C177.088 36.4063 176.925 36.8002 176.635 37.0905C176.345 37.3809 175.951 37.5441 175.541 37.5441H173.811C173.401 37.5441 173.008 37.3809 172.718 37.0905C172.427 36.8002 172.265 36.4063 172.265 35.9957V24.644H166.896V35.9957C166.89 36.4027 166.725 36.7912 166.435 37.0771C166.146 37.363 165.756 37.5232 165.349 37.5232Z" fill="#1462B0"/>
<path d="M196.518 37.5236C196.345 37.5236 196.174 37.4894 196.015 37.423C195.856 37.3566 195.711 37.2594 195.589 37.1368C195.468 37.0142 195.371 36.8688 195.306 36.7088C195.241 36.5489 195.208 36.3775 195.209 36.2047L195.242 29.1099C195.242 26.5474 194.207 25.2662 192.137 25.2662H190.499V36.0795C190.499 36.4658 190.345 36.8363 190.072 37.1095C189.8 37.3826 189.43 37.5361 189.044 37.5361H187.235C186.849 37.5361 186.479 37.3826 186.206 37.1095C185.933 36.8363 185.78 36.4658 185.78 36.0795V8.85205C185.78 8.46575 185.933 8.09528 186.206 7.82212C186.479 7.54897 186.849 7.39551 187.235 7.39551H192.929C197.603 7.39551 199.94 9.70759 199.94 14.3318V16.7023C199.94 19.799 198.905 21.837 196.835 22.8164C198.933 23.6844 199.982 25.8198 199.982 29.2226V36.2131C199.981 36.5603 199.843 36.893 199.597 37.1385C199.352 37.384 199.02 37.5224 198.673 37.5236H196.518ZM190.499 11.7025V20.9675H192.349C194.25 20.9675 195.201 19.9033 195.201 17.7748V14.8075C195.201 12.7347 194.396 11.6983 192.787 11.6983L190.499 11.7025Z" fill="#E96012"/>
<path d="M214.386 20.1078H219.259C219.691 20.1078 220.106 20.2796 220.413 20.5855C220.719 20.8914 220.892 21.3064 220.893 21.7396V22.7579C220.892 23.1911 220.719 23.6061 220.413 23.9121C220.106 24.218 219.691 24.3897 219.259 24.3897H214.386V33.2166H220.918C221.132 33.2166 221.345 33.2589 221.543 33.3412C221.741 33.4234 221.92 33.544 222.072 33.696C222.223 33.848 222.343 34.0283 222.425 34.2268C222.507 34.4253 222.548 34.6379 222.548 34.8525V35.8876C222.548 36.3207 222.376 36.7362 222.071 37.0429C221.765 37.3496 221.351 37.5224 220.918 37.5235H211.297C210.864 37.5224 210.45 37.3496 210.144 37.0429C209.839 36.7362 209.667 36.3207 209.667 35.8876V9.0315C209.666 8.81686 209.708 8.60422 209.79 8.40575C209.872 8.20729 209.992 8.0269 210.143 7.87493C210.294 7.72296 210.474 7.60239 210.672 7.52012C210.87 7.43785 211.083 7.39551 211.297 7.39551H220.918C221.132 7.39551 221.345 7.43785 221.543 7.52012C221.741 7.60239 221.92 7.72296 222.072 7.87493C222.223 8.0269 222.343 8.20729 222.425 8.40575C222.507 8.60422 222.548 8.81686 222.548 9.0315V10.0665C222.548 10.2812 222.507 10.4938 222.425 10.6923C222.343 10.8907 222.223 11.0711 222.072 11.2231C221.92 11.375 221.741 11.4956 221.543 11.5779C221.345 11.6602 221.132 11.7025 220.918 11.7025H214.386V20.1078Z" fill="#E96012"/>
<path d="M244.95 25.0451C244.519 24.3458 244.019 23.6915 243.458 23.092C242.93 22.5076 242.374 21.9504 241.79 21.4226C241.661 21.3099 241.515 21.1764 241.348 21.0052L240.098 19.8283C239.565 19.3307 239.067 18.7981 238.605 18.2341C237.695 17.1335 237.186 15.7563 237.159 14.3277C237.159 12.3495 237.95 11.3618 239.531 11.3646C241.112 11.3674 241.903 12.3551 241.903 14.3277V15.2543C241.904 15.5494 242.021 15.8322 242.23 16.041C242.438 16.2497 242.721 16.3675 243.016 16.3686H245.258C245.553 16.3675 245.836 16.2497 246.044 16.041C246.253 15.8322 246.37 15.5494 246.371 15.2543V14.478C246.324 9.53664 244.005 7.06318 239.414 7.05762C234.77 7.05762 232.449 9.57837 232.449 14.6199C232.427 16.478 232.928 18.3048 233.895 19.8909C234.327 20.5765 234.818 21.2231 235.362 21.8232C235.796 22.3046 236.363 22.861 237.063 23.4926L238.764 25.0702C239.292 25.5784 239.789 26.1177 240.252 26.6853C241.154 27.7822 241.657 29.154 241.678 30.5749C241.678 32.5364 240.868 33.5102 239.247 33.4963C237.627 33.4824 236.809 32.5086 236.792 30.5749V28.6677C236.791 28.3204 236.653 27.9878 236.408 27.7422C236.162 27.4967 235.83 27.3583 235.483 27.3572H233.628C233.281 27.3583 232.949 27.4967 232.704 27.7422C232.459 27.9878 232.32 28.3204 232.319 28.6677V30.2786C232.319 35.3201 234.67 37.8409 239.372 37.8409C244.075 37.8409 246.424 35.3201 246.421 30.2786C246.432 28.4303 245.922 26.6164 244.95 25.0451Z" fill="#E96012"/>
<path d="M254.593 13.8793C253.947 13.8793 253.363 13.7309 252.841 13.434C252.325 13.1371 251.921 12.7297 251.627 12.2118C251.333 11.6938 251.187 11.1127 251.187 10.4685C251.187 9.82419 251.333 9.24309 251.627 8.72514C251.921 8.2072 252.325 7.79979 252.841 7.50292C253.363 7.20605 253.947 7.05762 254.593 7.05762C255.239 7.05762 255.82 7.20605 256.336 7.50292C256.858 7.79979 257.266 8.2072 257.56 8.72514C257.853 9.24309 258 9.82419 258 10.4685C258 11.1127 257.853 11.6938 257.56 12.2118C257.266 12.7297 256.858 13.1371 256.336 13.434C255.82 13.7309 255.239 13.8793 254.593 13.8793ZM254.593 13.2161C255.109 13.2161 255.572 13.0992 255.983 12.8655C256.395 12.6318 256.714 12.3065 256.943 11.8897C257.178 11.4665 257.295 10.9927 257.295 10.4685C257.295 9.94421 257.178 9.47364 256.943 9.05675C256.714 8.63356 256.395 8.3051 255.983 8.0714C255.572 7.83769 255.109 7.72084 254.593 7.72084C254.078 7.72084 253.614 7.83769 253.203 8.0714C252.792 8.3051 252.469 8.63356 252.234 9.05675C252.006 9.47364 251.891 9.94421 251.891 10.4685C251.891 10.9927 252.006 11.4665 252.234 11.8897C252.469 12.3065 252.792 12.6318 253.203 12.8655C253.614 13.0992 254.078 13.2161 254.593 13.2161ZM253.516 8.44091H254.652C255.031 8.44091 255.308 8.52934 255.484 8.70619C255.667 8.87674 255.758 9.14203 255.758 9.50206V9.58733C255.758 10.0295 255.589 10.3232 255.249 10.4685V10.4874C255.432 10.5632 255.563 10.6801 255.641 10.838C255.719 10.9959 255.758 11.2012 255.758 11.4538V11.937C255.758 12.1834 255.788 12.3697 255.846 12.496H255.083C255.057 12.4265 255.037 12.3602 255.024 12.2971C255.018 12.2276 255.014 12.1044 255.014 11.9276V11.4443C255.014 11.2296 254.975 11.078 254.897 10.9896C254.819 10.9011 254.691 10.8569 254.515 10.8569H254.26V12.496H253.516V8.44091ZM254.564 10.1937C254.708 10.1937 254.819 10.159 254.897 10.0895C254.975 10.0137 255.014 9.88736 255.014 9.7105V9.58733C255.014 9.4231 254.982 9.30309 254.916 9.2273C254.858 9.14518 254.757 9.10413 254.613 9.10413H254.26V10.1937H254.564Z" fill="#E96012"/>
<defs>
<linearGradient id="paint0_linear_315_14895" x1="55.0457" y1="30.5745" x2="73.7847" y2="30.5745" gradientUnits="userSpaceOnUse">
<stop stop-color="#E96012"/>
<stop offset="1" stop-color="#F38E25"/>
</linearGradient>
<linearGradient id="paint1_linear_315_14895" x1="27.6029" y1="28.9933" x2="49.2494" y2="28.9933" gradientUnits="userSpaceOnUse">
<stop stop-color="#47A5E2"/>
<stop offset="1" stop-color="#1462B0"/>
</linearGradient>
</defs>
</svg>
